<?xml version="1.0" encoding="UTF-8" standalone="no"?>
<!-- Created with Inkscape (http://www.inkscape.org/) -->

<svg
   version="1.1"
   id="svg2"
   width="214.19704"
   height="209.16481"
   viewBox="0 0 214.19703 209.16481"
   sodipodi:docname="corner_laurel_bottom_right_AdobeStock_472550524.svg"
   inkscape:version="1.2 (dc2aedaf03, 2022-05-15)"
   xmlns:inkscape="http://www.inkscape.org/namespaces/inkscape"
   xmlns:sodipodi="http://sodipodi.sourceforge.net/DTD/sodipodi-0.dtd"
   xmlns="http://www.w3.org/2000/svg"
   xmlns:svg="http://www.w3.org/2000/svg">
  <defs
     id="defs6" />
  <sodipodi:namedview
     id="namedview4"
     pagecolor="#ffffff"
     bordercolor="#666666"
     borderopacity="1.0"
     inkscape:showpageshadow="2"
     inkscape:pageopacity="0.0"
     inkscape:pagecheckerboard="0"
     inkscape:deskcolor="#d1d1d1"
     showgrid="false"
     inkscape:zoom="5.7215072"
     inkscape:cx="107.22699"
     inkscape:cy="106.70265"
     inkscape:window-width="3828"
     inkscape:window-height="2099"
     inkscape:window-x="0"
     inkscape:window-y="41"
     inkscape:window-maximized="0"
     inkscape:current-layer="g8" />
  <g
     inkscape:groupmode="layer"
     inkscape:label="Image"
     id="g8"
     transform="translate(-3.3276099,-3.902879)">
    <path
       style="fill:#2b2200;stroke-width:0.32"
       d="m 191.45966,4.1921307 c 0.80325,0.60539 1.39544,2.29558 2.80265,7.9991703 2.85365,11.56618 2.46848,18.47439 -1.5914,28.54301 -1.56886,3.89079 -2.57729,7.29607 -2.56392,8.65782 0.004,0.352 0.40807,-0.378 0.89914,-1.62224 2.09143,-5.29906 5.57877,-10.05556 10.46578,-14.27462 1.69662,-1.46473 4.02056,-3.49114 5.16431,-4.50314 3.27128,-2.89444 4.16706,-2.0151 3.8303,3.76 -0.4863,8.33986 -1.5633,10.20684 -11.64824,20.19224 -8.11232,8.03224 -8.11232,8.03224 -8.01967,10.96282 0.0926,2.93058 0.0926,2.93058 1.2155,1.41159 3.17199,-4.29098 4.03411,-1.3818 1.56247,5.27244 -1.75762,4.73192 -1.89778,6.43384 -0.96856,11.76091 0.1535,0.88 0.46772,2.9303 0.69828,4.55622 0.23055,1.62592 0.45765,2.91775 0.50467,2.87073 0.047,-0.047 0.31809,-1.2116 0.60238,-2.58796 1.3122,-6.35275 6.17255,-18.44559 9.20386,-22.89975 6.04825,-8.88722 9.54063,-11.86649 9.30656,-7.93924 -0.0551,0.924 -0.16329,4.2 -0.24049,7.28 -0.27612,11.01664 -2.53162,18.90526 -7.54824,26.4 -7.40671,11.065509 -9.05599,16.319349 -7.94948,25.323299 0.37432,3.04591 0.37432,3.04591 1.13037,1.02131 2.7944,-7.48314 6.18884,-12.73905 11.60954,-17.976129 5.77556,-5.57991 6.2673,-5.46575 5.97295,1.38668 -0.52557,12.234819 -1.77503,15.389049 -9.50884,24.004849 -7.34002,8.17708 -12.18298,17.69606 -7.69183,15.11849 2.90358,-1.66643 3.18951,0.6665 0.63751,5.20151 -1.27759,2.27034 -1.68484,3.35418 -1.92385,5.12 -0.35045,2.58919 -0.81978,7.52 -0.71578,7.52 0.0389,0 1.04002,-1.764 2.22479,-3.92 2.61731,-4.76289 4.70474,-8.02881 8.12472,-12.71165 3.62256,-4.96021 5.29991,-7.61964 6.29364,-9.97854 2.87385,-6.82185 5.48255,1.24938 3.48104,10.77019 -2.25121,10.70851 -4.15281,14.05881 -12.44165,21.92 -9.32796,8.8467 -9.38598,8.94461 -10.01317,16.8973 -0.72567,9.20159 -1.26279,11.61488 -2.6856,12.06646 -0.97742,0.31022 -1.58815,-0.3914 -1.58815,-1.82451 0,-1.09653 -0.0802,-1.23692 -0.61065,-1.06857 -0.93585,0.29703 -5.15577,0.7691 -10.04145,1.12332 -7.07468,0.51291 -8.70602,1.26059 -13.1879,6.04427 -7.22495,7.71145 -12.94032,12.62571 -16.04658,13.79738 -12.7851,4.82249 -31.96705,3.9374 -20.27342,-0.93544 1.98302,-0.82634 5.96331,-3.39901 11.78424,-7.61678 3.54712,-2.57019 6.39879,-4.31779 12.85576,-7.8784 1.88096,-1.03724 1.97282,-1.13267 0.96,-0.9973 -0.616,0.0823 -2.776,0.30009 -4.8,0.48391 -2.90196,0.26356 -3.98446,0.5025 -5.12,1.13012 -3.75227,2.0739 -6.07016,3.06449 -6.70164,2.86407 -0.90741,-0.288 -1.17254,-1.58182 -0.52626,-2.56816 0.52265,-0.79767 0.52265,-0.79767 -1.51365,-0.79767 -3.10835,0 -6.33948,2.03857 -13.63569,8.60299 -8.51025,7.65669 -11.85573,8.98992 -23.862763,9.50969 -6.86276,0.29709 -7.04234,-0.27086 -1.80988,-5.72416 5.067133,-5.28099 8.980483,-7.92433 16.512923,-11.15391 4.02829,-1.72716 4.1412,-1.62346 -2.35557,-2.16352 -6.32977,-0.52618 -10.80485,1.07396 -20.987473,7.50442 -10.07967,6.36543 -17.28899,8.3749 -30.32,8.45112 -8.70624,0.0509 -8.70903,-0.18341 -0.08,-6.69855 6.47295,-4.88725 15.87399,-9.11456 25.56746,-11.49678 3.48746,-0.85706 3.48746,-0.85706 -3.27464,-1.89796 -7.6831,-1.18266 -7.09446,-1.23115 -13.24225,1.09064 -6.02069,2.27379 -8.72579,1.23629 -4.64392,-1.78111 1.51898,-1.12287 1.51898,-1.12287 -1.41834,-1.2156 -2.93733,-0.0927 -2.93733,-0.0927 -10.80282,7.91468 -8.58408,8.73896 -9.83376,9.64733 -15.22549,11.06707 -4.13554,1.08896 -10.03881,0.91379 -10.50913,-0.31184 -0.24372,-0.63512 2.76659,-4.44598 7.94913,-10.06307 2.90135,-3.14463 8.71322,-7.02945 12.77107,-8.53656 0.86409,-0.32093 1.39996,-0.64054 1.19084,-0.71025 -0.69947,-0.23315 -3.68296,0.6392 -8.11616,2.37311 -10.74875,4.20405 -18.09063,4.52568 -30.48575,1.33552 -7.47964,-1.92505 -8.35375,-2.95053 -4.58905,-5.38377 9.98758,-6.45529 24.91548,-7.5535 36.64943,-2.69622 2.63837,1.09216 6.09562,1.75272 9.05962,1.73099 1.12,-0.008 1.12,-0.008 -0.85219,-1.83757 -3.60637,-3.3452 -2.47454,-5.40528 1.49646,-2.72375 3.08979,2.08646 7.72699,4.5869 8.75719,4.72199 0.5492,0.072 2.87054,0.21721 5.15854,0.32267 5.20784,0.24003 9.81768,0.70015 13.09047,1.30658 1.39175,0.25789 2.58895,0.4104 2.66044,0.33891 0.18219,-0.18219 -3.48668,-1.36382 -6.07176,-1.95553 -7.27698,-1.66565 -9.82641,-3.16791 -18.47915,-10.8889 -7.05972,-6.29951 -6.30325,-7.25458 4.32,-5.45419 9.33003,1.58122 12.26839,2.77013 17.67109,7.15004 1.78484,1.44695 5.13919,5.98797 6.98187,9.45186 0.81367,1.52953 1.57561,2.78205 1.69322,2.78338 0.1176,0.001 1.14982,0.15766 2.29382,0.34741 7.89503,1.30951 8.84178,1.34529 7.34222,0.27751 -4.44454,-3.16479 -1.3574,-5.68567 3.188843,-2.60392 7.20822,4.88622 15.08727,7.24988 13.57154,4.07136 -0.75833,-1.59023 -0.22559,-2.73478 1.27294,-2.73478 1.07449,0 1.70078,0.42897 4.84699,3.3199 1.26253,1.1601 1.26253,1.1601 7.52,1.13638 7.67471,-0.0291 10.56071,-0.35292 6.57747,-0.73805 -6.57823,-0.63601 -11.60567,-2.56776 -20.32,-7.80778 -11.98543,-7.20696 -11.96881,-7.59983 0.32,-7.56679 19.02538,0.0512 21.15589,0.83336 34.79477,12.77498 2.41018,2.11026 2.78855,2.2187 6.7145,1.92436 2.39435,-0.17952 2.94951,-0.30542 2.46969,-0.56012 -1.95315,-1.03673 -2.90054,-2.79331 -1.99496,-3.69888 0.64899,-0.649 1.5577,-0.43902 5.376,1.24224 3.68,1.62037 3.68,1.62037 7.84,1.40484 4.79588,-0.24847 4.84842,-0.26532 4.15026,-1.33085 -1.83749,-2.80436 0.6042,-3.50681 4.80534,-1.38245 3.47137,1.75533 6.02129,2.01484 10.66738,1.08562 1.98999,-0.398 1.90329,-2.5487 -0.2743,-6.80453 -2.17158,-4.24407 -1.33445,-6.61644 1.59792,-4.52841 0.9734,0.69312 0.9734,0.69312 0.98387,-1.48867 0.006,-1.19999 0.13712,-3.16445 0.29191,-4.36548 0.30261,-2.34787 0.33614,-2.22883 -2.13393,-7.57631 -1.84373,-3.99151 0.31239,-6.51942 2.52511,-2.96054 0.74644,1.20054 0.74644,1.20054 0.9584,-0.39946 0.65824,-4.96862 0.44815,-5.57025 -3.41656,-9.78418 -3.56266,-3.88457 -7.4218,-8.97829 -8.3459,-11.01582 -2.63787,-5.81623 -4.3513,-30.06569 -2.18265,-30.89021 1.13807,-0.4327 1.15908,-0.41166 4.12911,4.1331 7.1822,10.99026 9.97431,17.47028 10.59067,24.5791 0.4026,4.64353 0.6129,3.28026 0.72883,-4.72473 0.11546,-7.97272 0.11546,-7.97272 -1.4973,-9.65499 -2.43519,-2.54014 -2.93816,-3.28987 -2.93816,-4.3796 0,-1.43796 1.18122,-1.94091 2.77425,-1.18125 1.1573,0.55188 1.1573,0.55188 0.95152,-0.94943 -0.11317,-0.82573 -0.20577,-2.25725 -0.20577,-3.18115 0,-1.69431 -3.44351,-8.14606 -5.91635,-11.084859 -2.50091,-2.97216 0.83847,-4.78794 3.46294,-1.88296 1.29288,1.43106 1.24344,2.01344 0.36597,-4.3112 -0.75442,-5.43772 -0.66713,-5.26148 -3.26466,-6.59097 -10.65619,-5.45414 -14.59301,-11.27373 -16.88621,-24.96197 -1.81721,-10.84707 -0.9448,-11.30303 6.25101,-3.267 6.80296,7.59729 7.76256,9.21858 9.77144,16.50929 2.24178,8.13599 2.74142,9.0578 1.75618,3.24012 -0.67609,-3.99224 -1.29682,-11.18016 -1.29902,-15.0424 -0.001,-2.53274 -0.9355,-4.67496 -4.23767,-9.7189 -1.8868,-2.88202 -2.18953,-3.95236 -1.25877,-4.45049 0.98433,-0.5268 1.01662,-0.50848 3.17008,1.7985 2.00506,2.14801 2.00506,2.14801 1.99937,1.04 -0.015,-2.93119 -0.64194,-6.6697 -1.40628,-8.38639 -4.9828,-11.19114 -4.31504,-25.99368 1.63021,-36.1377003 1.8404,-3.14017 2.68431,-3.83708 3.71017,-3.06392 z m -2.77419,9.1200003 c -1.95102,5.89406 -2.10498,6.94263 -2.10257,14.32 0.002,6.58624 0.53665,11.06937 1.53174,12.84749 0.5951,1.06338 3.46397,-8.02069 4.22281,-13.37123 0.50893,-3.58842 -1.39033,-17.2362603 -2.39863,-17.2362603 -0.0631,0 -0.62707,1.5480003 -1.25335,3.4400003 z m 13.88578,23.91359 c -5.10619,5.73788 -8.02677,10.23194 -9.42785,14.50714 -0.83837,2.55821 -0.63499,2.43145 4.87106,-3.03602 6.52537,-6.47962 8.65701,-10.02337 9.49486,-15.78471 0.24011,-1.65105 0.82316,-2.16037 -4.93807,4.31359 z m -27.86547,25.67829 c 1.12389,7.26414 3.02876,11.01528 8.165,16.07888 2.43119,2.3968 2.49757,2.29306 1.32496,-2.07076 -1.90599,-7.09309 -2.77326,-8.76577 -7.35602,-14.18731 -2.59353,-3.06822 -2.63583,-3.06466 -2.13394,0.17919 z m 33.1894,1.32502 c -5.86429,9.48032 -11.15019,24.04264 -11.85689,32.66493 -0.16899,2.06184 -0.16899,2.06184 1.62116,-1.12 0.98458,-1.75 3.0495,-5.19783 4.58872,-7.66183 4.49001,-7.18769 5.47695,-10.15828 7.1971,-21.66256 0.88306,-5.90584 0.80166,-6.02244 -1.55009,-2.22054 z m 1.68179,38.541759 c -5.21243,6.72102 -11.48572,21.06432 -11.48572,26.26104 0,0.16266 0.75046,-0.69773 1.66769,-1.91197 0.91723,-1.21424 3.20948,-4.04725 5.09388,-6.29557 5.82119,-6.94537 6.55153,-8.83508 8.11189,-20.988949 0.1837,-1.43089 -0.38082,-0.94173 -3.38774,2.935449 z m -27.9495,13.74135 c 0.21084,3.13269 1.50119,13.33755 2.04187,16.14833 0.46527,2.41877 1.80886,4.85886 5.10536,9.27182 2.96528,3.96957 3.77162,4.84353 3.45052,3.73992 -0.096,-0.33004 -0.48265,-2.90407 -0.85916,-5.72007 -1.52681,-11.41935 -2.24489,-13.59157 -7.4313,-22.48 -2.73271,-4.68331 -2.55285,-4.60848 -2.30729,-0.96 z m 23.70283,32.17367 c -2.89754,5.01123 -8.31628,15.41576 -8.12713,15.60492 1.01786,1.01786 12.60941,-11.9884 13.983,-15.68956 5.52698,-14.89263 2.78119,-14.85294 -5.85587,0.0846 z M 59.700137,170.46433 c 5.6102,5.26424 9.12175,7.34489 15.4567,9.15834 5.68832,1.62834 5.77528,1.59022 2.9264,-1.28279 -5.139,-5.18254 -9.41731,-7.17029 -17.75199,-8.24774 -0.528,-0.0683 -1.028,-0.14568 -1.11111,-0.17206 -0.0831,-0.0264 0.13289,0.21854 0.48,0.54425 z m 54.568463,7.66163 c 10.13414,6.36711 12.65011,7.23826 26.54265,9.19034 2.024,0.2844 3.96687,0.60058 4.31749,0.70262 2.52098,0.73371 -8.19159,-7.05338 -11.14649,-8.1025 -2.28141,-0.81001 -15.08712,-2.55853 -19.39365,-2.64805 -1.74265,-0.0362 -1.74265,-0.0362 -0.32,0.85759 z m -95.088523,4.54681 c -2.57461,0.48041 -9.98129,2.9202 -9.67472,3.1869 0.27987,0.24346 5.29607,1.36753 8.63162,1.93423 6.0847,1.03377 14.52342,-0.27896 21.39427,-3.3281 3.46735,-1.53874 -13.63753,-3.04575 -20.35117,-1.79303 z m 28.83117,7.50627 c -3.77653,1.90312 -8.90287,5.74208 -13.72421,10.27766 -3.05811,2.87684 -3.10962,3.02146 -0.93545,2.62629 5.82759,-1.05919 10.64595,-4.40884 17.87141,-12.42389 2.44644,-2.71378 1.50119,-2.85507 -3.21175,-0.48006 z m 42.48982,2.57664 c -9.02219,2.03215 -19.11272,6.168 -27.28982,11.18541 -3.35785,2.06035 -3.20375,2.13364 2.67893,1.27411 9.34854,-1.36593 14.9102,-3.02211 19.43241,-5.78666 7.88555,-4.82065 10.70821,-6.5164 10.84692,-6.5164 0.0804,0 0.61775,-0.30103 1.19401,-0.66894 1.38529,-0.88447 -1.67504,-0.65593 -6.86245,0.51248 z m 67.298383,3.08282 c -11.73323,6.10065 -24.41693,14.03364 -22.43776,14.03364 2.53477,0 11.77632,-2.32561 14.36781,-3.61562 2.80539,-1.39649 10.07126,-8.11558 13.47869,-12.46438 0.98309,-1.25469 0.82523,-1.19496 -5.40874,2.04636 z m -34.57199,-0.80899 c -8.04822,2.0798 -20.32259,8.62942 -24.145813,12.88422 -0.7806,0.86872 -0.15731,0.89584 4.518753,0.19667 8.87261,-1.32666 9.82894,-1.77887 17.74767,-8.3921 2.6974,-2.25269 5.44409,-4.42938 6.10377,-4.83708 2.07584,-1.28294 1.19433,-1.252 -4.22438,0.14829 z"
       id="path794" />
    <path
       style="fill:#d4aa00;fill-rule:evenodd;stroke:#000000;stroke-width:0"
       d="m 197.48682,164.32587 c 1.76866,-0.78588 3.00599,-2.43497 4.39964,-3.73302 3.28825,-3.55021 6.61799,-7.17008 9.01192,-11.40244 1.37491,-3.25204 2.53179,-6.64254 3.11872,-10.13173 0.10358,-0.53354 0.15764,-1.85496 -0.72848,-1.51361 -1.94333,1.29431 -3.08704,3.46715 -4.42804,5.3221 -4.23829,6.61713 -7.95967,13.56433 -11.34748,20.65069 -0.0174,0.19436 -0.50852,0.82726 -0.0263,0.80801 z"
       id="path1084" />
    <path
       style="fill:#d4aa00;fill-rule:evenodd;stroke:#000000;stroke-width:0"
       d="m 192.14035,146.04029 c 0.0621,-1.35677 -0.35234,-2.82955 -0.47365,-4.2182 -0.96828,-6.17514 -1.42424,-12.6196 -4.37476,-18.25901 -1.67125,-3.29478 -3.48636,-6.54223 -5.50213,-9.62958 -0.48641,-0.12294 -0.23694,0.81859 -0.29065,1.07618 0.45376,5.79325 1.13803,11.57918 2.12695,17.30583 0.75907,4.37607 3.87356,7.76909 6.36363,11.26633 0.70824,0.79553 1.27291,1.86133 2.15061,2.45845 z"
       id="path1086" />
    <path
       style="fill:#d4aa00;fill-rule:evenodd;stroke:#000000;stroke-width:0"
       d="m 198.27127,128.75832 c 1.28012,-0.95964 2.06416,-2.49439 3.1545,-3.66572 3.03393,-4.02936 6.85962,-7.59264 8.87352,-12.29756 1.69124,-4.29147 2.13689,-8.94097 2.73365,-13.476419 -0.12077,-0.67539 -0.74468,0.13228 -0.93841,0.33932 -5.34549,6.047599 -8.95236,13.413569 -11.87775,20.876459 -0.92582,2.61225 -1.90391,5.28138 -2.11756,8.05972 0.0117,0.0864 0.0736,0.17883 0.17205,0.1642 z"
       id="path1088" />
    <path
       style="fill:#ffd42a;fill-rule:evenodd;stroke:#000000;stroke-width:0"
       d="m 196.15924,98.203721 c 1.9513,-2.84903 3.53312,-5.97479 5.40056,-8.89481 2.89802,-4.61494 5.57964,-9.50663 6.52635,-14.93894 0.78004,-4.13173 1.61759,-8.2845 1.88167,-12.48515 -0.17609,-0.50318 -0.6983,0.23763 -0.83669,0.42842 -4.48212,6.66513 -7.63673,14.1432 -10.19769,21.72925 -1.40737,4.52874 -2.79068,9.1728 -2.91723,13.94446 0.0136,0.0788 0.0272,0.2337 0.14303,0.21677 z"
       id="path1090" />
    <path
       style="fill:#d4aa00;fill-rule:evenodd;stroke:#000000;stroke-width:0"
       d="m 184.72043,80.600181 c 0.44279,-0.60215 -0.0816,-1.52322 -0.12704,-2.20536 -1.16731,-4.51082 -2.36621,-9.2269 -5.45594,-12.85946 -1.4275,-1.74779 -2.73082,-3.67031 -4.45829,-5.12797 -0.43519,0.40035 -0.0567,1.25786 -0.0864,1.80386 0.52681,4.18747 1.66011,8.37054 4.06674,11.89343 1.66614,2.39092 3.70422,4.53735 5.89334,6.45113 0.049,0.0298 0.10794,0.0626 0.16761,0.0444 z"
       id="path1092" />
    <path
       style="fill:#d4aa00;fill-rule:evenodd;stroke:#000000;stroke-width:0"
       d="m 193.0221,53.293001 c 1.72824,-1.07947 3.01302,-2.77993 4.50912,-4.15519 3.76499,-3.77849 7.82574,-7.73289 9.32369,-13.02574 0.3309,-1.34673 0.85136,-2.77874 0.65337,-4.16534 -0.63682,0.19601 -1.0629,1.07326 -1.60245,1.51033 -4.39849,4.94871 -9.10129,9.87121 -11.87095,15.97088 -0.43891,1.22482 -1.22851,2.4811 -1.15172,3.80771 0.0289,0.0462 0.0865,0.066 0.13894,0.0573 z"
       id="path1094" />
    <path
       style="fill:#ffd42a;fill-rule:evenodd;stroke:#000000;stroke-width:0"
       d="m 188.29487,40.464481 c 0.94459,-0.90772 1.15009,-2.37961 1.65151,-3.55898 1.33316,-4.38081 2.80137,-8.88781 2.41007,-13.53228 -0.31045,-4.28266 -0.79586,-8.59166 -1.90142,-12.74818 -0.005,-0.30206 -0.52529,-1.0087903 -0.69195,-0.41305 -1.46541,4.13465 -3.07094,8.34038 -3.13339,12.78687 -0.11571,5.24112 -0.22883,10.56205 0.82986,15.72227 0.20892,0.5287 0.28151,1.48097 0.83532,1.74335 z"
       id="path1096" />
    <path
       style="fill:#ffd42a;fill-rule:evenodd;stroke:#000000;stroke-width:0"
       d="m 135.65017,209.89987 c 4.26005,-0.58072 8.46995,-1.62568 12.54347,-2.99822 3.62957,-1.40745 6.41284,-4.27684 9.2281,-6.85911 2.11346,-2.18065 4.41347,-4.25586 6.14666,-6.75659 -0.12755,-0.47067 -0.85193,0.1376 -1.14118,0.18502 -8.52722,4.25088 -16.8883,8.87999 -24.8241,14.16121 -0.79629,0.68272 -1.98123,1.16643 -2.42677,2.14684 0.0624,0.18474 0.33625,0.10257 0.47382,0.12085 z"
       id="path1098" />
    <path
       style="fill:#d4aa00;fill-rule:evenodd;stroke:#000000;stroke-width:0"
       d="m 145.40025,188.0733 c 0.26778,-0.27394 -0.48857,-0.65317 -0.60217,-0.90359 -3.05978,-2.64174 -6.43022,-4.94651 -9.97436,-6.88876 -3.33471,-1.31559 -6.98316,-1.47118 -10.48675,-2.06571 -3.51579,-0.39981 -7.04089,-1.02522 -10.5871,-0.95264 -0.64378,0.0342 -0.0782,0.58559 0.23349,0.68648 5.27863,3.39408 10.85859,6.63524 17.11521,7.77168 4.73089,0.98967 9.53977,1.55588 14.30168,2.35254 z"
       id="path1100" />
    <path
       style="fill:#d4aa00;fill-rule:evenodd;stroke:#000000;stroke-width:0"
       d="m 99.763437,208.5723 c 4.022523,-0.33182 8.044593,-1.00918 11.914003,-2.16699 4.15447,-1.60969 7.3279,-4.8997 10.81058,-7.55754 1.91928,-1.62594 3.93371,-3.14111 5.92452,-4.66369 -0.0314,-0.47866 -0.93127,-0.13758 -1.21936,-0.11982 -5.67477,1.1507 -11.12509,3.20626 -16.25398,5.87848 -4.24542,2.26077 -8.64497,4.56914 -11.947243,8.14311 -0.52133,0.59471 0.46427,0.47106 0.77148,0.48645 z"
       id="path1102" />
    <path
       style="fill:#ffd42a;fill-rule:evenodd;stroke:#000000;stroke-width:0"
       d="m 61.665007,205.72633 c 5.2844,-0.50384 10.54823,-1.42342 15.67131,-2.82262 6.3733,-1.78145 11.69009,-5.91649 17.3885,-9.10465 0.93508,-0.67137 2.20264,-1.01321 2.95629,-1.87652 -0.2369,-0.51287 -1.1094,-0.1343 -1.5635,-0.18265 -7.24611,0.97113 -14.27111,3.25125 -20.99911,6.06261 -4.66323,2.12422 -9.34917,4.31632 -13.5798,7.22847 -0.34109,0.13636 -0.72854,0.7981 -0.0724,0.69741 0.0662,2e-5 0.13245,-10e-4 0.19868,-0.002 z"
       id="path1104" />
    <path
       style="fill:#ffd42a;fill-rule:evenodd;stroke:#000000;stroke-width:0"
       d="m 79.549477,180.75169 c 0.71828,-0.16571 -0.16464,-1.00577 -0.37516,-1.27227 -3.44389,-3.81137 -7.75184,-7.03263 -12.81076,-8.27265 -2.25622,-0.54328 -4.56922,-1.12321 -6.8908,-1.16303 -0.1119,0.49557 0.80427,0.81568 1.02758,1.21086 4.0916,3.86701 9.00849,6.94408 14.49992,8.3387 1.50739,0.40317 3.0058,0.92633 4.54922,1.15839 z"
       id="path1106" />
    <path
       style="fill:#d4aa00;fill-rule:evenodd;stroke:#000000;stroke-width:0"
       d="m 32.246807,203.29479 c 5.70883,-0.69208 10.61093,-4.11108 14.61026,-8.05195 1.99792,-2.02879 4.18382,-3.97074 5.69553,-6.40352 0.15094,-0.60835 -0.8163,-0.22888 -1.08998,-0.15873 -6.18653,2.30474 -11.41895,6.54781 -16.27354,10.91788 -1.0883,1.1529 -2.53864,2.08329 -3.30855,3.48706 -0.0247,0.20132 0.22151,0.23329 0.36628,0.20926 z"
       id="path1108" />
    <path
       style="fill:#ffd42a;fill-rule:evenodd;stroke:#000000;stroke-width:0"
       d="m 23.666247,187.99957 c 5.43109,0.0965 10.78133,-1.35785 15.7407,-3.47818 0.40277,-0.12022 0.89151,-0.60975 0.26832,-0.83805 -2.69744,-0.98079 -5.63875,-1.07753 -8.47406,-1.35829 -4.08775,0.0407 -8.21673,-0.22962 -12.27277,0.38233 -3.12397,0.71765 -6.19267,1.72542 -9.1643,2.92209 -0.67754,0.32785 0.45702,0.48199 0.7056,0.56052 3.85497,0.88561 7.72929,2.03715 11.72864,1.81301 0.4893,0.002 0.97858,-9.6e-4 1.46787,-0.003 z"
       id="path1110" />
  </g>
</svg>
