<?xml version="1.0" encoding="UTF-8" standalone="no"?>
<!-- Created with Inkscape (http://www.inkscape.org/) -->

<svg
   version="1.1"
   id="svg2"
   width="214.19704"
   height="209.16481"
   viewBox="0 0 214.19703 209.16481"
   sodipodi:docname="corner_laurel_top_left_AdobeStock_472550524.svg"
   inkscape:version="1.2 (dc2aedaf03, 2022-05-15)"
   xmlns:inkscape="http://www.inkscape.org/namespaces/inkscape"
   xmlns:sodipodi="http://sodipodi.sourceforge.net/DTD/sodipodi-0.dtd"
   xmlns="http://www.w3.org/2000/svg"
   xmlns:svg="http://www.w3.org/2000/svg">
  <defs
     id="defs6" />
  <sodipodi:namedview
     id="namedview4"
     pagecolor="#ffffff"
     bordercolor="#666666"
     borderopacity="1.0"
     inkscape:showpageshadow="2"
     inkscape:pageopacity="0.0"
     inkscape:pagecheckerboard="0"
     inkscape:deskcolor="#d1d1d1"
     showgrid="false"
     inkscape:zoom="5.7215072"
     inkscape:cx="107.22699"
     inkscape:cy="106.70265"
     inkscape:window-width="3828"
     inkscape:window-height="2099"
     inkscape:window-x="0"
     inkscape:window-y="41"
     inkscape:window-maximized="0"
     inkscape:current-layer="g8" />
  <g
     inkscape:groupmode="layer"
     inkscape:label="Image"
     id="g8"
     transform="translate(-3.3276099,-3.902879)">
    <path
       style="fill:#2b2200;stroke-width:0.32"
       d="m 29.392601,212.77844 c -0.803253,-0.60539 -1.395442,-2.29558 -2.80265,-7.99917 -2.853649,-11.56618 -2.468485,-18.47439 1.591401,-28.54301 1.568852,-3.89079 2.577288,-7.29607 2.563915,-8.65782 -0.0035,-0.352 -0.40807,0.378 -0.899141,1.62224 -2.091424,5.29906 -5.578769,10.05556 -10.465781,14.27462 -1.696617,1.46473 -4.020558,3.49114 -5.164312,4.50314 -3.271272,2.89444 -4.167052,2.0151 -3.8303,-3.76 0.486304,-8.33986 1.563304,-10.20684 11.648247,-20.19224 8.112313,-8.03224 8.112313,-8.03224 8.019672,-10.96282 -0.09264,-2.93058 -0.09264,-2.93058 -1.215508,-1.41159 -3.171985,4.29098 -4.034107,1.3818 -1.562465,-5.27244 1.757614,-4.73192 1.897775,-6.43384 0.968562,-11.76091 -0.1535,-0.88 -0.467725,-2.9303 -0.698279,-4.55622 -0.230554,-1.62592 -0.457657,-2.91775 -0.504673,-2.87073 -0.04702,0.047 -0.318089,1.2116 -0.602384,2.58796 -1.312196,6.35275 -6.172546,18.44559 -9.203857,22.89975 -6.048252,8.88722 -9.5406307,11.86649 -9.3065603,7.93924 0.055072,-0.924 0.1632915,-4.2 0.240488,-7.28 0.2761193,-11.01664 2.5316203,-18.90526 7.5482393,-26.4 7.406713,-11.06551 9.055997,-16.31935 7.949478,-25.3233 -0.37432,-3.045905 -0.37432,-3.045905 -1.130361,-1.02131 -2.794409,7.48314 -6.188841,12.73905 -11.609541,17.97613 -5.7755651,5.57991 -6.2673062,5.46575 -5.9729501,-1.38668 0.5255648,-12.23482 1.7750224,-15.38905 9.5088401,-24.004845 7.340017,-8.177086 12.182979,-17.696062 7.691824,-15.118494 -2.903577,1.666425 -3.189507,-0.666496 -0.637512,-5.201508 1.277595,-2.270342 1.684849,-3.354179 1.923854,-5.12 0.350448,-2.58919 0.819779,-7.52 0.715778,-7.52 -0.03886,0 -1.040018,1.764 -2.224787,3.92 -2.617306,4.762883 -4.704742,8.02881 -8.124723,12.711645 -3.622553,4.960208 -5.2999054,7.619645 -6.2936405,9.978545 C 4.6396294,93.650475 2.0309241,85.57924 4.0324403,76.058433 6.2836429,65.349918 8.1852515,61.999617 16.474087,54.138432 c 9.327962,-8.846701 9.385985,-8.944614 10.013167,-16.897303 0.725675,-9.201586 1.262795,-11.614876 2.685604,-12.066458 0.977423,-0.310222 1.588154,0.3914 1.588154,1.824506 0,1.096532 0.08023,1.23692 0.610648,1.06857 0.935844,-0.297025 5.155765,-0.769098 10.041445,-1.123313 7.074678,-0.512918 8.706019,-1.260594 13.187907,-6.044277 7.224947,-7.711449 12.940314,-12.6257103 16.046579,-13.7973803 12.785098,-4.822482 31.967049,-3.9374 20.273421,0.935444 -1.983024,0.826344 -5.963312,3.3990143 -11.78424,7.6167763 -3.547126,2.570198 -6.398797,4.317789 -12.85576,7.878405 -1.880963,1.037235 -1.972826,1.132667 -0.96,0.997301 0.616,-0.08233 2.776,-0.300092 4.8,-0.483916 2.901952,-0.263561 3.984454,-0.502498 5.12,-1.13012 3.752262,-2.073893 6.070157,-3.064488 6.701632,-2.864066 0.907411,0.288001 1.172541,1.581821 0.526266,2.568161 -0.522653,0.797669 -0.522653,0.797669 1.513648,0.797669 3.108352,0 6.339475,-2.038571 13.635686,-8.602987 8.510256,-7.6566973 11.855736,-8.9899233 23.862766,-9.5096963 6.86276,-0.297083 7.04234,0.270867 1.80988,5.7241633 -5.06713,5.280993 -8.98048,7.924325 -16.51292,11.153914 -4.02829,1.727157 -4.1412,1.623454 2.35557,2.163514 6.32977,0.526179 10.80485,-1.073957 20.98747,-7.504414 10.07967,-6.365437 17.28899,-8.3749003 30.32,-8.4511283 8.70624,-0.05093 8.70903,0.183411 0.08,6.6985563 -6.47295,4.887247 -15.87399,9.114557 -25.56746,11.496775 -3.48746,0.85706 -3.48746,0.85706 3.27464,1.897958 7.6831,1.182669 7.09446,1.23115 13.24225,-1.090637 6.02069,-2.273791 8.72579,-1.236288 4.64392,1.781115 -1.51898,1.122867 -1.51898,1.122867 1.41834,1.215597 2.93733,0.09273 2.93733,0.09273 10.80282,-7.914678 8.58408,-8.738962 9.83376,-9.647328 15.22549,-11.067068 4.13554,-1.088963 10.03881,-0.913797 10.50913,0.311833 0.24372,0.635127 -2.76659,4.445981 -7.94913,10.063073 -2.90135,3.144631 -8.71322,7.029453 -12.77107,8.536562 -0.86409,0.320927 -1.39996,0.640537 -1.19084,0.710246 0.69947,0.233154 3.68296,-0.639201 8.11616,-2.373111 10.74875,-4.204049 18.09063,-4.525682 30.48575,-1.335519 7.47964,1.925054 8.35375,2.950535 4.58905,5.383774 -9.98758,6.455288 -24.91548,7.5535 -36.64943,2.696213 -2.63837,-1.092154 -6.09562,-1.752717 -9.05962,-1.730986 -1.12,0.0082 -1.12,0.0082 0.85219,1.837572 3.60637,3.345197 2.47454,5.405283 -1.49646,2.723753 -3.08979,-2.086464 -7.72699,-4.586902 -8.75719,-4.72199 -0.5492,-0.07202 -2.87054,-0.217219 -5.15854,-0.322674 -5.20784,-0.240031 -9.81768,-0.700147 -13.09047,-1.30658 -1.39175,-0.257887 -2.58895,-0.410396 -2.66044,-0.338909 -0.18219,0.182191 3.48668,1.363823 6.07176,1.955529 7.27698,1.665651 9.82641,3.167911 18.47915,10.8889 7.05972,6.299514 6.30325,7.254583 -4.32,5.454192 -9.33003,-1.581219 -12.26839,-2.770134 -17.67109,-7.150039 -1.78484,-1.44695 -5.13919,-5.987974 -6.98187,-9.451864 -0.81367,-1.529527 -1.57561,-2.782046 -1.69322,-2.783376 -0.1176,-0.0013 -1.14982,-0.157667 -2.29382,-0.347415 -7.89503,-1.309505 -8.84178,-1.345288 -7.34222,-0.277507 4.44454,3.164793 1.3574,5.685672 -3.18884,2.603921 -7.20822,-4.886222 -15.08727,-7.249879 -13.57154,-4.071363 0.75833,1.590235 0.22559,2.734781 -1.27294,2.734781 -1.07449,0 -1.70078,-0.428971 -4.84699,-3.319905 -1.262534,-1.160095 -1.262534,-1.160095 -7.520002,-1.136375 -7.674711,0.02909 -10.560708,0.352924 -6.577466,0.738045 6.578221,0.636017 11.605664,2.567769 20.319998,7.807784 11.98543,7.206957 11.96881,7.599831 -0.32,7.566794 -19.02538,-0.05115 -21.155889,-0.833366 -34.794769,-12.774988 -2.410183,-2.110253 -2.788551,-2.218692 -6.714506,-1.924351 -2.394352,0.179512 -2.949507,0.305418 -2.469683,0.560111 1.953142,1.036738 2.900534,2.793312 1.99496,3.698885 -0.648998,0.648999 -1.557706,0.439022 -5.376,-1.242239 -3.68,-1.620368 -3.68,-1.620368 -7.84,-1.404843 -4.795882,0.24847 -4.848426,0.26532 -4.150262,1.330855 1.837484,2.804355 -0.604202,3.506804 -4.805344,1.38245 -3.471364,-1.755335 -6.021293,-2.014843 -10.667375,-1.085626 -1.98999,0.397998 -1.903293,2.548703 0.274299,6.80453 2.171578,4.244074 1.334448,6.616445 -1.597922,4.528413 -0.973396,-0.69312 -0.973396,-0.69312 -0.983866,1.488672 -0.0058,1.199984 -0.13712,3.164448 -0.291915,4.365476 -0.302607,2.347875 -0.336136,2.228835 2.133933,7.576314 1.843729,3.991504 -0.312393,6.519414 -2.525117,2.960537 -0.746431,-1.200537 -0.746431,-1.200537 -0.958397,0.399463 -0.658236,4.968614 -0.448151,5.570243 3.416565,9.784173 3.562652,3.88457 7.421801,8.978298 8.345894,11.015828 2.637875,5.81623 4.351302,30.065686 2.182653,30.890206 -1.138071,0.4327 -1.159085,0.41166 -4.129114,-4.1331 C 30.462847,95.985285 27.670734,89.505265 27.05438,82.396437 26.651775,77.75291 26.441479,79.116178 26.325551,87.12117 c -0.11546,7.972725 -0.11546,7.972725 1.4973,9.654995 2.435183,2.54014 2.938161,3.289865 2.938161,4.379595 0,1.43796 -1.181221,1.94091 -2.774253,1.18125 -1.157303,-0.55188 -1.157303,-0.55188 -0.951525,0.94943 0.113178,0.82573 0.205778,2.25725 0.205778,3.18115 0,1.69431 3.443505,8.14606 5.916342,11.08486 2.500912,2.97216 -0.838466,4.78794 -3.462939,1.88296 -1.292876,-1.43106 -1.24344,-2.01344 -0.365969,4.3112 0.754423,5.43772 0.667129,5.26148 3.264657,6.59097 10.656191,5.45414 14.593013,11.27373 16.886213,24.96197 1.817216,10.84707 0.944806,11.30303 -6.251011,3.267 -6.802957,-7.59729 -7.76256,-9.21858 -9.771437,-16.50929 -2.241781,-8.13599 -2.741419,-9.0578 -1.756184,-3.24012 0.676091,3.99224 1.296823,11.18016 1.299027,15.0424 0.0014,2.53274 0.935499,4.67496 4.237663,9.7189 1.886803,2.88202 2.189536,3.95236 1.258774,4.45049 -0.984333,0.5268 -1.016624,0.50848 -3.170077,-1.7985 -2.005059,-2.14801 -2.005059,-2.14801 -1.999373,-1.04 0.01504,2.93119 0.641936,6.6697 1.406279,8.38639 4.982797,11.19114 4.31504,25.99368 -1.630211,36.1377 -1.840399,3.14017 -2.684309,3.83708 -3.710165,3.06392 z m 2.774187,-9.12 c 1.951021,-5.89406 2.104979,-6.94263 2.10257,-14.32 -0.0022,-6.58624 -0.536653,-11.06937 -1.531739,-12.84749 -0.595098,-1.06338 -3.463968,8.02069 -4.22281,13.37123 -0.50893,3.58842 1.39033,17.23626 2.398631,17.23626 0.06306,0 0.627068,-1.548 1.253348,-3.44 z M 18.281012,179.74485 c 5.106188,-5.73788 8.026764,-10.23194 9.427841,-14.50714 0.838377,-2.55821 0.634999,-2.43145 -4.871058,3.03602 -6.525363,6.47962 -8.657007,10.02337 -9.494858,15.78471 -0.240107,1.65105 -0.82316,2.16037 4.938075,-4.31359 z m 27.865469,-25.67829 c -1.123895,-7.26414 -3.028762,-11.01528 -8.165005,-16.07888 -2.43119,-2.3968 -2.497568,-2.29306 -1.324963,2.07076 1.905993,7.09309 2.773264,8.76577 7.356029,14.18731 2.593529,3.06822 2.635824,3.06466 2.133939,-0.17919 z m -33.189399,-1.32502 c 5.864286,-9.48032 11.15019,-24.04264 11.856884,-32.66493 0.16899,-2.06184 0.16899,-2.06184 -1.621155,1.12 -0.98458,1.75 -3.049504,5.19783 -4.588719,7.66183 -4.490019,7.18769 -5.476959,10.15828 -7.197107,21.66256 -0.883057,5.90584 -0.80166,6.02244 1.550097,2.22054 z m -1.681791,-38.54176 c 5.212431,-6.72102 11.485721,-21.064315 11.485721,-26.261039 0,-0.162662 -0.750462,0.697725 -1.667694,1.911974 -0.917232,1.21424 -3.20948,4.04725 -5.093885,6.29557 -5.821185,6.945365 -6.5515257,8.835075 -8.1118829,20.988945 -0.1837028,1.43089 0.3808188,0.94173 3.3877409,-2.93545 z m 27.949497,-13.74135 c -0.210842,-3.132685 -1.50119,-13.337551 -2.041866,-16.148329 -0.46527,-2.418768 -1.808864,-4.858858 -5.105365,-9.271818 -2.965282,-3.969568 -3.771615,-4.84353 -3.450518,-3.739923 0.09603,0.330041 0.482646,2.904073 0.859156,5.720073 1.526808,11.419348 2.244889,13.591572 7.4313,22.480002 2.732717,4.683305 2.552848,4.608475 2.307293,0.959995 z M 15.521953,68.284759 C 18.419497,63.273527 23.83824,52.868996 23.649088,52.679844 22.631231,51.661984 11.039675,64.668241 9.6660916,68.369403 4.139107,83.262027 6.8848969,83.222341 15.521953,68.284759 Z M 161.15212,46.50624 c -5.6102,-5.26424 -9.12175,-7.344887 -15.4567,-9.15834 -5.68832,-1.628342 -5.77528,-1.590224 -2.9264,1.282788 5.139,5.182547 9.41731,7.170291 17.75199,8.247747 0.528,0.06826 1.028,0.14568 1.11111,0.172052 0.0831,0.02637 -0.13289,-0.218541 -0.48,-0.544247 z M 106.58366,38.844608 C 96.449518,32.477503 93.933546,31.606353 80.041012,29.654271 c -2.024,-0.284398 -3.96687,-0.600579 -4.317491,-0.702622 -2.520986,-0.733705 8.191587,7.053381 11.146486,8.102504 2.281411,0.810003 15.087123,2.558525 19.393653,2.648052 1.74265,0.03623 1.74265,0.03623 0.32,-0.857597 z m 95.08852,-4.54681 c 2.57461,-0.480407 9.98129,-2.920197 9.67472,-3.186893 -0.27987,-0.243469 -5.29607,-1.367535 -8.63162,-1.934237 -6.0847,-1.033771 -14.52342,0.27896 -21.39427,3.328102 -3.46735,1.538737 13.63753,3.045751 20.35117,1.793028 z m -28.83117,-7.506266 c 3.77653,-1.903119 8.90287,-5.74208 13.72421,-10.277657 3.05811,-2.876849 3.10962,-3.021467 0.93545,-2.626299 -5.82759,1.059198 -10.64595,4.408841 -17.87141,12.423892 -2.44644,2.713785 -1.50119,2.855073 3.21175,0.480064 z M 130.35119,24.21489 c 9.02219,-2.032147 19.11272,-6.168003 27.28982,-11.18541 3.35785,-2.060351 3.20375,-2.133643 -2.67893,-1.274112 -9.34854,1.365934 -14.9102,3.022111 -19.43241,5.786666 -7.88555,4.820651 -10.70821,6.516397 -10.84692,6.516397 -0.0804,0 -0.61775,0.301025 -1.19401,0.668944 -1.38529,0.884465 1.67504,0.655921 6.86245,-0.512485 z M 63.052807,21.132068 C 74.786036,15.031421 87.469742,7.0984307 85.490564,7.0984307 c -2.534765,0 -11.776317,2.325613 -14.367808,3.6156213 -2.805389,1.396485 -10.071258,8.115578 -13.478688,12.464379 -0.983088,1.254689 -0.825229,1.194964 5.408739,-2.046363 z m 34.571987,0.80899 c 8.048226,-2.079801 20.322596,-8.629415 24.145816,-12.8842163 0.7806,-0.868718 0.15731,-0.895845 -4.51875,-0.196669 -8.87261,1.3266553 -9.82894,1.7788633 -17.747674,8.3920943 -2.697395,2.252696 -5.444089,4.429385 -6.103766,4.837087 -2.07584,1.282939 -1.194336,1.251994 4.224374,-0.148296 z"
       id="path794" />
    <path
       style="fill:#d4aa00;fill-rule:evenodd;stroke:#000000;stroke-width:0"
       d="m 23.365442,52.6447 c -1.768668,0.785884 -3.005991,2.434975 -4.39964,3.733017 -3.288259,3.55021 -6.617994,7.170081 -9.0119262,11.402446 -1.3749118,3.25204 -2.53179,6.642533 -3.118715,10.131727 -0.1035855,0.533536 -0.1576431,1.854962 0.7284739,1.513614 1.9433326,-1.294318 3.0870453,-3.467155 4.4280453,-5.322102 4.238284,-6.617133 7.959665,-13.564328 11.347477,-20.65069 0.01738,-0.194363 0.508523,-0.827264 0.02629,-0.808012 z"
       id="path1084" />
    <path
       style="fill:#d4aa00;fill-rule:evenodd;stroke:#000000;stroke-width:0"
       d="m 28.711908,70.930283 c -0.06208,1.356768 0.352342,2.829549 0.47365,4.218198 0.968283,6.17514 1.42424,12.619601 4.374764,18.259011 1.67125,3.294777 3.486351,6.542224 5.502129,9.629578 0.486411,0.12294 0.236938,-0.81859 0.290645,-1.07618 C 38.899333,96.167638 38.215065,90.381706 37.226144,84.655063 36.467074,80.27899 33.352585,76.885974 30.862517,73.388729 30.154274,72.5932 29.589604,71.527402 28.711908,70.930283 Z"
       id="path1086" />
    <path
       style="fill:#d4aa00;fill-rule:evenodd;stroke:#000000;stroke-width:0"
       d="m 22.580985,88.212251 c -1.28012,0.959638 -2.06416,2.494387 -3.154496,3.665724 -3.03393,4.029354 -6.859621,7.592633 -8.873517,12.297555 -1.6912418,4.29147 -2.1368962,8.94097 -2.7336545,13.47642 0.120774,0.67539 0.744684,-0.13228 0.9384137,-0.33932 5.3454818,-6.0476 8.9523558,-13.41357 11.8777508,-20.87646 0.925816,-2.612251 1.903902,-5.281384 2.117551,-8.059722 -0.01171,-0.08636 -0.07357,-0.178831 -0.172048,-0.164197 z"
       id="path1088" />
    <path
       style="fill:#ffd42a;fill-rule:evenodd;stroke:#000000;stroke-width:0"
       d="m 24.693013,118.76685 c -1.951299,2.84903 -3.533115,5.97479 -5.400558,8.89481 -2.898018,4.61494 -5.579639,9.50663 -6.526343,14.93894 -0.780049,4.13173 -1.617592,8.2845 -1.881674,12.48515 0.176089,0.50318 0.698304,-0.23763 0.836687,-0.42842 4.482124,-6.66513 7.636737,-14.1432 10.197697,-21.72925 1.407362,-4.52874 2.790678,-9.1728 2.917223,-13.94446 -0.01359,-0.0788 -0.0272,-0.2337 -0.143032,-0.21677 z"
       id="path1090" />
    <path
       style="fill:#d4aa00;fill-rule:evenodd;stroke:#000000;stroke-width:0"
       d="m 36.131828,136.37039 c -0.442792,0.60215 0.08159,1.52322 0.127042,2.20536 1.167306,4.51082 2.366203,9.2269 5.455939,12.85946 1.427497,1.74779 2.730816,3.67031 4.458285,5.12797 0.43519,-0.40035 0.05674,-1.25786 0.08642,-1.80386 -0.526805,-4.18747 -1.660108,-8.37054 -4.066741,-11.89343 -1.66614,-2.39092 -3.704217,-4.53735 -5.893333,-6.45113 -0.04902,-0.0298 -0.107947,-0.0626 -0.167611,-0.0444 z"
       id="path1092" />
    <path
       style="fill:#d4aa00;fill-rule:evenodd;stroke:#000000;stroke-width:0"
       d="m 27.830161,163.67757 c -1.728244,1.07947 -3.013023,2.77993 -4.509119,4.15519 -3.764992,3.77849 -7.825746,7.73289 -9.323692,13.02574 -0.330901,1.34673 -0.851364,2.77874 -0.653374,4.16534 0.636824,-0.19601 1.062903,-1.07326 1.602448,-1.51033 4.398494,-4.94871 9.101294,-9.87121 11.87095,-15.97088 0.438918,-1.22482 1.228516,-2.4811 1.151723,-3.80771 -0.02894,-0.0462 -0.08646,-0.066 -0.138936,-0.0573 z"
       id="path1094" />
    <path
       style="fill:#ffd42a;fill-rule:evenodd;stroke:#000000;stroke-width:0"
       d="m 32.557391,176.50609 c -0.944595,0.90772 -1.150098,2.37961 -1.651516,3.55898 -1.333154,4.38081 -2.801369,8.88781 -2.410069,13.53228 0.31045,4.28266 0.795859,8.59166 1.901424,12.74818 0.0054,0.30206 0.525292,1.00879 0.691948,0.41305 1.465405,-4.13465 3.070935,-8.34038 3.133393,-12.78687 0.115706,-5.24112 0.228825,-10.56205 -0.829859,-15.72227 -0.208928,-0.5287 -0.281515,-1.48097 -0.835321,-1.74335 z"
       id="path1096" />
    <path
       style="fill:#ffd42a;fill-rule:evenodd;stroke:#000000;stroke-width:0"
       d="m 85.202092,7.070703 c -4.260051,0.5807196 -8.469959,1.6256825 -12.543475,2.998213 -3.629566,1.407452 -6.412839,4.276841 -9.228101,6.859113 -2.113456,2.180656 -4.413467,4.255859 -6.146659,6.75659 0.127546,0.470668 0.851932,-0.137601 1.141185,-0.18502 C 66.952259,19.248721 75.313341,14.619608 83.249139,9.3383939 84.045426,8.6556715 85.230367,8.1719572 85.675906,7.1915464 85.613541,7.0068079 85.339655,7.0889844 85.202092,7.070703 Z"
       id="path1098" />
    <path
       style="fill:#d4aa00;fill-rule:evenodd;stroke:#000000;stroke-width:0"
       d="m 75.45201,28.89727 c -0.267785,0.273937 0.488567,0.653171 0.602169,0.903594 3.05978,2.641737 6.430219,4.94651 9.974358,6.888756 3.334711,1.315588 6.983161,1.471177 10.486754,2.065709 3.515789,0.399812 7.040889,1.025222 10.587099,0.952644 0.64378,-0.03419 0.0782,-0.585592 -0.23349,-0.686486 C 101.59027,35.627413 96.010307,32.386246 89.753685,31.249808 85.022802,30.260136 80.213918,29.693931 75.45201,28.89727 Z"
       id="path1100" />
    <path
       style="fill:#d4aa00;fill-rule:evenodd;stroke:#000000;stroke-width:0"
       d="m 121.08882,8.3982733 c -4.02252,0.331821 -8.04459,1.0091805 -11.914,2.1669877 -4.15447,1.609686 -7.3279,4.899702 -10.810583,7.557544 -1.919275,1.625933 -3.933707,3.141104 -5.924516,4.663682 0.03144,0.478665 0.93127,0.137579 1.219358,0.119819 5.674764,-1.150698 11.125091,-3.206253 16.253981,-5.878478 4.24542,-2.260772 8.64497,-4.569134 11.94724,-8.1431089 0.52133,-0.5947093 -0.46427,-0.4710602 -0.77148,-0.4864458 z"
       id="path1102" />
    <path
       style="fill:#ffd42a;fill-rule:evenodd;stroke:#000000;stroke-width:0"
       d="m 159.18725,11.244237 c -5.2844,0.503847 -10.54823,1.423421 -15.67131,2.822621 -6.3733,1.781454 -11.69009,5.916492 -17.3885,9.10465 -0.93508,0.671375 -2.20264,1.013211 -2.95629,1.876525 0.2369,0.512871 1.1094,0.134299 1.5635,0.182649 7.24611,-0.971135 14.27111,-3.251253 20.99911,-6.062608 4.66323,-2.124222 9.34917,-4.316327 13.5798,-7.228475 0.34109,-0.136357 0.72854,-0.798102 0.0724,-0.69741 -0.0662,-1.5e-5 -0.13245,0.0014 -0.19868,0.002 z"
       id="path1104" />
    <path
       style="fill:#ffd42a;fill-rule:evenodd;stroke:#000000;stroke-width:0"
       d="m 141.30278,36.218877 c -0.71828,0.165711 0.16464,1.00577 0.37516,1.272269 3.44389,3.811374 7.75184,7.032637 12.81076,8.272651 2.25622,0.54328 4.56922,1.123212 6.8908,1.163032 0.1119,-0.495572 -0.80427,-0.815677 -1.02758,-1.210861 -4.0916,-3.867007 -9.00849,-6.944074 -14.49992,-8.338696 -1.50739,-0.40317 -3.0058,-0.926333 -4.54922,-1.158395 z"
       id="path1106" />
    <path
       style="fill:#d4aa00;fill-rule:evenodd;stroke:#000000;stroke-width:0"
       d="m 188.60545,13.675784 c -5.70883,0.692073 -10.61093,4.111079 -14.61026,8.051944 -1.99792,2.028792 -4.18382,3.970744 -5.69553,6.403518 -0.15094,0.608359 0.8163,0.228889 1.08998,0.158735 6.18653,-2.304742 11.41895,-6.547814 16.27354,-10.917884 1.0883,-1.152897 2.53864,-2.083291 3.30855,-3.487056 0.0247,-0.20132 -0.22151,-0.233288 -0.36628,-0.209257 z"
       id="path1108" />
    <path
       style="fill:#ffd42a;fill-rule:evenodd;stroke:#000000;stroke-width:0"
       d="m 197.18601,28.971005 c -5.43109,-0.09649 -10.78133,1.357845 -15.7407,3.478173 -0.40277,0.120221 -0.89151,0.609756 -0.26832,0.838052 2.69744,0.980788 5.63875,1.07753 8.47406,1.358293 4.08775,-0.0407 8.21673,0.229622 12.27277,-0.382329 3.12397,-0.717657 6.19267,-1.725422 9.1643,-2.922089 0.67754,-0.32785 -0.45702,-0.481995 -0.7056,-0.560522 -3.85497,-0.885616 -7.72929,-2.03715 -11.72864,-1.81301 -0.4893,-0.0015 -0.97858,9.6e-4 -1.46787,0.0034 z"
       id="path1110" />
  </g>
</svg>
