<?xml version="1.0" encoding="UTF-8" standalone="no"?>
<!-- Created with Inkscape (http://www.inkscape.org/) -->

<svg
   version="1.1"
   id="svg2"
   width="404.00284"
   height="48.246712"
   viewBox="0 0 404.00284 48.246712"
   sodipodi:docname="FlatLaurel_AdobeStock_222827192.svg"
   inkscape:version="1.2 (dc2aedaf03, 2022-05-15)"
   xmlns:inkscape="http://www.inkscape.org/namespaces/inkscape"
   xmlns:sodipodi="http://sodipodi.sourceforge.net/DTD/sodipodi-0.dtd"
   xmlns="http://www.w3.org/2000/svg"
   xmlns:svg="http://www.w3.org/2000/svg">
  <defs
     id="defs6" />
  <sodipodi:namedview
     id="namedview4"
     pagecolor="#ffffff"
     bordercolor="#666666"
     borderopacity="1.0"
     inkscape:showpageshadow="2"
     inkscape:pageopacity="0.0"
     inkscape:pagecheckerboard="0"
     inkscape:deskcolor="#d1d1d1"
     showgrid="false"
     inkscape:zoom="5.3740391"
     inkscape:cx="142.35103"
     inkscape:cy="44.938267"
     inkscape:window-width="3840"
     inkscape:window-height="2097"
     inkscape:window-x="0"
     inkscape:window-y="41"
     inkscape:window-maximized="1"
     inkscape:current-layer="g8" />
  <g
     inkscape:groupmode="layer"
     inkscape:label="Image"
     id="g8"
     transform="translate(-4.4511053,-9.1957993)">
    <path
       style="fill:#554400;stroke-width:0.32"
       d="m 84.773928,57.273012 c -2.472483,-0.490919 -3.247594,-0.830615 -3.584998,-1.571136 -0.291853,-0.640544 -0.251239,-0.898899 0.22382,-1.423837 0.319204,-0.352714 0.838618,-0.641299 1.154256,-0.641299 1.884228,0 8.746119,-2.752311 11.708336,-4.696227 1.858586,-1.219671 1.858586,-1.219671 -2.301414,-1.422196 -2.288,-0.111388 -5.044787,-0.43631 -6.126189,-0.722051 -4.073254,-1.076275 -6.428595,-0.598736 -12.415603,2.517235 -4.350973,2.264487 -6.122947,2.696749 -8.776339,2.140935 -2.497443,-0.523146 -4.820919,-2.446647 -3.976007,-3.291559 0.170964,-0.170963 1.882084,-0.662595 3.80249,-1.092518 3.693059,-0.826762 10.051648,-2.940115 10.051648,-3.340784 0,-0.13065 -0.972,-0.666899 -2.16,-1.191667 -1.188,-0.524772 -3.528,-1.79624 -5.2,-2.825492 -4.136595,-2.546403 -4.748544,-2.547481 -9.758234,-0.01722 -3.64288,1.83993 -3.834995,1.897975 -6.230812,1.882548 C 48.220725,41.558674 45.083298,40.613635 43.474888,39.25542 42.558174,38.481305 42.4326,38.22904 42.72453,37.748 c 0.275644,-0.454205 1.082438,-0.658826 3.773587,-0.957066 2.915779,-0.323136 8.622688,-1.361862 10.515811,-1.914003 1.005904,-0.293379 0.60104,-0.648375 -2.24,-1.964083 -3.36216,-1.557045 -6.367027,-2.457301 -9.919478,-2.97187 -3.65681,-0.529686 -3.985261,-0.350672 -7.080048,3.858798 -3.470938,4.7211 -6.298453,6.873577 -10.716264,8.157868 -3.778115,1.098327 -4.616436,-0.355792 -1.660843,-2.880832 0.958852,-0.819174 3.154852,-3.014006 4.88,-4.877408 3.136633,-3.38799 3.136633,-3.38799 1.303013,-3.199106 -1.087446,0.112018 -2.603025,0.579866 -3.724329,1.149672 -1.03989,0.528434 -2.652898,1.187134 -3.584461,1.463781 -2.314822,0.687427 -6.705536,0.637833 -10.303172,-0.116378 -1.62493,-0.34065 -3.890418,-0.712081 -5.034418,-0.825401 -5.5609241,-0.550842 -5.8706502,-1.331921 -1.36,-3.429698 7.424623,-3.452985 11.78384,-3.966073 18.490183,-2.17633 4.029408,1.07534 6.553614,1.217881 8.971737,0.506628 0.867942,-0.255292 2.788902,-0.614114 4.268794,-0.797381 1.479891,-0.183267 2.738121,-0.38062 2.796064,-0.438563 0.05794,-0.05794 -0.360877,-0.446084 -0.930714,-0.862537 -1.454714,-1.063147 -7.916064,-7.093878 -7.916064,-7.388495 0,-0.133728 0.22946,-0.472602 0.50991,-0.753054 0.595757,-0.595755 2.371536,-0.452138 6.14018,0.496591 4.654896,1.171838 7.422953,3.024391 11.327676,7.581176 2.27272,2.652246 2.646167,2.946271 4.96,3.905156 1.376231,0.570328 3.784285,1.74188 5.351236,2.603448 1.56695,0.861569 2.901641,1.513852 2.965977,1.449516 0.06434,-0.06434 -0.525981,-1.326286 -1.311814,-2.804332 -1.526864,-2.871829 -3.703165,-8.941386 -3.703165,-10.327885 0,-1.426281 1.054976,-1.245867 3.949299,0.675379 3.828112,2.541095 6.735389,6.727363 8.837347,12.725149 1.761652,5.026742 2.860282,6.33624 6.35272,7.572019 2.20585,0.780528 10.092628,2.819971 10.260816,2.653347 0.0661,-0.06549 -0.3659,-0.51071 -0.96,-0.989389 -2.487132,-2.003936 -5.680528,-5.534736 -6.761568,-7.475977 -1.094979,-1.966269 -3.754032,-9.472282 -3.757161,-10.605764 -0.0026,-0.892781 0.857817,-0.916904 2.461837,-0.06903 4.238934,2.240672 6.600835,4.942478 10.161753,11.624149 2.488611,4.669604 4.590071,7.560151 5.842493,8.03632 1.957456,0.744224 10.986746,-0.72543 15.075066,-2.453696 1.1774,-0.497728 1.1774,-0.497728 0.3774,-0.9028 -0.44,-0.22279 -1.664,-0.584896 -2.72,-0.804681 -5.48881,-1.142371 -10.969045,-5.675821 -13.908492,-11.5056 -0.630521,-1.250502 -0.654435,-1.453117 -0.222505,-1.885048 0.431933,-0.431931 0.787437,-0.389333 3.307472,0.396319 4.944165,1.541402 7.377025,3.019503 11.696885,7.106508 3.09812,2.931123 5.6623,4.575763 7.14126,4.58032 0.69747,0.0022 2.47187,-0.963293 6.24,-3.395146 2.89596,-1.868982 5.51738,-3.559621 5.82538,-3.756975 0.308,-0.197355 0.56,-0.468189 0.56,-0.601853 0,-0.133663 -1.836,-0.244734 -4.08,-0.246823 -4.18811,-0.0039 -6.09611,-0.331784 -8.74239,-1.502362 -2.16921,-0.959546 -9.18279,-5.517314 -9.4129,-6.116962 -0.31621,-0.824034 0.64619,-1.268301 3.28267,-1.515359 5.68752,-0.532964 10.61804,0.284442 17.35262,2.876802 7.15677,2.754877 8.10499,2.779626 14.47088,0.377692 2.51302,-0.948193 5.03547,-1.823272 5.60545,-1.94462 0.56998,-0.121348 1.11414,-0.346528 1.20924,-0.5004 0.18104,-0.29294 -0.6714,-0.562855 -4.6437,-1.470357 -2.8954,-0.661474 -7.79881,-3.073416 -10.33881,-5.085553 -2.08308,-1.650179 -2.4048,-2.174133 -1.78988,-2.915064 0.36717,-0.44241 1.12071,-0.491175 5.5558,-0.359535 4.33905,0.128789 5.56509,0.282839 7.94328,0.998058 3.34228,1.005162 6.67853,2.624682 9.43447,4.579791 2.86533,2.032717 4.37111,2.606815 8.27446,3.154747 1.89671,0.266252 4.31853,0.685074 5.38181,0.930716 1.06329,0.245643 1.97839,0.401483 2.03356,0.346311 0.0552,-0.05517 -0.59198,-0.724967 -1.43812,-1.488436 -5.16814,-4.663188 -9.45748,-10.300218 -8.91446,-11.7153258 0.26486,-0.6901946 2.36892,-0.35928 5.57363,0.8765848 6.1021,2.353221 9.964,6.139446 13.47178,13.207807 1.22619,2.470839 3.58771,5.03948 5.55334,6.040406 0.7355,0.374525 2.6768,1.524233 4.31401,2.554906 1.6372,1.030675 3.14378,1.873952 3.34796,1.873952 0.20419,0 -0.28713,-0.684 -1.09181,-1.520001 -2.65967,-2.763192 -4.39115,-5.860043 -7.76713,-13.891956 -2.53293,-6.026191 -2.30149,-6.87212 1.28649,-4.70227 4.14165,2.504675 8.39771,6.995308 10.26914,10.835112 0.38577,0.791513 1.78677,3.703087 3.11334,6.470163 2.13697,4.457492 2.56508,5.132392 3.75523,5.920001 1.23557,0.817658 1.59086,0.888951 4.43004,0.888951 2.84049,0 3.19409,-0.07104 4.4324,-0.890519 1.22016,-0.807462 1.65662,-1.525232 4.67963,-7.695783 2.04711,-4.178557 3.97669,-7.637825 4.99914,-8.962266 1.81766,-2.354501 5.25815,-5.288993 8.12215,-6.927614 1.64753,-0.942619 1.87203,-0.995608 2.32005,-0.547595 0.44801,0.448012 0.33439,0.889079 -1.17416,4.558079 -3.26301,7.936075 -5.03604,11.236706 -7.94252,14.785697 -0.61258,0.748001 -1.00228,1.360001 -0.86599,1.360001 0.40383,0 4.28709,-2.224748 6.8693,-3.935474 3.44496,-2.282297 4.37758,-3.26487 5.83216,-6.144527 1.95829,-3.876848 3.3132,-5.878541 5.47897,-8.094416 2.57104,-2.630515 4.15457,-3.617294 8.30909,-5.177802 3.72333,-1.3985485 4.92971,-1.5748397 5.24018,-0.7657609 0.48705,1.2692289 -3.91905,7.1827389 -7.90237,10.6059129 -1.37732,1.183637 -2.51632,2.244759 -2.53112,2.358051 -0.0148,0.113292 0.57445,0.07087 1.30945,-0.09428 0.735,-0.165143 3.19724,-0.581394 5.47163,-0.925002 4.64468,-0.701701 5.86758,-1.155617 9.23655,-3.428389 3.2412,-2.186575 5.82797,-3.442815 9.14055,-4.439009 2.38115,-0.716083 3.60558,-0.869997 7.94593,-0.998825 4.38945,-0.130285 5.19106,-0.07995 5.54644,0.348254 0.67206,0.809784 0.17749,1.548991 -2.23106,3.334678 -3.11615,2.310299 -6.35375,3.79722 -10.59652,4.866627 -1.97341,0.497407 -3.62641,1.027131 -3.67334,1.177166 -0.0469,0.150036 1.10015,0.657539 2.54907,1.127786 1.44891,0.470247 4.07439,1.377717 5.83439,2.016599 4.50723,1.636128 5.96833,1.517579 13.02915,-1.057149 7.284,-2.656109 9.5069,-3.07425 15.07831,-2.836313 6.38677,0.272758 6.74667,0.791869 2.53254,3.65285 -6.54102,4.440708 -9.54757,5.56155 -15.42951,5.752119 -2.19423,0.07109 -4.02867,0.168412 -4.07653,0.216269 -0.10111,0.101109 7.58382,5.109843 10.08012,6.569831 0.93175,0.54494 2.05253,0.9908 2.49064,0.9908 1.47206,0 4.05168,-1.640285 7.00645,-4.455146 4.44627,-4.235733 6.84057,-5.706319 11.70763,-7.190863 3.29161,-1.004004 3.40241,-1.009372 3.66639,-0.177639 0.33532,1.056486 -2.18268,4.935712 -5.09774,7.853593 -2.9309,2.933728 -5.83616,4.576224 -9.62745,5.442896 -1.232,0.281629 -2.456,0.587123 -2.72,0.678874 -0.69567,0.241779 2.29822,1.563645 5.31923,2.348553 2.90115,0.75377 9.44991,1.349792 10.46999,0.952906 1.4664,-0.570538 3.19126,-2.977875 6.42928,-8.973174 2.70982,-5.017255 4.26048,-7.044499 6.72032,-8.785622 3.24992,-2.300357 5.05251,-2.97436 5.38739,-2.014379 0.19709,0.565037 -2.49808,8.337425 -3.68954,10.640001 -0.67593,1.306278 -2.04886,2.963174 -4.2951,5.183513 -1.81587,1.794931 -3.30157,3.328685 -3.30157,3.408336 0,0.249488 5.22547,-0.984003 7.72947,-1.824573 6.06621,-2.036361 6.59629,-2.487552 8.13584,-6.925414 1.61043,-4.64212 3.86586,-8.822111 5.97927,-11.081346 1.81001,-1.93492 4.74534,-4.209389 6.04432,-4.683513 0.29088,-0.106175 0.7742,-0.01366 1.07404,0.20558 0.50679,0.370572 0.47492,0.617868 -0.45273,3.513811 -1.36096,4.248713 -2.39648,6.725678 -3.58784,8.582257 -0.55258,0.861126 -0.94048,1.629902 -0.86199,1.708392 0.0785,0.07849 1.93303,-0.774362 4.12116,-1.895228 2.18816,-1.120867 4.51993,-2.210214 5.18172,-2.420772 0.8385,-0.266774 1.7601,-1.029029 3.04,-2.5144 5.26752,-6.113081 9.07258,-8.425383 15.38276,-9.348057 2.69171,-0.393577 3.57398,-0.194858 3.57398,0.804974 0,0.515953 -5.20829,5.531141 -7.31856,7.047225 -0.90278,0.648588 -1.64144,1.309742 -1.64144,1.469232 0,0.15949 0.60538,0.289982 1.34528,0.289982 0.7399,0 3.45469,0.385144 6.03286,0.855875 4.68765,0.855875 4.68765,0.855875 8.01476,-0.24 3.11452,-1.02586 3.59289,-1.095035 7.4871,-1.082738 3.86166,0.0122 4.37802,0.08892 7.2,1.069735 1.672,0.581129 3.976,1.511218 5.12,2.066863 1.73552,0.842946 2.08,1.142694 2.08,1.809861 0,0.745077 -0.14182,0.816684 -2.08,1.05023 -1.144,0.137849 -3.91693,0.606031 -6.16208,1.040405 -2.47542,0.478922 -5.216,0.78977 -6.96294,0.78977 -2.63674,0 -3.13146,-0.10649 -5.83792,-1.25662 -2.88509,-1.22603 -6.89146,-2.435652 -7.1641,-2.163011 -0.20006,0.200067 6.32019,7.21516 8.02643,8.635557 1.53194,1.275306 1.95728,2.613568 0.95315,2.998893 -0.85712,0.328905 -3.87715,-0.524167 -6.496,-1.834938 -2.69276,-1.347776 -4.65136,-3.197894 -6.91654,-6.533481 -2.77843,-4.091358 -3.88371,-4.611668 -8.19571,-3.858154 -1.47635,0.257988 -3.54829,0.766024 -4.60429,1.128969 -2.49971,0.859148 -6.88,2.914765 -6.88,3.228705 0,0.401219 6.9336,1.901449 10.68698,2.312345 2.65228,0.290362 3.56889,0.512336 3.82928,0.927354 0.78361,1.248957 -2.3936,3.141344 -6.32989,3.770169 -3.01466,0.481594 -5.14138,0.02896 -8.15507,-1.735699 -4.07639,-2.386915 -6.40439,-2.473968 -9.3008,-0.347789 -1.21748,0.893693 -6.29127,3.568208 -7.7768,4.099322 -0.21655,0.07742 -0.30599,0.236173 -0.19882,0.35279 0.38301,0.416672 6.90365,2.503217 10.11203,3.235738 3.73658,0.853123 3.93309,0.940903 3.93309,1.756944 0,0.781405 -1.35283,1.724397 -3.46496,2.415235 -2.87354,0.939892 -4.59126,0.561722 -10.13504,-2.231308 -6.04285,-3.044471 -6.6975,-3.191156 -10.67907,-2.392765 -1.69453,0.339785 -4.84733,0.710429 -7.00627,0.823651 -3.72732,0.195478 -3.89954,0.23441 -3.41335,0.771638 0.85929,0.949508 6.66557,3.737536 9.64599,4.63176 4.34144,1.30258 4.5727,1.415072 4.5727,2.224336 0,0.976832 -0.504,1.329719 -2.72557,1.908365 -3.53721,0.921328 -7.52845,0.435136 -10.72934,-1.307005 -0.82655,-0.449865 -3.21332,-2.184601 -5.30395,-3.854972 -4.18021,-3.339911 -7.4099,-5.372439 -10.64421,-6.698689 -1.16431,-0.477433 -3.47141,-1.494915 -5.12689,-2.261072 -1.65548,-0.766156 -3.07238,-1.330592 -3.14867,-1.2543 -0.42244,0.422438 4.65571,6.975721 8.11614,10.47376 2.12645,2.149561 2.7122,2.933769 2.62924,3.52 -0.0905,0.639421 -0.31576,0.76935 -1.47943,0.853289 -5.28933,0.381549 -11.25119,-4.547776 -13.71717,-11.341501 -1.95713,-5.391827 -4.20674,-8.642806 -7.42445,-10.729315 -2.93499,-1.90318 -10.10181,-5.502831 -10.61526,-5.331683 -0.50354,0.167848 6.72403,7.1308 9.33726,8.995398 2.29475,1.637357 2.54394,1.970682 2.19837,2.940653 -0.29775,0.83576 -1.3809,1.060839 -3.51093,0.729575 -3.94528,-0.613578 -8.27166,-3.762023 -12.02823,-8.753338 -1.74532,-2.318982 -6.01453,-6.772291 -7.35663,-7.673862 -0.93029,-0.62492 -6.60765,-1.189254 -9.43028,-0.93737 -5.54803,0.495091 -11.7858,2.40243 -7.85691,2.40243 1.5104,0 5.83703,1.309004 10.57691,3.2 2.23518,0.891737 5.30958,1.982085 6.83198,2.422995 1.52241,0.440909 2.95331,0.986542 3.17978,1.212516 1.32561,1.32273 -1.92087,2.556442 -6.65176,2.527773 -3.92323,-0.02378 -7.71248,-0.925821 -12.30276,-2.928723 -3.3064,-1.4427 -7.12562,-2.58969 -10.3065,-3.095256 -1.25826,-0.199986 -1.58557,-0.05674 -6.12744,2.681596 -2.639,1.591077 -5.42483,3.214911 -6.19074,3.60852 -1.39256,0.715655 -1.39256,0.715655 -0.43256,0.990314 1.89091,0.540989 8.37658,0.678646 12.44251,0.26409 4.48454,-0.457242 4.99749,-0.324794 4.99749,1.290422 0,2.370832 -6.85796,5.886378 -12.8,6.561568 -2.37138,0.269459 -5.71266,-0.472339 -9.19949,-2.042378 -7.39055,-3.327782 -13.38357,-3.683584 -19.1047,-1.134233 -1.4167,0.631286 -3.77678,1.576237 -5.24463,2.099894 -5.14375,1.835034 -11.27426,1.06873 -16.07627,-2.00951 -2.83183,-1.815293 -3.49491,-2.485808 -3.49491,-3.534109 0,-1.50367 0.76629,-1.666685 5.75637,-1.224563 4.45837,0.395014 12.32367,0.18679 12.64602,-0.334787 0.0881,-0.142615 -1.32974,-1.04792 -3.15086,-2.011783 -1.82112,-0.963865 -4.3551,-2.446678 -5.63107,-3.295141 -2.03697,-1.354489 -2.56618,-1.55834 -4.33855,-1.671196 -2.33755,-0.148844 -5.27066,0.605458 -10.08191,2.592745 -6.77171,2.797051 -10.56997,3.556978 -15.41801,3.084699 -3.01527,-0.293737 -4.26199,-0.83176 -4.26199,-1.839267 0,-0.658406 0.46788,-0.896393 4.48,-2.278735 2.464,-0.848952 6.352,-2.218371 8.64,-3.043155 2.288,-0.824784 5.384,-1.685742 6.88,-1.91324 2.60778,-0.396567 2.68039,-0.429765 1.76,-0.80462 -1.57666,-0.642137 -6.23132,-1.574492 -8.96402,-1.795544 -3.17035,-0.256455 -8.64713,0.329745 -9.74626,1.043179 -1.25456,0.814327 -4.12644,3.846176 -6.97427,7.362761 -4.58416,5.66065 -7.74036,8.041722 -11.77995,8.886913 -2.35225,0.492156 -3.39837,0.284633 -3.97244,-0.788032 -0.3991,-0.745728 -0.5832,-0.546378 3.51694,-3.808404 2.77271,-2.205939 8.53581,-7.928164 8.26128,-8.202693 -0.28064,-0.280643 -8.74771,4.112102 -11.30128,5.863145 -2.7983,1.91886 -4.14179,3.822515 -6.22574,8.821584 -2.07183,4.969987 -3.27166,6.908489 -5.66769,9.157062 -2.68598,2.520675 -5.01823,3.592099 -7.93147,3.643671 -2.15055,0.03807 -2.26014,0.0043 -2.36371,-0.728596 -0.0846,-0.598361 0.37595,-1.239123 2.08,-2.894064 1.20373,-1.169049 2.856,-2.911216 3.67169,-3.871481 1.77799,-2.093123 5.07692,-6.666288 5.07692,-7.037917 0,-0.320458 -10.82913,4.343235 -12.82375,5.522698 -0.77894,0.460604 -3.64825,2.580182 -6.376252,4.710176 -3.257491,2.543414 -5.564115,4.098886 -6.72,4.531628 -1.743251,0.652644 -6.287552,1.06376 -8,0.723751 z m 5.962115,-1.521114 c 2.487373,-0.66231 5.246071,-2.26735 8.185699,-4.762537 1.458698,-1.238164 3.156188,-2.553021 3.772188,-2.921911 1.12,-0.67071 1.12,-0.67071 -0.28435,-0.771277 -1.24019,-0.08881 -2.17536,0.28632 -8.000004,3.209095 -3.780278,1.896921 -7.585946,3.573331 -8.915648,3.927373 -1.276,0.339744 -2.32,0.710822 -2.32,0.824617 0,0.848426 5.004141,1.175751 7.562115,0.49464 z M 329.73393,55.579559 c 0.95206,-0.397837 0.9375,-0.40753 -1.76,-1.17161 -1.62826,-0.461216 -5.2993,-2.064054 -9.14614,-3.99336 -5.37538,-2.695916 -6.6275,-3.20614 -7.65762,-3.120377 -1.23147,0.102528 -1.23147,0.102528 2.85935,3.346864 4.22547,3.35112 6.61452,4.75272 8.92582,5.236566 1.77369,0.371312 5.57689,0.204071 6.77859,-0.298083 z m -215.92402,-1.44936 c 1.91198,-0.890163 4.50871,-3.194054 5.93398,-5.264774 0.53427,-0.776221 1.64229,-2.941152 2.46226,-4.810954 0.81998,-1.869802 1.8786,-3.970237 2.35249,-4.667629 0.94848,-1.395814 0.73932,-1.717523 -0.64967,-0.999251 -1.42662,0.737734 -2.52987,1.994195 -5.48778,6.249894 -1.51409,2.17841 -4.01613,5.295524 -5.56008,6.926922 -1.54395,1.631395 -2.80718,3.053059 -2.80718,3.159254 0,0.470285 2.22693,0.11842 3.75598,-0.593462 z M 301.0503,52.098436 c -1.47201,-1.550067 -4.2367,-5.010195 -6.14376,-7.689172 -2.92009,-4.102038 -3.72627,-5.018716 -5.10747,-5.807555 -0.90205,-0.515181 -1.68999,-0.886781 -1.751,-0.825779 -0.061,0.061 0.39523,0.902128 1.01384,1.869171 0.61861,0.967043 1.6519,3.031735 2.29621,4.588202 0.6443,1.556467 1.72311,3.642294 2.39736,4.635171 2.33221,3.434327 6.09501,6.038464 8.73482,6.045139 1.23637,0.0032 1.23637,0.0032 -1.44,-2.815177 z M 70.636968,49.384135 c 3.149965,-1.587984 7.87304,-4.105645 8.05696,-4.294803 0.536854,-0.552151 -4.673731,0.507171 -8.335347,1.694589 -2.384445,0.773244 -5.262573,1.593571 -6.39585,1.82294 -2.060496,0.41704 -2.060496,0.41704 -0.304649,1.30666 2.224384,1.127011 3.953376,0.995859 6.978886,-0.529386 z m 279.527842,0.486086 c 0.55501,-0.324144 0.98026,-0.724944 0.94496,-0.890668 -0.0353,-0.165722 -1.1873,-0.527709 -2.56,-0.804416 -1.3727,-0.276711 -4.29584,-1.095056 -6.49584,-1.818551 -5.04003,-1.657472 -5.75264,-1.794272 -6.90442,-1.325437 -0.93558,0.380839 -0.93558,0.380839 0.0243,0.719015 0.528,0.185997 2.75853,1.249395 4.95674,2.363107 2.19818,1.113712 4.43018,2.15912 4.96,2.32313 1.34605,0.416694 3.87427,0.134595 5.07414,-0.56618 z M 92.192898,42.67674 c -0.51248,-0.748 -2.065322,-3.493316 -3.450762,-6.100704 -1.421834,-2.675882 -3.180749,-5.48319 -4.038358,-6.44541 -1.488647,-1.670222 -4.934388,-4.236016 -5.256368,-3.914036 -0.295924,0.295925 1.203872,5.139515 2.297612,7.42015 1.212157,2.527545 2.99681,4.80656 5.098615,6.510963 1.490845,1.208963 5.585309,3.839129 6.025664,3.87072 0.140454,0.01008 -0.163927,-0.593683 -0.676403,-1.341683 z m 100.289842,0.716752 c 3.23164,-0.821258 8.16968,-3.132743 7.4901,-3.506106 -1.33129,-0.731421 -6.46435,-1.023824 -11.1168,-0.633267 -2.8174,0.236509 -6.36236,0.31008 -8.85711,0.183814 -4.15959,-0.210521 -4.15959,-0.210521 -3.10376,0.878813 1.25993,1.299923 3.72977,2.695085 5.76435,3.256166 2.33383,0.643607 6.91378,0.559952 9.82322,-0.17942 z m 38.63934,-0.004 c 1.98686,-0.613677 5.98651,-2.985143 6.19436,-3.672746 0.0875,-0.28951 -6.12672,-0.500262 -17.66251,-0.599008 -2.95806,-0.02531 -6.56816,0.542541 -6.55395,1.030925 0.007,0.232061 7.20204,3.072627 8.95395,3.534857 2.11147,0.557098 6.80527,0.404903 9.06815,-0.294028 z m 95.08593,-2.777437 c 2.11638,-1.734039 4.31971,-4.558371 5.69123,-7.295309 0.89591,-1.787797 2.15469,-5.651833 2.15469,-6.614183 0,-0.604097 -0.0481,-0.599984 -1.32848,0.113708 -2.37123,1.321693 -4.3841,3.428943 -6.16678,6.455937 -3.51792,5.973376 -5.86558,10.291719 -5.72479,10.530359 0.22301,0.378019 3.11231,-1.33729 5.37413,-3.190512 z M 29.58966,39.572861 c 3.122648,-1.415875 4.644895,-2.875977 8.273919,-7.936122 1.204858,-1.68 1.204858,-1.68 0.178311,-1.68 -0.895786,0 -1.673706,0.639262 -6.107254,5.018692 -2.794389,2.760278 -5.080708,5.136278 -5.080708,5.28 0,0.441408 0.571114,0.298915 2.735732,-0.68257 z m 27.504268,-1.18991 c 1.936,-0.98088 3.592,-1.857962 3.68,-1.949072 0.339606,-0.351616 -4.497638,0.233203 -8.16,0.986537 -2.112,0.434432 -4.62391,0.89418 -5.582026,1.021658 -1.721817,0.229094 -1.732185,0.236941 -0.89366,0.676288 1.623078,0.850416 4.209203,1.390003 5.835686,1.2176 1.063414,-0.11272 2.78049,-0.767693 5.12,-1.953011 z m 307.360002,1.705561 c 0.968,-0.230025 2.1839,-0.642422 2.70202,-0.916441 0.94204,-0.498215 0.94204,-0.498215 -0.8,-0.725517 -0.95812,-0.125018 -3.39488,-0.578982 -5.41504,-1.008813 -3.4889,-0.742329 -8.66967,-1.364601 -8.32698,-1.000166 0.45005,0.478605 6.60746,3.496838 7.62355,3.736918 1.6768,0.396176 2.23536,0.384787 4.21645,-0.08598 z m 17.87014,-4.390576 c -4.38585,-4.438191 -6.07862,-5.741197 -7.45852,-5.741197 -0.31168,0 0.44153,1.266627 2.07804,3.494394 1.86839,2.543453 3.04954,3.814717 4.34029,4.671466 1.60771,1.067158 4.54797,2.353475 5.44611,2.382595 0.19581,0.0064 -1.78684,-2.156915 -4.40592,-4.807258 z m -247.20565,3.877901 c 3.17611,-1.092742 4.92006,-2.594761 9.96568,-8.583198 1.37359,-1.630255 3.00385,-3.370359 3.6228,-3.866898 0.85059,-0.682366 1.00827,-0.94773 0.64579,-1.086823 -1.06198,-0.407521 -3.24967,1.162972 -8.38866,6.022037 -2.94442,2.784041 -6.1288,5.645519 -7.0764,6.358837 -0.94759,0.713322 -1.72983,1.404948 -1.7383,1.536948 -0.0263,0.40935 1.08746,0.266473 2.96909,-0.380903 z m 145.90507,0.424672 c 0.10793,-0.107929 -0.55207,-0.787462 -1.46666,-1.510073 -0.9146,-0.722615 -3.90157,-3.478308 -6.63773,-6.123769 -4.53388,-4.383601 -7.99051,-6.99125 -8.53959,-6.442177 -0.10516,0.105167 0.41339,0.875445 1.15235,1.71173 0.73896,0.836286 2.16673,2.518052 3.17282,3.737258 3.18828,3.863646 4.32846,5.021719 6.39834,6.498759 2.40489,1.716087 5.29407,2.754682 5.92047,2.128272 z M 112.13393,38.514836 c -0.88,-0.746775 -2.79582,-2.477568 -4.25739,-3.846208 -1.46156,-1.36864 -3.40556,-2.983201 -4.32,-3.587911 -1.90407,-1.25915 -5.78634,-2.801637 -6.694353,-2.659776 -0.546669,0.08541 -0.467385,0.320902 0.730928,2.171033 1.895392,2.926388 4.739985,5.553015 7.458385,6.886903 2.27328,1.115469 6.36043,2.348586 7.88243,2.378176 0.72219,0.01405 0.64438,-0.116509 -0.8,-1.342217 z m 193.11287,0.265731 c 3.02429,-1.023194 5.46058,-2.500909 7.70231,-4.671802 1.63454,-1.582884 4.63535,-5.688157 4.3595,-5.964017 -0.18676,-0.186758 -4.12712,1.198288 -5.80777,2.041448 -1.94695,0.976749 -3.5979,2.283133 -7.31246,5.786288 -1.55405,1.465603 -3.28205,2.956908 -3.84,3.314012 -1.01445,0.649277 -1.01445,0.649277 0.79124,0.460999 0.99313,-0.103555 2.84136,-0.538672 4.10718,-0.966928 z M 71.175592,34.499613 c -1.709136,-5.510812 -4.62425,-9.919272 -8.067133,-12.199744 -0.815328,-0.540051 -1.528166,-0.936161 -1.584083,-0.880245 -0.05592,0.05592 0.190723,1.171643 0.54809,2.479392 0.939001,3.436197 3.501353,8.512273 5.316889,10.532876 1.689987,1.880876 4.347882,3.754921 4.53392,3.196806 0.06347,-0.190416 -0.272985,-1.598502 -0.747683,-3.129085 z m 272.302078,2.332944 c 3.24461,-2.476681 5.36954,-5.704331 7.20602,-10.945665 1.9407,-5.538837 1.928,-5.138428 0.12406,-3.905181 -2.47308,1.690725 -5.08144,4.491377 -6.14476,6.597843 -0.53997,1.069645 -1.55837,3.617095 -2.26314,5.660997 -1.44086,4.178713 -1.33488,4.433651 1.07782,2.592006 z M 198.10632,33.446128 c -0.85553,-1.831164 -1.9545,-4.303721 -2.44215,-5.494572 -1.91553,-4.677665 -4.89499,-8.546394 -8.56899,-11.126543 -1.24389,-0.873551 -2.38304,-1.588274 -2.53144,-1.588274 -0.58773,0 -0.18895,1.445173 1.64373,5.956856 2.90306,7.146691 5.16548,10.487353 9.13593,13.489951 1.85148,1.400157 3.86867,2.426458 4.23448,2.154403 0.0462,-0.03434 -0.61603,-1.560659 -1.47156,-3.391821 z m 17.81814,2.45568 c 3.52623,-1.786876 6.5586,-5.005202 9.0259,-9.579413 1.36605,-2.532587 4.60145,-10.734442 4.33825,-10.997645 -0.0894,-0.08944 -0.92584,0.303064 -1.85865,0.872242 -5.03015,3.069258 -7.53171,6.475955 -10.82455,14.741127 -0.71195,1.787033 -1.58021,3.809283 -1.92947,4.493885 -0.34926,0.684604 -0.5553,1.244736 -0.45788,1.244736 0.0974,0 0.86531,-0.34872 1.7064,-0.774932 z M 161.5551,34.205012 c 1.13364,-0.270804 3.87811,-1.246525 6.09883,-2.168273 2.22072,-0.921747 5.03719,-1.918235 6.25883,-2.214418 1.22164,-0.296183 2.43717,-0.622926 2.70117,-0.726095 0.89732,-0.350666 -1.01349,-0.674652 -4.16,-0.705347 -3.75705,-0.03665 -6.51775,0.59424 -13.0644,2.98555 -2.68066,0.979171 -5.01843,1.780311 -5.19504,1.780311 -0.67322,0 -2.62788,0.979369 -2.40338,1.204201 0.33472,0.335223 3.8626,0.609139 5.94282,0.461418 0.968,-0.06874 2.68753,-0.346544 3.82117,-0.617347 z m 98.24308,0.525212 c 0.88866,-0.190585 1.61296,-0.442585 1.60955,-0.56 -0.009,-0.303641 -12.53811,-4.736233 -15.0338,-5.318632 -2.13381,-0.497951 -7.38264,-0.606208 -9.12,-0.1881 -0.96,0.231031 -0.96,0.231031 -0.0592,0.602139 0.49546,0.20411 1.16429,0.371108 1.48629,0.371108 1.02028,0 4.61158,1.228349 7.5205,2.572276 4.83602,2.234249 10.25194,3.238515 13.59663,2.521209 z m 141.29575,-3.328173 c 4.16,-0.706644 4.16,-0.706644 1.79254,-1.864709 -3.30198,-1.615198 -6.44726,-2.26104 -10.07433,-2.068626 -2.67626,0.141974 -7.55821,1.333984 -7.55821,1.845459 0,0.377852 5.64272,2.599133 7.20483,2.836206 1.90781,0.28954 3.16832,0.180302 8.63517,-0.74833 z M 23.363832,31.596724 c 2.226155,-0.772053 4.770096,-2.017231 4.770096,-2.33481 0,-0.226167 -1.169714,-0.610478 -4.64,-1.52448 -1.622405,-0.427308 -6.281404,-0.426135 -8.139235,0.002 -2.01061,0.463396 -6.8280543,2.581952 -6.5189701,2.866832 0.1420128,0.13094 1.6982051,0.531476 3.4582051,0.890129 4.22535,0.861041 8.758,0.902121 11.069904,0.100329 z M 131.4312,29.181561 c 2.15487,-0.462211 2.6632,-0.714614 1.94853,-0.967509 -2.11605,-0.748789 -9.30452,-3.308324 -11.4858,-4.089646 -2.25908,-0.809189 -3.3436,-0.998888 -6.4,-1.119461 -2.024,-0.07985 -4.03268,-0.01057 -4.46373,0.15395 -0.77189,0.294603 -0.7598,0.316679 0.8,1.460665 3.01094,2.208286 7.66403,4.293826 10.70373,4.797472 1.83479,0.304005 7.02223,0.166716 8.89727,-0.235471 z m 161.11413,-0.167276 c 1.33857,-0.342349 3.3416,-1.068279 4.45118,-1.613176 2.24073,-1.100386 6.01742,-3.55273 6.01742,-3.907327 0,-0.43256 -2.26317,-0.650522 -5.36705,-0.516893 -2.72555,0.117342 -3.6904,0.336064 -7.75295,1.757519 -8.05079,2.816905 -9.76,3.481273 -9.76,3.793697 0,1.119063 8.61705,1.456611 12.4114,0.48618 z M 49.924344,26.493572 c -0.58529,-1.093623 -4.684896,-4.694453 -6.391923,-5.614254 -1.869299,-1.007236 -4.468215,-1.792867 -5.950483,-1.798781 -0.927712,-0.0037 -0.890983,0.05777 1.44,2.410093 3.624764,3.657953 7.019139,5.549926 10.003248,5.575663 1.074076,0.0093 1.175913,-0.0556 0.899158,-0.572721 z M 369.18238,25.622273 c 1.67625,-0.827065 3.1103,-1.910638 5.12,-3.868741 2.79155,-2.719905 2.79155,-2.719905 0.74614,-2.564577 -3.09437,0.234986 -6.31683,1.941498 -9.23459,4.890303 -1.276,1.289582 -2.32,2.51163 -2.32,2.715661 0,0.693954 3.27258,0.01933 5.68845,-1.172646 z M 237.43953,24.436739 c 4.89931,-2.930079 9.92453,-7.697858 12.46466,-11.826087 0.95162,-1.546577 0.95162,-1.546577 0.0707,-1.347474 -0.48452,0.109507 -2.20911,0.833706 -3.83244,1.609331 -3.44234,1.644754 -6.35494,4.170839 -8.35717,7.248146 -1.25136,1.923266 -3.08378,5.676084 -2.77151,5.676084 0.0835,0 1.17507,-0.612 2.42578,-1.36 z m -60.05167,-1.254673 c -2.26994,-4.487975 -6.11562,-8.587558 -9.81903,-10.46731 -1.9292,-0.979212 -4.7149,-1.677134 -4.7149,-1.181259 0,0.121564 0.89247,1.400524 1.98327,2.842134 2.26138,2.988659 4.8814,5.664798 7.42955,7.588665 2.15284,1.625413 5.75173,3.584056 5.8854,3.203051 0.054,-0.153975 -0.28991,-1.047352 -0.76429,-1.985281 z m 86.14275,-2.040671 c 3.31479,-0.578051 7.65101,-1.9731 10.27452,-3.305522 2.02507,-1.028482 4.70956,-2.885043 4.48963,-3.10497 -0.75644,-0.756436 -7.06559,-0.249759 -10.70017,0.859311 -2.72023,0.830063 -6.70938,2.79543 -8.8227,4.346751 -1.38554,1.017078 -1.52398,1.212774 -1.00272,1.417394 0.97215,0.381615 2.72299,0.316897 5.76144,-0.212964 z m -107.71668,0.0089 c 0,-0.09155 -1.07,-0.864967 -2.37779,-1.718697 -4.45094,-2.905604 -11.02529,-5.152705 -15.06221,-5.148231 -1.99693,0.0022 -3.36201,0.242403 -3.3572,0.59071 0.005,0.345806 3.57548,2.524147 5.76457,3.516728 2.56523,1.163128 5.11389,1.917133 8.28734,2.451755 2.46607,0.41545 6.74529,0.610678 6.74529,0.307735 z"
       id="path848" />
    <path
       style="fill:#ffcc00;fill-rule:evenodd;stroke:#000000;stroke-width:0;stroke-dasharray:none"
       d="m 14.868619,18.186209 c -1.429504,0.01682 -2.879153,0.03593 -4.272736,0.390231 -1.3987792,0.396836 -2.7481869,0.949579 -4.0784115,1.532215 -0.6884952,0.319662 -1.3944861,0.620956 -2.0203921,1.055512 -0.083034,0.05935 -0.2332081,0.187904 -0.1256129,0.29134 0.3518947,0.174569 0.7473695,0.243333 1.122838,0.352946 2.1217799,0.542871 4.2826079,0.949896 6.4684965,1.114634 1.872292,0.146782 3.767826,0.15294 5.625963,-0.146713 1.171765,-0.192541 2.268742,-0.669895 3.358138,-1.122649 0.853016,-0.379382 1.716071,-0.756392 2.495879,-1.274718 0.106749,-0.0916 0.298805,-0.186058 0.273986,-0.352216 -0.121195,-0.196192 -0.375833,-0.24596 -0.571308,-0.3388 -1.236391,-0.445425 -2.513094,-0.766435 -3.781123,-1.107089 -0.911147,-0.261043 -1.861094,-0.325872 -2.803171,-0.370993 -0.563856,-0.02284 -1.128307,-0.02482 -1.692546,-0.0237 z"
       id="path1267"
       transform="translate(4.4511053,9.1957993)" />
    <path
       style="fill:#ffe680;fill-rule:evenodd;stroke:#000000;stroke-width:0;stroke-dasharray:none"
       d="m 33.01317,9.8571402 c -0.709494,0.049754 0.02072,0.8753848 0.231872,1.1113908 2.709496,2.796923 5.734346,5.695081 9.606369,6.710138 0.85194,0.102997 1.915214,0.455312 2.6858,0.0189 -0.238575,-1.136167 -1.421774,-1.8549 -2.163863,-2.683458 C 40.901892,12.620118 37.923747,10.621438 34.468735,10.054123 33.988804,9.9613789 33.504199,9.8564696 33.01317,9.8571402 Z"
       id="path1269"
       transform="translate(4.4511053,9.1957993)" />
    <path
       style="fill:#d4aa00;fill-rule:evenodd;stroke:#000000;stroke-width:0;stroke-dasharray:none"
       d="m 33.741134,20.774063 c -2.068985,0.285103 -3.220756,2.32594 -4.740236,3.530512 -2.195518,2.224724 -4.555661,4.338533 -6.535762,6.748215 0.23673,0.545218 1.043363,-0.06716 1.429397,-0.144284 2.339324,-0.966465 4.631718,-2.211768 6.20626,-4.254224 1.462013,-1.797765 3.086147,-3.542539 4.18586,-5.584745 -0.0042,-0.272783 -0.339028,-0.308886 -0.545519,-0.295474 z"
       id="path1271"
       transform="translate(4.4511053,9.1957993)" />
    <path
       style="fill:#d4aa00;fill-rule:evenodd;stroke:#000000;stroke-width:0;stroke-dasharray:none"
       d="m 55.444869,27.146932 c -4.739787,0.441681 -9.410516,1.48005 -14.081006,2.332176 -0.295127,0.37777 0.687959,0.543376 0.928218,0.718151 2.756209,1.179604 6.084141,1.330395 8.716912,-0.258992 1.645367,-0.873841 3.511115,-1.503413 4.961042,-2.665949 -0.02424,-0.217975 -0.390635,-0.09249 -0.525166,-0.125386 z"
       id="path1273"
       transform="translate(4.4511053,9.1957993)" />
    <path
       style="fill:#ffd42a;fill-rule:evenodd;stroke:#000000;stroke-width:0;stroke-dasharray:none"
       d="m 57.026547,12.239107 c 0.868275,4.210477 2.638022,8.252595 5.038524,11.815736 1.320446,1.808131 2.965723,3.546551 5.037769,4.453887 0.649307,-0.221718 0.07373,-1.24979 0.06142,-1.71942 C 65.7941,21.564281 63.144382,16.453803 58.772134,13.136796 58.231008,12.815357 57.587252,12.331435 57.026547,12.239107 Z"
       id="path1275"
       transform="translate(4.4511053,9.1957993)" />
    <path
       style="fill:#ffd42a;fill-rule:evenodd;stroke:#000000;stroke-width:0;stroke-dasharray:none"
       d="m 75.190405,17.071729 c -0.520465,0.382709 0.06212,1.247389 0.09369,1.759494 1.215192,4.454603 3.160161,8.95796 6.873667,11.896962 1.924649,1.529292 3.973562,3.0412 6.213412,4.028756 C 88.132479,33.713672 87.232428,32.802756 86.781111,31.800929 84.445031,27.96109 82.70142,23.670648 79.63524,20.324491 78.297127,19.102132 76.929893,17.736476 75.224204,17.069549 Z"
       id="path1277"
       transform="translate(4.4511053,9.1957993)" />
    <path
       style="fill:#d4aa00;fill-rule:evenodd;stroke:#000000;stroke-width:0;stroke-dasharray:none"
       d="m 73.885666,35.71278 c -5.087148,0.730351 -9.927741,2.579609 -14.896683,3.830932 -0.220109,0.107823 -1.330895,0.265887 -0.730021,0.638981 1.44524,0.927555 3.167059,1.630931 4.897678,1.126655 2.814977,-0.69355 5.280702,-2.353693 7.862346,-3.617468 0.989257,-0.648814 2.292839,-1.06652 3.0782,-1.929309 -0.04061,-0.07084 -0.14719,-0.03963 -0.21152,-0.04979 z"
       id="path1279"
       transform="translate(4.4511053,9.1957993)" />
    <path
       style="fill:#d4aa00;fill-rule:evenodd;stroke:#000000;stroke-width:0;stroke-dasharray:none"
       d="m 97.55923,38.117643 c -2.582591,0.393428 -4.80494,1.976059 -7.183971,2.964458 -3.713274,1.799573 -7.453828,3.583725 -11.39675,4.820001 -0.562868,0.353114 0.471564,0.702395 0.734507,0.740684 2.364331,0.457874 4.860741,0.285176 7.196417,-0.264582 4.751974,-1.52621 8.140064,-5.41242 12.206397,-8.097741 -0.339352,-0.207126 -1.082482,-0.140393 -1.5566,-0.16282 z"
       id="path1281"
       transform="translate(4.4511053,9.1957993)" />
    <path
       style="fill:#ffd42a;fill-rule:evenodd;stroke:#000000;stroke-width:0;stroke-dasharray:none"
       d="m 92.549613,19.234907 c -0.794328,0.09135 -0.09909,1.099452 0.09777,1.451931 2.388997,3.797184 5.878685,7.051947 10.183267,8.512108 1.93156,0.688182 3.95911,1.475179 6.01366,1.475143 0.14737,-0.468131 -0.74117,-0.773533 -0.93912,-1.156821 -3.08093,-2.722835 -5.95386,-5.752828 -9.436636,-7.973445 -1.824537,-1.051566 -3.804858,-2.057245 -5.918936,-2.308916 z"
       id="path1283"
       transform="translate(4.4511053,9.1957993)" />
    <path
       style="fill:#ffd42a;fill-rule:evenodd;stroke:#000000;stroke-width:0;stroke-dasharray:none"
       d="m 120.33801,28.794755 c -2.69058,0.945739 -4.09684,3.692913 -5.79131,5.790747 -2.50309,3.656208 -5.48355,6.936228 -8.36529,10.286982 -0.25598,0.243934 -0.75167,0.909033 -0.0781,0.935488 4.37161,-0.517641 8.01407,-3.794741 9.96181,-7.613644 1.53085,-2.948747 2.9802,-5.950741 4.51716,-8.890034 0.0846,-0.203311 0.0589,-0.561386 -0.24423,-0.509539 z"
       id="path1285"
       transform="translate(4.4511053,9.1957993)" />
    <path
       style="fill:#ffe680;fill-rule:evenodd;stroke:#000000;stroke-width:0;stroke-dasharray:none"
       d="m 108.54957,13.822965 c -0.7597,0.128761 -1.88634,-0.17593 -2.46411,0.404506 1.08618,1.383029 2.82211,2.133264 4.28275,3.075404 2.62248,1.328605 5.38168,2.662319 8.34088,2.957651 3.00088,-0.01938 6.05941,0.174447 9.01651,-0.420496 0.36109,-0.189554 1.19944,-0.192158 1.28111,-0.634925 -4.44474,-1.909187 -9.06985,-3.418573 -13.67772,-4.894926 -2.19841,-0.541614 -4.53148,-0.437791 -6.77942,-0.487214 z"
       id="path1287"
       transform="translate(4.4511053,9.1957993)" />
    <path
       style="fill:#d4aa00;fill-rule:evenodd;stroke:#000000;stroke-width:0;stroke-dasharray:none"
       d="m 144.5044,16.697389 c -2.74455,0.982102 -4.7574,3.294545 -6.92864,5.146782 -3.24139,3.06911 -6.59924,6.010338 -9.96755,8.934224 0.33121,0.460478 1.22022,-0.0049 1.71687,-0.01781 3.65591,-0.728522 6.48589,-3.345622 8.82571,-6.090842 2.09252,-2.541132 4.46202,-4.839435 6.58548,-7.345063 0.22551,-0.272603 0.21546,-0.677372 -0.23187,-0.627293 z"
       id="path1289"
       transform="translate(4.4511053,9.1957993)" />
    <path
       style="fill:#ffe680;fill-rule:evenodd;stroke:#000000;stroke-width:0;stroke-dasharray:none"
       d="m 133.41375,5.1437248 c -0.89254,0.1086964 -2.03368,-0.101221 -2.75776,0.505541 0.37311,0.7887108 1.46646,1.1009116 2.13083,1.6409183 5.45678,3.3509189 11.9563,5.0045589 18.34594,4.7748359 0.56233,-0.15755 -0.40592,-0.629103 -0.54205,-0.777034 -4.26832,-2.9618731 -9.16389,-5.0751048 -14.28102,-5.9957493 -0.96009,-0.1181977 -1.929,-0.1604357 -2.89594,-0.1485119 z"
       id="path1291"
       transform="translate(4.4511053,9.1957993)" />
    <path
       style="fill:#ffcc00;fill-rule:evenodd;stroke:#000000;stroke-width:0;stroke-dasharray:none"
       d="m 158.87724,2.2082436 c -0.84254,0.026794 0.002,0.9660955 0.19953,1.2734835 3.87506,5.0638278 8.37721,10.0854569 14.39429,12.5709249 0.49264,-0.229713 -0.12669,-0.973431 -0.20026,-1.326545 -2.19484,-4.626585 -5.68203,-8.8246938 -10.25328,-11.2389283 -1.30814,-0.592771 -2.69208,-1.18732 -4.14028,-1.2789351 z"
       id="path1293"
       transform="translate(4.4511053,9.1957993)" />
    <path
       style="fill:#d4aa00;fill-rule:evenodd;stroke:#000000;stroke-width:0;stroke-dasharray:none"
       d="m 167.00878,19.241449 c -5.07899,0.01007 -9.76848,2.265851 -14.53276,3.73686 -1.64584,0.680696 -3.49817,1.016085 -5.0187,1.936392 -0.0898,0.561013 0.8921,0.461996 1.25132,0.58368 5.20565,0.842015 10.33266,-0.91096 15.08173,-2.863052 2.74604,-1.127763 5.60127,-1.945407 8.43701,-2.790211 0.41419,-0.362104 -0.63872,-0.452149 -0.85045,-0.474286 -1.45017,-0.15246 -2.91186,-0.140873 -4.36815,-0.129383 z"
       id="path1295"
       transform="translate(4.4511053,9.1957993)" />
    <path
       style="fill:#ffd42a;fill-rule:evenodd;stroke:#000000;stroke-width:0;stroke-dasharray:none"
       d="m 188.86734,29.964659 c -5.40333,0.22104 -10.81658,0.140498 -16.22165,0.240232 -0.40923,-0.08474 -1.05837,0.284773 -0.52626,0.665817 2.72376,2.529451 6.41875,4.208954 10.19331,3.894617 3.60031,0.09547 7.18105,-0.686263 10.41439,-2.271668 0.89547,-0.541321 2.16099,-0.761048 2.77657,-1.647299 -0.36746,-0.587309 -1.35874,-0.50525 -1.97855,-0.686896 -1.54228,-0.205226 -3.1047,-0.206685 -4.65781,-0.194803 z"
       id="path1297"
       transform="translate(4.4511053,9.1957993)" />
    <path
       style="fill:#ffdd55;fill-rule:evenodd;stroke:#000000;stroke-width:0;stroke-dasharray:none"
       d="m 180.11832,6.0948396 c -0.54776,0.4469216 0.0379,1.3528597 0.12531,1.9258829 1.71332,4.6861005 3.54766,9.4543065 6.56775,13.4733095 2.11769,2.433976 4.53387,4.837299 7.58348,6.037417 0.33426,0.199946 0.88452,0.09895 0.5139,-0.365619 -1.77266,-4.105095 -3.42391,-8.288443 -5.57985,-12.211121 -2.21066,-3.579211 -5.3019,-6.6607215 -8.91984,-8.8042635 -0.0918,-0.034748 -0.19065,-0.074019 -0.29075,-0.055606 z"
       id="path1299"
       transform="translate(4.4511053,9.1957993)" />
    <path
       style="fill:#ffdd55;fill-rule:evenodd;stroke:#000000;stroke-width:0;stroke-dasharray:none"
       d="m 224.6092,6.0955665 c -4.37606,2.0797174 -7.87121,5.7514105 -9.99866,10.0838225 -1.74086,3.597964 -3.23942,7.318772 -4.76234,11.007522 0.14831,0.537061 0.92651,-0.251217 1.21715,-0.270036 5.85986,-2.812981 9.36141,-8.757821 11.61673,-14.611195 0.70255,-1.987148 1.72507,-3.9119044 2.09393,-5.9931416 -8.6e-4,-0.092437 -0.0377,-0.2543081 -0.16681,-0.2169719 z"
       id="path1301"
       transform="translate(4.4511053,9.1957993)" />
    <path
       style="fill:#ffd42a;fill-rule:evenodd;stroke:#000000;stroke-width:0;stroke-dasharray:none"
       d="m 216.41369,29.917049 c -2.49458,0.136928 -5.12639,-0.07051 -7.50716,0.78248 -0.45065,0.474212 0.68816,0.649141 0.94349,0.861709 2.93307,1.18195 5.85747,2.54503 8.97399,3.15209 3.88598,0.342974 8.04753,0.0062 11.39475,-2.186575 0.82191,-0.589649 2.0208,-0.997848 2.49109,-1.925352 -0.56793,-0.509066 -1.58172,-0.164647 -2.28806,-0.349414 -4.66525,-0.220222 -9.33738,-0.341717 -14.0081,-0.334938 z"
       id="path1303"
       transform="translate(4.4511053,9.1957993)" />
    <path
       style="fill:#ffd42a;fill-rule:evenodd;stroke:#000000;stroke-width:0;stroke-dasharray:none"
       d="m 245.77068,2.0446969 c -5.1431,1.5379515 -9.99243,4.7327775 -12.76391,9.4271941 -0.87578,1.614638 -1.98084,3.207316 -2.44811,4.984903 0.64993,0.08961 1.29338,-0.656802 1.90971,-0.882358 5.10985,-3.134436 9.78476,-7.1995484 13.06063,-12.2577093 0.072,-0.258841 0.92135,-1.196159 0.24168,-1.2720298 z"
       id="path1305"
       transform="translate(4.4511053,9.1957993)" />
    <path
       style="fill:#d4aa00;fill-rule:evenodd;stroke:#000000;stroke-width:0;stroke-dasharray:none"
       d="m 236.24645,19.18766 c -1.34674,0.07184 -2.81209,0.04359 -4.07122,0.473922 0.22133,0.590433 1.19139,0.519277 1.71354,0.715456 6.02853,1.159326 11.32136,5.067162 17.57758,5.279275 1.73361,-0.0292 3.59924,0.140814 5.22743,-0.530455 0.22184,-0.513437 -0.85945,-0.53278 -1.13173,-0.781445 -4.48632,-1.688964 -8.97218,-3.46213 -13.62225,-4.647259 -1.87252,-0.368294 -3.78614,-0.522507 -5.69335,-0.509494 z"
       id="path1307"
       transform="translate(4.4511053,9.1957993)" />
    <path
       style="fill:#ffe680;fill-rule:evenodd;stroke:#000000;stroke-width:0;stroke-dasharray:none"
       d="m 271.28578,5.1684386 c -4.78844,0.1106748 -9.55518,1.2697692 -13.74809,3.6169257 -1.52486,0.9124677 -3.25881,1.6917357 -4.45029,3.0288847 0.002,0.656535 1.04661,0.379522 1.45665,0.499726 4.89651,0.03322 9.70095,-1.448115 14.16193,-3.3657905 1.77205,-0.8917043 3.65653,-1.8172051 5.01301,-3.2851081 -0.17478,-0.6402679 -1.21638,-0.3929305 -1.73136,-0.4969547 -0.23391,-0.00604 -0.46795,-0.00139 -0.70185,0.00232 z"
       id="path1309"
       transform="translate(4.4511053,9.1957993)" />
    <path
       style="fill:#d4aa00;fill-rule:evenodd;stroke:#000000;stroke-width:0;stroke-dasharray:none"
       d="m 260.1846,16.670858 c -0.50126,0.247469 0.25372,0.891428 0.40984,1.165294 2.78267,3.305119 5.40177,6.799128 8.61612,9.704746 2.04345,1.62468 4.39902,3.450221 7.14226,3.358158 0.58887,-0.249355 -0.42837,-0.783399 -0.57745,-1.041513 -4.44012,-3.811713 -8.43981,-8.126321 -13.04381,-11.745657 -0.79699,-0.526461 -1.58841,-1.254533 -2.54696,-1.441028 z"
       id="path1311"
       transform="translate(4.4511053,9.1957993)" />
    <path
       style="fill:#ffe680;fill-rule:evenodd;stroke:#000000;stroke-width:0;stroke-dasharray:none"
       d="m 293.56666,13.822239 c -4.00732,-0.170737 -7.68292,1.673166 -11.41084,2.852981 -2.11838,0.838853 -4.39108,1.429438 -6.37541,2.537154 -0.14265,0.647981 0.95456,0.666744 1.37379,0.824639 3.19596,0.419384 6.45621,0.239963 9.66416,0.02726 4.07165,-0.590123 7.69558,-2.816225 11.05248,-5.070674 0.38005,-0.164553 1.0205,-0.846768 0.27331,-0.976919 -1.5,-0.283707 -3.05888,-0.169351 -4.57749,-0.194438 z"
       id="path1313"
       transform="translate(4.4511053,9.1957993)" />
    <path
       style="fill:#ffd42a;fill-rule:evenodd;stroke:#000000;stroke-width:0;stroke-dasharray:none"
       d="m 312.55515,18.956877 c -3.72598,0.902466 -7.23689,2.668531 -10.05448,5.288737 -2.41344,2.119527 -4.74011,4.350479 -7.23749,6.362329 0.50561,0.296144 1.37755,-0.144829 1.97662,-0.145034 5.36091,-0.837412 10.37461,-3.759408 13.54614,-8.191849 0.678,-1.04823 1.71286,-2.012327 2.04979,-3.215691 -0.0388,-0.114515 -0.18349,-0.111573 -0.28058,-0.09849 z"
       id="path1315"
       transform="translate(4.4511053,9.1957993)" />
    <path
       style="fill:#ffd42a;fill-rule:evenodd;stroke:#000000;stroke-width:0;stroke-dasharray:none"
       d="m 283.67135,28.638478 c 0.25457,1.046991 1.15736,2.027814 1.59295,3.07395 2.03684,3.850834 3.37236,8.292778 6.85915,11.159699 1.75474,1.523297 3.94332,2.843836 6.31799,2.892595 0.70344,-0.231778 -0.18864,-0.941305 -0.3718,-1.255311 -3.67839,-3.972836 -6.87283,-8.342779 -10.1021,-12.677412 -1.0337,-1.528805 -2.56753,-2.614305 -4.29619,-3.193521 z"
       id="path1317"
       transform="translate(4.4511053,9.1957993)" />
    <path
       style="fill:#d4aa00;fill-rule:evenodd;stroke:#000000;stroke-width:0;stroke-dasharray:none"
       d="m 306.694,38.102742 c -0.31784,-0.08331 -0.91591,0.150251 -0.47792,0.48955 2.89695,2.676381 6.04237,5.151393 9.50341,7.062099 2.83452,1.621054 6.25757,1.384168 9.34517,0.796137 0.2957,0.01667 0.98752,-0.402262 0.39941,-0.585133 -3.1999,-1.130656 -6.37505,-2.329617 -9.41172,-3.865528 -2.79145,-1.24092 -5.46303,-2.81656 -8.35017,-3.811354 -0.33228,-0.05933 -0.67057,-0.09105 -1.00818,-0.08577 z"
       id="path1319"
       transform="translate(4.4511053,9.1957993)" />
    <path
       style="fill:#ffd42a;fill-rule:evenodd;stroke:#000000;stroke-width:0;stroke-dasharray:none"
       d="m 329.43099,17.073183 c -4.17088,1.720744 -6.68718,5.773009 -8.81376,9.533104 -1.42775,2.627924 -3.15985,5.150287 -4.16313,7.975114 0.45885,0.208808 1.10244,-0.444547 1.57369,-0.593493 6.10359,-3.331224 10.40895,-9.621407 11.56275,-16.450616 -0.004,-0.130762 0.069,-0.48013 -0.15955,-0.464109 z"
       id="path1321"
       transform="translate(4.4511053,9.1957993)" />
    <path
       style="fill:#d4aa00;fill-rule:evenodd;stroke:#000000;stroke-width:0;stroke-dasharray:none"
       d="m 331.79805,35.71169 c -0.49805,0.10766 -1.53868,-0.05978 -1.68707,0.551334 3.11805,1.52929 6.29101,3.080689 9.48135,4.506256 2.09154,0.992431 4.71241,0.764539 6.67997,-0.401961 0.53292,-0.226933 0.32411,-0.814179 -0.18208,-0.862073 -4.21158,-1.086017 -8.37623,-2.353482 -12.54185,-3.608203 -0.57191,-0.13882 -1.16141,-0.210807 -1.75032,-0.185353 z"
       id="path1323"
       transform="translate(4.4511053,9.1957993)" />
    <path
       style="fill:#ffd42a;fill-rule:evenodd;stroke:#000000;stroke-width:0;stroke-dasharray:none"
       d="m 347.4571,12.05121 c -2.48212,1.508132 -4.65351,3.592041 -6.37068,5.938198 -1.92796,2.963156 -2.94099,6.413904 -3.99091,9.758649 -0.20853,0.384683 -0.16103,1.255055 0.4652,0.874793 2.30645,-1.3669 4.23457,-3.38745 5.72216,-5.606433 1.90844,-3.354628 3.41922,-6.977659 4.34687,-10.723522 0.0148,-0.108155 -0.0225,-0.28831 -0.17264,-0.241685 z"
       id="path1325"
       transform="translate(4.4511053,9.1957993)" />
    <path
       style="fill:#d4aa00;fill-rule:evenodd;stroke:#000000;stroke-width:0;stroke-dasharray:none"
       d="m 348.74767,27.146932 c -0.74471,0.01124 0.10352,0.605249 0.39251,0.67672 2.51619,1.19816 4.94162,2.77002 7.68782,3.377626 2.01811,0.288452 4.01424,-0.531633 5.88547,-1.195187 0.33013,-0.04013 0.87924,-0.542937 0.23914,-0.602942 -4.72982,-0.747277 -9.41176,-1.983102 -14.20494,-2.256217 z"
       id="path1327"
       transform="translate(4.4511053,9.1957993)" />
    <path
       style="fill:#ffe680;fill-rule:evenodd;stroke:#000000;stroke-width:0;stroke-dasharray:none"
       d="m 371.04708,10.000698 c -4.45676,0.08108 -8.16246,3.116091 -10.99084,6.290684 -0.2234,0.449803 -1.20134,0.935095 -0.87211,1.503587 1.21194,0.32179 2.50392,-0.335348 3.67768,-0.62052 2.64766,-0.832402 4.89176,-2.51795 6.79381,-4.499701 0.74979,-0.83908 1.84641,-1.554281 2.35057,-2.531583 -0.25803,-0.2016916 -0.65384,-0.117894 -0.95911,-0.142467 z"
       id="path1329"
       transform="translate(4.4511053,9.1957993)" />
    <path
       style="fill:#d4aa00;fill-rule:evenodd;stroke:#000000;stroke-width:0;stroke-dasharray:none"
       d="m 370.66292,20.778061 c -0.63024,0.338204 0.28988,1.111102 0.43365,1.510404 2.15171,3.148177 4.47745,6.531868 8.17288,7.983029 0.9341,0.321051 1.87813,0.995558 2.86755,0.981186 -0.0812,-0.693375 -0.98714,-1.147834 -1.35423,-1.732676 -2.92245,-2.951765 -5.63261,-6.247904 -9.19708,-8.457372 -0.28541,-0.138574 -0.59324,-0.321215 -0.92277,-0.284571 z"
       id="path1331"
       transform="translate(4.4511053,9.1957993)" />
    <path
       style="fill:#ffcc00;fill-rule:evenodd;stroke:#000000;stroke-width:0;stroke-dasharray:none"
       d="m 389.47152,18.236182 c -2.8097,0.09301 -5.66086,0.553242 -8.28382,1.574046 -0.75475,0.39623 0.3061,0.863012 0.68399,0.970013 3.13665,1.315732 6.48056,2.868401 9.97,2.156876 2.72183,-0.412854 5.53944,-0.626686 8.1517,-1.501599 -0.15672,-0.586214 -1.10283,-0.734142 -1.56248,-1.074469 -2.7733,-1.403866 -5.846,-2.164376 -8.95939,-2.124867 z"
       id="path1333"
       transform="translate(4.4511053,9.1957993)" />
  </g>
</svg>
