<?xml version="1.0" encoding="UTF-8" standalone="no"?>
<!-- Created with Inkscape (http://www.inkscape.org/) -->

<svg
   version="1.1"
   id="svg105"
   width="256"
   height="228.48"
   viewBox="0 0 256 228.48"
   sodipodi:docname="laurel-wreath.svg"
   inkscape:version="1.2 (dc2aedaf03, 2022-05-15)"
   xmlns:inkscape="http://www.inkscape.org/namespaces/inkscape"
   xmlns:sodipodi="http://sodipodi.sourceforge.net/DTD/sodipodi-0.dtd"
   xmlns="http://www.w3.org/2000/svg"
   xmlns:svg="http://www.w3.org/2000/svg">
  <defs
     id="defs109" />
  <sodipodi:namedview
     id="namedview107"
     pagecolor="#ffffff"
     bordercolor="#666666"
     borderopacity="1.0"
     inkscape:showpageshadow="2"
     inkscape:pageopacity="0.0"
     inkscape:pagecheckerboard="0"
     inkscape:deskcolor="#d1d1d1"
     showgrid="false"
     inkscape:zoom="4.0988271"
     inkscape:cx="241.28854"
     inkscape:cy="166.0231"
     inkscape:window-width="3840"
     inkscape:window-height="2097"
     inkscape:window-x="0"
     inkscape:window-y="41"
     inkscape:window-maximized="1"
     inkscape:current-layer="g111" />
  <g
     inkscape:groupmode="layer"
     inkscape:label="Image"
     id="g111">
    <path
       style="fill:#554400;stroke-width:0.32"
       d="m 106.4,228.02828 c -3.99959,-1.77764 -4.08338,-5.99213 -0.20092,-10.10615 1.07851,-1.14283 1.96092,-2.09683 1.96092,-2.12 0,-0.39452 -2.22642,-0.25422 -3.69398,0.23277 -1.04831,0.34787 -2.52523,0.71889 -3.28204,0.82449 -1.12607,0.15712 -1.583942,0.44574 -2.52071,1.58894 -8.264102,10.08525 -33.382252,4.04771 -40.298032,-9.68627 -1.566982,-3.11185 -1.566982,-3.11185 -3.486108,-3.54265 C 41.552374,202.22782 32.978147,194.60102 31.383515,184.32 c -0.565534,-3.64614 -0.612182,-3.78142 -1.384259,-4.01419 -8.111813,-2.44564 -16.33002,-11.87533 -17.560622,-20.14932 -0.335036,-2.25262 -0.292576,-2.9523 0.514399,-8.47649 0.154936,-1.06062 0.05164,-1.21157 -1.948389,-2.84723 -9.131751,-7.46809 -11.62748323,-17.60101 -6.8003384,-27.61005 1.6480816,-3.41729 1.6480816,-3.41729 0.5226909,-5.12 -6.7488736,-10.21105 -6.1053331,-20.971059 1.7695824,-29.587472 1.5942992,-1.744416 1.5942992,-1.744416 0.6945405,-5.329834 -2.869266,-11.433628 0.658798,-20.64256 10.5104326,-27.434265 2.04988,-1.413187 2.04988,-1.413187 2.247526,-4.643466 0.656683,-10.732637 6.434405,-18.761531 16.123972,-22.406354 2.749904,-1.034403 2.749904,-1.034403 3.921961,-4.347866 4.003082,-11.316899 11.092368,-16.9242521 22.381207,-17.7026768 3.33622,-0.2300499 3.33622,-0.2300499 2.857203,0.5195821 -3.621773,5.6678407 -4.601456,8.3404837 -4.942896,13.4845627 -0.255843,3.85448 1.167613,3.882281 1.565145,0.03057 C 62.670554,10.790056 74.796413,0.95574736 84.739146,0.12655488 87.858544,-0.13359293 90.575011,0.30409396 95.2,1.8120448 c 4.547261,1.4826077 4.482496,1.2764418 1.172278,3.7317613 -3.550108,2.6332563 -5.331132,4.5943019 -7.40894,8.1578209 -0.891002,1.528105 -1.851799,3.105353 -2.135101,3.504995 -0.398832,0.562617 -0.413911,0.687794 -0.0668,0.554597 0.575789,-0.220951 0.204624,6.590546 -0.531709,9.757775 -1.397667,6.011858 -5.467674,10.819048 -11.729344,13.853835 -2.779619,1.347172 -2.779619,1.347172 -2.8,4.089092 -0.05034,6.771465 -4.602352,14.04912 -10.84065,17.331772 -1.259033,0.662516 -1.364,0.810624 -1.19511,1.686308 1.446074,7.497721 -0.488077,13.839568 -5.95871,19.537907 -2.543444,2.649309 -2.543444,2.649309 -1.771716,4.195702 2.894349,5.799715 2.356116,13.59239 -1.34671,19.49804 -1.569891,2.50382 -1.554925,2.27785 -0.253706,3.83075 4.790858,5.71749 6.25178,13.76578 3.71345,20.4576 -0.794666,2.09498 -0.872397,1.89096 1.232768,3.23564 5.967213,3.81155 9.556506,10.07197 9.910934,17.28658 0.175002,3.56222 0.175002,3.56222 1.394928,3.92772 7.418442,2.22262 13.487661,8.41335 15.486087,15.79614 0.58304,2.15392 0.58304,2.15392 2.535545,2.15948 14.256807,0.0406 27.343306,17.50996 21.543466,28.75873 -0.48897,0.94836 -0.84897,1.7594 -0.8,1.8023 0.6467,0.56654 9.33573,2.15122 16.8399,3.0712 5.85999,0.71841 5.85999,0.71841 11.62038,0.009 7.41846,-0.91425 16.19129,-2.51695 16.83336,-3.07526 0.0465,-0.0405 -0.31346,-0.9235 -0.8,-1.9623 -5.26634,-11.24422 6.6155,-27.68972 20.60896,-28.52459 2.9871,-0.17821 2.9871,-0.17821 3.32266,-1.49117 2.05781,-8.05167 7.90638,-14.2266 15.68089,-16.5559 1.26289,-0.37837 1.26289,-0.37837 1.26845,-2.80772 0.0167,-7.29657 3.95714,-14.5497 9.99444,-18.39659 2.11225,-1.3459 2.03717,-1.11975 1.1894,-3.58266 -2.30851,-6.70654 -0.8791,-14.72447 3.51499,-19.71641 1.48508,-1.68714 1.53037,-1.90521 0.65189,-3.13892 -3.93851,-5.53111 -4.91916,-13.255893 -2.4593,-19.372322 1.16532,-2.897555 1.16532,-2.897555 -1.30583,-5.44 -5.26215,-5.413965 -8.00266,-14.400461 -5.91055,-19.381478 0.33951,-0.808317 0.26701,-0.893127 -1.98036,-2.316781 -6.24682,-3.95721 -10.06664,-10.392515 -10.12062,-17.050374 -0.0204,-2.513812 -0.0204,-2.513812 -2.8,-3.859008 -6.16645,-2.984253 -10.37266,-7.979437 -11.71717,-13.915027 -0.70096,-3.094497 -1.03506,-10.028752 -0.46631,-9.678146 0.28582,0.176195 0.23448,-0.04654 -0.14421,-0.625584 -0.32343,-0.494561 -1.43322,-2.298223 -2.46618,-4.008138 -1.99164,-3.2968756 -3.79561,-5.2038058 -7.5893,-8.0224631 -2.71956,-2.0205963 -2.80651,-1.8494557 1.68355,-3.3134147 6.31701,-2.05962561 10.35222,-2.27569066 15.10703,-0.808905 8.6237,2.6602765 17.51971,11.2310888 18.22302,17.5568608 0.10762,0.968 0.41471,2.012 0.68241,2.32 2.75206,3.166326 0.70165,-7.678041 -2.48553,-13.1456458 -1.92692,-3.3056457 -1.92692,-3.3056457 1.35307,-3.079582 11.28471,0.7777641 18.68612,6.7004888 22.46423,17.9762338 1.01499,3.029215 1.01499,3.029215 3.77381,4.06697 9.68987,3.64494 15.51085,11.727368 16.14837,22.422024 0.19075,3.2 0.19075,3.2 2.72147,4.96 9.72823,6.765568 13.03505,16.292426 9.79325,28.214061 -0.66732,2.454064 -0.66732,2.454064 1.21578,4.557168 7.57676,8.461984 8.13873,19.221051 1.52442,29.185911 -1.18351,1.78304 -1.18351,1.78304 -0.0454,3.91295 5.501,10.29486 3.51948,19.98446 -5.84898,28.60142 -2.53155,2.32849 -2.53155,2.32849 -2.01127,5.52849 1.69414,10.41982 -4.37104,20.10616 -16.05568,25.64156 -1.056,0.50027 -1.96485,0.93242 -2.01967,0.96035 -0.0548,0.0279 -0.31271,1.37423 -0.57309,2.99179 -1.74139,10.81822 -9.2564,17.89824 -22.57018,21.26375 -2.98399,0.7543 -2.98399,0.7543 -4.43053,3.60601 -4.63997,9.14729 -12.88732,13.99796 -24.48653,14.40175 -8.5084,0.29619 -13.06634,-1.12811 -16.39788,-5.12414 -0.46868,-0.56216 -1.03171,-0.86107 -1.62192,-0.86107 -1.01661,0 -4.19921,-0.87799 -4.72043,-1.30223 -0.26019,-0.21178 -2.69977,-0.0744 -2.69977,0.15204 0,0.0254 0.81502,0.9065 1.81116,1.95814 6.71594,7.09008 0.70097,14.80791 -6.21791,7.97821 -8.54949,-8.43929 -21.78336,-8.56932 -30.43971,-0.29909 -3.19969,3.05696 -4.43503,3.54056 -6.59354,2.58121 z m 4.60444,-5.07268 c 2.56215,-2.4452 5.99841,-4.47426 9.31556,-5.50067 0.968,-0.29953 1.976,-0.62713 2.24,-0.728 0.264,-0.10087 -1.32,-0.4278 -3.52,-0.72651 -4.60862,-0.62574 -4.67551,-0.60907 -8.20575,2.04466 -3.67329,2.76125 -4.91222,4.90168 -3.77611,6.52372 0.77635,1.10838 1.333,0.88083 3.9463,-1.6132 z m 37.93742,1.6132 c 1.15736,-1.65237 -0.33297,-4.10275 -4.15337,-6.82893 -5.21246,-3.71954 -9.12972,-4.75952 -26.52729,-7.04267 -9.13465,-1.19877 -16.81671,-3.12054 -16.8261,-4.20928 -0.003,-0.31236 -0.15882,-0.78392 -0.34694,-1.04792 -0.26097,-0.36623 -0.30019,-0.23631 -0.16548,0.54812 0.17657,1.02813 0.17657,1.02813 -2.360882,0.0925 C 86.835862,201.75717 74.24,194.70874 74.24,192.47059 c 0,-0.68409 -0.129373,-1.0684 -0.32,-0.95059 -0.176,0.10877 -0.32,0.47727 -0.32,0.81889 0,2.03699 -12.62264,-8.71598 -20.590214,-17.54038 -1.376928,-1.525 -1.501978,-1.79304 -1.343655,-2.88 0.173069,-1.18819 0.170963,-1.19088 -0.244288,-0.31243 -0.499776,1.05726 -0.507968,1.05023 -3.64952,-3.1313 -7.900665,-10.5161 -13.35248,-20.61925 -12.250525,-22.70236 0.683687,-1.29242 0.683687,-1.29242 -0.124896,-0.34493 -0.991798,1.16219 -0.866358,1.29673 -2.388256,-2.56145 -4.586814,-11.62808 -6.913329,-22.50598 -5.193074,-24.28084 1.257797,-1.29772 1.293268,-1.88083 0.04146,-0.68151 -0.942971,0.90342 -0.942971,0.90342 -1.2,-0.0201 -0.880378,-3.16338 0.07743,-27.217704 1.097524,-27.56301 0.731614,-0.247657 2.370448,-1.422214 2.209271,-1.583392 -0.103596,-0.103596 -0.371837,-0.04619 -0.59609,0.127568 -1.247817,0.966852 -1.620023,0.802112 -1.397885,-0.618704 1.012585,-6.476595 6.788494,-23.828467 8.190152,-24.604688 0.264,-0.146198 1.042109,-0.4872 1.729133,-0.757776 1.477728,-0.58199 1.397165,-0.96768 -0.09358,-0.448003 -1.494688,0.521053 -1.495929,0.309725 -0.01555,-2.642441 5.195888,-10.361556 11.851296,-19.900052 14.124995,-20.243869 0.756244,-0.114355 1.590989,-0.353658 1.854989,-0.531783 0.336573,-0.227091 0.0019,-0.259056 -1.12,-0.106979 -1.541245,0.208925 -1.581673,0.19472 -1.100909,-0.386797 4.077946,-4.932563 6.783613,-7.850697 12.374784,-13.346544 2.546269,-2.502857 2.546269,-2.502857 4.467476,-2.106038 6.062816,1.252254 13.443779,-3.364616 18.059737,-11.296558 C 87.386481,10.150023 89.141399,7.781527 90.3409,6.5112514 92.819091,3.8868048 92.705008,3.7424243 87.814518,3.3138435 78.049578,2.4580882 62.774003,14.071587 65.222035,20.490136 c 0.287834,0.75467 0.07882,1.017573 -3.052893,3.84 -3.864096,3.482485 -9.581577,9.666632 -13.977833,15.118725 -3.40144,4.218345 -3.744112,4.163728 -3.281178,-0.523002 0.160151,-1.621366 0.126301,-1.853709 -0.193168,-1.325859 -0.226486,0.374214 -0.397664,1.920736 -0.412189,3.723946 -0.02483,3.083942 -0.02483,3.083942 -2.59414,7.04 -4.102554,6.31687 -7.410148,12.309686 -9.741712,17.650374 -1.202833,2.755213 -1.965534,2.215424 -2.431749,-1.721034 -0.123222,-1.040425 -0.300167,-1.498307 -0.501286,-1.297187 -0.394061,0.394061 0.248945,4.255645 0.926938,5.566739 0.464169,0.897604 0.406019,1.182253 -1.280608,6.26873 -2.236007,6.743286 -3.560147,12.022493 -4.356253,17.36793 -0.786397,5.280256 -1.010411,5.323609 -3.351697,0.648684 -0.47152,-0.9415 -0.922723,-1.646406 -1.002674,-1.566454 -0.340606,0.340605 1.341186,3.88735 2.431507,5.127824 C 23.59008,97.76 23.59008,97.76 23.258821,102.88 c -0.367204,5.67558 0.02121,13.14758 1.018848,19.6 0.651948,4.21658 0.649141,4.21868 -2.043608,1.52593 -1.14074,-1.14075 -2.072543,-1.96875 -2.070673,-1.84 0.007,0.48442 2.444296,3.2805 3.624121,4.15767 1.187475,0.88286 1.267545,1.06864 2.454276,5.69452 1.58878,6.19306 4.061643,13.32422 6.422986,18.52238 1.034487,2.27727 1.840135,4.18125 1.790327,4.23106 -0.150087,0.15008 -4.054714,-1.7677 -5.067833,-2.4891 -1.576613,-1.12265 -1.320187,-0.4845 0.29977,0.74601 0.832124,0.63208 2.232952,1.46987 3.112952,1.86176 0.88,0.39189 1.816,0.81698 2.08,0.94465 0.264,0.12767 1.176154,1.44106 2.027011,2.91863 3.804151,6.60617 7.396196,11.62981 12.617748,17.64649 2.438816,2.81019 2.85927,3.44 2.296508,3.44 -0.979737,0 -4.427875,-0.9263 -5.487078,-1.47403 C 45.842384,178.11164 45.44,178.03782 45.44,178.20192 c 0,0.4846 4.492301,2.19316 6.4,2.43412 1.676595,0.21177 1.896483,0.35522 4.64,3.02707 5.127162,4.99322 10.704224,9.4859 17.224512,13.87546 3.677274,2.4756 3.563603,2.65752 -1.49599,2.39421 -2.892288,-0.15052 -2.910704,-0.14682 -1.488522,0.29925 0.983366,0.30843 2.395795,0.40723 4.454109,0.31157 2.985008,-0.13873 3.032867,-0.12908 4.956969,0.9986 5.285831,3.09794 16.729876,8.00274 22.188922,9.50995 2.86774,0.79176 2.70246,0.91896 -3.44,2.64736 -1.572211,0.4424 -0.245078,0.46322 2.08384,0.0327 1.03476,-0.19129 2.50264,-0.63982 3.26195,-0.99673 1.38056,-0.64894 1.38056,-0.64894 6.57738,0.34073 2.85826,0.54432 8.00483,1.36048 11.43683,1.81368 13.64181,1.80146 20.24348,4.33585 24.09364,9.2496 1.02489,1.30802 1.8927,1.45086 2.60822,0.42931 z M 65.6,22.403127 c 0,-0.395625 3.850586,-4.08147 7.218426,-6.909602 C 77.37543,11.666801 82.56,8.6873027 82.56,9.8951834 82.56,10.057534 82.058768,10.355788 81.446154,10.557969 78.93081,11.388108 71.640109,16.986766 67.533373,21.241842 66.121869,22.704333 65.6,23.017794 65.6,22.403127 Z M 91.65297,219.0745 c 2.125363,-0.6969 4.144041,-1.91704 4.781635,-2.89013 1.079949,-1.64821 1.109961,-1.64124 -7.074605,-1.64114 -8.099741,9e-5 -10.591142,-0.32193 -13.805578,-1.78444 -1.729929,-0.78709 -1.226313,-1.2091 0.580272,-0.48625 6.707408,2.68377 21.955815,2.28957 19.991722,-0.51682 -2.797315,-3.99694 -12.434166,-5.98651 -21.441965,-4.42678 -4.087462,0.70775 -9.575645,0.87577 -11.795469,0.36111 -5.266656,-1.22107 4.648832,8.3906 10.903127,10.56904 4.78383,1.66626 13.984937,2.08632 17.860861,0.81541 z M 181.12,218.618 c 5.49439,-1.81247 9.84646,-4.98222 12.51999,-9.11869 1.45619,-2.25301 1.47472,-2.16006 -0.35999,-1.80548 -2.59298,0.50112 -7.88152,0.33672 -11.94847,-0.37144 -8.96253,-1.56059 -18.66611,0.44422 -21.45795,4.43333 -1.77745,2.53971 10.0927,3.22298 18.04642,1.03878 3.77629,-1.03702 3.84,-1.0486 3.84,-0.6979 0,1.39321 -8.84371,2.73713 -16.56,2.51653 -6.96599,-0.19916 -7.0005,-0.18531 -5.01513,2.01226 3.00215,3.32302 13.78957,4.34977 20.93513,1.99261 z m -23.04,-4.67531 c 0,-0.0755 -0.828,-0.30525 -1.84,-0.5105 -5.0247,-1.0191 -5.11705,-1.51593 -0.56,-3.01258 6.55902,-2.15415 13.05543,-4.97838 19.33076,-8.40381 2.74924,-1.50069 2.74924,-1.50069 6.58924,-1.51824 2.32842,-0.0107 4.09011,-0.16514 4.47538,-0.39247 0.5072,-0.29927 0.11165,-0.33901 -1.96052,-0.19698 -5.3739,0.36834 -5.48546,0.10237 -1.16768,-2.78383 5.11288,-3.41766 11.48697,-8.54651 15.79918,-12.71264 3.56944,-3.44853 3.56944,-3.44853 5.7267,-3.81202 2.12301,-0.35771 6.08694,-1.89858 6.08694,-2.36612 0,-0.13151 -0.828,0.0949 -1.84,0.50302 -4.49727,1.81386 -5.57428,1.4486 -3.27877,-1.112 5.12133,-5.71274 9.53708,-11.78281 13.52851,-18.59687 1.69638,-2.89599 1.87807,-3.0897 3.54687,-3.78138 1.84224,-0.76356 5.48234,-3.19399 5.20263,-3.4737 -0.0893,-0.0893 -0.58725,0.14014 -1.10652,0.50989 -3.96224,2.82136 -5.47032,2.85252 -4.07623,0.0842 2.49975,-4.96383 5.61816,-13.70016 7.36271,-20.6268 1.05247,-4.17882 1.75727,-5.59917 2.80322,-5.64923 0.28515,-0.0137 3.13758,-3.50657 3.13758,-3.84211 0,-0.13903 -0.93723,0.66617 -2.08272,1.78934 -2.69649,2.64392 -2.70095,2.64088 -2.04997,-1.39788 1.16437,-7.22391 1.50753,-14.95949 0.96173,-21.68 -0.25988,-3.2 -0.25988,-3.2 0.68306,-4.16 1.04881,-1.067789 1.678,-2.157984 2.35835,-4.086298 0.62277,-1.76512 0.32695,-1.885353 -0.44361,-0.180297 -0.662,1.464851 -2.58888,4.251222 -2.79638,4.043721 -0.0673,-0.06732 -0.42833,-2.132716 -0.80222,-4.589766 -0.83716,-5.501248 -2.37991,-11.632397 -4.47547,-17.786115 -1.59327,-4.678759 -1.59327,-4.678759 -0.97588,-6.08 0.71155,-1.614973 1.23675,-5.401245 0.74921,-5.401245 -0.17411,0 -0.39655,0.775008 -0.49431,1.722237 -0.24169,2.341725 -1.31862,4.520361 -1.67067,3.379763 -1.00929,-3.269994 -6.52066,-13.507642 -10.67073,-19.821421 -2.4185,-3.679421 -2.4185,-3.679421 -2.43444,-6.72 -0.01,-1.810685 -0.17458,-3.299456 -0.40811,-3.680579 -0.32574,-0.531594 -0.35927,-0.307018 -0.19798,1.325859 0.46331,4.690611 0.14087,4.723498 -3.38289,0.345024 -4.39709,-5.463616 -9.57466,-11.054949 -13.5482,-14.630883 -3.37801,-3.04 -3.37801,-3.04 -3.20436,-4.719788 0.73843,-7.142985 -13.25904,-17.4112397 -22.66022,-16.6230779 -4.84871,0.4064982 -5.04771,0.6605769 -2.56465,3.2745897 1.31335,1.3826128 2.995,3.6774972 4.17831,5.7019772 4.46301,7.635579 12.93771,12.555746 18.31791,10.634858 1.31771,-0.47046 6.6584,4.366812 13.06263,11.831332 4.14717,4.833776 3.9495,4.435226 2.0708,4.175117 -1.11978,-0.155034 -1.4553,-0.12432 -1.11919,0.102454 0.264,0.178125 1.0875,0.415741 1.83,0.528036 1.07536,0.162636 1.56795,0.473747 2.42142,1.529337 3.47826,4.301965 8.07829,11.601629 11.69877,18.564458 1.79131,3.445024 1.79657,3.426813 -0.75019,2.596995 -0.62836,-0.204739 -0.6288,-0.199402 -0.0244,0.293517 0.33858,0.276131 1.08727,0.590541 1.66375,0.698688 1.19721,0.224598 2.64812,3.263005 5.18183,10.851507 1.85797,5.564624 4.42904,15.52 4.00819,15.52 -0.0776,0 -0.57937,-0.226618 -1.11499,-0.503597 -1.43023,-0.7396 -1.47025,-0.331062 -0.0512,0.522666 0.66926,0.40264 1.253,0.755238 1.29722,0.783555 0.84255,0.53961 1.75664,15.939756 1.33652,22.516966 -0.41319,6.46859 -0.32746,6.19746 -1.58025,4.99721 -1.267,-1.21386 -1.23536,-0.63481 0.037,0.67798 1.69328,1.74702 -0.4816,12.22301 -4.89228,23.56522 -1.6784,4.31606 -1.78623,4.4663 -2.44663,3.40884 -0.65444,-1.04794 -0.82726,-0.45183 -0.18448,0.63632 1.05418,1.78459 -5.73801,13.6328 -13.85627,24.17073 -1.28437,1.66717 -2.01405,2.15615 -2.01405,1.34966 0,-0.26828 -0.14739,-0.57887 -0.32755,-0.69022 -0.21322,-0.13177 -0.26143,0.22462 -0.13812,1.02112 0.30406,1.96397 -9.31468,11.71619 -17.9617,18.21094 -4.02529,3.0234 -3.97262,2.99856 -3.97262,1.87372 0,-0.46443 -0.13851,-0.73328 -0.32,-0.62111 -0.176,0.10877 -0.32633,0.65727 -0.33407,1.21889 -0.0169,1.22337 -3.25249,3.41394 -10.9645,7.42313 -5.80548,3.01806 -15.90143,7.29294 -15.90143,6.73306 0,-0.0734 0.14044,-0.50279 0.31208,-0.95425 0.17666,-0.46464 0.18769,-0.82083 0.0254,-0.82083 -0.15766,0 -0.38343,0.44064 -0.50172,0.97919 -0.14406,0.65591 -0.49581,1.08701 -1.06543,1.30578 -2.23929,0.86001 -8.76136,2.2808 -13.81035,3.00849 -6.60145,0.95143 -6.55771,0.9407 -5.12,1.25662 0.616,0.13537 2.40686,0.67492 3.9797,1.19901 2.85971,0.95289 2.85971,0.95289 7.27461,0.0802 4.4149,-0.87272 4.4149,-0.87272 6.05032,-0.16917 2.1255,0.91437 6.05535,1.66888 6.05535,1.1626 z M 186.56,19.469114 C 182.4796,15.557892 178.46866,12.482765 175.68,11.127585 173.21309,9.928759 173.28042,9.9729133 173.53339,9.7199424 174.63475,8.6185853 190.4,20.406268 190.4,22.33111 c 0,0.719265 -0.46676,0.371386 -3.84,-2.861996 z M 71.491898,204.62732 c 3.199459,-0.34895 3.451699,-0.66428 0.728745,-0.91103 -2.094176,-0.18977 -2.582813,-0.13716 -3.252473,0.35019 -0.988618,0.71948 -1.026279,1.11093 -0.08817,0.91644 0.396,-0.0821 1.571354,-0.24212 2.611898,-0.3556 z m 115.673432,-0.47035 c -0.62633,-0.53933 -1.05593,-0.62847 -2.36533,-0.49078 -0.88,0.0925 -2.032,0.17863 -2.56,0.19131 -1.66927,0.0401 0.16176,0.57745 2.97711,0.87368 2.89005,0.30409 2.94826,0.28693 1.94822,-0.57421 z m -87.469599,-0.50565 c -0.729824,-3.89031 -4.667091,-12.50806 -6.973853,-15.26413 -1.254038,-1.4983 -1.423846,-2.03101 -0.52768,-1.65541 1.689952,0.70831 5.135178,7.02173 7.318314,13.4109 1.532028,4.48363 1.346448,4.20311 2.346898,3.5476 5.56578,-3.64685 0.2191,-19.29684 -8.083064,-23.6595 -3.213869,-1.68884 -10.430669,-3.29125 -9.866679,-2.19078 1.597239,3.11656 2.469847,6.33922 2.491114,9.2 0.06599,8.87555 6.224777,17.66486 12.434832,17.74596 1.062774,0.0139 1.07304,3.2e-4 0.860118,-1.13464 z m 60.859099,0.23213 c 5.16203,-2.63347 8.46698,-8.60981 9.05831,-16.38013 0.31342,-4.1184 1.07372,-7.30252 2.09023,-8.75379 2.60707,-3.72213 -9.15616,0.14754 -13.49923,4.44074 -5.67454,5.60939 -8.02763,15.90169 -4.54293,19.87056 1.34418,1.53093 1.39627,1.47567 2.95618,-3.13589 2.32728,-6.88016 6.07904,-13.36494 7.73226,-13.36494 0.64394,0 0.57263,0.17285 -0.54157,1.31266 -2.23626,2.28766 -4.08854,5.87285 -6.32587,12.2441 -1.80172,5.13075 -1.15506,5.92349 3.07262,3.76669 z M 66.24,201.99687 c 1.564886,-0.7599 2.569872,-1.91906 1.847248,-2.13063 -0.223987,-0.0656 -2.34377,-0.58406 -4.710627,-1.15219 -8.900851,-2.1365 -17.750224,-5.87601 -17.258871,-7.29313 0.0709,-0.2045 0.950509,0.17486 2.094256,0.90321 3.420951,2.1785 8.757008,4.13485 16.107994,5.90565 4.359219,1.0501 4.547078,1.04704 4.288243,-0.0698 -1.130057,-4.87594 -10.128547,-10.09806 -18.982182,-11.01601 -7.093776,-0.73548 -9.697725,-1.21784 -12.372906,-2.29198 -1.527283,-0.61324 -2.69151,-0.92782 -2.689357,-0.72669 0.11168,10.42907 21.801799,22.66652 31.676202,17.87155 z m 133.54156,0.22244 c 10.52328,-2.14451 18.34712,-7.75781 20.90273,-14.99692 1.26629,-3.5869 1.22374,-3.63966 -1.9178,-2.37827 -2.64893,1.0636 -5.22012,1.54517 -12.49537,2.34032 -7.10094,0.77609 -15.1754,4.70775 -17.85147,8.69232 -0.98015,1.45941 -1.21095,3.16324 -0.42849,3.16324 1.13395,0 10.64447,-2.63299 13.81164,-3.82375 3.12984,-1.17674 4.48636,-1.86412 7.20757,-3.65224 1.52735,-1.00364 1.31101,0.0292 -0.2279,1.08805 -3.23175,2.2235 -9.09582,4.42488 -16.24719,6.09921 -2.3184,0.54281 -4.41814,1.05008 -4.66609,1.12728 -0.7721,0.24039 1.2372,2.01555 2.84101,2.50995 2.0994,0.64717 5.36417,0.58628 9.07136,-0.16919 z M 84.339296,194.65734 C 84.046317,193.8118 83.656595,191.464 83.473245,189.44 c -0.494167,-5.45508 -0.564359,-5.6463 -1.215872,-3.31225 -0.591658,2.11963 -2.243882,4.96237 -3.323783,5.71877 -0.822457,0.57607 -0.792787,0.60555 2.82641,2.80871 3.324941,2.02403 3.279872,2.024 2.579296,0.002 z m 92.585634,-1.67089 c 0.74096,-0.55891 0.74096,-0.55891 -0.41167,-1.81268 -1.32782,-1.44432 -2.27685,-3.3129 -2.88314,-5.67674 -0.49892,-1.94519 -0.62635,-1.47511 -1.00347,3.70165 -0.17531,2.40641 -0.51715,4.13876 -1.32885,6.73416 -0.17333,0.55419 3.61828,-1.43111 5.62713,-2.94639 z M 73.28,188.1939 c 0,-5.97651 -1.074774,-12.54711 -2.541901,-15.53985 -0.879238,-1.79352 -0.999705,-2.66295 -0.309904,-2.23662 1.692269,1.04588 3.223763,7.76571 3.737533,16.39941 0.279648,4.69937 1.899315,4.78901 4.234272,0.23436 4.125539,-8.04742 -0.286106,-21.3302 -8.534634,-25.69644 -4.51518,-2.39005 -4.526953,-2.3859 -4.341235,1.5324 0.139488,2.94288 0.04827,3.94837 -0.599814,6.61176 -2.160602,8.87932 0.560957,17.75091 6.275683,20.45714 2.159149,1.02247 2.08,1.08953 2.08,-1.76216 z m 109.41311,-9.77432 c 0.74814,-4.29616 2.54461,-8.66986 3.26513,-7.94934 0.20758,0.20758 0.0913,0.69602 -0.33961,1.42632 -2.17789,3.69125 -4.03329,19.2188 -2.22971,18.66016 6.29654,-1.9503 10.064,-11.18865 7.95903,-19.51672 -0.78681,-3.11296 -1.16023,-8.79988 -0.6891,-10.49466 0.41339,-1.48708 0.26583,-1.46826 -3.76027,0.47958 -8.84761,4.28049 -13.60345,17.62515 -9.28473,26.05251 2.52853,4.93406 3.92975,4.46743 4.35124,-1.44903 0.2008,-2.81861 0.52841,-6.06258 0.72802,-7.20882 z m -130.665488,5.62511 c -0.09358,-0.15142 -0.829008,-0.36561 -1.634281,-0.47599 -0.805271,-0.11037 -2.362679,-0.56015 -3.460903,-0.99951 -1.996771,-0.79883 -1.996771,-0.79883 -3.584604,-0.17898 -0.873309,0.34092 -1.515834,0.6368 -1.427834,0.65752 0.088,0.0207 2.32,0.29824 4.96,0.61672 2.64,0.31848 4.916499,0.59626 5.058886,0.6173 0.142388,0.021 0.182317,-0.0856 0.08874,-0.23706 z M 208.96,183.67329 c 5.30489,-0.49626 5.56441,-0.58952 3.6562,-1.31386 -1.55187,-0.58907 -1.55187,-0.58907 -3.54864,0.20976 -1.09822,0.43936 -2.65563,0.88914 -3.4609,0.99951 -0.80527,0.11038 -1.54427,0.33035 -1.64221,0.48882 -0.0979,0.15847 0.15799,0.21431 0.56874,0.12408 0.41075,-0.0902 2.40281,-0.31897 4.42681,-0.50831 z M 41.881376,179.53108 c 3.217872,-0.92288 3.112221,-1.11299 -2.067344,-3.72019 -7.742499,-3.89727 -15.994321,-9.9986 -14.943688,-11.04923 0.218631,-0.21864 0.936192,0.31834 2.206815,1.65144 3.148814,3.30365 16.625718,11.38496 17.788163,10.66653 4.113283,-2.54215 -6.916896,-13.05229 -17.206556,-16.39533 -5.123577,-1.66461 -8.043992,-2.98975 -10.441527,-4.73782 -3.101362,-2.26124 -2.191002,6.22548 1.22064,11.37928 4.657141,7.03531 17.733142,13.84303 23.443497,12.20532 z m 179.186614,-0.70632 c 10.89586,-3.35828 18.73017,-11.40341 19.46444,-19.9882 0.3261,-3.81274 0.0991,-4.17928 -1.76098,-2.84298 -2.39343,1.71951 -5.56017,3.13888 -10.64569,4.7715 -10.08081,3.23629 -19.47908,12.17669 -16.96652,16.13993 0.71716,1.13123 14.1702,-6.79374 17.79074,-10.48023 1.87589,-1.91006 2.41002,-2.26858 2.41002,-1.61763 0,1.81919 -8.81381,8.082 -16.49419,11.72023 -3.2025,1.51703 -3.455,1.77952 -2.30581,2.39693 1.96232,1.05428 4.87503,1.0202 8.50799,-0.0995 z M 60.863398,176.4 c -0.101027,-1.85679 0.625981,-6.68682 1.393476,-9.25786 0.157635,-0.52807 0.1352,-0.52535 -0.241549,0.0292 -1.475287,2.17167 -3.228743,4.00284 -4.652301,4.85847 -1.374438,0.82611 1.729558,6.53015 3.553546,6.53015 0.03539,0 0.01146,-0.972 -0.05317,-2.16 z M 199.473,172.54098 c -1.67448,-0.86474 -3.34299,-2.37077 -4.45359,-4.0199 -1.28678,-1.91077 -1.29597,-1.86681 -0.45941,2.19892 0.352,1.71075 0.64568,4.1386 0.65262,5.39523 0.0126,2.28477 0.0126,2.28477 2.593,-0.409 2.58038,-2.69377 2.58038,-2.69377 1.66738,-3.16525 z m -144.21077,-2.9711 c 9.100276,-4.40537 8.91097,-23.52023 -0.30334,-30.62902 -2.238468,-1.72696 -2.349869,-1.70298 -2.586042,0.55659 -0.254768,2.43749 -1.023571,4.43008 -3.194198,8.27874 -4.680605,8.29902 -4.313828,17.38183 0.865129,21.42381 1.311152,1.02331 1.307767,1.02675 2.2048,-2.24 1.828541,-6.65905 2.51529,-13.09163 1.759421,-16.48 -0.173904,-0.77957 -0.122381,-1.04 0.205763,-1.04 1.765962,0 1.368218,8.42266 -0.785373,16.63116 -1.253603,4.77816 -1.163648,4.94977 1.83384,3.49872 z M 203.52,169.80701 c 0,-0.23814 -0.4314,-2.08269 -0.95867,-4.099 -2.14012,-8.18397 -2.5066,-16.26801 -0.73749,-16.26801 0.35751,0 0.43411,0.19555 0.28204,0.72 -0.88219,3.04249 -0.49933,7.96453 1.13877,14.64 1.29094,5.2608 1.31239,5.29918 2.55302,4.56869 5.29494,-3.11767 5.79428,-13.27125 1.06051,-21.56481 -2.01638,-3.53271 -3.0063,-6.12569 -3.25411,-8.52388 -0.20922,-2.0246 -0.35248,-2.04451 -2.54427,-0.35356 -8.38981,6.4727 -9.5641,21.8661 -2.22771,29.20249 1.72944,1.72944 4.68791,2.78845 4.68791,1.67808 z m 24.8,-12.49529 c 4.70992,-1.55216 6.34097,-2.30112 4.32,-1.98369 -0.616,0.0968 -1.65407,0.052 -2.30683,-0.0994 -1.03833,-0.24086 -1.34265,-0.16071 -2.43239,0.64069 -0.68506,0.50381 -2.13099,1.35531 -3.21317,1.89224 -1.08219,0.53693 -1.96761,1.12129 -1.96761,1.29858 0,0.2069 0.20059,0.2159 0.56,0.0252 0.308,-0.16347 2.576,-0.96159 5.04,-1.7736 z m -195.04,1.57719 c 0,-0.0831 -0.9,-0.59518 -2,-1.13795 -1.1,-0.54276 -2.518516,-1.40029 -3.152257,-1.90561 -1.051226,-0.83821 -1.269501,-0.89243 -2.489428,-0.61833 -0.735444,0.16524 -1.728928,0.20817 -2.207743,0.0954 -0.665354,-0.15671 -0.786645,-0.11516 -0.51454,0.1763 0.575476,0.61639 10.363968,3.81833 10.363968,3.39019 z m 9.92,-4.43083 c 0,-1.55317 1.079629,-4.35002 3.063318,-7.93571 2.516122,-4.54812 2.521012,-4.62119 0.163076,-2.43816 -2.107866,1.95151 -4.189933,3.09132 -6.119636,3.35015 -1.539459,0.20648 -1.756848,0.4748 -1.163932,1.4366 0.247184,0.40097 1.124707,1.98904 1.950057,3.52904 1.518442,2.83323 2.107117,3.4082 2.107117,2.05808 z m 172.28782,-2.96565 c 2.15461,-3.88028 2.15163,-3.84868 0.38116,-4.04824 -2.02436,-0.22817 -4.12177,-1.34761 -6.29537,-3.35998 -2.34628,-2.17224 -2.34505,-2.15163 0.13805,2.31358 1.84229,3.31286 2.6601,5.32389 3.24048,7.96849 0.25597,1.16634 0.35391,1.05534 2.53568,-2.87385 z m -188.834997,0.13789 c 0.617789,-0.33063 0.577463,-0.41131 -0.754593,-1.50981 -7.126167,-5.87667 -13.024476,-12.53285 -13.475825,-15.20731 -0.17181,-1.01806 0.602342,-0.92684 0.965083,0.11372 1.68887,4.84469 14.148727,16.78042 15.162374,14.52456 C 30.503263,145.20421 25.48375,136.47831 18.545533,132.16 11.656317,127.87219 7.36,124.42078 7.36,123.17421 c 0,-1.52892 -1.6052643,1.72317 -2.2241059,4.50579 -2.4232318,10.89607 13.2699159,28.36399 21.5169289,23.95032 z m 209.051187,-0.30678 c 6.2186,-2.32668 13.42957,-10.31673 15.06411,-16.69165 1.06087,-4.1375 -0.79536,-13.75385 -2.17579,-11.27189 -0.92728,1.6672 -4.84854,4.95655 -8.75233,7.34188 -9.46098,5.78093 -16.67768,17.726 -11.83257,19.58525 1.21847,0.46757 11.51444,-9.74941 13.83324,-13.72713 1.91364,-3.2827 2.84335,-3.48431 1.21076,-0.26255 -1.64074,3.23783 -6.46732,8.48481 -11.9178,12.95585 -1.2685,1.04056 -2.23342,2.00996 -2.14425,2.15424 0.61892,1.00144 3.92404,0.96009 6.71463,-0.084 z M 41.902326,143.51973 c 6.397812,-3.28248 11.403831,-14.69858 9.788343,-22.32206 -0.607543,-2.86699 -4.207223,-9.37261 -4.724035,-8.53764 -0.04765,0.077 -0.64769,1.26943 -1.333428,2.64989 -0.997868,2.00881 -2.034924,3.33714 -5.194358,6.65327 -7.223526,7.5818 -9.407333,15.57168 -5.651421,20.67681 1.046336,1.4222 1.022963,1.43738 3.204099,-2.08 3.665962,-5.91186 5.745367,-10.71292 6.306128,-14.56 0.338314,-2.32099 0.941914,-1.91797 0.747876,0.49935 -0.273191,3.40337 -3.611543,10.7614 -7.44618,16.41205 -1.314457,1.93696 1.05929,2.27255 4.302976,0.60833 z m 177.234834,0.63907 c 0.0534,-0.0476 -0.64462,-1.21873 -1.55122,-2.60262 -4.25791,-6.49954 -8.23444,-17.07618 -6.42018,-17.07618 0.3923,0 0.67424,0.82366 0.67424,1.96975 0,2.40151 2.8379,8.78095 6.49048,14.59025 1.89333,3.01127 1.81682,2.96778 2.91832,1.65872 3.88968,-4.62262 1.52446,-13.15912 -5.78283,-20.87133 -3.10402,-3.27602 -4.15197,-4.62716 -5.16543,-6.65985 -2.2651,-4.54311 -6.99051,3.78575 -6.3061,11.11495 0.88726,9.50165 11.05903,21.50964 15.14272,17.87631 z M 22.486069,130.21457 c -0.471414,-1.80269 -4.636219,-5.31404 -6.525236,-5.50142 -0.989541,-0.0982 -2.429541,-0.48446 -3.2,-0.85844 -2.513601,-1.22009 0.951155,1.64178 4.815678,3.97773 1.860919,1.12484 3.671489,2.26613 4.023489,2.53619 0.872308,0.66925 1.091407,0.63115 0.886069,-0.15406 z m 214.200601,-1.28731 c 6.70246,-4.15057 9.80878,-6.63563 6.18761,-4.95008 -1.02694,0.47801 -2.33144,0.81786 -3.14633,0.81969 -1.47606,0.003 -5.77992,3.75769 -6.21502,5.42152 -0.22497,0.86031 -0.44498,0.94981 3.17374,-1.29113 z M 36.128467,121.84544 c 1.161344,-1.25827 1.823533,-2.17182 1.471533,-2.0301 -1.867712,0.75197 -4.3004,1.1943 -5.68,1.03278 -1.788275,-0.20938 -1.739503,-0.38934 -1.027602,3.79188 0.70351,4.13194 0.683938,4.11544 1.976956,1.6666 0.631168,-1.19536 2.097769,-3.20288 3.259113,-4.46116 z m 189.075823,2.39681 c 0.62991,-3.59776 0.62991,-3.59776 -1.00719,-3.40719 -1.49841,0.17442 -3.82498,-0.23335 -5.7971,-1.01605 -0.352,-0.13969 0.30022,0.74888 1.44938,1.97463 1.14915,1.22574 2.58773,3.18983 3.19684,4.36464 1.34592,2.59592 1.37218,2.5726 2.15807,-1.91603 z M 19.128921,121.45587 c 0.04891,-0.0479 -1.135848,-1.90377 -2.63279,-4.12422 -4.247492,-6.3004 -6.8254654,-12.17742 -6.516906,-14.85663 0.166195,-1.44306 0.726817,-0.98938 0.940475,0.76108 0.708841,5.80736 8.295659,18.6259 9.940549,16.79536 3.60681,-4.0139 0.992939,-13.53682 -5.617816,-20.466977 -3.675508,-3.853091 -4.991801,-5.617229 -6.156849,-8.251609 -2.2173965,-5.01393 -6.8471458,7.176729 -5.4325546,14.304536 1.7736064,8.9368 11.9192866,19.32018 15.4758916,15.83846 z M 241.84024,120.9526 c 9.51434,-4.17455 13.78914,-19.94828 7.86807,-29.0326 -1.85579,-2.847216 -1.65171,-2.868877 -3.2439,0.344304 -1.06832,2.155971 -2.04753,3.435667 -5.13226,6.7072 -7.07737,7.505956 -9.91069,17.030056 -6.26476,21.058756 0.79142,0.87452 0.92668,0.80702 2.41207,-1.20368 4.07523,-5.51644 7.11424,-11.71076 7.58179,-15.45376 0.2626,-2.1023 0.8762,-2.08176 0.81769,0.0274 -0.096,3.46239 -2.48848,8.49706 -7.23141,15.21777 -2.47598,3.50845 -1.35341,4.32932 3.19271,2.33465 z M 37.403555,116.26328 c 9.344951,-4.72548 15.169955,-16.08659 12.524071,-24.427005 -1.156221,-3.644659 -1.323991,-3.799965 -2.410813,-2.231673 -1.388304,2.003321 -3.683367,3.917548 -7.641475,6.373472 -8.786079,5.451576 -13.6439,13.317636 -11.57313,18.739876 1.044136,2.73403 11.906336,-8.15471 13.963824,-13.99795 0.39687,-1.127104 1.258819,-1.67879 1.249914,-0.8 -0.01971,1.94381 -4.265959,7.70697 -9.555405,12.96889 -2.177705,2.16637 -3.900431,3.99789 -3.828281,4.07003 1.13918,1.13919 4.226988,0.84377 7.271295,-0.69564 z m 188.331935,0.83559 c 0.24969,-0.25956 -0.36708,-1.03254 -2.24096,-2.8085 -5.94504,-5.63438 -9.76045,-10.58221 -10.83465,-14.05037 -0.47721,-1.54071 0.64164,-0.659402 1.4076,1.10876 2.50787,5.78926 12.53241,15.92221 13.57606,13.72288 2.42506,-5.11045 -2.68759,-13.64238 -11.40404,-19.030885 -3.5129,-2.17167 -6.84356,-4.965161 -8.00679,-6.715446 -2.10041,-3.160432 -3.701,8.779107 -1.78619,13.323901 3.85616,9.15252 15.78706,18.09014 19.28897,14.44966 z M 31.886897,97.978061 C 33.093104,96.777994 35.088,95.184237 36.32,94.436381 c 2.24,-1.359738 2.24,-1.359738 0.602835,-1.153923 -1.500681,0.188659 -4.303843,-0.133165 -5.622114,-0.64546 -0.421077,-0.163635 -0.614428,0.05922 -0.882128,1.016717 -0.301097,1.076954 -0.959869,6.506285 -0.789444,6.506285 0.03555,0 1.051541,-0.981872 2.257748,-2.181939 z M 226.17913,97.12 c -0.34736,-3.474112 -0.7783,-4.75545 -1.50486,-4.47456 -1.31429,0.508096 -3.86224,0.801229 -5.31427,0.611386 -0.88,-0.115056 -1.528,-0.135236 -1.44,-0.04485 0.088,0.09039 1.24,0.88863 2.56,1.773865 1.32,0.885232 3.18356,2.407997 4.14125,3.383917 0.95769,0.975923 1.76479,1.741972 1.79355,1.702312 0.0288,-0.0396 -0.0773,-1.368075 -0.23567,-2.952075 z M 19.398114,97.838413 c -0.443256,-0.581136 -1.087938,-1.686522 -1.432627,-2.45641 -0.552512,-1.234077 -0.897448,-1.5252 -2.913619,-2.459072 -2.678489,-1.240653 -2.418972,-0.770915 2.369668,4.289197 2.538625,2.682544 3.865679,3.103022 1.976578,0.626285 z M 242.49778,92.887382 c 0.71264,-1.000809 0.71264,-1.000809 -1.51977,0.0153 -1.83802,0.836589 -2.32515,1.221757 -2.75735,2.180221 -0.28872,0.640269 -0.94187,1.792547 -1.45143,2.560618 -1.752,2.640789 -0.90121,2.351193 2.05478,-0.699415 1.62862,-1.680745 3.28182,-3.506268 3.67377,-4.056713 z M 19.11071,90 c -0.09016,-0.308 -0.683122,-2.336086 -1.317686,-4.506858 -1.532087,-5.241097 -2.316401,-10.816416 -1.925886,-13.690217 0.465594,-3.426307 1.022423,-2.937152 0.849742,0.74647 -0.203461,4.340208 1.263878,12.002845 3.213324,16.7804 0.905345,2.218752 3.928648,-1.989261 4.728283,-6.581107 C 25.450863,78.198528 24.571563,73.969558 21.591895,68 19.430766,63.670326 18.56,60.985782 18.56,58.652768 18.56,54.192602 11.01098,63.954714 9.7233462,70.08 8.2357158,77.156672 11.501221,87.563594 15.946155,89.911632 17.502472,90.733754 19.340535,90.785082 19.11071,90 Z M 239.96305,89.93885 C 245.03018,87.353792 248.23092,75.337674 245.80691,68 243.96194,62.415123 237.44,55.044442 237.44,58.54425 c 0,2.437977 -0.71617,4.69816 -3.04688,9.61575 -3.99138,8.421475 -4.36044,15.536928 -1.03036,19.865837 2.14201,2.784499 2.2767,2.738771 3.54167,-1.202464 1.908,-5.94472 2.29528,-8.13521 2.29543,-12.983373 1.5e-4,-4.672035 0.40312,-5.670109 0.9394,-2.326736 0.53396,3.328826 -0.67011,10.775782 -2.68671,16.616832 -0.3589,1.039552 -0.65255,2.011552 -0.65255,2.16 0,0.493075 1.92763,0.279021 3.16305,-0.351246 z M 40.678976,88.925693 C 50.672762,85.07168 57.28632,76.733472 56.910656,68.4612 56.765974,65.275248 56.745795,65.263824 54.320358,66.994579 51.968608,68.672752 50.618614,69.293946 45.202346,71.190192 36.14288,74.361926 27.74115,83.474326 30.341837,87.30769 31.129388,88.468522 42.582202,81.049235 46.34992,76.937437 48.271882,74.839955 48.64159,74.572138 48.637933,75.28 c -0.0093,1.796957 -8.287335,8.276858 -15.446087,12.090902 -4.714132,2.511597 1.603888,3.823607 7.48713,1.554791 z M 223.98968,89.39519 c 1.2834,-0.758121 1.2915,-0.744057 -1.17243,-2.03519 C 216.61557,84.11023 207.36,76.937152 207.36,75.380605 c 0,-0.766099 0.10654,-0.687821 2.94646,2.164893 6.77022,6.800729 15.8483,11.423177 15.5295,7.907443 -0.52716,-5.813613 -6.41117,-11.128583 -16.33301,-14.753459 -3.84086,-1.403232 -5.79139,-2.314743 -7.53267,-3.520128 -2.74275,-1.89865 -2.64769,-1.930752 -2.85482,0.964137 -0.81601,11.404723 16.49968,26.198663 24.87422,21.251699 z M 41.96447,68.960963 c 2.627732,-1.043869 2.627732,-1.043869 0.896461,-1.415158 -0.952198,-0.204211 -2.222253,-0.660979 -2.822342,-1.01504 -1.483043,-0.875018 -1.729895,-0.700995 -2.842208,2.003645 -1.675011,4.07286 -1.683703,4.009456 0.363353,2.650288 0.977354,-0.648925 2.959485,-1.649607 4.404736,-2.223735 z m 177.21471,0.434653 c -1.37087,-3.609235 -1.5593,-3.784486 -3.12381,-2.905184 -0.68035,0.382374 -1.99179,0.857101 -2.91432,1.054947 -1.67733,0.359725 -1.67733,0.359725 0.91768,1.406045 1.42726,0.575478 3.34792,1.550963 4.26814,2.167744 2.09659,1.405251 2.06498,1.469184 0.85231,-1.723552 z M 26.876536,70.16 c -0.0019,-0.308 -0.217905,-1.266886 -0.48,-2.130858 C 26.134441,67.165171 25.92,65.993731 25.92,65.425946 c 0,-0.780567 -0.214619,-1.165424 -0.88,-1.578029 -0.484,-0.300128 -1.358566,-1.072688 -1.943481,-1.716803 -1.474128,-1.623322 -1.20187,-0.699888 1.325355,4.495292 1.909148,3.924612 2.462003,4.720471 2.454662,3.533594 z M 233.78657,61.78576 c 0.18385,-0.674646 0.0509,-0.612902 -1.03358,0.48 -0.68451,0.689834 -1.56596,1.504832 -1.95878,1.811107 -0.49508,0.386016 -0.71421,0.898026 -0.71421,1.668819 0,0.611572 -0.22626,1.778388 -0.5028,2.592922 -0.27655,0.814538 -0.41526,1.709114 -0.30827,1.987946 0.1894,0.493548 4.03894,-6.784183 4.51764,-8.540794 z M 49.28,64.14417 c 10.549178,-2.466733 18.052077,-9.174852 19.234221,-17.196736 0.452083,-3.067786 0.41071,-3.11017 -1.868512,-1.914173 -2.498759,1.311193 -4.355283,1.867254 -8.885709,2.661417 -9.89944,1.735328 -18.08,7.476266 -18.08,12.688151 0,1.325622 -0.175648,1.342201 4.531181,-0.427683 6.948787,-2.612912 11.337331,-4.932516 13.774854,-7.280813 0.913725,-0.880279 1.676487,-1.10769 1.456791,-0.434333 -0.552151,1.692342 -8.218288,5.975078 -15.362826,8.582544 -4.097645,1.495472 -4.087856,1.487613 -3.04,2.440947 1.551853,1.411863 4.582925,1.735821 8.24,0.880679 z m 164.26684,-0.01555 c 1.55861,-0.531072 2.83397,-1.774372 2.05816,-2.006413 -7.51938,-2.248989 -18.39896,-7.893421 -19.04783,-9.882199 -0.21819,-0.668771 0.53984,-0.448419 1.45679,0.423476 2.77486,2.638486 11.31442,6.82127 17.58604,8.613859 2.07531,0.593174 0.10145,-4.299747 -2.82908,-7.012899 -3.86304,-3.576496 -7.92056,-5.410989 -14.53092,-6.569757 -4.58978,-0.80457 -6.46917,-1.369466 -8.75234,-2.63073 -2.0126,-1.111792 -2.08655,-1.075168 -2.01321,0.996983 0.27736,7.836345 7.82301,15.09143 18.643,17.925097 2.91747,0.764061 5.46211,0.812899 7.42939,0.142583 z M 28.765378,56.363107 c 0.01138,-7.165894 0.60313,-10.774771 2.33076,-14.214409 0.924368,-1.840378 1.290345,-1.098663 0.424231,0.859776 -2.430793,5.496454 -2.970083,19.139942 -0.725622,18.35752 4.936367,-1.720829 7.853083,-11.54778 6.046139,-20.370551 -0.704755,-3.441107 -0.871542,-7.628691 -0.38695,-9.715443 0.332909,-1.43358 0.209197,-1.458901 -1.993754,-0.408085 -10.559696,5.037019 -15.76518,25.123647 -7.828015,30.206309 2.104273,1.347498 2.123655,1.304659 2.133211,-4.715117 z M 226.46131,55.141523 c -0.1961,-6.429587 -0.66303,-9.311926 -1.97151,-12.170019 -0.79605,-1.73881 -0.61884,-2.584486 0.26039,-1.242611 1.67004,2.5488 2.52538,7.378688 2.56982,14.511107 0.038,6.099901 0.0394,6.103322 2.01475,4.898858 4.58658,-2.796672 4.88851,-14.560788 0.57265,-22.312186 -2.62606,-4.71647 -11.41209,-11.276864 -10.36316,-7.738012 0.52771,1.780374 0.38945,5.988527 -0.31698,9.647583 -1.7661,9.147795 0.88548,18.443341 5.86412,20.557722 1.50164,0.637731 1.56793,0.340038 1.36992,-6.152442 z M 52.953568,45.419142 C 54.182032,45.078614 55.514032,44.8 55.913568,44.8 c 1.121846,0 0.864198,-0.398931 -0.878346,-1.36 -1.981872,-1.093066 -2.550243,-1.09135 -3.335292,0.01005 -0.34104,0.47847 -0.98904,1.365853 -1.44,1.971958 -0.734151,0.986727 -0.752976,1.076608 -0.17993,0.859143 0.352,-0.133578 1.645107,-0.521485 2.873568,-0.862013 z M 205.46298,45.04 c -2.09289,-2.941117 -2.0769,-2.935427 -4.4982,-1.6 -2.01873,1.113389 -2.0125,1.136701 0.42689,1.59945 1.11743,0.211974 2.59343,0.588028 3.28,0.835676 1.83136,0.660573 1.84523,0.64594 0.79131,-0.835126 z M 40.29112,36.709347 c -1.148749,-1.585801 -1.240896,-0.91783 -0.438186,3.176426 0.833965,4.253689 0.891418,4.309814 1.137898,1.111587 0.228938,-2.970643 0.221482,-3.016339 -0.699712,-4.288013 z m 175.50207,5.459389 c 0.11142,-0.752803 0.39958,-2.556736 0.64037,-4.008736 0.49083,-2.959891 0.39965,-3.127331 -0.77579,-1.42473 -0.77024,1.11569 -0.8133,1.377588 -0.6811,4.142701 0.14783,3.09192 0.4737,3.607066 0.81652,1.290765 z M 67.385821,40.783546 c 9.078982,-2.630986 14.738803,-7.878512 15.917149,-14.757651 0.42518,-2.482184 0.355945,-2.550699 -1.577767,-1.561339 -2.151936,1.10101 -4.71976,1.708337 -8.898793,2.104691 -8.905495,0.844627 -16.921066,5.522276 -17.942576,10.470753 -0.254813,1.234384 -0.332093,1.224 3.103772,0.417085 6.027776,-1.415623 11.936071,-3.790643 14.722276,-5.91807 1.789408,-1.366314 2.370966,-0.974936 0.654134,0.440221 -2.56433,2.11374 -9.595565,4.939657 -15.684016,6.303551 -2.99671,0.671303 -2.969696,0.641607 -1.694771,1.863063 2.00816,1.923936 6.160541,2.156201 11.400592,0.637696 z m 131.104989,0.385987 c 1.02867,-0.429808 2.46919,-1.675578 2.46919,-2.135376 0,-0.112842 -1.188,-0.459482 -2.64,-0.770317 -5.53303,-1.184474 -12.68818,-4.026621 -15.46051,-6.141181 -2.00903,-1.532363 -1.15867,-1.705552 1.06051,-0.215988 3.75377,2.519614 16.36028,6.959713 17.24588,6.074116 3.0755,-3.075494 -8.66068,-10.491695 -18.10066,-11.437983 -4.25113,-0.426144 -6.55247,-0.971585 -8.74434,-2.072496 -1.93302,-0.970903 -1.84168,-0.975362 -1.83708,0.08969 0.0421,9.751747 16.80206,20.455606 26.00701,16.609533 z M 47.425082,36.147293 c 5.018272,-1.393744 8.972291,-8.492925 9.707164,-17.428582 0.33234,-4.041037 0.599268,-5.593509 1.265453,-7.36 C 59.751258,7.7695568 59.736413,7.9355594 58.681651,8.1838963 46.964307,10.94267 36.795178,28.745947 43.24985,35.200621 44.632176,36.582947 44.79497,36.40663 45.77799,32.462493 47.229802,26.637416 49.663318,20.79201 51.632378,18.4 52.838499,16.934805 52.997667,17.677388 51.838586,19.362055 49.61271,22.597253 46.72248,30.302809 45.928035,35.12 c -0.245555,1.488941 -0.222387,1.504838 1.497047,1.027293 z M 210.23959,36.08 c -0.003,-3.184682 -3.66458,-13.194763 -6.15298,-16.822488 -1.09954,-1.602973 -0.88481,-2.278712 0.2725,-0.857512 2.44176,2.998546 6.52089,13.536934 6.52089,16.846659 0,1.594979 1.96639,0.624186 2.89979,-1.431606 3.55206,-7.823373 -5.18309,-22.503401 -15.01214,-25.2289125 -2.50954,-0.6958752 -2.59574,-0.6377802 -1.72202,1.1605814 1.07803,2.2189291 1.62336,4.8306871 1.84018,8.8132781 0.36632,6.728696 2.91228,12.741742 6.71388,15.856867 1.95682,1.603466 4.64083,2.56553 4.6399,1.663133 z"
       id="path335" />
    <path
       style="fill:#ffcc00;fill-rule:evenodd;stroke:#000000;stroke-width:0.244356"
       d="m 146.0419,223.5709 c -4.34489,-4.71598 -9.93057,-6.8021 -23.44585,-8.75649 -6.07269,-0.87814 -9.86631,-1.48849 -12.83874,-2.06559 -3.36541,-0.6534 -4.18513,-0.62444 -6.76214,0.23894 -1.20154,0.40255 -2.4429,0.72383 -2.75857,0.71394 -0.315669,-0.01 0.44859,-0.34472 1.69835,-0.74406 1.70732,-0.54556 2.25326,-0.82104 2.19575,-1.10797 -0.0507,-0.25302 -1.14677,-0.73195 -3.24818,-1.41932 -6.05723,-1.98131 -11.809158,-4.43296 -18.175933,-7.74714 l -4.269514,-2.22246 -3.591042,-0.0316 c -1.975075,-0.0174 -3.667632,-0.10815 -3.76124,-0.20176 -0.09361,-0.0936 1.055766,-0.1702 2.55416,-0.1702 3.875421,0 3.837254,-0.0905 -1.648854,-3.90998 -5.702563,-3.97018 -10.011318,-7.48717 -15.325355,-12.50922 -2.835426,-2.67962 -2.810214,-2.66531 -6.072862,-3.44718 -1.470057,-0.35228 -3.827783,-1.27168 -2.52935,-0.98631 0.335462,0.0737 1.322232,0.29028 2.192822,0.48123 1.716089,0.37641 2.267349,0.20071 1.690545,-0.53882 -0.187588,-0.24051 -1.694629,-2.06661 -3.348978,-4.058 -4.772101,-5.74431 -7.337938,-9.37558 -11.757112,-16.63911 -1.495167,-2.45752 -1.662526,-2.64057 -2.927667,-3.20207 -1.691226,-0.7506 -3.489093,-1.79708 -3.341316,-1.94485 0.06193,-0.0619 0.944985,0.29927 1.962343,0.80267 1.017358,0.5034 1.910588,0.85443 1.984956,0.78006 0.07437,-0.0744 -0.621747,-1.88057 -1.546922,-4.01379 -2.969393,-6.84669 -4.546938,-11.45157 -7.221131,-21.07863 -0.617855,-2.22427 -0.709505,-2.38415 -2.272644,-3.96455 -0.895853,-0.90575 -1.516071,-1.64681 -1.378262,-1.64681 0.13781,0 0.622999,0.38425 1.078198,0.8539 1.305167,1.34659 1.561251,1.17765 1.386809,-0.9149 -0.0811,-0.97284 -0.313308,-2.97646 -0.516019,-4.45249 -0.661986,-4.82021 -0.948145,-11.78904 -0.676346,-16.47109 0.279317,-4.811581 0.224772,-5.411543 -0.591582,-6.507015 -0.715267,-0.959823 -0.748516,-1.282421 -0.06877,-0.667259 0.488007,0.441638 0.523704,0.442756 0.828528,0.02588 0.175202,-0.239603 0.446569,-1.17134 0.603038,-2.070524 1.441705,-8.285119 2.0079,-10.62776 4.410233,-18.247423 0.934618,-2.964399 1.699305,-5.685104 1.699305,-6.04601 0,-0.360906 -0.211246,-1.284009 -0.469435,-2.051338 -0.258189,-0.767329 -0.53006,-2.108762 -0.604158,-2.980962 -0.144359,-1.699243 0.01678,-1.275085 0.585246,1.540548 0.299316,1.482512 0.71912,1.904269 1.363302,1.369645 0.209439,-0.173818 1.231132,-2.079934 2.270431,-4.235814 2.23272,-4.631469 4.361026,-8.425693 7.535964,-13.434699 3.260396,-5.143831 3.453783,-5.607092 3.513664,-8.417042 0.04109,-1.928267 0.06416,-2.051258 0.137252,-0.731917 0.04832,0.872201 0.180064,1.678331 0.292758,1.7914 0.408026,0.409388 1.263055,-0.398009 4.384375,-4.140133 3.346201,-4.011733 10.150033,-11.483416 11.221778,-12.323285 0.347219,-0.272098 1.593144,-1.414238 2.768717,-2.538087 l 2.137404,-2.043364 -0.149321,-1.656981 c -0.121256,-1.345587 -0.05308,-1.909153 0.362787,-2.998829 1.950292,-5.110246 10.202709,-11.205437 17.56259,-12.9716329 1.727604,-0.414584 2.563433,-0.4790246 4.688702,-0.361489 2.659868,0.1471008 3.878946,0.4314791 3.878946,0.9048543 0,0.148701 -0.808933,1.2218464 -1.797629,2.3847677 -0.988695,1.1629214 -2.748766,3.5674359 -3.91127,5.3433669 -5.159463,7.881991 -11.396765,11.771403 -17.384512,10.840509 -1.501578,-0.233445 -1.934946,-0.222747 -2.476816,0.06114 -1.468173,0.769184 -14.929163,15.009196 -14.929163,15.793152 0,0.113742 0.411703,0.21815 0.914896,0.232018 l 0.914896,0.02521 -0.893341,0.237898 c -1.769577,0.471234 -4.261429,3.254984 -7.822333,8.738646 -3.201519,4.930222 -7.752452,13.297082 -7.752452,14.252831 0,0.233937 0.215821,0.389743 0.548937,0.396286 0.453317,0.0089 0.390043,0.09467 -0.363238,0.492378 -0.501697,0.264876 -1.069717,0.726622 -1.262266,1.026098 -1.786074,2.777934 -7.081908,19.422342 -7.610387,23.918877 -0.158283,1.346741 -0.145582,1.388836 0.419301,1.389722 0.552635,9.76e-4 0.543645,0.02462 -0.175207,0.462966 -0.569187,0.347083 -0.795422,0.697746 -0.909198,1.409262 -0.590683,3.693927 -1.26311,18.570779 -1.029106,22.768049 0.20856,3.74089 0.334659,4.3915 0.851132,4.3915 0.372117,0 0.391202,0.1334 0.172106,1.20295 -0.614082,2.99775 1.580234,12.39765 5.015814,21.48647 1.758081,4.65101 1.908714,4.93512 2.551386,4.81227 0.523111,-0.1 0.571238,-0.0252 0.575329,0.89392 0.0098,2.21105 2.856803,7.76916 7.69937,15.03145 4.252779,6.3778 7.170177,10.13006 7.857054,10.10548 0.408024,-0.0146 0.541279,0.11899 0.541279,0.54267 0,0.73722 1.927376,2.92938 6.746923,7.67383 5.99762,5.90416 10.605617,9.88322 13.380381,11.55409 1.681884,1.01278 1.958021,1.05256 2.190115,0.3155 0.15926,-0.50577 0.188019,-0.48579 0.365643,0.25396 0.241733,1.00675 0.682178,1.49311 2.680447,2.95991 2.379945,1.74696 5.879304,3.72618 10.828954,6.1248 4.377614,2.12142 12.201845,5.36065 12.948405,5.36065 0.23254,0 0.39163,-0.2178 0.40096,-0.54893 l 0.0155,-0.54894 0.21538,0.53471 c 0.31264,0.77616 1.07365,1.18913 3.46299,1.87925 3.26825,0.94399 8.88395,1.97251 16.78437,3.07407 11.89147,1.65804 16.05681,2.61452 19.79588,4.54567 3.72038,1.9215 7.26959,5.02672 7.73292,6.76556 0.32441,1.21746 -0.37785,2.59653 -1.32222,2.59653 -0.096,0 -0.84426,-0.72696 -1.66285,-1.61547 z M 68.338852,20.629993 c 4.552607,-4.332396 9.876557,-8.405561 12.715657,-9.728298 0.908643,-0.423336 1.652078,-0.9085443 1.652078,-1.0782402 0,-1.2282155 -4.671156,1.3030962 -9.421208,5.1053762 -2.126908,1.70253 -7.900821,7.220867 -7.900821,7.5511 0,0.626861 1.028121,-0.01693 2.954294,-1.849938 z"
       id="path900" />
    <path
       style="fill:#ffcc00;fill-rule:evenodd;stroke:#000000;stroke-width:0.244356"
       d="m 137.66831,212.43703 c -1.77411,-0.55461 -3.20134,-1.03036 -3.17164,-1.05721 0.0297,-0.0268 1.64593,-0.28646 3.59161,-0.57691 7.57486,-1.13076 15.80434,-2.99121 16.22223,-3.66737 0.0768,-0.12418 0.28758,-0.16897 0.46852,-0.0995 0.75429,0.28944 9.98305,-3.63964 16.60298,-7.06861 7.44541,-3.85655 9.98048,-5.63278 10.51775,-7.36938 0.26371,-0.85239 0.29915,-0.88397 0.32192,-0.28691 0.0155,0.4069 0.16274,0.67093 0.37413,0.67093 0.44039,0 4.53246,-3.02512 8.19048,-6.05492 3.88269,-3.2159 11.4228,-10.78556 12.65816,-12.70778 0.56319,-0.87632 1.01887,-1.89429 1.0375,-2.31773 0.0253,-0.57463 0.0585,-0.6239 0.13896,-0.20615 0.26069,1.35345 1.34324,0.25648 5.47881,-5.5518 5.7753,-8.11121 10.35536,-16.19759 10.66467,-18.82913 0.12738,-1.08368 0.23277,-1.29715 0.64041,-1.29715 0.39532,0 0.70766,-0.54849 1.64546,-2.88953 2.51395,-6.27558 4.91099,-14.40912 5.5544,-18.84693 0.30069,-2.07398 0.24162,-4.76214 -0.12281,-5.58843 -0.18872,-0.42789 -0.16663,-0.44847 0.17942,-0.16722 0.67932,0.55209 0.87296,-0.32239 1.12955,-5.10115 0.27216,-5.06862 -0.004,-14.304572 -0.57652,-19.273052 -0.41497,-3.601945 -0.46959,-3.779654 -1.31217,-4.268689 -0.62042,-0.360094 -0.62247,-0.368535 -0.0612,-0.251111 0.56686,0.118587 0.57723,0.09107 0.43138,-1.144842 -0.4203,-3.561451 -4.83653,-17.986619 -6.77057,-22.115371 -1.09648,-2.340752 -1.50029,-2.870541 -2.53669,-3.328018 l -0.73192,-0.323075 0.69737,-0.0095 c 0.63665,-0.0087 0.6828,-0.06763 0.52995,-0.676631 -0.20637,-0.822257 -3.29094,-6.532998 -5.56969,-10.311679 -3.7526,-6.222651 -7.58507,-11.497555 -8.66031,-11.91981 -0.36287,-0.142499 -1.04402,-0.371728 -1.51367,-0.509394 l -0.8539,-0.250303 0.80365,0.07778 c 1.68167,0.162768 1.45693,-0.229093 -3.10929,-5.421224 -4.14676,-4.715169 -9.03822,-9.446302 -10.70348,-10.35265 -1.11242,-0.605457 -1.35796,-0.653718 -2.17357,-0.427219 -3.92545,1.090121 -9.71473,-1.449266 -14.21596,-6.235634 -0.8722,-0.927451 -2.5278,-3.111959 -3.67911,-4.854461 -1.15131,-1.742503 -2.82557,-4.0292514 -3.72058,-5.0816637 -0.89501,-1.0524122 -1.62729,-2.0706639 -1.62729,-2.2627815 0,-0.5495903 1.14005,-0.8480071 3.81928,-0.9997302 2.02891,-0.1148962 2.89111,-0.044735 4.76146,0.387464 7.2897,1.6844981 15.25937,7.7196844 17.36438,13.1495104 0.24277,0.626232 0.40372,1.745433 0.40347,2.805681 l -4.9e-4,1.763862 4.10355,3.95113 c 4.31835,4.157963 7.89861,8.020031 11.94291,12.882954 2.90848,3.497188 3.87633,4.450863 4.19433,4.132867 0.12706,-0.12706 0.26892,-1.108934 0.31525,-2.181943 l 0.0842,-1.950924 0.0505,2.317736 c 0.0277,1.274755 0.17097,2.751789 0.31825,3.282302 0.14729,0.53051 1.20835,2.451792 2.35791,4.269514 4.02736,6.368193 8.63314,14.800376 10.26012,18.784042 0.53695,1.314723 0.54762,1.323708 1.01355,0.853903 0.46955,-0.473455 1.22419,-2.894389 1.22419,-3.927272 0,-0.299352 0.11237,-0.613727 0.24973,-0.698615 0.42125,-0.26035 0.009,1.937533 -1.01428,5.405754 -0.28442,0.964093 -0.21758,1.262215 1.4494,6.465264 2.09286,6.532342 3.15544,10.795967 4.19069,16.815254 0.4251,2.471664 0.82278,4.54381 0.88374,4.604769 0.20126,0.201257 1.27491,-1.059769 2.15631,-2.53263 0.47707,-0.797215 0.86741,-1.315056 0.86741,-1.150758 0,0.559572 -1.23451,2.737027 -2.08628,3.67984 l -0.84932,0.940096 0.16099,6.553298 c 0.17221,7.01011 -0.0656,11.54736 -0.90625,17.28807 -0.74847,5.11147 -0.63281,5.37306 1.49556,3.38222 0.66518,-0.62219 1.20644,-1.03389 1.20281,-0.91489 -0.01,0.31635 -1.48746,1.85212 -2.28218,2.37169 -0.8833,0.57748 -1.38776,1.75061 -2.46925,5.74221 -1.82386,6.73158 -3.9129,12.76386 -6.24741,18.03983 -1.698,3.83749 -1.77506,4.37368 -0.64423,4.48271 0.78325,0.0755 0.77602,0.0844 -0.59348,0.72634 -1.52448,0.71463 -1.47843,0.65572 -5.05848,6.47075 -3.18902,5.17989 -5.74826,8.62749 -11.73459,15.80787 -1.85889,2.22968 -1.58604,2.92146 0.87062,2.20729 0.7596,-0.22082 1.43155,-0.35105 1.49321,-0.28939 0.14579,0.14579 -1.08356,0.53969 -3.19387,1.02336 -0.9281,0.21272 -1.97108,0.53374 -2.31773,0.71339 -0.34665,0.17966 -2.00262,1.61557 -3.67993,3.19092 -4.79624,4.50471 -10.12941,8.816 -15.37025,12.4252 -1.14057,0.78548 -2.37568,1.70551 -2.74469,2.04452 -1.19617,1.09895 -0.94989,1.25297 2.07377,1.2969 l 2.74468,0.0399 -3.70199,0.15987 -3.702,0.15988 -5.9349,2.94858 c -6.1985,3.07958 -9.80435,4.61574 -15.32777,6.52997 -1.81149,0.6278 -3.54064,1.2995 -3.84256,1.49266 -0.6032,0.38591 -0.72016,0.94978 -0.24397,1.17622 0.16773,0.0798 0.0305,0.0741 -0.30497,-0.0126 -1.5603,-0.40319 -3.24163,-0.33636 -6.44398,0.25612 -1.86688,0.3454 -3.73327,0.62119 -4.14753,0.61286 -0.41426,-0.008 -2.20474,-0.46891 -3.97885,-1.02353 z M 190.54245,22.262466 c 2e-4,-0.622885 -3.82312,-4.232873 -7.1989,-6.797214 -5.10298,-3.876365 -8.92993,-6.1796008 -9.74688,-5.8661091 -0.6059,0.2325067 -0.3809,0.4206161 1.94205,1.6235801 2.78747,1.443528 6.24643,4.078435 10.70038,8.151159 1.99424,1.823544 3.77829,3.315536 3.96455,3.315536 0.18627,0 0.33872,-0.192129 0.3388,-0.426952 z"
       id="path902" />
    <path
       style="fill:#d4aa00;fill-rule:evenodd;stroke:#000000;stroke-width:0.244356"
       d="m 107.34889,224.65099 c -0.71398,-0.75617 -0.5564,-2.30403 0.35639,-3.50075 0.82124,-1.07671 3.67706,-3.45155 5.42313,-4.50978 1.47573,-0.89439 2.65428,-0.98655 6.13418,-0.4797 3.02443,0.44051 3.03814,0.46925 0.63511,1.33137 -3.69036,1.32397 -5.97882,2.68798 -9.01232,5.3717 -0.93929,0.83099 -1.99976,1.69961 -2.3566,1.93027 -0.62749,0.40562 -0.66622,0.40092 -1.17989,-0.14311 z"
       id="path904" />
    <path
       style="fill:#aa8800;fill-rule:evenodd;stroke:#000000;stroke-width:0.244356"
       d="m 78.448276,219.18826 c -4.222954,-0.65627 -7.057557,-1.86711 -10.737079,-4.58649 -3.488429,-2.57816 -6.68272,-6.13852 -6.063191,-6.75805 0.115387,-0.11538 0.969189,-0.0887 1.911546,0.0598 2.159979,0.34032 7.423181,0.12502 10.973965,-0.44891 5.224489,-0.84445 11.777591,-0.504 15.708321,0.81607 3.098513,1.04059 6.150174,3.18157 5.807544,4.07445 -0.428752,1.1173 -4.49403,1.75856 -9.683212,1.52744 -4.014785,-0.17882 -6.438948,-0.56446 -9.552933,-1.51969 -1.188611,-0.36461 -2.23089,-0.59315 -2.316175,-0.50787 -0.534887,0.53489 2.602749,1.90469 5.467169,2.38681 0.904464,0.15223 4.960244,0.3463 9.012842,0.43126 5.013071,0.10509 7.457417,0.24365 7.646959,0.43347 0.442873,0.44351 -1.229996,2.09518 -3.009225,2.97109 -2.482412,1.22209 -4.157382,1.50271 -8.834456,1.48013 -2.281141,-0.011 -5.130574,-0.17279 -6.332075,-0.35951 z"
       id="path906" />
    <path
       style="fill:#aa8800;fill-rule:evenodd;stroke:#000000;stroke-width:0.244356"
       d="m 168.56179,219.56678 c -3.89321,-0.45512 -7.18532,-1.77638 -8.62925,-3.4633 -0.63468,-0.74148 -0.78388,-1.06322 -0.55918,-1.20587 0.16856,-0.10702 2.7925,-0.19625 5.83098,-0.19831 7.16786,-0.005 12.31805,-0.52516 15.19892,-1.53552 0.96141,-0.33718 1.60716,-0.98213 1.29545,-1.29384 -0.0909,-0.0909 -1.51429,0.17379 -3.16301,0.58827 -1.64872,0.41448 -3.6564,0.87378 -4.46151,1.02066 -2.3617,0.43087 -8.55297,0.58357 -10.61279,0.26175 -1.88049,-0.2938 -3.44438,-0.90269 -3.59799,-1.40085 -0.181,-0.58696 1.50261,-2.06161 3.44138,-3.01427 4.73825,-2.32825 11.29056,-2.97586 18.45452,-1.82398 3.25037,0.52262 8.78129,0.72818 10.84494,0.40306 0.9328,-0.14696 1.74378,-0.2194 1.8022,-0.16098 0.24442,0.24442 -2.04776,3.34373 -3.62183,4.89716 -2.04006,2.01331 -3.84583,3.27404 -6.46494,4.51361 -4.65984,2.20541 -10.23172,3.05842 -15.75789,2.41241 z"
       id="path908" />
    <path
       style="fill:#aa8800;fill-rule:evenodd;stroke:#000000;stroke-width:0.244356"
       d="m 191.30976,202.3574 c -1.34407,-0.36158 -2.25355,-0.89132 -3.0574,-1.78081 -0.36314,-0.40183 -0.38886,-0.5307 -0.12199,-0.61123 0.186,-0.0561 2.41223,-0.61692 4.94719,-1.2462 2.53495,-0.62929 5.88347,-1.57953 7.44115,-2.11163 5.01953,-1.71468 9.54138,-4.19641 9.54138,-5.23659 0,-0.52303 -0.35831,-0.41754 -1.87311,0.55146 -2.05939,1.31737 -5.4568,2.85209 -8.49571,3.83779 -3.54527,1.14993 -9.63346,2.80863 -10.99293,2.99497 -0.99472,0.13634 -1.08369,0.1051 -1.08369,-0.38041 0,-2.19883 3.26835,-5.42702 7.80711,-7.71118 3.94434,-1.98501 6.96554,-2.83808 12.54743,-3.54287 5.75278,-0.72637 8.03238,-1.17858 10.70715,-2.12401 1.31723,-0.46559 2.46437,-0.77711 2.54922,-0.69226 0.2792,0.2792 -0.42898,2.41725 -1.5813,4.77405 -0.99675,2.03862 -1.44411,2.62623 -3.71485,4.87944 -1.8741,1.85964 -3.1826,2.91305 -4.77442,3.84366 -6.21439,3.63308 -15.41976,5.74633 -19.84523,4.55582 z"
       id="path910" />
    <path
       style="fill:#aa8800;fill-rule:evenodd;stroke:#000000;stroke-width:0.244356"
       d="m 57.558351,202.6063 c -4.277768,-0.77464 -8.812635,-2.65036 -12.980821,-5.36913 -3.330265,-2.17222 -7.274594,-6.12416 -8.508249,-8.52465 -0.8543,-1.66232 -1.614677,-4.16138 -1.347468,-4.42859 0.07301,-0.073 1.265595,0.25591 2.650194,0.73094 2.861518,0.98172 5.236439,1.45623 9.958606,1.98972 5.812059,0.65663 9.283934,1.58146 13.052515,3.4769 4.279087,2.15222 7.441075,5.16675 8.060842,7.68496 0.147215,0.59815 0.09842,0.67092 -0.449904,0.67092 -0.950687,0 -8.127218,-1.85803 -11.200173,-2.89976 -3.716283,-1.25982 -5.528107,-2.04341 -8.068564,-3.48954 -1.999849,-1.13839 -3.013527,-1.37364 -2.72949,-0.63345 0.605202,1.57713 9.267365,5.02817 17.924886,7.14135 2.079863,0.50766 3.883274,1.01543 4.007578,1.12836 0.312824,0.28422 -0.507535,1.13933 -1.654715,1.72482 -2.166768,1.10586 -5.384982,1.40022 -8.715237,0.79715 z"
       id="path912" />
    <path
       style="fill:#d4aa00;fill-rule:evenodd;stroke:#000000;stroke-width:0.244356"
       d="m 214.08563,179.33698 c -1.074,-0.25919 -1.87189,-0.74141 -1.77171,-1.07079 0.0483,-0.15865 1.12536,-0.82129 2.39356,-1.47255 9.20631,-4.72768 16.82217,-10.17752 16.82217,-12.0378 0,-0.68079 -0.76909,-0.24658 -2.69478,1.52141 -3.16876,2.90926 -10.07595,7.4483 -14.50526,9.53208 -2.5685,1.20836 -2.98789,1.26476 -3.30004,0.44375 -0.72303,-1.90171 1.48315,-5.52365 5.30113,-8.70296 3.81954,-3.18062 7.41476,-5.1189 13.24717,-7.14191 3.95352,-1.37131 6.34536,-2.44882 8.71681,-3.92688 0.9731,-0.6065 1.89543,-1.02477 2.04962,-0.92947 0.3659,0.22614 0.11874,3.82767 -0.40049,5.83577 -0.45457,1.75806 -1.75176,4.57168 -2.83077,6.13996 -1.18968,1.72914 -3.97967,4.56691 -5.86178,5.96218 -5.6614,4.19697 -13.26763,6.78792 -17.16563,5.84721 z"
       id="path914" />
    <path
       style="fill:#d4aa00;fill-rule:evenodd;stroke:#000000;stroke-width:0.244356"
       d="m 36.185933,179.08886 c -5.385273,-1.44638 -12.174055,-5.58284 -15.927321,-9.70463 -1.699923,-1.86684 -3.619722,-5.49726 -4.293177,-8.11858 -0.56387,-2.19478 -0.596595,-4.73799 -0.06778,-5.26717 0.377997,-0.37825 0.529764,-0.3282 2.243581,0.73998 2.088079,1.30144 4.353806,2.29798 8.573719,3.77099 5.30553,1.85195 9.632417,4.29444 13.554583,7.65145 3.077778,2.63428 5.353265,5.6886 5.353265,7.18553 0,0.92986 -0.441233,1.53344 -1.120996,1.53344 -2.044843,0 -13.421687,-6.96048 -17.405496,-10.64888 -1.640805,-1.51913 -2.45512,-1.912 -2.45512,-1.18448 0,1.50096 6.993485,6.56223 14.696075,10.63575 2.048106,1.08314 3.937117,2.17672 4.197799,2.43018 0.467695,0.45474 0.461232,0.46643 -0.487945,0.88317 -1.439214,0.63189 -4.691141,0.67608 -6.861191,0.0933 z"
       id="path916" />
    <path
       style="fill:#d4aa00;fill-rule:evenodd;stroke:#000000;stroke-width:0.244356"
       d="m 229.62319,151.73733 c -0.31054,-0.12455 -0.49717,-0.33557 -0.41474,-0.46895 0.0824,-0.13337 1.43438,-1.36554 3.00434,-2.73814 5.47444,-4.78628 9.43774,-9.24438 11.03985,-12.41815 1.45472,-2.88179 0.70861,-2.89292 -1.26278,-0.0188 -2.02624,2.95404 -3.92509,5.15393 -7.56651,8.76605 -3.473,3.44505 -5.59139,5.18361 -6.3161,5.18361 -0.24516,0 -0.68501,-0.30191 -0.97744,-0.67092 -0.45228,-0.57071 -0.5139,-0.88958 -0.4125,-2.13476 0.38942,-4.78225 6.36919,-12.05218 13.83931,-16.82518 2.73389,-1.74681 5.63192,-4.07677 7.13063,-5.7329 0.73323,-0.81025 1.40216,-1.47318 1.4865,-1.47318 0.32098,0 0.87215,1.43301 1.27026,3.30266 0.61989,2.91111 0.57554,7.15468 -0.094,8.99816 -2.64993,7.29588 -10.44018,14.91636 -16.5756,16.21438 -1.53335,0.3244 -3.36484,0.33152 -4.15119,0.0161 z"
       id="path918" />
    <path
       style="fill:#d4aa00;fill-rule:evenodd;stroke:#000000;stroke-width:0.244356"
       d="M 21.496961,151.86754 C 15.046437,150.06175 7.2709046,141.18466 5.4765594,133.57753 c -0.7436328,-3.15263 -0.2833466,-6.94083 1.186089,-9.76162 0.4138435,-0.79444 0.5263306,-0.88516 0.604968,-0.48795 0.2392674,1.2086 3.6535376,4.03473 9.4552526,7.8265 6.390998,4.17691 10.271581,8.69372 11.704804,13.62384 0.452978,1.55819 0.41751,4.32986 -0.06154,4.80891 -0.659015,0.65902 -4.049422,-1.79572 -8.117457,-5.87724 -3.094015,-3.10428 -5.437086,-6.06211 -6.46266,-8.15831 -0.658699,-1.34633 -1.222679,-1.72152 -1.500291,-0.99808 -0.189825,0.49468 0.873672,2.59044 2.227008,4.38861 1.813218,2.40921 5.75836,6.47469 9.142824,9.4217 1.749763,1.5236 3.181387,2.83641 3.181387,2.91736 0,0.30975 -1.327522,0.73095 -2.648253,0.84027 -0.83145,0.0688 -1.898221,-0.0318 -2.691732,-0.25398 z"
       id="path920" />
    <path
       style="fill:#d4aa00;fill-rule:evenodd;stroke:#000000;stroke-width:0.244356"
       d="m 156.93429,204.65526 c -0.49275,-0.49276 -0.36109,-1.34819 0.67697,-4.39846 1.96111,-5.76254 3.80414,-9.40106 6.07102,-11.98543 1.37709,-1.56997 1.49362,-1.87658 0.71318,-1.87658 -1.73897,0 -5.25365,6.05902 -7.99598,13.78443 -0.57158,1.61021 -1.19893,3.09234 -1.3941,3.29362 -0.31394,0.32376 -0.44993,0.26282 -1.17927,-0.52838 -3.55756,-3.85933 -0.9186,-14.62523 4.88516,-19.92954 3.42526,-3.13049 11.38148,-6.46316 12.99116,-5.44169 0.24081,0.15282 0.14228,0.5605 -0.43215,1.78802 -0.88093,1.88251 -1.29902,3.79551 -1.8038,8.2534 -0.70688,6.24261 -2.33285,10.20305 -5.51714,13.43827 -1.37321,1.39517 -2.28638,2.07934 -3.65958,2.74186 -2.22425,1.07312 -2.95535,1.2606 -3.35547,0.86048 z"
       id="path922" />
    <path
       style="fill:#d4aa00;fill-rule:evenodd;stroke:#000000;stroke-width:0.244356"
       d="m 183.07973,190.26367 c -1.00018,-1.61833 0.60173,-13.53913 2.36135,-17.57222 0.82372,-1.88799 0.89341,-2.46855 0.28278,-2.35573 -0.61563,0.11374 -1.94133,2.9801 -2.62523,5.67611 -0.34578,1.3631 -0.78013,4.37591 -1.06837,7.4107 -0.63803,6.71742 -1.10855,7.82635 -2.63272,6.20489 -0.95161,-1.01237 -2.44422,-4.27195 -2.90541,-6.34489 -1.14395,-5.14185 0.58531,-11.9361 4.28894,-16.85119 1.83888,-2.44037 3.92403,-4.15242 6.71159,-5.51067 2.50187,-1.21904 3.21231,-1.42028 3.08869,-0.87489 -0.4927,2.17371 -0.20856,6.69317 0.72858,11.58869 0.58896,3.07664 0.52533,6.73183 -0.16138,9.27094 -1.13704,4.20419 -4.03846,7.94075 -7.24577,9.33138 -0.46401,0.20119 -0.71035,0.20923 -0.82305,0.0269 z"
       id="path924" />
    <path
       style="fill:#d4aa00;fill-rule:evenodd;stroke:#000000;stroke-width:0.244356"
       d="m 201.19619,169.58165 c -2.27721,-1.16099 -4.26728,-3.51658 -5.53782,-6.55494 -1.92987,-4.61511 -1.96417,-11.13383 -0.0849,-16.14021 1.2698,-3.38277 3.80941,-6.73391 6.39341,-8.4364 1.24006,-0.81702 1.36857,-0.71542 1.60145,1.26608 0.22129,1.88283 1.14793,4.38338 2.70466,7.29855 2.63283,4.9303 3.62581,8.3206 3.63801,12.42112 0.008,2.68594 -0.33565,4.45991 -1.24003,6.40134 -0.88475,1.8993 -3.35061,4.1885 -3.9096,3.62951 -0.28176,-0.28175 -1.33338,-4.28357 -2.05896,-7.8351 -0.7929,-3.88098 -1.04019,-8.36016 -0.60949,-11.03974 0.17502,-1.08892 0.14844,-1.28085 -0.17736,-1.28085 -0.21077,0 -0.57789,0.29758 -0.8158,0.6613 -0.36191,0.55328 -0.42865,1.18101 -0.4085,3.84257 0.0268,3.54277 0.5873,7.22738 1.91274,12.57418 0.44906,1.8115 0.76689,3.37597 0.70628,3.47661 -0.19629,0.32595 -1.17575,0.19436 -2.11407,-0.28402 z"
       id="path926" />
    <path
       style="fill:#d4aa00;fill-rule:evenodd;stroke:#000000;stroke-width:0.244356"
       d="m 96.926762,204.33876 c -3.156147,-0.98637 -6.500178,-4.39951 -8.386602,-8.55993 -1.076456,-2.37408 -1.66971,-4.83876 -1.935773,-8.0422 -0.311768,-3.75375 -0.777185,-5.87889 -1.803299,-8.23406 l -0.823789,-1.89078 h 0.690541 c 1.919246,0 6.713137,1.38069 9.073065,2.61314 5.307439,2.77177 10.191265,11.27983 10.191265,17.7541 0,2.58844 -0.48204,3.99143 -1.77171,5.15656 l -1.00148,0.90478 -0.31306,-0.71072 c -0.17218,-0.39089 -0.877305,-2.24774 -1.566942,-4.12632 -2.235098,-6.08845 -5.28349,-11.65139 -6.820231,-12.44607 -0.859445,-0.44443 -1.184196,-0.0838 -0.618056,0.68639 2.447506,3.32955 4.80314,7.73438 6.451273,12.06331 0.842428,2.21269 1.519767,4.83336 1.304795,5.04833 -0.23181,0.23181 -1.587104,0.1219 -2.669997,-0.21653 z"
       id="path928" />
    <path
       style="fill:#d4aa00;fill-rule:evenodd;stroke:#000000;stroke-width:0.244356"
       d="m 71.30645,189.80514 c -1.972692,-0.98576 -4.001503,-3.15273 -5.067101,-5.41216 -1.295008,-2.74586 -1.637604,-4.324 -1.763422,-8.12304 -0.09957,-3.00645 -0.03731,-3.7806 0.519742,-6.46252 0.503306,-2.42316 0.632862,-3.73577 0.632862,-6.41192 0,-3.77761 0.03954,-3.85696 1.598717,-3.20844 7.198091,2.99395 12.092859,10.30823 12.47709,18.64459 0.189692,4.11559 -0.522196,7.02281 -2.389856,9.75972 -1.07581,1.57652 -1.609692,1.8888 -2.207361,1.29113 -0.477615,-0.47761 -0.523101,-0.75541 -1.310591,-8.0044 -0.705869,-6.49765 -2.178957,-11.35501 -3.501077,-11.54444 -0.662016,-0.0949 -0.621251,0.18505 0.355427,2.44051 1.327002,3.06446 2.23208,8.15567 2.466931,13.87688 0.09583,2.33443 0.05997,3.62708 -0.103396,3.72804 -0.137546,0.085 -0.90613,-0.17327 -1.707965,-0.57395 z"
       id="path930" />
    <path
       style="fill:#d4aa00;fill-rule:evenodd;stroke:#000000;stroke-width:0.244356"
       d="m 52.829775,170.06448 c -0.08429,-0.13639 0.230369,-1.87001 0.699252,-3.85249 1.27987,-5.41139 1.623606,-7.64333 1.776255,-11.53359 0.113791,-2.89994 0.06947,-3.70251 -0.245896,-4.4525 -0.211589,-0.50319 -0.555423,-0.91489 -0.764074,-0.91489 -0.331202,0 -0.360272,0.39493 -0.228967,3.11064 0.168033,3.47534 -0.221099,7.15139 -1.220274,11.52769 -0.875926,3.83648 -1.371828,5.3842 -1.77467,5.53878 -0.605477,0.23235 -2.730992,-2.06154 -3.635756,-3.92375 -1.116244,-2.2975 -1.403237,-3.90163 -1.269881,-7.09792 0.154812,-3.71056 0.848053,-6.05889 3.062855,-10.3753 2.227351,-4.34088 2.847025,-5.94084 3.208756,-8.28482 0.15444,-1.00075 0.320952,-1.8597 0.370027,-1.90877 0.199794,-0.19979 1.621527,0.73574 2.915925,1.91874 3.785826,3.46004 6.03756,9.31212 6.04712,15.716 0.0073,4.92207 -1.298851,8.96916 -3.788536,11.73829 -1.440468,1.60215 -4.772092,3.40881 -5.152136,2.79389 z"
       id="path932" />
    <path
       style="fill:#ffcc00;fill-rule:evenodd;stroke:#000000;stroke-width:0.244356"
       d="m 14.941116,121.24507 c -2.728472,-1.36343 -6.5219485,-5.43744 -8.7156944,-9.36022 -1.2415509,-2.2201 -2.3040412,-5.2779 -2.5741477,-7.40829 -0.6688191,-5.27511 2.1690177,-14.578064 4.3206642,-14.163934 0.2644047,0.05089 0.8607719,0.860711 1.4689897,1.994774 1.2183142,2.27163 2.2177722,3.583516 5.2980012,6.954145 2.761744,3.022115 4.206466,5.118085 5.615769,8.147215 1.406344,3.02278 1.913937,4.99431 1.93151,7.50216 0.01225,1.74737 -0.08737,2.29503 -0.632911,3.47961 -0.356093,0.77322 -0.808709,1.46773 -1.005812,1.54337 -1.824985,0.70031 -8.098295,-9.87157 -9.404415,-15.84847 -0.247143,-1.13094 -0.523986,-2.17703 -0.615206,-2.32462 -0.305786,-0.49477 -0.601611,-0.27519 -0.7589171,0.56332 -0.4445706,2.36977 2.2454391,8.57693 6.5649351,15.1485 2.280994,3.47025 2.521683,3.93741 2.168291,4.20852 -0.672069,0.5156 -2.096008,0.34599 -3.661057,-0.43608 z"
       id="path934" />
    <path
       style="fill:#ffcc00;fill-rule:evenodd;stroke:#000000;stroke-width:0.244356"
       d="m 17.320449,90.285745 c -1.183228,-0.359922 -2.107156,-0.964937 -3.06959,-2.010058 -3.51649,-3.818609 -5.5711116,-12.333976 -4.3753638,-18.13367 0.7062898,-3.425693 4.5311398,-9.916375 7.0229698,-11.917816 1.172593,-0.941829 1.43404,-0.707948 1.669236,1.493235 0.231121,2.163049 0.890791,4.083995 2.785417,8.111088 3.570227,7.588642 4.267915,12.2205 2.579814,17.12705 -0.890632,2.588665 -2.404288,4.826208 -3.26484,4.826208 -0.424057,0 -1.119348,-1.646306 -2.00245,-4.741389 -1.062251,-3.722963 -1.623764,-7.357053 -1.793082,-11.604751 -0.170813,-4.285208 -0.424206,-4.948277 -0.961148,-2.515086 -0.65746,2.979335 0.227302,9.42912 2.235158,16.293955 0.976814,3.339713 0.907207,3.598487 -0.826121,3.071234 z"
       id="path936" />
    <path
       style="fill:#ffdd55;fill-rule:evenodd;stroke:#000000;stroke-width:0.244356"
       d="m 26.688173,60.889819 c -2.326166,-1.566531 -3.492141,-4.160134 -3.682695,-8.191817 -0.330208,-6.986421 3.509289,-15.781167 8.650633,-19.81513 1.096289,-0.860161 4.128269,-2.630137 4.505815,-2.630354 0.03737,-2.2e-5 0.07119,1.948706 0.07514,4.330507 0.005,3.032147 0.12951,4.952309 0.415161,6.40431 0.62479,3.175895 0.749726,5.508235 0.435868,8.136904 -0.480025,4.020382 -1.375792,6.796678 -2.956861,9.164348 -0.897524,1.344053 -2.81562,2.948443 -3.52495,2.948443 -0.715134,0 -0.963858,-1.542846 -0.943947,-5.855333 0.02421,-5.244496 0.535559,-8.387824 2.033046,-12.497482 0.602083,-1.652338 0.622801,-1.89688 0.160709,-1.89688 -0.316367,0 -1.08228,1.397334 -1.805317,3.293625 -0.89517,2.347738 -1.478913,7.876479 -1.498379,14.191428 -0.0074,2.399811 -0.12904,3.252587 -0.463957,3.252587 -0.08807,0 -0.718194,-0.37582 -1.400268,-0.835156 z"
       id="path938" />
    <path
       style="fill:#ffdd55;fill-rule:evenodd;stroke:#000000;stroke-width:0.244356"
       d="m 46.016078,36.152084 c -0.155748,-0.252007 0.414201,-3.031717 1.084573,-5.289597 1.267746,-4.269889 2.94676,-8.199105 5.127227,-11.998698 0.799934,-1.393933 0.374591,-1.641957 -0.713067,-0.415801 -1.766251,1.991158 -3.678868,6.469175 -5.644234,13.214867 -0.636487,2.184603 -1.217682,4.032439 -1.291545,4.106302 -0.456011,0.456011 -2.139061,-1.530252 -2.751472,-3.247168 -0.504081,-1.413207 -0.433935,-4.54629 0.148874,-6.649424 2.034616,-7.342158 8.9772,-15.063005 15.412467,-17.1402004 0.902685,-0.2913716 1.698407,-0.4726051 1.768271,-0.4027412 0.06986,0.069864 -0.250083,1.2159889 -0.710993,2.5469446 -0.666869,1.925696 -0.943159,3.330478 -1.352831,6.878393 -0.283147,2.452161 -0.723258,5.273489 -0.978025,6.269618 -1.420022,5.552235 -4.182313,9.773592 -7.471459,11.417953 -1.414585,0.7072 -2.455526,0.988273 -2.627786,0.709552 z"
       id="path940" />
    <path
       style="fill:#ffd42a;fill-rule:evenodd;stroke:#000000;stroke-width:0.244356"
       d="m 37.433929,144.11238 c -0.08861,-0.2309 0.549593,-1.51374 1.623439,-3.26327 2.027912,-3.30392 4.252937,-7.84926 5.232906,-10.68992 0.785968,-2.27831 1.148105,-5.87328 0.572788,-5.68613 -0.185971,0.0605 -0.481592,0.7608 -0.656936,1.55622 -0.594629,2.69744 -1.541313,5.39193 -2.831363,8.05875 -1.419399,2.93422 -4.223956,7.75901 -5.106692,8.78525 l -0.565793,0.65778 -0.643777,-0.84404 c -2.513912,-3.29591 -2.494792,-8.04791 0.05265,-13.08542 1.299135,-2.56902 2.956725,-4.84428 5.636953,-7.73747 2.884284,-3.11346 4.197331,-4.88509 5.418758,-7.31127 l 0.978621,-1.94389 0.58495,0.72403 c 0.882616,1.09246 3.156273,5.65241 3.645503,7.31127 0.641209,2.17418 0.541517,5.92475 -0.238495,8.97265 -1.564606,6.1137 -5.530898,11.8832 -9.518889,13.84648 -1.884117,0.92755 -3.954512,1.24864 -4.184623,0.64898 z"
       id="path942" />
    <path
       style="fill:#ffd42a;fill-rule:evenodd;stroke:#000000;stroke-width:0.244356"
       d="m 31.246534,117.38059 c -0.325514,-0.091 -0.63234,-0.28688 -0.681836,-0.43537 -0.0495,-0.14849 1.536452,-1.96209 3.524328,-4.03024 4.132592,-4.29946 6.055077,-6.58467 7.838874,-9.3179 1.418947,-2.17419 1.983938,-3.669218 1.550461,-4.102694 -0.407135,-0.407136 -0.878114,0.08239 -1.518967,1.578794 -2.123758,4.959 -10.374199,13.83774 -12.858516,13.83774 -0.82381,0 -1.105624,-0.97303 -0.993508,-3.43033 0.08184,-1.79384 0.223618,-2.35872 1.004908,-4.00389 2.03026,-4.27515 5.365357,-7.736319 11.080475,-11.499331 2.69627,-1.775308 4.193469,-2.96913 5.962779,-4.754542 1.695162,-1.71059 2.428588,-2.302521 2.596422,-2.09551 0.431954,0.532782 1.455364,4.176516 1.627225,5.793546 0.406513,3.824854 -1.178056,8.961087 -4.087979,13.250817 -3.857707,5.68692 -11.314542,10.25129 -15.044666,9.20891 z"
       id="path944" />
    <path
       style="fill:#ffd42a;fill-rule:evenodd;stroke:#000000;stroke-width:0.244356"
       d="m 32.974641,89.782999 c -1.09254,-0.258305 -1.444821,-0.626791 -1.108682,-1.159682 0.143323,-0.227214 1.732774,-1.295046 3.532114,-2.37296 7.646998,-4.581018 13.396373,-9.342615 13.396373,-11.094794 0,-0.599779 -0.692521,-0.13018 -2.781751,1.886304 -3.410955,3.292187 -8.717847,7.12493 -12.710485,9.179763 -2.191272,1.127751 -2.827747,1.202186 -3.131158,0.366183 -1.351097,-3.722743 6.30162,-11.809132 14.030505,-14.8256 0.982965,-0.383636 3.104659,-1.205963 4.714876,-1.827391 1.867622,-0.72077 3.720321,-1.658721 5.116846,-2.590466 1.229198,-0.820106 2.281587,-1.368189 2.399906,-1.249869 0.115902,0.115899 0.266652,1.074007 0.335001,2.129128 0.435054,6.715817 -4.229333,14.062365 -11.697602,18.424068 -4.367542,2.550782 -9.233527,3.812063 -12.095943,3.135316 z"
       id="path946" />
    <path
       style="fill:#ffd42a;fill-rule:evenodd;stroke:#000000;stroke-width:0.244356"
       d="m 42.329182,63.850975 c -0.670923,-0.321484 -1.364184,-0.759013 -1.540579,-0.972286 -0.403768,-0.488182 -0.42642,-0.475659 3.988145,-2.204839 7.857786,-3.077887 14.752477,-7.039184 14.752477,-8.475935 0,-0.746446 -0.521263,-0.5686 -2.00206,0.683066 -1.872384,1.582662 -4.705703,3.258204 -7.980846,4.719637 -2.824883,1.260519 -7.892185,3.216742 -9.146174,3.530864 l -0.709176,0.177647 0.146491,-1.236892 c 0.632952,-5.344291 8.468197,-10.559497 18.59389,-12.376251 3.347072,-0.600533 5.494469,-1.234988 7.826358,-2.312324 1.167515,-0.539393 2.162294,-0.980716 2.210623,-0.980716 0.207096,0 0.05178,1.960128 -0.279063,3.521895 -0.491724,2.321207 -2.015364,5.273298 -3.83985,7.439805 -4.160706,4.940679 -11.7981,8.69419 -18.238666,8.963665 -2.325697,0.09731 -2.674095,0.05333 -3.78157,-0.477336 z"
       id="path948" />
    <path
       style="fill:#ffd42a;fill-rule:evenodd;stroke:#000000;stroke-width:0.244356"
       d="m 59.077087,41.471342 c -1.78658,-0.375443 -4.078406,-1.93364 -3.550866,-2.414211 0.121789,-0.110945 1.264415,-0.449129 2.53917,-0.75152 7.543876,-1.789521 16.34614,-5.80782 16.34614,-7.462135 0,-0.531978 -0.253999,-0.4367 -2.085205,0.782188 -2.104345,1.400696 -4.93017,2.735532 -8.209602,3.877973 -2.79373,0.973238 -7.814122,2.307376 -8.693419,2.31022 -0.512654,0.0017 -0.552132,-0.07583 -0.403032,-0.791071 0.521136,-2.499931 3.266651,-5.282933 7.132087,-7.22947 3.420224,-1.722338 6.260364,-2.537956 10.780057,-3.095763 4.793286,-0.591574 7.008325,-1.138231 9.25377,-2.283772 1.297285,-0.661826 1.397509,-0.444375 0.902282,1.957635 -1.408983,6.834019 -7.403706,12.054806 -16.634639,14.487059 -2.536446,0.668327 -5.816187,0.940811 -7.376743,0.612867 z"
       id="path950" />
    <path
       style="fill:#ffdd55;fill-rule:evenodd;stroke:#000000;stroke-width:0.244356"
       d="m 208.53834,35.98255 c -1.90814,-0.700903 -4.19439,-2.706267 -5.78508,-5.07433 -2.08424,-3.102815 -3.22655,-6.989717 -3.79069,-12.898397 -0.40604,-4.252732 -0.78835,-6.066036 -1.72596,-8.1861254 -0.33072,-0.7478207 -0.54523,-1.4157564 -0.47668,-1.4843015 0.22719,-0.2271932 3.06416,0.6868974 4.72028,1.5209072 5.61272,2.8265167 10.90873,9.7282957 12.47339,16.2553497 0.90219,3.763527 0.42247,7.210271 -1.24263,8.928216 -1.22796,1.266933 -1.51817,1.114326 -1.85027,-0.972961 -0.81466,-5.12022 -5.66017,-16.154996 -7.22858,-16.461803 -0.60699,-0.118738 -0.49314,0.35502 0.46394,1.930541 2.51669,4.142925 5.96403,13.453124 5.96403,16.10701 0,0.788001 -0.18173,0.828113 -1.52175,0.335894 z"
       id="path952" />
    <path
       style="fill:#ffdd55;fill-rule:evenodd;stroke:#000000;stroke-width:0.244356"
       d="m 227.73154,61.454236 c -0.0973,-0.157384 -0.26337,-2.878094 -0.3691,-6.046022 -0.2418,-7.244521 -0.8564,-10.900479 -2.23653,-13.304037 -0.30221,-0.526307 -0.70031,-1.006589 -0.88468,-1.067294 -0.46719,-0.15383 -0.25089,1.011156 0.67026,3.610036 0.91894,2.592631 1.22205,4.945029 1.4157,10.986921 0.17745,5.5362 0.0786,5.991711 -1.20332,5.544861 -0.43527,-0.151726 -1.34893,-0.833384 -2.03036,-1.514794 -3.56534,-3.565256 -5.00376,-10.614781 -3.78595,-18.554586 0.568,-3.703242 0.74537,-7.545739 0.44203,-9.57591 -0.17083,-1.143256 -0.14402,-1.280854 0.24952,-1.280854 1.00599,0 3.69254,1.925757 6.29661,4.513486 2.18943,2.1757 2.88948,3.053145 3.6983,4.635473 2.06247,4.034902 2.90063,8.050927 2.69142,12.895903 -0.14946,3.461334 -0.75009,5.685371 -1.96672,7.282525 -0.91897,1.206387 -2.70671,2.3281 -2.98718,1.874292 z"
       id="path954" />
    <path
       style="fill:#ffd42a;fill-rule:evenodd;stroke:#000000;stroke-width:0.244356"
       d="m 237.07002,90.352235 c -0.0698,-0.112906 0.1395,-1.028514 0.46507,-2.034682 1.71465,-5.299114 2.77826,-10.907255 2.77615,-14.637939 -0.001,-2.295791 -0.31986,-4.147528 -0.71352,-4.147528 -0.36984,0 -0.49821,1.058372 -0.50304,4.147528 -0.006,3.800534 -0.45343,6.812651 -1.59478,10.734778 -1.15247,3.960363 -1.77628,5.412112 -2.28358,5.314416 -0.60581,-0.11667 -2.60086,-2.921441 -3.20328,-4.503396 -0.68858,-1.808195 -0.90442,-5.247142 -0.49121,-7.826296 0.43476,-2.713606 1.28363,-5.235719 3.31166,-9.839307 1.96592,-4.462628 2.45134,-5.942078 2.69496,-8.213563 0.20034,-1.868044 0.52297,-1.951497 2.11769,-0.547768 2.15658,1.898298 4.74337,5.863471 5.93406,9.096055 0.5335,1.448391 0.67011,2.310587 0.77251,4.87571 0.13946,3.493152 -0.14772,5.823624 -1.08912,8.838469 -1.23797,3.964561 -3.30306,7.083453 -5.39766,8.152039 -1.0915,0.556842 -2.61777,0.87973 -2.79591,0.591484 z"
       id="path956" />
    <path
       style="fill:#ffd42a;fill-rule:evenodd;stroke:#000000;stroke-width:0.244356"
       d="m 237.77599,121.66865 c -0.58662,-0.42895 -0.31859,-1.02809 2.01056,-4.4943 4.24559,-6.31822 6.13746,-10.60178 6.13746,-13.89639 0,-1.20761 -0.0793,-1.54154 -0.36596,-1.54154 -0.20128,0 -0.36596,0.0452 -0.36596,0.10053 0,0.68221 -0.82791,4.05327 -1.3081,5.32625 -1.3435,3.56161 -5.49689,10.66702 -7.41663,12.68797 l -0.63714,0.67074 -0.54475,-0.51176 c -2.20756,-2.07389 -2.10029,-7.21719 0.25692,-12.31906 1.49359,-3.23268 3.31758,-5.79272 6.93304,-9.73084 2.0834,-2.269328 2.93997,-3.458531 4.2971,-5.965818 0.5397,-0.99709 1.10733,-1.853365 1.2614,-1.902835 0.34214,-0.10986 2.30889,3.004875 2.9797,4.718969 3.25532,8.318124 -0.10014,20.015294 -7.10848,24.780244 -2.23223,1.51768 -5.41815,2.59774 -6.12916,2.07784 z"
       id="path958" />
    <path
       style="fill:#ffd42a;fill-rule:evenodd;stroke:#000000;stroke-width:0.244356"
       d="m 221.34506,117.36047 c -5.05639,-1.81977 -11.24476,-7.75129 -14.10689,-13.52138 -0.93881,-1.89266 -1.14529,-2.58278 -1.38358,-4.624392 -0.43816,-3.753893 0.41446,-9.698489 1.44791,-10.09506 0.26591,-0.10204 0.7263,0.244417 1.46658,1.103666 1.35125,1.568391 4.13498,3.822625 7.14635,5.787044 2.94402,1.920486 3.82687,2.626708 6.17959,4.943242 4.46862,4.39989 6.83647,9.89363 5.70028,13.22541 -0.18604,0.54555 -0.46909,0.8794 -0.78382,0.92449 -1.86948,0.26786 -9.70183,-7.90087 -12.23182,-12.75714 -1.53078,-2.938297 -2.27985,-3.744208 -2.27985,-2.452849 0,0.937419 1.79377,4.166689 3.7254,6.706759 0.97019,1.27577 3.49313,4.09253 5.60654,6.25945 2.11341,2.16692 3.84256,4.01455 3.84256,4.10586 0,0.27458 -1.64346,0.87365 -2.37089,0.86422 -0.37332,-0.005 -1.25458,-0.21604 -1.95836,-0.46932 z"
       id="path960" />
    <path
       style="fill:#ffd42a;fill-rule:evenodd;stroke:#000000;stroke-width:0.244356"
       d="m 215.28596,144.09365 c -1.60786,-0.74869 -4.2031,-3.17968 -6.02042,-5.63941 -1.80072,-2.43725 -3.91609,-6.70543 -4.59483,-9.27094 -1.25812,-4.75553 -0.21815,-10.94404 2.35253,-13.99913 1.48824,-1.76866 2.15884,-1.60349 3.65151,0.89939 0.61568,1.03236 2.48275,3.40375 4.14905,5.26975 3.31814,3.71583 4.85882,5.85764 6.23876,8.67294 1.37664,2.80857 1.78862,4.43473 1.79525,7.08614 0.005,2.01325 -0.0791,2.49402 -0.64016,3.65959 -0.35528,0.73801 -0.92304,1.67121 -1.2617,2.07376 -0.77947,0.92654 -0.79238,0.9144 -3.11618,-2.92766 -3.21635,-5.31777 -5.8279,-11.33514 -5.8279,-13.42829 0,-1.10761 -0.39641,-2.06395 -0.85552,-2.06395 -0.59111,0 -0.69327,0.62164 -0.37248,2.26646 0.65252,3.3457 3.35212,9.46356 6.36452,14.42334 1.65744,2.72889 1.73744,2.92526 1.31708,3.23263 -0.66294,0.48476 -1.78454,0.39494 -3.17951,-0.25462 z"
       id="path962" />
    <path
       style="fill:#ffd42a;fill-rule:evenodd;stroke:#000000;stroke-width:0.244356"
       d="m 218.35515,90.101178 c -7.37397,-1.234375 -16.64756,-10.104169 -18.6521,-17.839945 -0.39652,-1.530208 -0.51087,-5.557254 -0.17292,-6.089757 0.14698,-0.231591 0.65974,-0.007 2.00904,0.880113 2.41345,1.586689 2.64158,1.696409 7.65893,3.683533 5.02287,1.989305 7.65833,3.365211 10.39326,5.426037 3.26244,2.458324 5.67749,5.963666 6.00315,8.713305 0.12566,1.061065 0.0807,1.230105 -0.39523,1.484798 -0.43404,0.232291 -0.84942,0.191512 -2.16576,-0.212616 -3.00007,-0.921048 -7.66383,-4.056122 -11.6343,-7.820802 -3.70118,-3.509354 -3.75249,-3.55032 -4.0607,-3.24211 -0.20886,0.20886 -0.17176,0.44174 0.14817,0.930008 1.57885,2.409628 9.90362,8.596482 16.01579,11.902711 l 1.28739,0.696379 -0.59466,0.461896 c -1.21406,0.943011 -3.71384,1.382371 -5.84006,1.02645 z"
       id="path964" />
    <path
       style="fill:#ffd42a;fill-rule:evenodd;stroke:#000000;stroke-width:0.244356"
       d="m 205.99137,63.793128 c -8.31592,-2.200126 -15.23795,-7.600096 -17.54972,-13.690772 -0.60386,-1.590956 -1.13248,-5.69941 -0.73332,-5.69941 0.0894,0 0.90079,0.371164 1.80319,0.824808 2.32849,1.170557 3.50863,1.529178 8.21356,2.495953 8.134,1.671387 12.06401,3.548704 15.65563,7.478516 1.96129,2.14596 3.54841,5.6044 2.71814,5.923004 -0.18886,0.07247 -1.4876,-0.27379 -2.8861,-0.769468 -5.59647,-1.983589 -11.78275,-5.118138 -14.66284,-7.429567 -1.56387,-1.255087 -2.15226,-1.476536 -2.15226,-0.810032 0,1.605479 9.67988,6.930127 17.26722,9.498243 1.11043,0.375851 1.98027,0.801508 1.93297,0.945906 -0.13602,0.415284 -1.61435,1.331863 -2.58138,1.600477 -1.55031,0.430631 -4.61376,0.270306 -7.02509,-0.367658 z"
       id="path966" />
    <path
       style="fill:#ffd42a;fill-rule:evenodd;stroke:#000000;stroke-width:0.244356"
       d="m 193.10402,41.803044 c -0.40255,-0.04771 -1.39064,-0.206176 -2.19575,-0.352153 -7.29643,-1.322935 -15.46457,-7.5996 -17.58435,-13.512392 -0.5829,-1.625906 -0.88888,-3.723493 -0.57174,-3.919495 0.11261,-0.0696 0.86962,0.209091 1.68225,0.619305 1.73822,0.877451 4.54059,1.570914 7.93481,1.963516 6.76302,0.782264 14.36786,4.098862 17.73905,7.736297 1.27975,1.380823 1.60907,2.242771 1.19994,3.140695 -0.33511,0.735502 -0.79249,0.686452 -4.80998,-0.515833 -4.73545,-1.417141 -8.98677,-3.214433 -13.27133,-5.6106 -1.86714,-1.044208 -2.3382,-0.684893 -0.79668,0.607688 2.07154,1.73701 9.41845,4.824633 14.56279,6.120178 1.08148,0.272359 2.40548,0.610692 2.94221,0.751854 l 0.97589,0.256656 -1.07212,0.952717 c -1.43436,1.27461 -4.36844,2.042031 -6.73499,1.761567 z"
       id="path968" />
  </g>
</svg>
