<?xml version="1.0" encoding="UTF-8" standalone="no"?>
<!-- Created with Inkscape (http://www.inkscape.org/) -->

<svg
   version="1.1"
   id="svg2"
   width="38.702744"
   height="110.40974"
   viewBox="0 0 38.702744 110.40974"
   sodipodi:docname="left_AdobeStock_252116415.svg"
   inkscape:version="1.2 (dc2aedaf03, 2022-05-15)"
   xmlns:inkscape="http://www.inkscape.org/namespaces/inkscape"
   xmlns:sodipodi="http://sodipodi.sourceforge.net/DTD/sodipodi-0.dtd"
   xmlns="http://www.w3.org/2000/svg"
   xmlns:svg="http://www.w3.org/2000/svg">
  <defs
     id="defs6" />
  <sodipodi:namedview
     id="namedview4"
     pagecolor="#ffffff"
     bordercolor="#666666"
     borderopacity="1.0"
     inkscape:showpageshadow="2"
     inkscape:pageopacity="0.0"
     inkscape:pagecheckerboard="0"
     inkscape:deskcolor="#d1d1d1"
     showgrid="false"
     inkscape:zoom="7.32734"
     inkscape:cx="34.255269"
     inkscape:cy="91.233654"
     inkscape:window-width="3840"
     inkscape:window-height="2097"
     inkscape:window-x="0"
     inkscape:window-y="41"
     inkscape:window-maximized="1"
     inkscape:current-layer="g8" />
  <g
     inkscape:groupmode="layer"
     inkscape:label="Image"
     id="g8"
     transform="translate(-11.63334,-15.630597)">
    <path
       style="fill:#554400;stroke-width:0.32"
       d="m 46.121325,122.4 c -3.638083,-4.0691 -3.22656,-3.88362 -7.377021,-3.32505 -5.250323,0.70658 -9.864804,-0.70675 -14.184304,-4.34439 -1.188,-1.00047 -2.16,-1.93776 -2.16,-2.08288 0,-0.56141 3.332354,-1.05336 5.89029,-0.86957 3.342863,0.24018 6.351864,1.17508 9.992737,3.10475 2.923027,1.54921 2.923027,1.54921 0.64,-1.72412 C 37.667363,111.3584 35.056,106.98396 33.12,103.43774 29.6,96.990083 29.6,96.990083 25.929241,95.82343 19.465493,93.769101 16.015006,91.575018 14.158046,88.338406 c -0.460207,-0.802124 -1.263999,-2.092278 -1.786204,-2.867008 -0.900605,-1.336112 -0.91959,-1.430444 -0.368914,-1.83311 0.326394,-0.238666 0.943153,-0.345046 1.408812,-0.242998 4.255263,0.932521 7.423219,3.012387 11.829228,7.766268 1.826532,1.970746 3.373234,3.530906 3.437116,3.467024 0.06388,-0.06388 -0.241713,-1.350531 -0.679097,-2.859222 -1.581121,-5.45383 -2.073613,-8.211226 -2.723703,-15.249654 -0.661345,-7.160295 -0.661345,-7.160295 -4.569971,-11.04 -5.311781,-5.27248 -6.50142,-7.486212 -7.114899,-13.239706 -0.260532,-2.443402 -0.1278,-2.480106 3.096589,-0.85633 4.12002,2.07481 6.718684,5.274631 7.194076,8.858308 0.251612,1.896748 0.746507,1.423161 0.754458,-0.721978 0.0074,-1.988915 0.762973,-6.098416 1.915011,-10.415219 0.533199,-1.997946 0.969016,-3.819866 0.968483,-4.048707 -5.44e-4,-0.228839 -1.011954,-1.75961 -2.247601,-3.401712 C 21.238446,36.294771 20.304224,33.681907 20.565663,28.493128 20.748086,24.872579 20.94999,24 21.605318,24 c 0.483272,0 2.833686,3.465511 4.236179,6.24593 1.299551,2.576339 1.642726,3.901987 1.987682,7.678224 0.430777,4.715715 0.640564,4.940825 1.468129,1.575366 1.653373,-6.723776 4.345284,-12.394412 8.543972,-17.998274 2.50136,-3.338493 5.94832,-6.477497 6.336083,-5.770013 0.245165,0.447303 -0.285091,3.44659 -0.987587,5.586088 -0.913242,2.78134 -3.592141,5.800692 -6.94568,7.828383 -0.995405,0.601863 -2.177536,1.468859 -2.62696,1.926659 -0.890682,0.907277 -2.651078,5.95677 -4.674287,13.407637 -0.645179,2.376 -1.25189,4.608 -1.348247,4.96 -0.09636,0.352 0.689418,-0.512 1.746168,-1.92 4.795524,-6.389498 9.970792,-11.268086 9.250283,-8.72 -0.111975,0.396 -0.420131,1.728 -0.684794,2.96 -0.264659,1.232 -0.859241,3.018096 -1.321289,3.969104 -1.048551,2.158163 -4.36608,5.675014 -7.726671,8.190896 -1.410553,1.056 -2.661999,2.208 -2.780991,2.56 -0.425833,1.259693 -0.546748,11.841936 -0.175507,15.36 0.204295,1.936 0.45675,4.564 0.561011,5.84 0.10426,1.276 0.281484,2.32 0.393831,2.32 0.112346,0 0.364062,-1.332 0.559369,-2.96 0.432981,-3.609158 1.327879,-6.244554 2.892713,-8.518794 1.528348,-2.221212 4.817349,-5.560486 5.30947,-5.390627 0.258336,0.08916 0.372109,1.001303 0.351821,2.820599 -0.04557,4.087024 -1.655402,7.594787 -5.890016,12.834137 -3.192214,3.949623 -3.075038,3.659293 -2.644084,6.551341 0.680647,4.567683 3.212411,11.608531 6.026295,16.759154 2.543559,4.65581 2.543559,4.65581 2.426141,1.22536 -0.149885,-4.379074 0.519603,-6.58596 3.048406,-10.048687 1.73618,-2.377376 2.36233,-2.776893 2.532711,-1.616003 0.04696,0.319984 0.400077,1.313296 0.784691,2.207363 0.583837,1.357162 0.676557,2.058967 0.561539,4.250314 -0.157616,3.003003 -1.135769,5.362793 -3.623917,8.742703 -0.787478,1.06971 -1.431424,2.19653 -1.430985,2.50404 0.0013,0.89176 5.877491,8.78127 9.474086,12.72005 1.810675,1.98295 3.203555,3.69394 3.095293,3.80221 -0.490653,0.49065 -1.126272,-0.0354 -4.208851,-3.48316 z m -7.253335,-4.35906 c 2.414135,-0.35906 2.414135,-0.35906 0.954205,-1.28491 -5.110429,-3.24095 -11.500246,-4.85736 -15.159875,-3.83497 -0.774444,0.21635 -0.772681,0.22138 0.423733,1.20756 1.488521,1.22697 5.994874,3.51116 7.713947,3.91007 1.794653,0.41645 3.279443,0.417 6.06799,0.002 z m 0.629424,-13.73987 C 41.010381,101.73998 41.92,99.095379 41.92,97.257718 c 0,-1.608233 -0.608595,-3.562768 -1.228691,-3.946006 -0.435978,-0.26945 -2.774845,3.712867 -3.25384,5.540221 -0.399466,1.523947 -0.490781,7.488757 -0.123738,8.082647 0.263213,0.42588 0.65665,-0.0486 2.183683,-2.63351 z M 25.641565,93.166883 c -3.026651,-3.413901 -6.291647,-6.360131 -8.017351,-7.234614 -1.457386,-0.738512 -4.192898,-1.550253 -4.42891,-1.31424 -0.197639,0.197638 2.26158,4.127302 3.296545,5.267651 1.498794,1.651405 4.217138,3.188509 7.777578,4.397882 1.699815,0.577376 3.141403,1.055772 3.203528,1.063104 0.06213,0.0073 -0.762,-0.973568 -1.83139,-2.179783 z M 33.880784,70.591894 C 34.209014,69.518352 34.572157,67.776 34.687763,66.72 c 0.210192,-1.92 0.210192,-1.92 -1.451878,-0.16 -2.653825,2.810182 -5.048677,8.622218 -5.070329,12.30511 -0.0048,0.81977 0.334214,0.463274 2.556445,-2.688105 1.728783,-2.451616 2.756085,-4.268013 3.158783,-5.585111 z M 23.379965,63.13568 c -0.815267,-4.426848 -2.06312,-7.303059 -3.783806,-8.721392 -1.524051,-1.256253 -4.451413,-2.785699 -4.753546,-2.483568 -0.435743,0.435744 0.430585,4.572147 1.357912,6.483536 0.625347,1.288957 1.983892,2.999174 4.246957,5.346326 1.830115,1.898116 3.395059,3.383543 3.477655,3.300948 0.0826,-0.0826 -0.162733,-1.849229 -0.545172,-3.92585 z M 31.70794,49.92 c 3.231394,-3.189846 4.818969,-5.740147 5.278841,-8.48 0.214841,-1.28 0.214841,-1.28 -0.820461,-0.32 -2.765382,2.56424 -8.476437,10.029846 -9.270648,12.118781 -0.332985,0.875814 -0.332985,0.875814 0.699843,0.298518 C 28.163569,53.219786 30.014161,51.592 31.70794,49.92 Z m -4.635835,-8.191725 c -0.108002,-0.281449 -0.348149,-1.901449 -0.533659,-3.6 -0.572704,-5.243737 -1.426825,-7.811993 -3.618321,-10.879936 -0.949559,-1.329318 -1.003551,-1.357989 -1.205211,-0.64 -0.632233,2.250989 -0.05441,6.347616 1.339931,9.499751 0.559337,1.264473 3.803602,6.113139 4.099391,6.126681 0.06283,0.0029 0.02587,-0.225046 -0.08213,-0.506496 z M 38.359792,26.245445 C 41.050864,23.659442 42.899581,20.27357 42.867984,17.988817 42.855971,17.12 42.855971,17.12 41.722698,18.4 39.304266,21.13155 34.24,28.295636 34.24,28.985282 c 0,0.409931 2.73449,-1.408621 4.119792,-2.739837 z"
       id="path848" />
    <path
       style="fill:#ffcc00;fill-rule:evenodd;stroke:#000000;stroke-width:0"
       d="m 1.7027417,68.930318 c -0.2586651,-0.03441 -0.1701132,0.287805 -0.093864,0.417298 0.702202,1.43929 1.6180005,2.764475 2.5404799,4.069642 0.7967401,1.193649 1.9364516,2.101326 3.1490438,2.844232 2.0086011,1.259379 4.2412836,2.093803 6.4853446,2.825813 0.683862,0.210955 1.352284,0.502902 2.047662,0.661476 0.137173,-0.122466 -0.16468,-0.27833 -0.199628,-0.394668 C 13.410578,76.701746 11.030544,74.166348 8.3855412,71.930849 7.3674512,71.080158 6.2798591,70.27924 5.0191677,69.828056 4.0023664,69.449546 2.9695985,69.042798 1.8827416,68.932015 c -0.059998,-8.36e-4 -0.1199923,-0.0032 -0.1799999,-0.0017 z"
       id="path1179"
       transform="translate(11.63334,15.630597)" />
    <path
       style="fill:#d4aa00;fill-rule:evenodd;stroke:#000000;stroke-width:0"
       d="m 15.337681,96.949788 c -0.926031,0.02809 -1.876454,0.112972 -2.74627,0.448209 -0.240323,0.106581 -0.06748,0.37918 0.07851,0.484682 1.25917,1.190392 2.811986,2.008072 4.332819,2.811331 1.824356,0.91686 3.707412,1.87702 5.780685,2.02387 1.750389,0.16348 3.502931,-0.13071 5.23079,-0.38246 0.398511,-0.0951 0.861456,-0.0974 1.19401,-0.35723 0.07701,-0.21421 -0.234349,-0.33901 -0.358115,-0.46602 -1.517647,-1.04283 -3.166091,-1.889758 -4.851669,-2.625851 -2.741729,-1.128576 -5.675419,-1.954199 -8.660757,-1.936531 z"
       id="path1181"
       transform="translate(11.63334,15.630597)" />
    <path
       style="fill:#d4aa00;fill-rule:evenodd;stroke:#000000;stroke-width:0"
       d="m 28.981479,77.635053 c -0.37104,0.115467 -0.551496,0.526535 -0.794073,0.800952 -0.958505,1.389803 -1.767781,2.895125 -2.336943,4.48638 -0.354496,1.212412 -0.346636,2.493786 -0.407884,3.745606 -0.0151,1.429633 -0.07818,2.869288 0.0961,4.291572 0.03109,0.206692 0.11486,0.621376 0.409099,0.505508 0.492766,-0.318282 0.756509,-0.884335 1.089988,-1.349151 1.417511,-2.253668 2.722885,-4.664997 3.184883,-7.316256 0.251798,-1.472464 0.01772,-3.012613 -0.569325,-4.378926 -0.158843,-0.283791 -0.325153,-0.697864 -0.671842,-0.785685 z"
       id="path1183"
       transform="translate(11.63334,15.630597)" />
    <path
       style="fill:#ffcc00;fill-rule:evenodd;stroke:#000000;stroke-width:0"
       d="m 22.995024,49.607479 c -0.42761,0.14251 -0.69201,0.566248 -1.015346,0.858325 -1.398937,1.41199 -2.468448,3.110967 -3.314409,4.901377 -1.007896,2.11865 -1.822574,4.366403 -2.095817,6.707377 -0.0228,0.49372 -0.127827,1.005459 -0.03567,1.493179 0.149276,0.208379 0.384882,-0.07139 0.495518,-0.18556 1.033098,-1.226951 1.921807,-2.568693 2.830992,-3.888184 1.106131,-1.687628 2.244227,-3.427581 2.677494,-5.42897 0.318537,-1.362172 0.601152,-2.746753 0.655815,-4.147456 -0.0043,-0.123288 -0.0328,-0.321413 -0.198579,-0.310088 z"
       id="path1185"
       transform="translate(11.63334,15.630597)" />
    <path
       style="fill:#ffcc00;fill-rule:evenodd;stroke:#000000;stroke-width:0"
       d="m 3.3173684,36.235754 c -0.2868745,0.0049 -0.2472881,0.394552 -0.2694343,0.593623 0.051101,1.529273 0.4565196,3.024039 0.9034161,4.479445 0.4399975,1.495956 1.2849171,2.832301 2.2843543,4.015897 1.6010891,1.915873 3.3452752,3.710746 5.1526295,5.431932 0.290973,0.256725 0.57467,0.54272 0.90424,0.740732 0.135862,-0.345538 -0.01769,-0.759096 -0.0354,-1.127858 C 11.835266,47.548058 11.360992,44.693449 10.253676,42.046827 9.6712925,40.691524 8.8739115,39.378273 7.6604531,38.498569 6.4928046,37.614882 5.2069837,36.874837 3.8446838,36.336566 3.6750439,36.280004 3.4983941,36.225942 3.3173684,36.235754 Z"
       id="path1187"
       transform="translate(11.63334,15.630597)" />
    <path
       style="fill:#ffcc00;fill-rule:evenodd;stroke:#000000;stroke-width:0"
       d="m 25.325474,24.839281 c -1.296435,0.800776 -2.196966,2.136007 -3.241356,3.230769 -2.486885,2.992604 -5.00219,6.029257 -6.843946,9.472618 -0.263214,0.263149 -0.149512,0.954957 0.304404,0.64106 2.356959,-1.569555 4.366132,-3.623156 6.280527,-5.696891 1.863633,-2.107129 3.533411,-4.687916 3.611257,-7.577719 -0.0152,-0.04671 -0.06248,-0.07555 -0.110886,-0.06984 z"
       id="path1189"
       transform="translate(11.63334,15.630597)" />
    <path
       style="fill:#ffdd55;fill-rule:evenodd;stroke:#000000;stroke-width:0"
       d="m 10.331864,10.461675 c -0.5091223,0.445601 -0.349394,1.310606 -0.4608706,1.924513 -0.2372766,3.855281 0.9316636,7.744169 3.1769536,10.879038 0.779213,1.138536 1.485704,2.363458 2.43932,3.360761 0.207201,-0.328123 -0.183287,-0.877876 -0.141913,-1.280799 -0.685353,-4.207239 -0.762493,-8.747855 -3.185369,-12.432421 -0.573451,-0.822365 -1.034518,-1.813019 -1.805198,-2.453757 z"
       id="path1191"
       transform="translate(11.63334,15.630597)" />
    <path
       style="fill:#ffdd55;fill-rule:evenodd;stroke:#000000;stroke-width:0"
       d="m 31.118472,1.7264643 c -1.267554,0.9821973 -2.131571,2.4206776 -3.157529,3.6452763 -1.847341,2.5132585 -3.816016,4.9739134 -5.302865,7.7240114 -0.24905,0.466383 0.377369,0.310334 0.561893,0.119949 3.542597,-2.02894 6.550629,-5.2708394 7.803875,-9.2032775 0.106276,-0.7247574 0.450365,-1.5858643 0.153801,-2.2803616 -0.01851,-0.00828 -0.03943,-0.00927 -0.05917,-0.0056 z"
       id="path1193"
       transform="translate(11.63334,15.630597)" />
  </g>
</svg>
