<?xml version="1.0" encoding="UTF-8" standalone="no"?>
<!-- Created with Inkscape (http://www.inkscape.org/) -->

<svg
   version="1.1"
   id="svg1319"
   width="38.588802"
   height="110.35617"
   viewBox="0 0 38.588802 110.35617"
   sodipodi:docname="laurel_right_AdobeStock_252116415.svg"
   inkscape:version="1.2 (dc2aedaf03, 2022-05-15)"
   xmlns:inkscape="http://www.inkscape.org/namespaces/inkscape"
   xmlns:sodipodi="http://sodipodi.sourceforge.net/DTD/sodipodi-0.dtd"
   xmlns="http://www.w3.org/2000/svg"
   xmlns:svg="http://www.w3.org/2000/svg">
  <defs
     id="defs1323" />
  <sodipodi:namedview
     id="namedview1321"
     pagecolor="#ffffff"
     bordercolor="#666666"
     borderopacity="1.0"
     inkscape:showpageshadow="2"
     inkscape:pageopacity="0.0"
     inkscape:pagecheckerboard="0"
     inkscape:deskcolor="#d1d1d1"
     showgrid="false"
     inkscape:zoom="10.362424"
     inkscape:cx="9.4572467"
     inkscape:cy="49.554043"
     inkscape:window-width="1908"
     inkscape:window-height="2091"
     inkscape:window-x="1920"
     inkscape:window-y="41"
     inkscape:window-maximized="0"
     inkscape:current-layer="g1325" />
  <g
     inkscape:groupmode="layer"
     inkscape:label="Image"
     id="g1325"
     transform="translate(-36.078947,-15.674216)">
    <path
       style="fill:#554400;stroke-width:0.32"
       d="m 36.085114,125.89845 c -0.112022,-0.11203 1.315664,-1.881 3.172637,-3.93106 1.856976,-2.05007 3.819299,-4.37539 4.36072,-5.16739 0.541424,-0.792 1.892758,-2.64996 3.002966,-4.1288 1.110212,-1.47884 2.018564,-2.90876 2.018564,-3.1776 0,-0.26884 -0.848058,-1.74393 -1.884576,-3.27797 -2.405392,-3.55998 -3.235424,-5.75337 -3.235424,-8.549745 0,-1.18256 0.135904,-2.581159 0.302009,-3.107997 C 44.567543,92.193267 45.086186,91.04 45.404061,91.04 c 0.18896,0 0.670349,0.452026 1.069751,1.004502 0.399405,0.552477 1.127795,1.509421 1.618649,2.126541 1.65778,2.084231 2.281853,4.430266 2.295405,8.628957 0.0067,2.068 0.03347,3.76 0.05954,3.76 0.02608,0 1.206,-2.16147 2.622064,-4.80327 2.123303,-3.961229 2.858314,-5.742346 4.192711,-10.160004 C 58.152106,88.650528 58.96546,85.376 59.069629,84.32 59.259025,82.4 59.259025,82.4 57.736356,80.64 54.070205,76.402422 51.803389,72.668339 50.755997,69.141389 50.127079,67.023587 50.050541,63.04 50.638772,63.04 c 0.219325,0 1.495881,1.13305 2.836797,2.517885 3.714985,3.836678 4.643046,5.98399 5.688614,13.162115 0.140998,0.968 0.337075,1.544 0.435722,1.28 0.791961,-2.119459 1.435152,-20.827843 0.794758,-23.116982 -0.159952,-0.571757 -1.236534,-1.658855 -3.09327,-3.123488 -3.41425,-2.693236 -6.641031,-6.10249 -7.60241,-8.032333 -0.518454,-1.04072 -2.018982,-6.65361 -2.018982,-7.552215 0,-1.144691 6.196524,5.061172 9.199795,9.213658 0.9968,1.378227 1.840643,2.475603 1.875209,2.438614 0.132512,-0.141804 -2.190473,-8.572924 -3.424816,-12.43014 -1.806339,-5.64466 -2.179014,-6.292845 -4.462076,-7.760809 -5.307917,-3.412885 -6.954599,-5.488607 -8.134634,-10.254113 -1.010704,-4.081683 -0.801229,-4.496306 1.355174,-2.682331 2.748352,2.311922 5.573149,5.931326 8.319812,10.660139 1.357449,2.337064 3.93359,9.098189 4.795705,12.58641 0.307735,1.245129 0.592192,1.862009 0.737799,1.6 0.130332,-0.234525 0.392963,-1.982058 0.583619,-3.883405 0.252089,-2.513997 0.615107,-4.12744 1.330809,-5.914825 C 60.984202,28.931622 64.139796,24 64.814222,24 c 0.705219,0 0.945779,1.432016 0.945779,5.630058 0,3.870057 0,3.870057 -1.508074,6.88 -0.82944,1.655468 -2.237622,3.945942 -3.129296,5.089942 -2.792733,3.583027 -2.652989,2.85273 -1.408352,7.36 1.357799,4.917075 2.03864,8.696832 2.068215,11.481917 0.01571,1.479984 0.10534,1.925273 0.297507,1.478083 0.151261,-0.352 0.285139,-0.958598 0.297507,-1.347997 0.01238,-0.389398 0.320659,-1.504915 0.685085,-2.478931 0.957635,-2.55951 3.260723,-4.932134 6.345353,-6.536938 3.386535,-1.761868 3.567082,-1.74222 3.343764,0.363866 -0.640519,6.040669 -1.890778,8.441104 -7.056164,13.547491 -3.912176,3.867491 -3.912176,3.867491 -4.55615,10.56 -0.746295,7.755888 -0.923325,8.800839 -2.423719,14.30633 -0.613622,2.2516 -1.115676,4.190598 -1.115676,4.308886 0,0.118288 1.908,-1.740633 4.24,-4.130934 3.691286,-3.783575 4.562521,-4.503575 6.732179,-5.563571 2.448435,-1.196199 5.690518,-1.848132 6.07744,-1.222084 0.302198,0.48897 -3.252026,5.981095 -4.819043,7.446573 -1.847911,1.728163 -5.686592,3.576717 -9.860471,4.7484 -2.522384,0.708077 -3.215801,1.034403 -3.567568,1.678909 -4.837705,8.86372 -7.561747,13.63255 -8.597373,15.05096 -3.067475,4.20127 -3.139212,4.00633 0.749994,2.03796 1.894662,-0.9589 4.380842,-1.98256 5.524842,-2.2748 3.310752,-0.84573 9.6,-0.69808 9.6,0.22539 0,0.16902 -0.665943,0.92228 -1.479872,1.6739 -4.439959,4.10009 -8.567101,5.38668 -15.055636,4.69341 -3.616185,-0.38637 -3.616185,-0.38637 -4.980339,1.18095 -2.728237,3.13456 -5.198374,5.73429 -5.532986,5.82329 -0.188307,0.0501 -0.434032,-6.4e-4 -0.546054,-0.11261 z m 17.354887,-7.83961 c 1.97495,-0.44643 6.389065,-2.66427 7.886467,-3.96249 1.233533,-1.06946 1.233533,-1.06946 -0.326064,-1.30518 -3.828119,-0.57858 -9.04001,0.70193 -13.390858,3.28999 -1.363942,0.81134 -2.431574,1.52348 -2.372515,1.58254 0.18615,0.18615 3.820643,0.65691 5.32297,0.68946 0.792,0.0172 2.088,-0.11528 2.88,-0.29432 z M 49.253713,103.2 c 0.01027,-1.584 -0.180564,-3.628413 -0.4241,-4.543139 C 48.387812,96.997434 46.255988,93.12 45.785431,93.12 c -0.136528,0 -0.500061,0.558454 -0.80785,1.241011 -1.26926,2.814723 -0.223331,7.121909 2.801613,11.537169 0.853319,1.24552 1.001091,1.34292 1.213719,0.8 0.133158,-0.34 0.250518,-1.91418 0.2608,-3.49818 z M 65.572529,92.894374 c 2.786333,-1.325862 4.858358,-3.267392 6.528861,-6.11767 0.648236,-1.106045 1.178611,-2.081802 1.178611,-2.168349 0,-0.327024 -2.462912,0.302042 -4,1.021658 -2.511856,1.175974 -5.705645,4.085501 -9.86944,8.991005 -0.58944,0.694438 -0.58944,0.694438 1.6,0.04838 1.204192,-0.355334 3.257078,-1.154093 4.561968,-1.775021 z M 58.061812,77.84 C 57.539345,73.552944 55.707098,69.364304 53.104641,66.507574 51.549053,64.8 51.549053,64.8 51.539255,65.92 c -0.01619,1.851158 0.90767,5.168618 1.960531,7.04 0.947011,1.683245 4.453655,6.72 4.678538,6.72 0.05925,0 0.0068,-0.828 -0.116512,-1.84 z m 7.781107,-13.96656 c 2.229546,-2.31479 3.510743,-3.949533 4.212403,-5.37481 0.978727,-1.988076 1.934807,-6.135168 1.511911,-6.558067 -0.115002,-0.114998 -0.957459,0.139328 -1.872128,0.565171 -2.195091,1.021978 -4.798522,3.590522 -5.487799,5.414266 -0.66727,1.76551 -2.127008,9.28 -1.8027,9.28 0.128844,0 1.676086,-1.496954 3.438313,-3.32656 z M 59.840001,53.795021 c 0,-1.045744 -7.887127,-11.335098 -10.090317,-13.163581 -0.511219,-0.424275 -0.533629,-0.356954 -0.313962,0.943245 0.660877,3.911689 3.325386,7.427917 8.804279,11.618598 1.189126,0.909536 1.6,1.064061 1.6,0.601738 z m 1.753561,-14.779114 c 0.78169,-1.157251 1.725421,-2.813251 2.097181,-3.68 C 64.577111,33.26936 65.12634,29.38332 64.818007,27.36 64.574183,25.76 64.574183,25.76 63.659354,26.853225 61.68962,29.207063 60.378685,32.94359 59.832781,37.76 c -0.18951,1.672 -0.480931,3.472 -0.647606,4 -0.303046,0.96 -0.303046,0.96 0.342045,0.16 0.354797,-0.44 1.284653,-1.746842 2.066342,-2.904093 z m -9.433561,-10.08684 c 0,-0.408322 -3.682436,-5.83612 -5.297984,-7.809067 -3.946781,-4.819904 -4.168385,-4.906845 -3.018596,-1.184265 0.847805,2.744877 2.979178,5.591058 5.677757,7.581936 2.066064,1.524238 2.638823,1.830583 2.638823,1.411396 z"
       id="path2622" />
    <path
       style="fill:#ffdd55;fill-rule:evenodd;stroke:#000000;stroke-width:0"
       d="m 43.342072,17.281302 c -0.332071,0.141471 -0.04298,0.654138 -0.03449,0.907538 0.579235,2.441633 1.63053,4.79527 3.315577,6.678276 1.435085,1.662707 3.19249,3.048701 5.075807,4.169399 0.189132,0.177505 0.597931,0.112498 0.429549,-0.21223 -0.881669,-1.81471 -2.139265,-3.422475 -3.266853,-5.08951 -1.563243,-2.19739 -3.248956,-4.320721 -5.120196,-6.26273 -0.121824,-0.0785 -0.247658,-0.186089 -0.399392,-0.190743 z"
       id="path2693" />
    <path
       style="fill:#ffdd55;fill-rule:evenodd;stroke:#000000;stroke-width:0"
       d="m 64.442951,26.06699 c -0.61581,0.296497 -0.938121,0.999083 -1.366868,1.507286 -2.517707,3.543695 -2.978369,8.004381 -3.566466,12.184973 -0.102414,0.892125 -0.330133,1.768691 -0.523582,2.636646 0.191926,0.199619 0.385425,-0.329324 0.536058,-0.42156 1.64712,-2.207625 3.280857,-4.480021 4.362576,-7.027229 0.83729,-2.483715 1.177197,-5.156399 0.950135,-7.769018 -0.110077,-0.345206 -0.0097,-0.923406 -0.372439,-1.111287 z"
       id="path2695" />
    <path
       style="fill:#ffcc00;fill-rule:evenodd;stroke:#000000;stroke-width:0"
       d="m 49.365563,40.357656 c -0.229614,0.237928 0.01393,0.707002 2.56e-4,1.014658 0.565407,3.632791 2.906631,6.690472 5.578044,9.088954 1.409799,1.249256 2.792546,2.588767 4.447297,3.50922 0.226979,0.173964 0.631415,0.03027 0.457932,-0.291714 -0.893123,-1.884303 -2.237363,-3.514633 -3.446248,-5.202663 -2.077842,-2.692677 -4.128512,-5.436275 -6.561554,-7.823105 -0.144824,-0.108001 -0.284463,-0.28095 -0.475727,-0.29535 z"
       id="path2766" />
    <path
       style="fill:#ffcc00;fill-rule:evenodd;stroke:#000000;stroke-width:0"
       d="m 71.270316,51.931738 c -1.789772,0.361245 -3.32666,1.503867 -4.648848,2.716397 -1.250737,1.181031 -2.43421,2.572996 -2.756826,4.315498 -0.692426,2.660006 -1.257572,5.365391 -1.571511,8.095818 0.154603,0.279037 0.494493,-0.192553 0.644667,-0.276629 2.155928,-2.111924 4.360533,-4.211914 6.162719,-6.643469 1.543717,-2.153757 2.214196,-4.798374 2.588416,-7.38395 0.04267,-0.328477 0.08813,-0.89571 -0.418617,-0.823665 z"
       id="path2770" />
    <path
       style="fill:#ffcc00;fill-rule:evenodd;stroke:#000000;stroke-width:0"
       d="m 51.71065,65.158615 c -0.304104,0.315278 -0.119395,0.88407 -0.156628,1.287329 0.156851,2.216997 0.841447,4.391533 1.840571,6.368326 1.447017,2.377693 2.960036,4.73699 4.728574,6.888519 0.24605,-0.07405 0.04205,-0.542745 0.08764,-0.747705 -0.382199,-5.100257 -2.50051,-10.174925 -6.27436,-13.6896 -0.06704,-0.04456 -0.139171,-0.11354 -0.225801,-0.106869 z"
       id="path2772" />
    <path
       style="fill:#ffcc00;fill-rule:evenodd;stroke:#000000;stroke-width:0"
       d="m 72.906147,84.483622 c -2.287369,0.36618 -4.47943,1.345708 -6.282092,2.803703 -2.856725,2.231574 -5.259592,4.979129 -7.584491,7.741082 -0.01036,0.280951 0.466555,0.04423 0.631036,0.05768 2.3287,-0.62215 4.608759,-1.478858 6.751421,-2.585501 2.841149,-1.534991 4.963175,-4.112891 6.418481,-6.954052 0.09387,-0.316976 0.490276,-0.693814 0.349686,-1.025023 -0.08529,-0.04847 -0.189924,-0.03986 -0.284041,-0.03789 z"
       id="path2774" />
    <path
       style="fill:#d4aa00;fill-rule:evenodd;stroke:#000000;stroke-width:0"
       d="m 45.785546,93.14642 c -0.52583,0.224881 -0.641725,0.932613 -0.912439,1.384396 -0.939424,2.554125 -0.231118,5.373803 0.829904,7.774234 0.751527,1.61582 1.633692,3.20094 2.776124,4.57225 0.354313,0.34494 0.625957,-0.2547 0.642156,-0.5515 0.147349,-2.06219 0.12285,-4.14284 -0.0024,-6.20651 C 48.9346,97.908091 47.74807,95.954728 46.651053,94.08468 46.395694,93.786079 46.205695,93.237478 45.785546,93.14642 Z"
       id="path2776" />
    <path
       style="fill:#d4aa00;fill-rule:evenodd;stroke:#000000;stroke-width:0"
       d="m 58.864653,112.61976 c -4.817974,0.11767 -9.446003,2.05684 -13.371819,4.76519 -0.25032,0.0897 -0.273201,0.41956 0.036,0.41221 2.755253,0.50305 5.660847,0.91922 8.407028,0.15041 2.629438,-0.87869 5.160261,-2.13306 7.37905,-3.80224 0.297489,-0.31157 0.834228,-0.57565 0.868712,-1.03872 -0.397604,-0.37658 -1.062037,-0.27141 -1.568544,-0.40015 -0.580821,-0.0667 -1.165919,-0.093 -1.750427,-0.0867 z"
       id="path2778" />
  </g>
</svg>
