<?xml version="1.0" encoding="UTF-8" standalone="no"?>
<svg
   style="height: 200px; width: 200px; color: rgb(255, 228, 206);"
   role="img"
   viewBox="0 0 24 24"
   version="1.1"
   id="svg8"
   sodipodi:docname="openlayers.svg"
   inkscape:version="1.2 (dc2aedaf03, 2022-05-15)"
   xmlns:inkscape="http://www.inkscape.org/namespaces/inkscape"
   xmlns:sodipodi="http://sodipodi.sourceforge.net/DTD/sodipodi-0.dtd"
   xmlns="http://www.w3.org/2000/svg"
   xmlns:svg="http://www.w3.org/2000/svg">
  <defs
     id="defs12" />
  <sodipodi:namedview
     id="namedview10"
     pagecolor="#ffffff"
     bordercolor="#666666"
     borderopacity="1.0"
     inkscape:showpageshadow="2"
     inkscape:pageopacity="0.0"
     inkscape:pagecheckerboard="0"
     inkscape:deskcolor="#d1d1d1"
     showgrid="false"
     inkscape:zoom="42.791667"
     inkscape:cx="11.450828"
     inkscape:cy="12"
     inkscape:window-width="3840"
     inkscape:window-height="2097"
     inkscape:window-x="0"
     inkscape:window-y="41"
     inkscape:window-maximized="1"
     inkscape:current-layer="svg8" />
  <rect
     width="100%"
     height="100%"
     fill="#A91101"
     id="rect2"
     style="fill:none" />
  <title
     id="title4">Openlayers</title>
  <path
     d="M23.7 13.08a3.498 3.498 0 0 1-1.119 1.619l-7.426 6.196a5.137 5.137 0 0 1-6.317 0L1.412 14.7a3.578 3.578 0 0 1-1.12-1.62 3.298 3.298 0 0 0 1.12 3.639l7.426 6.196a5.137 5.137 0 0 0 6.317 0l7.426-6.196a3.298 3.298 0 0 0 1.12-3.639M8.838 1.086a5.137 5.137 0 0 1 6.317 0l7.426 6.196a3.298 3.298 0 0 1 0 5.258l-7.426 6.187a5.137 5.137 0 0 1-6.317 0L1.412 12.53a3.298 3.298 0 0 1 0-5.248z"
     fill="#ffe4ce"
     id="path6" />
</svg>
