<?xml version="1.0" encoding="UTF-8" standalone="no"?>
<!-- Created with sK1/UniConvertor (http://sk1project.org/) -->

<svg
   fill-rule="evenodd"
   version="1.1"
   id="svg212"
   sodipodi:docname="RomanAquila_AdobeStock_229200876-grey.svg"
   inkscape:version="1.2 (dc2aedaf03, 2022-05-15)"
   xmlns:inkscape="http://www.inkscape.org/namespaces/inkscape"
   xmlns:sodipodi="http://sodipodi.sourceforge.net/DTD/sodipodi-0.dtd"
   xmlns="http://www.w3.org/2000/svg"
   xmlns:svg="http://www.w3.org/2000/svg">
  <sodipodi:namedview
     id="namedview106"
     pagecolor="#ffffff"
     bordercolor="#666666"
     borderopacity="1.0"
     inkscape:showpageshadow="2"
     inkscape:pageopacity="0.0"
     inkscape:pagecheckerboard="0"
     inkscape:deskcolor="#d1d1d1"
     showgrid="false"
     inkscape:zoom="0.92807765"
     inkscape:cx="663.73756"
     inkscape:cy="560.29794"
     inkscape:window-width="3840"
     inkscape:window-height="2097"
     inkscape:window-x="0"
     inkscape:window-y="41"
     inkscape:window-maximized="1"
     inkscape:current-layer="svg212" />
  <defs
     id="defs216" />
  <path
     style="fill:#666666;stroke:none"
     d="m 436.80447,-5.7388681 c -1.095,-1.8 -2.953,-2.99 -5.099,-3.27 -0.677,-0.08 -1.372,-0.05 -2.045,0.1 -6.052,1.33 -11.73,2.05 -17.311,2.18 0.66,-2.58 1.021,-5.3499999 1.075,-8.2499999 0.041,-2.22 -1.14,-4.27 -3.081,-5.35 -1.906,-1.06 -4.346,-0.98 -6.172,0.2 -4.023,2.59 -10.167,3.91 -18.26,3.91 -4.061,0 -8.716,-0.34 -13.85,-1.02 0.126,-1.16 0.208,-2.34 0.243,-3.52 0.071,-2.48 -1.422,-4.79 -3.717,-5.73 -2.263,-0.93 -5.002,-0.33 -6.666,1.46 -2.753,2.94 -8.011,4.38 -16.072,4.38 -6.838,0 -14.932,-1.1 -21.415,-2.11 -0.018,-0.33 -0.059,-0.65 -0.123,-0.95 -0.717,-3.38 -3.714,-5.73 -7.29,-5.73 -0.403,0 -0.812,0.03 -1.217,0.09 -0.632,0.09 -1.242,0.28 -1.815,0.57 -4.259,2.14 -12.542,3.18 -25.324,3.18 -3.096,0 -6.496,-0.06 -10.373,-0.19 -0.761,-2.02 -1.503,-3.88 -2.253,-5.64 2.527,-1.02 4.695,-2.61 6.459,-4.74 3.143,-3.8 4.446,-8.86 3.577,-13.9 -0.936,-5.43 -0.812,-10.15 0.34,-12.93 0.941,-2.28 0.376,-4.94 -1.405,-6.64 -1.765,-1.68 -4.484,-2.13 -6.696,-1.08 -8.702,4.1 -14.663,8.94 -17.747,14.42 -3.216,-3.78 -6.852,-7.53 -10.835,-11.17 1.901,-1.84 3.289,-4.07 4.131,-6.64 1.536,-4.68 0.897,-9.87 -1.751,-14.24 -2.859,-4.71 -4.467,-9.15 -4.414,-12.160002 0.043,-2.46 -1.458,-4.74 -3.735,-5.67 -2.252,-0.91 -4.967,-0.32 -6.629,1.44 -4.05,4.3 -7.055,8.500002 -8.958,12.530002 -3.945,-6.56 -10.525,-10.010002 -19.158,-10.010002 -5.821,0 -12.583,1.6 -20.095,4.760002 -0.658,0.28 -1.254,0.67 -1.764,1.14 -2.935,-19.120002 -19.668,-33.720002 -39.275,-33.720002 -20.475,0 -37.383,15.56 -39.519,35.480002 -0.615,-0.78 -1.42,-1.4 -2.362,-1.8 -7.509997,-3.16 -14.270997,-4.760002 -20.093997,-4.760002 h -10e-4 c -8.633,0 -15.212,3.450002 -19.157,10.010002 -1.902,-4.03 -4.907,-8.23 -8.958,-12.530002 -1.663,-1.76 -4.38,-2.35 -6.629,-1.44 -2.277,0.93 -3.778,3.21 -3.735,5.670002 0.054,3.02 -1.555,7.45 -4.413,12.16 -2.65,4.37 -3.289,9.56 -1.753,14.24 0.863,2.63 2.299,4.91 4.276,6.78 -3.98,3.69 -7.608,7.49 -10.812,11.33 -3.034,-5.6 -9.05,-10.55 -17.913,-14.72 -2.212,-1.05 -4.932,-0.6 -6.696,1.08 -1.7809999,1.7 -2.3459999,4.36 -1.4069999,6.63 1.1529999,2.79 1.2769999,7.51 0.34,12.94 -0.869,5.03 0.433,10.1 3.5729999,13.9 1.894,2.28 4.249,3.95 7.011,4.96 -0.58,1.37 -1.147,2.79 -1.718,4.28 -4.379,0.15 -8.1329999,0.23 -11.4559999,0.23 -12.78,0 -21.0640001,-1.04 -25.3230001,-3.18 -0.571,-0.29 -1.181,-0.48 -1.813,-0.57 -0.407,-0.06 -0.817,-0.09 -1.219,-0.09 -3.575,0 -6.572,2.35 -7.289,5.72 -0.065,0.31 -0.106,0.63 -0.124,0.96 -6.486,1.01 -14.581,2.11 -21.414,2.11 -8.064,0 -13.3216,-1.44 -16.0736,-4.38 -1.666,-1.79 -4.4077,-2.39 -6.6674,-1.46 -2.2945,0.95 -3.7876,3.25 -3.7154,5.73 0.0342,1.18 0.1157,2.36 0.2427,3.52 -5.1338,0.68 -9.7886,1.02 -13.8472,1.02 -8.0952,0 -14.239203,-1.31 -18.261703,-3.91 -1.8281,-1.18 -4.271,-1.26 -6.1728,-0.2 -1.9414,1.08 -3.1221,3.13 -3.0811,5.35 0.0542,2.9 0.415,5.6699999 1.0752,8.2499999 -5.5801,-0.13 -11.2583,-0.85 -17.3125,-2.18 -0.6714,-0.15 -1.3628,-0.18 -2.0454,-0.1 -2.1445,0.28 -4.002,1.47 -5.0962,3.27 -1.8931,3.12 -0.8774,6.54999998 0.2524,9.6 1.0401,2.69 2.4541,5.11 4.21,7.2100001 -2.1118,3.18 -0.9248,6.95 -0.2788,9 2.3135,7.36 8.5942,13.03 18.668,16.85 3.9809,1.52 8.6582,2.76 13.9131,3.7 0.1958,1.43 0.8676,3.29 2.7285,5.16 4.915003,4.94 16.913503,8.66 27.909103,8.66 1.7022,0 3.396,-0.08 5.0367,-0.25 0.2871,-0.03 0.5766,-0.08 0.8647,-0.16 6.1255,4.51 13.8357,6.79 22.9257,6.79 3.641,0 7.584,-0.36 11.726,-1.08 3.884,3.8 8.644,6.79 13.955,8.78 -6.239,1.32 -13.102,4.55 -20.466,9.62 -2.025,1.4 -3.002,3.94 -2.431,6.33 0.57,2.4 2.591,4.23 5.028,4.56 4.288,0.58 10.093,3.72 15.929,8.62 3.829,3.209998 8.605,4.979998 13.4490001,4.979998 1.077,0 2.157,-0.09 3.211,-0.27 0.89,-0.14 1.758,-0.35 2.604,-0.6 -0.29,0.83 -0.397,1.75 -0.284,2.68 l 0.84,6.98 -4.871,0.72 -0.152,-1.02 c -0.357,-2.41 -2.115,-4.35 -4.4770001,-4.95 -2.325,-0.58 -4.86,0.34 -6.278,2.25 l -8.166,11.01 c -1.97,2.66 -1.413,6.42 1.243,8.39 l 11.008,8.17 c 0.084,0.07 0.169,0.13 0.256,0.19 -0.271,0.14 -0.535,0.31 -0.793,0.49 -4.543,0.26 -7.596,4.58 -8.174,5.46 -1.223,1.87 -1.417,4.22 -0.518,6.27 0.297,0.68 0.713,1.29 1.236,1.82 0.946,0.96 4.373,4.07 8.715,4.07 0.636,0 1.28,-0.07 1.921,-0.22 1.7150001,0.92 3.3030001,1.12 4.3620001,1.12 0.75,0 1.519,-0.09 2.291,-0.29 2.359,1.49 4.58199995,1.81 6.063,1.81 1.271,0 2.57,-0.22 3.869,-0.66 1.058,0.63 2.156,1.1 3.285,1.4 -7.202,2.97 -15.847,9.62 -24.7480001,23.53 -1.282,2.01 -1.259,4.58 0.06,6.56 1.115,1.68 2.982,2.68 4.994,2.68 0.347,0 0.6950001,-0.03 1.0330001,-0.09 l 0.435,-0.08 c 2.799,-0.49 5.009,-0.88 8.42499995,-0.88 3.13500005,0 7.04800005,0.32 12.31799995,1 1.324,0.17 2.683,0.25 4.037,0.25 7.263,0 12.964,-2.35 15.716,-3.76 3.096,-1.58 5.618,-3.84 7.512,-6.72 5.227,4.81 10.842,9.12 17.083,13.11 -12.138,3.41 -21.164,16.39 -25.565,36.91 -0.498,2.33 0.426,4.73 2.354,6.12 1.895,1.37 4.537,1.5 6.552,0.31 4.357,-2.56 9.753,-5.43 18.663,-7.17 1.069,-0.21 2.218,-0.36 3.435,-0.52 5.683,-0.74 13.465,-1.76 17.999,-10.3 2.396,-4.51 2.569,-8.07 2.424,-11.31 l 0.883,-0.48 c 10.24,4.1 21.577997,7.61 34.611997,10.73 -13.225,4.38 -27.560997,9.45 -44.768997,15.86 -2.456,0.91 -4.023,3.28 -3.901,5.9 0.399,8.53 0.565,8.96 0.929,9.9 0.579,1.5 1.707,2.68 3.174,3.32 0.766,0.34 1.581,0.51 2.421,0.51 0.748,0 1.48,-0.14 2.173,-0.41 5.058,-1.96 10.207,-4 15.189,-5.97 l 0.105,-0.04 c 18.331997,-7.25 37.285997,-14.75 56.202997,-20.51 18.202,5.61 36.454,12.83 54.108,19.82 l 0.369,-0.93 v 0 l -0.242,0.98 c 5.061,2.01 10.29,4.08 15.426,6.07 1.833,0.72 3.943,0.47 5.562,-0.64 1.634,-1.12 2.611,-2.97 2.611,-4.95 v -8.2 c 0,-2.5 -1.571,-4.76 -3.909,-5.63 -16.205,-6.02 -29.753,-10.83 -42.294,-15 12.333,-3.02 23.138,-6.41 32.939,-10.33 h 0.015 c -0.145,3.24 0.028,6.8 2.426,11.31 4.534,8.54 12.316,9.56 17.998,10.3 1.217,0.16 2.366,0.31 3.436,0.52 8.912,1.74 14.306,4.61 18.663,7.17 2.018,1.19 4.657,1.06 6.552,-0.31 1.929,-1.39 2.852,-3.79 2.353,-6.12 -4.253,-19.83 -12.903,-32.7 -24.492,-36.58 5.969,-3.84 11.52,-8.09 16.539,-12.67 1.824,2.51 4.168,4.51 6.98,5.95 2.752,1.4 8.454,3.76 15.719,3.76 1.354,0 2.712,-0.08 4.036,-0.25 5.269,-0.68 9.184,-1 12.317,-1 3.416,0 5.626,0.39 8.431,0.88 l 0.43,0.08 c 0.339,0.06 0.687,0.09 1.035,0.09 2.012,0 3.879,-1 4.993,-2.68 1.318,-1.98 1.342,-4.55 0.061,-6.56 -10.76,-16.81 -21.145,-22.98 -28.929,-24.9 0.744,-0.41 1.45,-0.9 2.116,-1.48 4.15,1.4 7.976,0.77 10.951,-1.62 2.874,0.67 5.625,0.17 7.892,-1.37 0.554,0.1 1.058,0.15 1.529,0.15 1.704,0 3.337,-0.51 4.74,-1.5 4.547,-0.26 7.599,-4.58 8.176,-5.46 1.233,-1.88 1.422,-4.24 0.506,-6.3 -0.298,-0.67 -0.709,-1.27 -1.224,-1.79 -0.611,-0.62 -2.05,-1.94 -4.036,-2.91 l 8.049,-5.98 c 2.656,-1.97 3.214,-5.73 1.243,-8.39 l -8.166,-11.01 c -1.419,-1.91 -3.978,-2.82 -6.277,-2.25 -2.362,0.6 -4.12,2.54 -4.478,4.94 l -0.151,1.03 -4.871,-0.72 0.84,-6.98 c 0.097,-0.81 0.027,-1.62 -0.196,-2.39 0.499,0.13 1.005,0.23 1.517,0.31 1.053,0.18 2.133,0.27 3.21,0.27 4.843,0 9.619,-1.77 13.449,-4.979998 5.835,-4.9 11.641,-8.04 15.93,-8.62 2.436,-0.33 4.457,-2.16 5.028,-4.56 0.571,-2.39 -0.407,-4.93 -2.431,-6.33 -7.323,-5.04 -14.152,-8.26 -20.366,-9.59 5.276,-1.99 10.009,-4.98 13.879,-8.8 4.132,0.71 8.068,1.07 11.705,1.07 9.089,0 16.797,-2.28 22.921,-6.79 0.288,0.08 0.578,0.13 0.867,0.16 1.639,0.17 3.333,0.25 5.036,0.25 10.993,0 22.992,-3.72 27.909,-8.66 1.861,-1.87 2.533,-3.73 2.729,-5.16 5.256,-0.94 9.934,-2.19 13.912,-3.7 10.075,-3.82 16.355,-9.49 18.668,-16.85 0.646,-2.05 1.832,-5.83 -0.279,-9 1.756,-2.1000001 3.173,-4.5300001 4.238,-7.2900001 1.102,-2.97000002 2.119,-6.39 0.226,-9.52 z M 300.19347,130.30113 c -0.079,0.52 -0.085,1.05 -0.022,1.57 -0.256,0.05 -0.51,0.1 -0.76,0.16 -2.359,-1.49 -4.583,-1.81 -6.065,-1.81 -1.27,0 -2.566,0.22 -3.86,0.66 -0.611,-0.36 -1.233,-0.68 -1.859,-0.93 0.277,-0.81 0.547,-1.63 0.812,-2.44 l 11.905,1.76 z M -0.59152695,71.261132 c -0.004,0.12 -0.008,0.25 -0.012,0.38 -0.176,-0.12 -0.353,-0.23 -0.53299995,-0.35 0.17899995,-0.01 0.35999995,-0.02 0.54499995,-0.03 z m -3.27599995,59.039998 -0.152,-1.03 11.887,-1.76 c 0.446,1.34 0.936,2.75 1.5,4.32 -3.407,-0.68 -6.586,0.08 -9.12100005,2.11 -0.84,-0.19 -1.66999995,-0.29 -2.47499995,-0.29 -0.76,0 -1.506,0.09 -2.229,0.26 0.556,-1.09 0.778,-2.34 0.59,-3.61 z M 115.74447,32.921132 c -1.393,0.32 -2.64,1.14 -3.492,2.29 -0.693,0.04 -1.265,0.06 -1.774,0.06 -4.237,0 -5.234,-0.96 -5.255,-0.98 -0.001,0 -0.154,-0.22 -0.152,-1.01 l 0.003,-0.8 c 0.007,-1.37 0.014,-2.78 -0.064,-4.25 l -0.633,-12.17 c 1.777,-0.43 3.274,-1.66 4.035,-3.35 0.179,-0.4 0.335,-0.68 0.458,-0.87 3.356,-2.5700001 13.099,1.84 17.003,4.42 0.627,0.42 1.049,1.06 1.129,1.71 1.223,9.98 -5.447,13.64 -11.258,14.95 z m -6.978,150.269998 c -0.925,-1.96 -2.192,-3.8 -3.779,-5.5 h 5.284 c 1.785,4.76 5.921,8.91 12.009,12.04 7.122,3.67 16.459,5.69 26.292,5.69 9.833,0 19.169,-2.02 26.29,-5.69 6.088,-3.13 10.224,-7.28 12.011,-12.04 h 3.467 c -1.587,1.7 -2.853,3.54 -3.778,5.5 -2.236,4.74 -2.414,10 -0.533,15.26 -4.944,1.29 -9.971,2.45 -14.845,3.58 -6.26,1.44 -12.734,2.94 -19.111,4.7 -1.037,0.29 -2.071,0.59 -3.101,0.89 l -0.033,0.01 c -1.613,-0.47 -3.228,-0.93 -4.848,-1.38 -6.384,-1.77 -12.858,-3.26 -19.12,-4.71 -5.071,-1.17 -10.305,-2.38 -15.453,-3.73 1.641,-5.05 1.387,-10.08 -0.752,-14.62 z m 145.452,-23.26 c -4.359,4.91 -8.961,9.27 -13.917,13.18 0.159,-0.62 0.242,-1.26 0.242,-1.92 v -5.4 c 4.887,-0.39 9.251,-2.45 12.993,-6.14 0.232,0.1 0.458,0.19 0.682,0.28 z m -19.379,-57.79 c 1.745,-0.76 3.32,-1.81 4.679,-3.139998 0.275,0.12 0.537,0.21 0.796,0.3 1.903,0.61 3.739,0.899998 5.588,0.859998 l -0.635,3.5 z m -15.259,75.55 h 6.188 c 0.827,0 1.642,-0.17 2.394,-0.49 1.193,0.93 2.658,1.5 4.165,1.62 -5.198,3.37 -10.828,6.48 -16.771,9.24 1.704,-6.02 2.829,-8.36 4.024,-10.37 z m 20.963,-53.22 v -4 l 13.046,1.9 c 3.261,0.48 6.195,-1.73 6.765,-4.87 l 1.127,-6.19 14.578,1.77 c -1.303,4.85 -2.81,9.6 -4.487,14.16 -2.947,-0.5 -5.883,-0.09 -8.92,1.18 -3.435,-2.59 -7.166,-3.91 -11.098,-3.91 -2.635,0 -5.38,0.61 -8.169,1.82 -0.903,-0.7 -1.855,-1.32 -2.842,-1.86 z m 17.249,-31.059998 c 0.588,-0.94 1.045,-1.91 1.382,-2.92 1.171,0 2.329,-0.18 3.439,-0.53 0.36,-0.11 0.735,-0.24 1.126,-0.41 2.128,-0.89 3.964,-2.46 5.308,-4.53 1.916,-2.95 2.941,-6.29 3.054,-9.95 3.137,0.38 6.072,0.35 9.295,-0.1 -0.001,7.39 -0.496,14.33 -1.51,21.13 z M 51.952473,160.59113 c 0.605,0.47 1.193,0.89 1.777,1.25 v 9.04 c -3.125,-2.61 -6.157,-5.45 -9.051,-8.49 2.361,-0.12 4.801,-0.73 7.274,-1.8 z m -17.108,-49.28 1.126,6.19 c 0.571,3.14 3.523,5.35 6.766,4.87 l 10.993,-1.6 v 0.48 c -4.464,0.58 -8.474,2.6 -11.944,6.02 -2.625,-1.08 -5.065,-1.61 -7.439,-1.61 -3.323,0 -6.391,1.09 -8.954,3.18 -1.972,-5.12 -3.661,-10.3 -5.14,-15.76 z m -18.49,-15.199998 c -1.037,-6.78 -1.557,-13.69 -1.585,-21.03 2.95,0.34 5.596,0.33 8.457,-0.01 0.114,3.66 1.14,7 3.055,9.95 1.346,2.07 3.177,3.64 5.299,4.53 0.377,0.16 0.76,0.3 1.138,0.42 1.108,0.34 2.263,0.52 3.434,0.52 0.35,1.05 0.831,2.06 1.453,3.03 z m 34.067,4.039998 c 1.495,-0.07 3.036,-0.359998 4.59,-0.849998 0.258,-0.09 0.52,-0.18 0.798,-0.3 1.423,1.399998 3.079,2.489998 4.918,3.249998 l -9.669,1.41 z m 16.413,76.34 0.051,-0.05 c 1.044,0.81 2.338,1.25 3.675,1.25 h 5.186 c 1.094,1.85 2.184,4.08 3.729,9.34 -5.513,-2.62 -10.75,-5.53 -15.602,-8.68 1.11,-0.38 2.131,-1.02 2.961,-1.86 z M 148.08447,-50.528868 c 20.843,0 38.061,-16.23 39.624,-36.72 0.517,0.42 1.104,0.75 1.739,0.98 3.549,1.25 7.967,5 12.122,10.26 3.539,4.49 8.721,7.2 14.218,7.42 1.031,0.04 1.744,0.05 2.453,0.03 -4.171,2.99 -8.135,7.63 -11.839,13.85 -1.257,2.12 -1.082,4.84 0.435,6.77 1.145,1.46 2.866,2.3 4.723,2.3 0.592,0 1.178,-0.09 1.748,-0.26 2.791,-0.85 7.665,-0.53 12.907,0.91 1.537,0.42 3.12,0.63 4.706,0.63 3.434,0 6.708,-0.99 9.469,-2.85 1.923,-1.31 3.499,-2.93 4.7,-4.85 1.484,1.6 2.911,3.22 4.263,4.86 -6.3,0.78 -13.083,4.51 -20.196,11.12 -1.801,1.68 -2.399,4.34 -1.488,6.62 0.915,2.29 3.103,3.78 5.572,3.78 h 0.139 c 2.445,0 5.875,1.11 9.595,3.1 l -44.973,20.9399999 c -3.877,1.80999998 -6.423,5.58 -6.644,9.85 l -1.042,20.0200001 c -0.077,1.47 -0.07,2.87 -0.063,4.23 l 0.004,0.82 c 0.002,0.78 -0.151,1.01 -0.163,1.02 -0.039,0.04 -1.009,0.97 -5.244,0.97 -0.987,0 -2.087,-0.06 -3.271,-0.16 -0.211,-0.02 -0.424,-0.03 -0.638,-0.03 -0.575,-1.15 -1.495,-2.09 -2.646,-2.67 -0.544,-0.27 -1.59,-0.8 -2.371,-2.63 1.94,-0.41 3.829,-1.24 5.63,-2.47 1.641,-1.13 2.614,-2.99 2.606,-4.98 -0.007,-1.99 -0.996,-3.84 -2.646,-4.95 -2.519,-1.7 -4.189,-7.4700001 -5.663,-12.5600001 -1.264,-4.36000002 -2.686,-9.27 -5.01,-13.66 3.671,-2.8499999 5.679,-6.7899999 5.972,-11.7399999 0.139,-2.35 -1.117,-4.58 -3.198,-5.67 -2.036,-1.07 -4.667,-0.83 -6.479,0.58 -3.129,2.43 -4.855,2.8 -5.605,2.8 -0.421,0 -0.831,-0.11 -1.371,-0.36 -1.623,-0.76 -3.411,-1.14 -5.316,-1.14 h -25.516 c -0.77,-0.07 -1.527,-0.1 -2.251,-0.1 -6.459,0 -11.457,3.03 -14.117,8.54 l -5.641,2.42 c -4.905,2.1 -8.776997,6.1699999 -10.622997,11.1799999 -0.041,0.11 -0.081,0.23 -0.119,0.34 l -43.112,-20.0699999 c 3.299,-1.64 6.264,-2.52 8.483,-2.52 h 0.139 c 2.47,0 4.657,-1.48 5.572,-3.78 0.911,-2.28 0.313,-4.94 -1.488,-6.62 -6.962,-6.47 -13.611,-10.18 -19.797,-11.06 1.277,-1.57 2.624,-3.13 4.026,-4.66 1.179,1.8 2.701,3.34 4.539,4.59 2.762,1.86 6.036,2.85 9.468,2.85 1.587,0 3.171,-0.21 4.707,-0.63 5.245,-1.44 10.121,-1.76 12.907,-0.91 0.568,0.17 1.156,0.26 1.748,0.26 1.856,0 3.577,-0.84 4.722,-2.3 1.518,-1.93 1.693,-4.65 0.435,-6.77 -3.703,-6.22 -7.668,-10.86 -11.842,-13.85 0.741,0.02 1.526,0.01 2.457,-0.03 5.497,-0.22 10.68,-2.93 14.219,-7.42 4.153,-5.26 8.570997,-9.01 12.119997,-10.26 1.029,-0.37 1.918,-1 2.593,-1.81 1.684,20.38 18.807,36.45 39.612,36.45 z"
     id="path4" />
  <g
     id="g206"
     transform="translate(-158.80953,-1183.4789)">
    <path
       style="fill:#ffffff;stroke:none"
       d="m 276.559,1228.78 -7.844,25.31 c -2.086,9.31 -0.53,16.98 2.615,23.94 1.154,-11.98 5.086,-20.87 13.641,-24.61 2.144,-0.93 4.531,-1.2 6.776,-0.55 4.938,1.44 7.82,5.45 9.029,11.54 l 2.476,23.12 c 2.031,2.21 3.955,2.56 5.711,0 l 2.958,-22.43 c 0.856,-3.62 2.096,-6.86 4.114,-9.37 3.964,-4.93 11.315,-5.49 15.931,-1.16 4.208,3.94 7.211,10.95 9.401,20.02 4.023,-14.17 -0.155,-30.25 -7.981,-47.19 -4.817,3.71 -9.265,3.42 -12.352,0.59 -0.452,5.38 -1.981,9.3 -5.536,13.72 -5.84,-3.63 -9.315,-8.53 -11.145,-14.31 -3.94,7.72 -8.411,11.22 -13.072,13.21 -2.749,-3.7 -4.242,-7.67 -3.576,-13.21 -3.283,2.19 -6.9,3.04 -11.146,1.38 z"
       id="path6" />
    <path
       style="fill:#ffffff;stroke:none"
       d="m 285.846,1261.11 h 3.922 c 2.974,-1.6 5.178,-0.99 7.155,0.28 -0.844,-1.51 -1.869,-2.82 -3.144,-3.87 -3.189,-2.62 -7.693,-2.54 -10.979,-0.04 -1.453,1.1 -2.601,2.46 -3.627,3.91 2.205,-1.2 4.429,-1.28 6.673,-0.28 z"
       id="path8" />
    <path
       style="fill:#ffffff;stroke:none"
       d="m 326.706,1260.16 c 2.973,-1.61 5.177,-0.99 7.155,0.27 -0.844,-1.5 -1.87,-2.82 -3.144,-3.86 -3.19,-2.62 -7.694,-2.54 -10.979,-0.04 -1.453,1.1 -2.6,2.45 -3.627,3.9 2.204,-1.2 4.428,-1.27 6.673,-0.27 z"
       id="path10" />
    <path
       style="fill:#ffffff;stroke:none"
       d="m 273.806,1279.69 3.853,-5.78 1.514,12.66 5.26,-13.45 7.812,14.55 1.238,-14.73 5.779,9.08 c 0.772,-4.86 0,-11.28 -2.339,-16.92 v 9.22 l -5.091,-8.26 -2.014,11.19 -5.279,-10.91 -4.128,11.56 -2.112,-11.61 c -2.699,4.49 -3.807,8.94 -4.493,13.4 z"
       id="path12" />
    <path
       style="fill:#ffffff;stroke:none"
       d="m 320.177,1287.67 5.779,-16.24 7.704,16.24 v -15.96 l 7.157,8.94 -5.779,-18.31 -1.515,6.75 -3.439,-6.75 1.375,14.73 -5.503,-14.73 -4.404,15.01 -0.825,-15.01 -4.816,10.05 -1.101,-8.25 -2.889,17.33 c 0,0 7.293,-9.21 7.017,-8.66 -0.275,0.55 1.239,14.86 1.239,14.86 z"
       id="path14" />
    <path
       style="fill:#ffffff;stroke:none"
       d="m 340.202,1299.77 c 0.451,-6.4 -0.062,-12.58 -1.863,-18.43 l -4.265,12.66 c -2.95,-3.18 -5.446,-8.05 -7.636,-14.04 -0.693,6.09 -3.365,10.68 -7.5,14.17 l -3.715,-11.83 c -2.338,6.12 -3.176,11.94 -2.592,17.47 h -13.406 c -0.198,-6.06 -1.22,-11.81 -3.54,-17.06 l -1.927,10.05 c -3.345,-3.27 -6.77,-7.15 -8.531,-12.11 -1.395,5.04 -3.921,9.04 -6.88,12.66 l -3.577,-10.6 c -2.438,5.25 -3.028,11 -2.442,17.06 h -43.377 v 7.17 l -8.028,-7.82 c -0.475,-0.46 -1.183,-0.6 -1.794,-0.34 -0.611,0.26 -1.01,0.86 -1.01,1.52 v 10.48 c -5.777,-1.07 -10.664,0.63 -14.653,5.1 -0.818,0.92 -0.99,2.25 -0.46,3.36 l 8.149,17.04 c 1.754,2.5 4.126,4.17 6.964,5.23 v 13.01 c 0,0.66 0.405,1.27 1.025,1.52 0.203,0.09 0.416,0.13 0.625,0.13 0.434,0 0.862,-0.17 1.179,-0.5 l 8.003,-8.12 v 7.54 h 155.207 v -5.39 l 5.948,6.04 c 0.316,0.32 0.743,0.49 1.177,0.49 0.211,0 0.422,-0.04 0.625,-0.12 0.62,-0.26 1.025,-0.86 1.025,-1.53 v -11.86 c 6.241,1.48 11.478,-0.15 15.707,-4.88 0.818,-0.92 0.99,-2.25 0.461,-3.36 l -8.149,-17.05 c -1.968,-2.79 -4.707,-4.57 -8.019,-5.58 v -11.48 c 0,-0.67 -0.397,-1.27 -1.009,-1.52 -0.614,-0.27 -1.319,-0.13 -1.793,0.33 l -5.973,5.83 v -5.24 z m -109.05,2.21 h 150.805 v 5.17 l -1.926,1.88 v -5.68 h -148.15 v 6.45 l -0.729,-0.71 z m 145.576,4.67 v 41.83 H 235.184 v -41.83 z m -155.306,43.84 v -46.27 l 10.459,10.19 v 25.46 z m 160.535,2.4 H 231.152 v -7.58 l 0.729,-0.74 v 7.22 h 148.15 v -6.28 l 1.926,1.96 z m 7.674,-48.61 v 46.27 l -9.6,-9.74 v -27.17 z"
       id="path16" />
    <path
       style="fill:#ffffff;stroke:none"
       d="M 375.995,1307.94 H 235.934 v 39.44 h 140.061 z m -1.1,38.34 h -137.86 v -37.24 h 137.86 z"
       id="path18" />
    <path
       style="fill:#ffffff;stroke:none"
       d="m 265.145,1336.34 c 1.317,-1.66 1.87,-3.52 1.582,-5.58 -0.276,-1.99 -1.41,-3.77 -2.964,-5.04 l -5.511,-4.52 c -0.902,-0.74 -1.57,-1.78 -1.692,-2.94 -0.248,-2.38 1.5,-4.1 3.854,-3.21 1.759,0.56 2.264,2.03 2.477,3.71 h 2.567 v -4.58 c -2.856,-2.45 -6.337,-3.25 -9.813,-1.76 -0.887,0.38 -1.709,0.93 -2.348,1.65 -1.282,1.46 -1.808,3.2 -1.656,5.21 0.186,2.49 1.509,4.75 3.4,6.37 l 4.915,4.21 c 1.967,2.27 1.83,4.3 -0.78,6.06 -1.345,0.69 -2.92,0.77 -4.815,0 -1.208,-1.01 -1.611,-2.84 -1.468,-5.23 h -1.744 l -0.847,6.77 c 1.764,1.67 4.864,2.56 7.48,2.42 2.837,-0.17 5.598,-1.31 7.363,-3.54 z"
       id="path20" />
    <path
       style="fill:#ffffff;stroke:none"
       d="m 276.925,1336.74 -2.843,1.2 v 0.64 h 11.602 v -0.64 l -2.153,-1.2 -0.092,-8.76 c 5.832,-0.32 10.274,-2.66 10.548,-7.29 0,-5.96 -3.267,-8.55 -9.081,-8.62 h -11.283 v 0.73 l 3.302,0.37 z m 6.055,-21.69 c 3.913,-0.08 5.322,2.15 5.32,5.14 0.062,3.98 -1.65,5.13 -5.32,5.13 z"
       id="path22" />
    <path
       style="fill:#ffffff;stroke:none"
       d="m 339.014,1337.17 -2.844,1.19 v 0.64 h 11.601 v -0.64 l -2.153,-1.19 v -8.76 c 0.576,-0.03 1.045,0.07 1.59,0 0.559,-0.08 7.349,10.28 7.872,10.17 0.342,-0.08 7.84,0.09 8.164,0 0.212,-0.06 -3.669,-1.75 -3.669,-1.75 -3.57,-3.35 -8.328,-9.6 -7.958,-9.76 2.601,-1.19 4.292,-3.15 4.458,-5.96 0,-5.96 -3.267,-8.55 -9.081,-8.62 h -11.283 v 0.74 l 3.303,0.36 z m 6.054,-21.69 c 3.912,-0.09 5.322,2.15 5.32,5.13 0.063,3.99 -1.651,5.14 -5.32,5.14 z"
       id="path24" />
    <path
       style="fill:#ffffff;stroke:none"
       d="m 308.912,1338.03 c 1.864,0.78 3.937,1.22 6.123,1.22 1.989,0 3.888,-0.37 5.62,-1.02 7.318,6.41 17.875,8.21 30.114,4.57 l -0.714,-1.26 c -8.805,3.95 -19.465,0.52 -26.62,-4.71 3.822,-2.43 6.322,-6.49 6.322,-11.08 0,-7.46 -6.592,-13.5 -14.722,-13.5 -8.132,0 -14.723,6.04 -14.723,13.5 0,5.45 3.525,10.15 8.6,12.28 z m 6.123,-23.04 c 4.457,0 8.071,4.82 8.071,10.76 0,5.94 -3.614,10.75 -8.071,10.75 -4.459,0 -8.074,-4.81 -8.074,-10.75 0,-5.94 3.615,-10.76 8.074,-10.76 z"
       id="path26" />
    <path
       style="fill:#ffffff;stroke:none"
       d="m 306.474,1126.86 c 18.637,0 33.746,-15.11 33.746,-33.76 0,-18.64 -15.109,-33.75 -33.746,-33.75 -18.638,0 -33.747,15.11 -33.747,33.75 0,18.65 15.109,33.76 33.747,33.76 z"
       id="path28" />
    <path
       style="fill:#ffffff;stroke:none"
       d="m 136.349,1162.52 c 3.836,2.04 8.361,3.16 13.208,3.86 6.871,1.11 14.228,1.68 21.947,1.85 l 16.977,-0.06 c 0.947,0 1.897,-0.06 2.831,-0.23 4.528,-0.81 7.846,-0.15 9.512,2.54 0.569,0.91 1.655,1.36 2.703,1.1 6.572,-1.65 11.381,0.15 14.136,5.94 0.513,1.09 1.537,1.81 2.73,1.92 4.279,0.41 7.394,2.62 9.431,6.5 0.686,1.3 2.056,2.11 3.527,2.19 l 7.441,0.45 c 1.032,0.06 1.993,0.6 2.557,1.47 1.244,1.91 0.853,3.43 -0.707,4.68 -0.507,0.4 -1.142,0.63 -1.791,0.67 l -3.423,0.23 c -0.811,0.06 -1.574,0.58 -1.764,1.37 -0.025,0.11 -0.042,0.22 -0.049,0.33 -0.059,0.91 0.69,1.69 1.596,1.84 l 3.366,0.54 c 0.618,0.03 1.195,0.37 1.593,0.9 0.892,1.22 0.419,2.96 -0.873,3.73 l -4.16,2.49 c -0.649,1.06 0.287,2.38 1.503,2.12 l 3.451,-0.75 c 1.171,0.05 1.72,0.56 1.746,1.45 0.024,0.83 -0.415,1.6 -1.078,2.09 l -4.023,2.98 c -0.372,0.27 -0.642,0.69 -0.677,1.15 v 0.02 c -0.093,1.32 1.351,2.18 2.459,1.47 l 2.079,-1.33 c 1.497,-0.96 3.432,0.26 3.208,2.03 l -0.006,0.04 c -0.061,0.45 -0.298,0.87 -0.624,1.19 l -3.703,3.64 c -0.813,1.39 -0.227,1.84 0.894,1.92 l 4.636,-2.26 c 1.391,-0.68 2.98,0.45 2.794,1.99 l -2.2,5.64 c -0.38,1.61 -0.176,2.64 0.542,3.16 0.653,0.48 1.581,0.23 2.074,-0.41 1.334,-1.73 2.743,-3.24 4.27,-4.41 0.86,-0.65 2.116,-0.15 2.248,0.93 0.221,1.81 -0.007,3.64 -0.535,5.48 0.037,1.69 1.581,2 2.346,1.14 l 3.136,-7.42 c 0.013,-0.03 0.037,-0.06 0.068,-0.08 1.836,-1.16 4.145,0.52 3.605,2.62 l -0.694,2.71 c -0.412,1.92 1.79,3.03 2.619,1.42 l 2.336,-5.52 c 0.21,-0.5 0.561,-0.95 1.046,-1.18 0.92,-0.44 2.007,-0.38 3.229,0.09 0.549,0.22 1.192,-0.07 1.328,-0.64 0.227,-0.95 0.129,-1.82 -0.333,-2.58 -0.455,-0.76 -1.349,-1.12 -2.224,-1.05 -9.064,0.79 -15.213,-0.9 -15.196,-7.82 0.005,-1.57 0.031,-3.15 -0.052,-4.73 l -1.042,-20.01 c -0.106,-2.05 -1.332,-3.86 -3.183,-4.73 l -50.751,-23.63 c -1.562,-0.73 -3.277,-1.06 -4.995,-0.97 -24.802,1.31 -49.8,2.71 -60.402,-2.61 -1.858,-0.28 -2.545,1.72 -0.687,2.54 z"
       id="path30" />
    <path
       style="fill:#ffffff;stroke:none"
       d="m 262.111,1232.77 -3.439,9.63 c -0.8,3.27 -0.096,6.3 1.841,9.12 0.516,0.75 1.461,1.11 2.335,0.85 2.958,-0.86 5.508,-2.62 6.968,-6.81 l 3.99,-12.79 -2.339,-1.24 -7.747,15.22 c -0.014,0.03 -0.057,0.01 -0.049,-0.02 l 1.88,-8.6 c -1.827,-0.53 -3.013,-2.25 -3.44,-5.36 z"
       id="path32" />
    <path
       style="fill:#ffffff;stroke:none"
       d="m 245.6,1233.32 c -1.076,4.67 -1.187,8.92 0.229,12.53 0.588,1.49 2.344,2.16 3.807,1.5 3.775,-1.71 6.682,-4.41 8.209,-8.67 -2.591,-0.26 -3.703,-2.25 -3.852,-5.36 l -4.266,8.8 0.551,-6.6 c -2.181,0.59 -3.66,-0.31 -4.678,-2.2 z"
       id="path34" />
    <path
       style="fill:#ffffff;stroke:none"
       d="m 256.607,1244.55 -9.173,12.84 5.275,-9.79 c -2.339,1.63 -4.073,1.67 -5.551,1.4 l -4.579,4.79 c -2.102,2.2 -2.67,5.59 -1.065,8.18 0.552,0.88 1.272,1.58 2.155,2.1 1.599,0.94 3.632,0.68 4.986,-0.58 l 10.658,-9.95 c -2.419,-2.55 -3.142,-5.6 -2.706,-8.99 z"
       id="path36" />
    <path
       style="fill:#ffffff;stroke:none"
       d="m 236.27,1281.41 c 1.079,1 2.451,1.67 3.912,1.87 1.879,0.25 3.789,0.12 5.729,-0.37 1.717,-0.43 3.124,-1.7 3.685,-3.38 1.51,-4.54 2.352,-10.03 2.7,-16.22 -2.768,2.61 -5.711,3.78 -8.898,2.94 l -1.696,11.28 -0.184,-12.89 c -1.953,-1.61 -2.868,-3.66 -3.578,-6.28 -0.378,6.64 -1.69,12.62 -4.145,17.76 -0.446,0.93 -0.311,2.04 0.311,2.87 0.717,0.94 1.439,1.74 2.164,2.42 z"
       id="path38" />
    <path
       style="fill:#ffffff;stroke:none"
       d="m 262.936,1254.59 -2.339,-0.45 -4.448,4.34 c 1.762,5.42 5.067,8.28 9.723,8.91 -0.121,-4.59 -0.275,-8.62 1.238,-13.85 l -3.347,6.74 z"
       id="path40" />
    <path
       style="fill:#ffffff;stroke:none"
       d="m 267.044,1279.18 c 1.083,-0.75 1.57,-2.12 1.158,-3.37 -0.713,-2.17 -1.455,-4.27 -1.596,-6.67 l -4.976,-0.92 -0.345,6.88 -1.256,-7.71 c -3.513,-1.97 -3.88,-3.71 -5.578,-6.92 l -1.034,14.37 c -0.075,1.03 0.259,2.06 0.962,2.81 3.889,4.17 8.341,4.53 12.665,1.53 z"
       id="path42" />
    <path
       style="fill:#ffffff;stroke:none"
       d="m 227.175,1280.93 c 1.39,-0.09 2.612,-0.91 3.202,-2.17 2.689,-5.74 4.657,-12.15 5.453,-18.66 -2.778,1.91 -5.869,2.65 -8.53,1.29 l -2.89,12.47 0.597,-16.33 c -1.782,5.54 -4.304,10.95 -7.437,16.26 -0.714,1.21 -0.614,2.76 0.318,3.81 2.225,2.52 5.34,3.6 9.287,3.33 z"
       id="path44" />
    <path
       style="fill:#ffffff;stroke:none"
       d="m 231.72,1259.6 c 4.394,-1.53 8.738,-5.81 13.059,-11.33 -1.114,-1.69 -1.693,-3.82 -1.864,-6.28 l -2.82,0.45 -6.562,9.63 4.362,-9.44 -6.055,0.09 c -1.156,1.75 -2.845,2.89 -5.045,3.44 -1.528,5.16 -0.617,9.46 2.726,12.91 0.571,0.59 1.427,0.8 2.199,0.53 z"
       id="path46" />
    <path
       style="fill:#ffffff;stroke:none"
       d="m 144.65,1190.71 c -2.594,-0.69 -6.27,-4.81 -5.304,-9.02 -12.26,0.34 -23.292,-1.35 -32.855,-5.48 12.367,2.45 23.983,3.43 34.122,1.55 -3.803,-3.28 -5.594,-7.28 -5.361,-12 -20.132,3.31 -39.4108,5.72 -47.8417,-3.31 0.7877,26.95 26.5897,29.92 57.2397,28.26 z"
       id="path48" />
    <path
       style="fill:#ffffff;stroke:none"
       d="m 171.848,1175.11 -1.101,-5.23 c -9.906,0.35 -23.941,-1.23 -33.366,-4.54 -0.047,14.75 16.503,18.1 39.145,17.27 l -3.783,-5.84 c -6.012,0.14 -12.059,-0.51 -18.129,-1.66 5.297,0.39 10.883,0.53 17.234,0 z"
       id="path50" />
    <path
       style="fill:#ffffff;stroke:none"
       d="m 213.814,1175.87 c -3.328,0.78 -7.557,0.79 -12.314,0.34 l -2.821,-3.3 c -3.78,2.15 -7.357,0.99 -10.87,-1.24 -4.266,0.28 -10.595,-0.07 -14.791,-1.72 1.08,6.45 5.242,12.59 12.824,17.27 1.928,1.19 4.106,1.92 6.362,2.16 12.259,1.3 24.153,0.77 35.714,-1.4 l -2.27,-3.44 c -4.571,0.8 -7.972,-0.99 -10.802,-4.06 -9.214,1.39 -18.044,1.92 -26.417,1.44 9.153,-0.84 18.104,-1.89 26.762,-3.23 z"
       id="path52" />
    <path
       style="fill:#ffffff;stroke:none"
       d="m 229.844,1189.22 c -9.768,2.82 -24.836,3.57 -39.703,1.99 0.313,0.99 0.685,1.59 1.471,2.78 3.552,5.39 9.645,8.49 16.088,8.7 9.346,0.29 18.055,-1.71 26.273,-5.49 l 1.789,-2.69 5.503,-1.17 -0.344,-1.58 c -2.389,0.64 -4.71,0.75 -6.948,0.21 -8.196,3.15 -18.384,4.31 -29.515,4.54 10.968,-1.37 20.827,-2.94 26.832,-5.23 z"
       id="path54" />
    <path
       style="fill:#ffffff;stroke:none"
       d="m 234.317,1198.99 c -8.239,4.12 -18.925,5.89 -30.341,5.29 4.899,11.43 15.757,13.35 30.754,8.67 l 3.44,-1.24 c -0.754,-0.44 -1.468,-0.82 -2.082,-1.34 -1.572,-1.32 -1.311,-3.73 0.471,-4.75 0.182,-0.1 0.374,-0.21 0.578,-0.3 -5.125,1.78 -10.349,2.9 -15.685,3.3 6.597,-1.49 12.228,-3.39 16.443,-5.91 z"
       id="path56" />
    <path
       style="fill:#ffffff;stroke:none"
       d="m 236.243,1214.19 c -6.26,2.75 -13.416,3.51 -23.53,3.23 1.652,7.71 13.779,8.64 25.938,7.16 0.143,-1.98 1.146,-3.8 3.096,-5.44 -5.313,1.42 -10.84,1.63 -16.512,1.04 4.56,-0.56 9.103,-1.12 11.352,-2.34 z"
       id="path58" />
    <path
       style="fill:#ffffff;stroke:none"
       d="m 239.821,1225.95 c -4.958,1.45 -8.634,1.5 -14.501,1.15 -1.357,-0.09 -3.249,-0.46 -4.247,1.06 -0.643,0.97 -1.754,8.41 24.01,3.66 l 0.998,-3.8 c -3.756,1.77 -7.757,2.53 -11.936,2.54 3.55,-0.88 6.855,-1.84 8.77,-3.16 z"
       id="path60" />
    <path
       style="fill:#ffffff;stroke:none"
       d="m 243.742,1233.92 c -5.572,2.08 -10.033,1.81 -15.617,1.74 1.887,5.52 7.51,6.37 15.067,4.8 v -2.6 c -2.675,0.81 -4.939,0.9 -6.88,0.41 2.891,-0.19 5.425,-0.67 6.948,-2 z"
       id="path62" />
    <path
       style="fill:#ffffff;stroke:none"
       d="m 230.102,1241.59 c -0.765,-0.31 -2.397,-1.56 -3.353,-3.39 -2.577,2.37 -6.935,3.3 -11.834,3.79 4.621,-1.79 8.827,-3.83 11.55,-6.75 -2.068,-0.21 -3.951,-0.96 -5.977,-2.47 -3.195,3.03 -7.97,5.46 -13.277,7.69 4.837,4.97 13.196,6.28 22.891,1.13 z"
       id="path64" />
    <path
       style="fill:#ffffff;stroke:none"
       d="m 211.573,1276.98 c 1.584,-0.51 2.913,-1.64 3.709,-3.1 5.422,-9.94 8.817,-19.28 9.61,-27.84 -2.597,0.74 -5.055,1.17 -7.293,1.1 0,0 -6.897,15.26 -8.084,18.02 1.034,-2.78 6.364,-18.36 6.364,-18.36 -1.207,-0.29 -2.229,-0.53 -3.166,-0.76 -1.877,5.96 -5.289,12.49 -11.699,20.15 -0.748,0.89 -1.195,2.02 -1.191,3.18 0.01,3.02 1.344,4.7 2.641,6.12 2.608,2.16 5.66,2.59 9.109,1.49 z"
       id="path66" />
    <path
       style="fill:#ffffff;stroke:none"
       d="m 192.296,1267.41 c 0.192,0.08 0.387,0.16 0.585,0.22 2.525,0.78 5.258,-0.32 6.815,-2.45 4.942,-6.79 9.224,-13.51 10.886,-19.96 l -3.371,-1.58 c 0,0 -10.977,12.24 -11.965,13.45 0.923,-1.28 10.45,-15.1 10.45,-15.1 -5.053,4.59 -10.117,8.36 -15.191,11.05 -1.712,0.91 -2.879,2.64 -2.899,4.57 -0.028,2.8 0.658,5.32 2.097,7.54 0.636,0.98 1.515,1.81 2.593,2.26 z"
       id="path68" />
    <path
       style="fill:#ffffff;stroke:none"
       d="m 219.113,1231.53 c -0.474,-1.76 -0.243,-3.61 0.893,-5.58 -5.031,2.69 -9.942,3.19 -14.714,2.83 3.517,-0.44 7.327,-1.41 11.81,-3.61 -2.442,-0.6 -4.265,-1.94 -5.695,-3.76 -3.875,2.66 -9.165,4.43 -15.274,6.75 4.541,6.5 13.594,8.78 22.98,3.37 z"
       id="path70" />
    <path
       style="fill:#ffffff;stroke:none"
       d="m 208.07,1237.02 c -3.282,-0.22 -4.218,-0.41 -6.501,-1.5 -4.1,3.91 -8.672,7.15 -13.964,9.35 4.628,-3.22 8.847,-6.6 12.218,-10.31 -1.996,-0.74 -3.871,-2.35 -5.615,-4.89 -6.121,7.97 -14.763,15.2 -24.63,22.08 14.421,3.56 26.636,-2.95 38.492,-14.73 z"
       id="path72" />
    <path
       style="fill:#ffffff;stroke:none"
       d="m 209.596,1220.61 1.467,-4.59 -2.201,-1.83 c -11.009,3.67 -18.313,4.06 -26.969,3.76 11.562,-0.98 18.942,-1.83 25.318,-5.14 -1.229,-0.96 -3.468,-3.36 -4.311,-5.65 -11.971,7.37 -27.819,7.95 -46.142,4.19 13.304,17.89 31.043,20.54 52.838,9.26 z"
       id="path74" />
    <path
       style="fill:#ffffff;stroke:none"
       d="m 189.507,1194.19 c -13.653,3.58 -28.035,2.92 -43.023,-1.28 6.421,20.18 37.426,22.93 55.773,11.74 -2.086,-0.64 -4.128,-1.66 -6.124,-3.12 -8.165,2.71 -16.368,3.42 -24.606,2.2 8.823,-0.71 16.879,-1.02 23.025,-4.02 -1.664,-1.1 -3.689,-3.17 -5.045,-5.52 z"
       id="path76" />
    <path
       style="fill:#ffffff;stroke:none"
       d="m 188.245,1192.41 -5.803,-5.01 c -7.656,2.37 -15.409,2.29 -23.206,1.11 7.244,-0.15 14.4,-0.61 21.189,-2.39 l -2.202,-2.29 c -11.646,0.93 -24.497,0.7 -36.142,-4.5 -0.429,14.84 25.243,17.09 46.164,13.08 z"
       id="path78" />
    <path
       style="fill:#ffffff;stroke:none"
       d="m 192.9,1228.57 c -0.008,-0.17 -7.369,1.72 -14.937,0.03 -7.844,5.93 -17.948,8.94 -25.722,10.84 11.313,-3.34 19.263,-7.98 22.13,-12.06 -3.977,-1.33 -7.338,-2.94 -7.338,-2.94 -8.172,7.3 -21.675,11.04 -41.141,10.8 13.689,18.44 46.781,19.69 67.008,-6.67 z"
       id="path80" />
    <path
       style="fill:#ffffff;stroke:none"
       d="m 164.831,1223.27 c -0.886,-0.61 -3.627,-2.98 -4.816,-4.33 -12.489,4.2 -23.768,5.25 -33.712,2.82 12.953,0.41 23.682,-1.01 31.923,-4.49 -0.409,-0.6 -2.408,-2.8 -3.371,-5.42 -21.122,5.57 -37.323,4.07 -49.053,-3.85 12.08,27.68 39.765,28.57 59.029,15.27 z"
       id="path82" />
    <path
       style="fill:#ffffff;stroke:none"
       d="m 94.1066,1184.61 c 4.6005,26.2 32.1964,32.66 60.8174,25.31 l -6.192,-7.21 c -13.161,2.16 -24.548,2.28 -32.701,-1.32 10.931,1.12 21.35,0.83 31.325,-0.68 l -2.706,-7.3 c -20.423,2.28 -37.967,0.36 -50.5434,-8.8 z"
       id="path84" />
    <path
       style="fill:#ffffff;stroke:none"
       d="m 124.515,1232.49 c -3.367,-1.21 -6.316,-2.88 -8.737,-5.11 -5.855,0.67 -12.017,0.35 -18.4376,-0.81 6.2526,-0.04 11.9436,-0.38 16.0296,-1.58 -1.957,-1.52 -3.528,-3.46 -4.747,-5.78 -7.357,1.03 -15.4984,1.28 -24.2858,0.9 6.2582,15.04 19.6008,20.64 39.8348,17.06 -1.147,-1.81 -1.2,-3.4 0.343,-4.68 z"
       id="path86" />
    <path
       style="fill:#ffffff;stroke:none"
       d="m 52.8968,1188.73 c 1.4543,24.81 22.1304,32.24 54.5562,28.14 -1.839,-3.35 -3.96,-6.82 -4.609,-10.73 -9.551,1.04 -19.0431,0.5 -28.4826,-1.44 9.8128,0.59 19.6332,0.47 26.9696,-0.9 -1.6518,-1.83 -3.0109,-3.08 -4.472,-5.85 -16.151,1.95 -31.3033,0 -43.9622,-9.22 z"
       id="path88" />
    <path
       style="fill:#ffffff;stroke:none"
       d="m 95.4131,1196.3 c -1.7735,-2.63 -2.8294,-6.91 -3.3025,-10.94 -10.9357,0.1 -21.172,-0.78 -30.3396,-4.95 10.8276,2.38 21.1538,3.51 30.5469,2.32 -3.0191,-3.46 -4.9503,-7.19 -5.5041,-11.26 -17.7348,2.82 -31.9165,2.39 -40.5219,-3.17 0.3467,18.75 15.4456,28.83 49.1212,28 z"
       id="path90" />
    <path
       style="fill:#ffffff;stroke:none"
       d="m 52.8968,1200.57 c -1.0772,-2.13 -1.7514,-4.57 -2.0645,-7.09 -6.6323,-0.96 -12.7161,-2.72 -17.8186,-5.91 6.2673,2.42 12.121,3.8 17.4758,3.92 l 0.3428,-4.48 -4.1275,-4.4 c -8.0728,0.35 -16.0436,-0.53 -23.942,-2.27 -1.2889,0.16 -1.1008,1.78 0,4.75 4.4894,11.62 16.951,13.97 30.134,15.48 z"
       id="path92" />
    <path
       style="fill:#ffffff;stroke:none"
       d="m 60.6702,1211.44 c -10.442,-0.73 -17.9199,-2.59 -22.8412,-5.44 6.0061,2.17 12.7427,3.19 20.3646,2.82 -1.3187,-1.34 -3.1341,-3.79 -3.9903,-5.98 -9.0815,-0.76 -18.0936,-1.86 -24.8889,-4.85 -3.4662,-1.53 -3.662,-0.04 -2.4934,3.68 3.2849,10.44 19.1274,18.14 53.3537,18.57 -7.6081,-1.81 -14.1635,-4.69 -19.5045,-8.8 z"
       id="path94" />
    <path
       style="fill:#ffffff;stroke:none"
       d="m 70.8525,1225.61 c 4.8405,0.42 9.4212,0.45 13.4847,-0.27 l -1.2029,-2.79 c -6.86,0.66 -12.4806,0.05 -19.6446,-0.57 -1.7994,0.16 -3.902,-0.84 -3.8852,1.02 -0.0168,3.71 14.5679,10.11 29.1352,8.61 l -3.1638,-4.97 c -5.0142,0.66 -9.9103,0.21 -14.7234,-1.03 z"
       id="path96" />
    <path
       style="fill:#ffffff;stroke:none"
       d="m 192.666,1335.38 c 5.695,5.68 11.615,5.42 17.658,1.9 l -8.881,-18.54 c -0.31,-0.65 -0.809,-1.19 -1.443,-1.53 -6.137,-3.26 -11.022,-2.94 -14.377,1.76 -0.523,0.73 -0.584,1.7 -0.193,2.51 l 5.642,11.67 c 0.401,0.82 0.942,1.58 1.594,2.23 z"
       id="path98" />
    <path
       style="fill:#ffffff;stroke:none"
       d="m 177.478,1333.98 c 4.263,4.25 8.691,4.05 13.213,1.42 l -6.645,-13.88 c -0.232,-0.48 -0.605,-0.89 -1.079,-1.14 -4.592,-2.44 -8.248,-2.2 -10.758,1.31 -0.392,0.55 -0.437,1.28 -0.145,1.88 l 4.223,8.73 c 0.299,0.62 0.705,1.19 1.191,1.68 z"
       id="path100" />
    <path
       style="fill:#ffffff;stroke:none"
       d="m 165.318,1332.73 c 3.29,3.28 6.711,3.13 10.203,1.1 l -5.132,-10.72 c -0.178,-0.37 -0.467,-0.69 -0.833,-0.89 -3.546,-1.88 -6.37,-1.7 -8.309,1.02 -0.301,0.42 -0.336,0.98 -0.11,1.45 l 3.26,6.74 c 0.231,0.48 0.544,0.92 0.921,1.3 z"
       id="path102" />
    <path
       style="fill:#ffffff;stroke:none"
       d="m 156.129,1332.12 c 2.544,2.54 5.188,2.42 7.885,0.85 l -3.966,-8.28 c -0.137,-0.29 -0.361,-0.53 -0.643,-0.68 -2.741,-1.46 -4.922,-1.31 -6.42,0.78 -0.235,0.33 -0.261,0.76 -0.086,1.13 l 2.519,5.21 c 0.179,0.37 0.421,0.7 0.711,0.99 z"
       id="path104" />
    <path
       style="fill:#ffffff;stroke:none"
       d="m 151.374,1325.26 c -1.824,-1.06 -3.274,-0.95 -4.27,0.57 -0.156,0.24 -0.174,0.55 -0.057,0.81 l 1.676,3.79 c 0.118,0.27 0.279,0.51 0.473,0.72 1.691,1.84 3.448,1.76 5.243,0.62 l -2.637,-6.01 c -0.092,-0.21 -0.241,-0.39 -0.428,-0.5 z"
       id="path106" />
    <path
       style="fill:#ffffff;stroke:none"
       d="m 145.483,1326.2 c -1.306,-0.76 -3.447,1.51 -4.163,2.61 -0.111,0.17 -0.123,0.39 -0.041,0.58 0,0 3.922,3.96 6.405,1.48 l -1.892,-4.32 c -0.066,-0.15 -0.172,-0.28 -0.309,-0.35 z"
       id="path108" />
    <path
       style="fill:#ffffff;stroke:none"
       d="m 228.364,1324.56 c -1.693,0 -3.064,1.37 -3.064,3.06 0,1.7 1.371,3.07 3.064,3.07 1.691,0 3.063,-1.37 3.063,-3.07 0,-1.69 -1.372,-3.06 -3.063,-3.06 z"
       id="path110" />
    <path
       style="fill:#ffffff;stroke:none"
       d="m 173.554,1135.45 c -0.553,3.19 0.217,6.54 2.284,9.05 1.828,2.2 4.377,3.56 7.825,3.87 0.206,0.02 0.985,2.56 1.518,4 -1.515,3.29 -2.867,6.69 -4.105,10.14 0.217,-0.02 0.433,-0.03 0.661,-0.03 0.387,0 0.753,0.03 1.11,0.07 0.35,-0.04 0.711,-0.07 1.092,-0.07 0.045,0 0.086,0 0.13,0 0.819,-2.42 1.685,-4.83 2.696,-7.17 0.266,-0.62 0.559,-1.21 0.837,-1.82 0.87,0.01 1.712,0.03 1.774,0.15 1.567,3.08 3.78,4.94 6.508,5.82 3.091,0.99 6.487,0.45 9.249,-1.25 5.539,-3.42 11.032,-5.44 15.342,-5.4 -13.056,-12.13 -24.237,-13.2 -30.863,-1.14 -0.048,0.09 -0.54,0.03 -1.158,-0.03 5.133,-10.5 12.288,-19.74 20.603,-27.83 0.942,0.36 2.985,0.87 3.026,1.09 0.636,3.4 2.235,5.81 4.607,7.41 2.688,1.82 6.098,2.26 9.228,1.4 6.275,-1.71 12.116,-2.11 16.241,-0.86 -9.115,-15.32 -19.543,-19.49 -29.297,-9.78 -0.112,0.12 -1.215,-0.43 -2.221,-0.78 4.977,-4.68 10.34,-8.95 15.922,-12.83 1.511,-0.92 2.97,-1.76 3.104,-1.68 3.393,2.07 4.636,2.27 8.017,2.13 3.829,-0.16 7.38,-2.13 9.753,-5.14 4.758,-6.03 10.03,-10.51 14.829,-12.21 -19.405,-8.16 -33.562,-5.28 -34.87,13.85 0,0 -0.004,0 -0.004,0 -4.762,3.28 -9.422,6.75 -13.867,10.48 -0.075,-1.01 -0.267,-2.09 -0.136,-2.16 12.015,-6.72 10.861,-17.89 -1.37,-30.86 0.076,4.32 -1.909,9.82 -5.283,15.39 -1.683,2.77 -2.193,6.17 -1.182,9.26 0.893,2.72 2.77,4.92 5.868,6.46 0.165,0.08 0.02,2.19 -0.035,3.73 -8.67,7.56 -16.407,16.13 -22.28,26.09 -0.94,1.59 -1.816,3.23 -2.647,4.89 -0.442,-1 -1.163,-2.15 -1.058,-2.27 8.728,-10.65 3.57,-20.63 -12.555,-28.22 1.646,3.98 1.812,9.83 0.707,16.25 z m 36.029,14.62 c -3.705,5.29 -12.48,5.83 -17.929,2.98 6.04,-5.06 12.017,-6.03 17.929,-2.98 z m 22.894,-22.91 c -5.044,4.03 -13.617,2.08 -18.043,-2.19 7.218,-3.15 13.228,-2.4 18.043,2.19 z m 16.595,-33.22 c -1.965,7.37 -11.478,11.53 -18.681,10.58 4.652,-8.06 10.885,-11.56 18.681,-10.58 z m -34.233,0.81 c 3.096,5.89 2.164,11.87 -2.844,17.95 -2.893,-5.43 -2.418,-14.21 2.844,-17.95 z m -35.392,33.54 c 5.035,4.35 6.356,10.26 3.916,17.75 -4.679,-4 -7.445,-12.35 -3.916,-17.75 z"
       id="path112" />
    <path
       style="fill:#ffffff;stroke:none"
       d="m 337.226,1225.53 c -0.462,0.76 -0.561,1.63 -0.334,2.58 0.136,0.57 0.78,0.86 1.329,0.64 1.222,-0.47 2.309,-0.53 3.228,-0.09 0.485,0.23 0.837,0.68 1.048,1.18 l 2.335,5.52 c 0.83,1.61 3.031,0.5 2.619,-1.42 l -0.694,-2.71 c -0.54,-2.1 1.769,-3.78 3.604,-2.62 0.031,0.02 0.055,0.05 0.068,0.08 l 3.136,7.42 c 0.765,0.86 2.309,0.55 2.348,-1.14 -0.53,-1.84 -0.758,-3.67 -0.536,-5.48 0.133,-1.08 1.387,-1.58 2.248,-0.93 1.527,1.17 2.937,2.68 4.271,4.41 0.492,0.64 1.421,0.89 2.072,0.41 0.718,-0.52 0.924,-1.55 0.544,-3.16 l -2.202,-5.64 c -0.185,-1.54 1.405,-2.67 2.794,-1.99 l 4.637,2.26 c 1.121,-0.08 1.706,-0.53 0.894,-1.92 l -3.704,-3.64 c -0.324,-0.32 -0.563,-0.74 -0.624,-1.19 l -0.005,-0.04 c -0.223,-1.77 1.711,-2.99 3.207,-2.03 l 2.079,1.33 c 1.11,0.71 2.552,-0.15 2.461,-1.47 l -0.002,-0.02 c -0.035,-0.46 -0.304,-0.88 -0.675,-1.15 l -4.024,-2.98 c -0.662,-0.49 -1.102,-1.26 -1.079,-2.09 0.026,-0.89 0.575,-1.4 1.746,-1.45 l 3.453,0.75 c 1.214,0.26 2.15,-1.06 1.501,-2.12 l -4.16,-2.49 c -1.292,-0.77 -1.765,-2.51 -0.872,-3.73 0.397,-0.53 0.975,-0.87 1.593,-0.9 l 3.365,-0.54 c 0.907,-0.15 1.657,-0.93 1.597,-1.84 -0.008,-0.11 -0.023,-0.22 -0.05,-0.33 -0.188,-0.79 -0.952,-1.31 -1.762,-1.37 l -3.425,-0.23 c -0.648,-0.04 -1.282,-0.27 -1.79,-0.67 -1.56,-1.25 -1.951,-2.77 -0.707,-4.68 0.563,-0.87 1.525,-1.41 2.558,-1.47 l 7.439,-0.45 c 1.472,-0.08 2.842,-0.89 3.528,-2.19 2.037,-3.88 5.152,-6.09 9.432,-6.5 1.191,-0.11 2.216,-0.83 2.731,-1.92 2.754,-5.79 7.562,-7.59 14.133,-5.94 1.049,0.26 2.134,-0.19 2.705,-1.1 1.665,-2.69 4.983,-3.35 9.512,-2.54 0.932,0.17 1.882,0.23 2.83,0.23 l 16.977,0.06 c 7.718,-0.17 15.076,-0.74 21.946,-1.85 4.848,-0.7 9.372,-1.82 13.209,-3.86 1.858,-0.82 1.172,-2.82 -0.688,-2.54 -10.602,5.32 -35.6,3.92 -60.4,2.61 -1.72,-0.09 -3.435,0.24 -4.996,0.97 l -50.75,23.63 c -1.853,0.87 -3.079,2.68 -3.185,4.73 l -1.042,20.01 c -0.082,1.58 -0.055,3.16 -0.051,4.73 0.017,6.92 -6.133,8.61 -15.195,7.82 -0.876,-0.07 -1.771,0.29 -2.225,1.05 z"
       id="path114" />
    <path
       style="fill:#ffffff;stroke:none"
       d="m 340.639,1231.53 -2.339,1.24 3.99,12.79 c 1.462,4.19 4.012,5.95 6.969,6.81 0.873,0.26 1.819,-0.1 2.334,-0.85 1.937,-2.82 2.642,-5.85 1.842,-9.12 l -3.44,-9.63 c -0.427,3.11 -1.613,4.83 -3.439,5.36 l 1.882,8.6 c 0.006,0.03 -0.037,0.05 -0.052,0.02 z"
       id="path116" />
    <path
       style="fill:#ffffff;stroke:none"
       d="m 354.261,1238.68 c 1.528,4.26 4.435,6.96 8.211,8.67 1.461,0.66 3.217,-0.01 3.805,-1.5 1.417,-3.61 1.307,-7.86 0.23,-12.53 -1.018,1.89 -2.498,2.79 -4.678,2.2 l 0.55,6.6 -4.265,-8.8 c -0.15,3.11 -1.261,5.1 -3.853,5.36 z"
       id="path118" />
    <path
       style="fill:#ffffff;stroke:none"
       d="m 368.438,1264.07 c 0.882,-0.52 1.602,-1.22 2.154,-2.1 1.605,-2.59 1.038,-5.98 -1.064,-8.18 l -4.58,-4.79 c -1.478,0.27 -3.211,0.23 -5.551,-1.4 l 5.275,9.79 -9.172,-12.84 c 0.436,3.39 -0.287,6.44 -2.706,8.99 l 10.658,9.95 c 1.354,1.26 3.388,1.52 4.986,0.58 z"
       id="path120" />
    <path
       style="fill:#ffffff;stroke:none"
       d="m 366.196,1282.91 c 1.94,0.49 3.849,0.62 5.728,0.37 1.461,-0.2 2.833,-0.87 3.914,-1.87 0.724,-0.68 1.446,-1.48 2.162,-2.42 0.624,-0.83 0.758,-1.94 0.313,-2.87 -2.455,-5.14 -3.768,-11.12 -4.146,-17.76 -0.711,2.62 -1.626,4.67 -3.577,6.28 l -0.184,12.89 -1.697,-11.28 c -3.187,0.84 -6.129,-0.33 -8.898,-2.94 0.348,6.19 1.189,11.68 2.701,16.22 0.559,1.68 1.968,2.95 3.684,3.38 z"
       id="path122" />
    <path
       style="fill:#ffffff;stroke:none"
       d="m 348.344,1260.28 -3.348,-6.74 c 1.515,5.23 1.36,9.26 1.239,13.85 4.657,-0.63 7.961,-3.49 9.723,-8.91 l -4.449,-4.34 -2.339,0.45 z"
       id="path124" />
    <path
       style="fill:#ffffff;stroke:none"
       d="m 357.727,1277.65 c 0.704,-0.75 1.038,-1.78 0.964,-2.81 l -1.036,-14.37 c -1.697,3.21 -2.064,4.95 -5.578,6.92 l -1.255,7.71 -0.345,-6.88 -4.977,0.92 c -0.141,2.4 -0.883,4.5 -1.596,6.67 -0.41,1.25 0.075,2.62 1.158,3.37 4.324,3 8.776,2.64 12.665,-1.53 z"
       id="path126" />
    <path
       style="fill:#ffffff;stroke:none"
       d="m 384.932,1280.93 c 3.948,0.27 7.062,-0.81 9.287,-3.33 0.931,-1.05 1.033,-2.6 0.317,-3.81 -3.132,-5.31 -5.655,-10.72 -7.435,-16.26 l 0.596,16.33 -2.89,-12.47 c -2.662,1.36 -5.753,0.62 -8.531,-1.29 0.797,6.51 2.766,12.92 5.453,18.66 0.592,1.26 1.813,2.08 3.203,2.17 z"
       id="path128" />
    <path
       style="fill:#ffffff;stroke:none"
       d="m 380.387,1259.6 c 0.772,0.27 1.629,0.06 2.199,-0.53 3.343,-3.45 4.253,-7.75 2.725,-12.91 -2.197,-0.55 -3.889,-1.69 -5.045,-3.44 l -6.053,-0.09 4.361,9.44 -6.563,-9.63 -2.818,-0.45 c -0.173,2.46 -0.75,4.59 -1.866,6.28 4.322,5.52 8.665,9.8 13.06,11.33 z"
       id="path130" />
    <path
       style="fill:#ffffff;stroke:none"
       d="m 505.617,1176.21 c -9.564,4.13 -20.597,5.82 -32.856,5.48 0.965,4.21 -2.709,8.33 -5.305,9.02 30.65,1.66 56.453,-1.31 57.24,-28.26 -8.431,9.03 -27.71,6.62 -47.841,3.31 0.232,4.72 -1.559,8.72 -5.362,12 10.14,1.88 21.756,0.89 34.124,-1.55 z"
       id="path132" />
    <path
       style="fill:#ffffff;stroke:none"
       d="m 435.58,1182.61 c 22.643,0.83 39.193,-2.52 39.147,-17.27 -9.426,3.31 -23.46,4.89 -33.368,4.54 l -1.101,5.23 c 6.352,0.53 11.938,0.39 17.234,0 -6.068,1.15 -12.115,1.8 -18.127,1.66 z"
       id="path134" />
    <path
       style="fill:#ffffff;stroke:none"
       d="m 386.458,1184.54 -2.27,3.44 c 11.562,2.17 23.457,2.7 35.716,1.4 2.254,-0.24 4.432,-0.97 6.36,-2.16 7.583,-4.68 11.744,-10.82 12.825,-17.27 -4.196,1.65 -10.526,2 -14.792,1.72 -3.512,2.23 -7.09,3.39 -10.87,1.24 l -2.82,3.3 c -4.757,0.45 -8.986,0.44 -12.315,-0.34 l -1.377,2.82 c 8.659,1.34 17.609,2.39 26.763,3.23 -8.373,0.48 -17.204,-0.05 -26.418,-1.44 -2.83,3.07 -6.23,4.86 -10.802,4.06 z"
       id="path136" />
    <path
       style="fill:#ffffff;stroke:none"
       d="m 371.185,1191.76 -0.343,1.58 5.503,1.17 1.79,2.69 c 8.217,3.78 16.925,5.78 26.272,5.49 6.442,-0.21 12.536,-3.31 16.087,-8.7 0.786,-1.19 1.159,-1.79 1.472,-2.78 -14.868,1.58 -29.935,0.83 -39.704,-1.99 l -1.445,2.06 c 6.004,2.29 15.864,3.86 26.831,5.23 -11.131,-0.23 -21.317,-1.39 -29.513,-4.54 -2.239,0.54 -4.56,0.43 -6.95,-0.21 z"
       id="path138" />
    <path
       style="fill:#ffffff;stroke:none"
       d="m 373.937,1211.71 3.44,1.24 c 14.997,4.68 25.855,2.76 30.753,-8.67 -11.416,0.6 -22.101,-1.17 -30.34,-5.29 l -3.577,3.72 c 4.213,2.52 9.844,4.42 16.442,5.91 -5.336,-0.4 -10.561,-1.52 -15.686,-3.3 0.204,0.09 0.397,0.2 0.578,0.3 1.784,1.02 2.044,3.43 0.472,4.75 -0.614,0.52 -1.329,0.9 -2.082,1.34 z"
       id="path140" />
    <path
       style="fill:#ffffff;stroke:none"
       d="m 370.36,1219.14 c 1.95,1.64 2.953,3.46 3.096,5.44 12.159,1.48 24.286,0.55 25.937,-7.16 -10.114,0.28 -17.268,-0.48 -23.529,-3.23 l -0.344,3.65 c 2.249,1.22 6.791,1.78 11.352,2.34 -5.672,0.59 -11.2,0.38 -16.512,-1.04 z"
       id="path142" />
    <path
       style="fill:#ffffff;stroke:none"
       d="m 367.024,1231.82 c 25.764,4.75 24.653,-2.69 24.01,-3.66 -0.999,-1.52 -2.891,-1.15 -4.248,-1.06 -5.867,0.35 -9.543,0.3 -14.501,-1.15 l -3.092,1.45 c 1.915,1.32 5.219,2.28 8.769,3.16 -4.178,-0.01 -8.18,-0.77 -11.937,-2.54 z"
       id="path144" />
    <path
       style="fill:#ffffff;stroke:none"
       d="m 368.914,1237.86 v 2.6 c 7.558,1.57 13.181,0.72 15.068,-4.8 -5.584,0.07 -10.045,0.34 -15.618,-1.74 l 0.482,2.35 c 1.524,1.33 4.059,1.81 6.948,2 -1.941,0.49 -4.205,0.4 -6.88,-0.41 z"
       id="path146" />
    <path
       style="fill:#ffffff;stroke:none"
       d="m 404.896,1240.46 c -5.306,-2.23 -10.082,-4.66 -13.278,-7.69 -2.026,1.51 -3.909,2.26 -5.977,2.47 2.723,2.92 6.93,4.96 11.55,6.75 -4.899,-0.49 -9.257,-1.42 -11.834,-3.79 -0.956,1.83 -2.588,3.08 -3.352,3.39 9.694,5.15 18.053,3.84 22.891,-1.13 z"
       id="path148" />
    <path
       style="fill:#ffffff;stroke:none"
       d="m 400.534,1276.98 c 3.449,1.1 6.5,0.67 9.11,-1.49 1.295,-1.42 2.629,-3.1 2.64,-6.12 0.004,-1.16 -0.443,-2.29 -1.191,-3.18 -6.41,-7.66 -9.823,-14.19 -11.7,-20.15 -0.936,0.23 -1.958,0.47 -3.166,0.76 0,0 5.332,15.58 6.366,18.36 -1.188,-2.76 -8.086,-18.02 -8.086,-18.02 -2.237,0.07 -4.695,-0.36 -7.292,-1.1 0.793,8.56 4.189,17.9 9.609,27.84 0.797,1.46 2.126,2.59 3.71,3.1 z"
       id="path150" />
    <path
       style="fill:#ffffff;stroke:none"
       d="m 419.225,1267.63 c 0.199,-0.06 0.394,-0.14 0.586,-0.22 1.078,-0.45 1.957,-1.28 2.593,-2.26 1.439,-2.22 2.127,-4.74 2.096,-7.54 -0.02,-1.93 -1.185,-3.66 -2.898,-4.57 -5.075,-2.69 -10.137,-6.46 -15.192,-11.05 0,0 9.528,13.82 10.451,15.1 -0.989,-1.21 -11.965,-13.45 -11.965,-13.45 l -3.37,1.58 c 1.66,6.45 5.943,13.17 10.885,19.96 1.557,2.13 4.29,3.23 6.814,2.45 z"
       id="path152" />
    <path
       style="fill:#ffffff;stroke:none"
       d="m 415.973,1228.16 c -6.107,-2.32 -11.398,-4.09 -15.273,-6.75 -1.431,1.82 -3.253,3.16 -5.695,3.76 4.483,2.2 8.292,3.17 11.811,3.61 -4.773,0.36 -9.685,-0.14 -14.716,-2.83 1.136,1.97 1.368,3.82 0.895,5.58 9.385,5.41 18.437,3.13 22.978,-3.37 z"
       id="path154" />
    <path
       style="fill:#ffffff;stroke:none"
       d="m 442.528,1251.75 c -9.867,-6.88 -18.508,-14.11 -24.629,-22.08 -1.744,2.54 -3.618,4.15 -5.615,4.89 3.371,3.71 7.59,7.09 12.218,10.31 -5.291,-2.2 -9.864,-5.44 -13.964,-9.35 -2.283,1.09 -3.219,1.28 -6.502,1.5 11.856,11.78 24.071,18.29 38.492,14.73 z"
       id="path156" />
    <path
       style="fill:#ffffff;stroke:none"
       d="m 455.348,1211.35 c -18.321,3.76 -34.17,3.18 -46.139,-4.19 -0.846,2.29 -3.085,4.69 -4.313,5.65 6.376,3.31 13.756,4.16 25.319,5.14 -8.658,0.3 -15.962,-0.09 -26.969,-3.76 l -2.202,1.83 1.468,4.59 c 21.795,11.28 39.533,8.63 52.836,-9.26 z"
       id="path158" />
    <path
       style="fill:#ffffff;stroke:none"
       d="m 465.622,1192.91 c -14.988,4.2 -29.369,4.86 -43.021,1.28 -1.357,2.35 -3.382,4.42 -5.045,5.52 6.146,3 14.2,3.31 23.024,4.02 -8.238,1.22 -16.44,0.51 -24.607,-2.2 -1.994,1.46 -4.037,2.48 -6.123,3.12 18.347,11.19 49.351,8.44 55.772,-11.74 z"
       id="path160" />
    <path
       style="fill:#ffffff;stroke:none"
       d="m 433.883,1183.83 -2.2,2.29 c 6.788,1.78 13.944,2.24 21.189,2.39 -7.798,1.18 -15.552,1.26 -23.208,-1.11 l -5.803,5.01 c 20.922,4.01 46.594,1.76 46.164,-13.08 -11.643,5.2 -24.496,5.43 -36.142,4.5 z"
       id="path162" />
    <path
       style="fill:#ffffff;stroke:none"
       d="m 486.216,1235.24 c -19.468,0.24 -32.971,-3.5 -41.141,-10.8 0,0 -3.363,1.61 -7.339,2.94 2.867,4.08 10.816,8.72 22.13,12.06 -7.774,-1.9 -17.879,-4.91 -25.721,-10.84 -7.569,1.69 -14.929,-0.2 -14.939,-0.03 20.227,26.36 53.319,25.11 67.01,6.67 z"
       id="path164" />
    <path
       style="fill:#ffffff;stroke:none"
       d="m 506.305,1208 c -11.73,7.92 -27.931,9.42 -49.053,3.85 -0.964,2.62 -2.962,4.82 -3.371,5.42 8.241,3.48 18.97,4.9 31.922,4.49 -9.943,2.43 -21.222,1.38 -33.711,-2.82 -1.19,1.35 -3.929,3.72 -4.815,4.33 19.262,13.3 46.947,12.41 59.028,-15.27 z"
       id="path166" />
    <path
       style="fill:#ffffff;stroke:none"
       d="m 518,1184.61 c -12.576,9.16 -30.12,11.08 -50.544,8.8 l -2.706,7.3 c 9.975,1.51 20.395,1.8 31.326,0.68 -8.154,3.6 -19.541,3.48 -32.701,1.32 l -6.192,7.21 c 28.62,7.35 56.218,0.89 60.817,-25.31 z"
       id="path168" />
    <path
       style="fill:#ffffff;stroke:none"
       d="m 503.484,1219.21 c -1.22,2.32 -2.791,4.26 -4.747,5.78 4.085,1.2 9.777,1.54 16.03,1.58 -6.42,1.16 -12.583,1.48 -18.439,0.81 -2.421,2.23 -5.368,3.9 -8.737,5.11 1.543,1.28 1.491,2.87 0.345,4.68 20.232,3.58 33.575,-2.02 39.833,-17.06 -8.787,0.38 -16.928,0.13 -24.285,-0.9 z"
       id="path170" />
    <path
       style="fill:#ffffff;stroke:none"
       d="m 559.209,1188.73 c -12.658,9.22 -27.81,11.17 -43.96,9.22 -1.463,2.77 -2.82,4.02 -4.472,5.85 7.337,1.37 17.156,1.49 26.968,0.9 -9.439,1.94 -18.93,2.48 -28.482,1.44 -0.649,3.91 -2.77,7.38 -4.609,10.73 32.425,4.1 53.102,-3.33 54.555,-28.14 z"
       id="path172" />
    <path
       style="fill:#ffffff;stroke:none"
       d="m 550.335,1180.41 c -9.166,4.17 -19.403,5.05 -30.34,4.95 -0.471,4.03 -1.527,8.31 -3.302,10.94 33.677,0.83 48.775,-9.25 49.122,-28 -8.606,5.56 -22.787,5.99 -40.522,3.17 -0.554,4.07 -2.485,7.8 -5.505,11.26 9.394,1.19 19.72,0.06 30.547,-2.32 z"
       id="path174" />
    <path
       style="fill:#ffffff;stroke:none"
       d="m 589.343,1180.34 c -7.897,1.74 -15.867,2.62 -23.941,2.27 l -4.128,4.4 0.345,4.48 c 5.354,-0.12 11.208,-1.5 17.473,-3.92 -5.101,3.19 -11.184,4.95 -17.818,5.91 -0.312,2.52 -0.986,4.96 -2.065,7.09 13.183,-1.51 25.647,-3.86 30.134,-15.48 1.102,-2.97 1.29,-4.59 0,-4.75 z"
       id="path176" />
    <path
       style="fill:#ffffff;stroke:none"
       d="m 582.792,1197.99 c -6.795,2.99 -15.808,4.09 -24.889,4.85 -0.856,2.19 -2.669,4.64 -3.991,5.98 7.623,0.37 14.359,-0.65 20.365,-2.82 -4.921,2.85 -12.399,4.71 -22.84,5.44 -5.341,4.11 -11.897,6.99 -19.506,8.8 34.228,-0.43 50.07,-8.13 53.355,-18.57 1.168,-3.72 0.972,-5.21 -2.494,-3.68 z"
       id="path178" />
    <path
       style="fill:#ffffff;stroke:none"
       d="m 548.616,1221.98 c -7.164,0.62 -12.784,1.23 -19.643,0.57 l -1.204,2.79 c 4.065,0.72 8.645,0.69 13.485,0.27 -4.813,1.24 -9.71,1.69 -14.723,1.03 l -3.164,4.97 c 14.567,1.5 29.151,-4.9 29.136,-8.61 0.015,-1.86 -2.085,-0.86 -3.887,-1.02 z"
       id="path180" />
    <path
       style="fill:#ffffff;stroke:none"
       d="m 429.14,1333.34 c 4.592,2.44 8.248,2.2 10.759,-1.32 0.39,-0.54 0.437,-1.27 0.144,-1.88 l -4.223,-8.73 c -0.299,-0.62 -0.704,-1.18 -1.192,-1.67 -4.261,-4.25 -8.691,-4.06 -13.213,-1.42 l 6.645,13.87 c 0.233,0.49 0.606,0.9 1.08,1.15 z"
       id="path182" />
    <path
       style="fill:#ffffff;stroke:none"
       d="m 459.123,1328.92 c 0.233,-0.32 0.26,-0.76 0.084,-1.12 l -2.518,-5.21 c -0.179,-0.37 -0.421,-0.71 -0.712,-1 -2.543,-2.54 -5.185,-2.42 -7.884,-0.85 l 3.965,8.28 c 0.138,0.29 0.361,0.54 0.644,0.69 2.741,1.45 4.922,1.31 6.421,-0.79 z"
       id="path184" />
    <path
       style="fill:#ffffff;stroke:none"
       d="m 462.912,1322.56 c -1.691,-1.84 -3.45,-1.75 -5.244,-0.61 l 2.636,6.01 c 0.093,0.21 0.242,0.39 0.43,0.5 1.822,1.05 3.273,0.95 4.268,-0.57 0.157,-0.24 0.174,-0.56 0.058,-0.82 l -1.675,-3.78 c -0.12,-0.27 -0.28,-0.52 -0.473,-0.73 z"
       id="path186" />
    <path
       style="fill:#ffffff;stroke:none"
       d="m 464.423,1322.85 1.891,4.31 c 0.066,0.15 0.174,0.28 0.309,0.36 1.306,0.76 3.448,-1.52 4.164,-2.61 0.111,-0.17 0.125,-0.4 0.041,-0.59 0,0 -3.922,-3.95 -6.405,-1.47 z"
       id="path188" />
    <path
       style="fill:#ffffff;stroke:none"
       d="m 383.744,1330.69 c 1.691,0 3.063,-1.37 3.063,-3.07 0,-1.69 -1.372,-3.06 -3.063,-3.06 -1.693,0 -3.064,1.37 -3.064,3.06 0,1.7 1.371,3.07 3.064,3.07 z"
       id="path190" />
    <path
       style="fill:#ffffff;stroke:none"
       d="m 449.945,1273.49 c 2.634,3.73 5.872,5.73 9.598,6.35 4.22,0.7 8.546,-0.65 11.824,-3.4 6.57,-5.51 13.346,-9.2 18.977,-9.96 -19.344,-13.34 -34.13,-12.6 -40.467,4.4 -0.041,0.11 -0.473,0.28 -1.053,0.49 0.079,-1.01 0.151,-2.01 0.209,-3.02 0.375,-6.55 0.195,-13.04 -0.175,-19.55 -1.306,-0.08 -2.433,-0.42 -3.368,-0.96 0.049,0.98 0.1,1.97 0.143,2.96 0.496,11.58 -0.122,23.21 -2.301,34.79 -0.035,0.19 -0.099,0.36 -0.135,0.55 l -32.555,-3.97 -2.117,11.65 -57.917,-8.41 -0.765,5.27 62.998,9.14 2.139,-11.76 26.932,3.28 c -2.088,9.07 -4.796,17.94 -8.307,26.52 1.384,0.69 2.401,1.79 3.055,3.09 0.034,0.02 0.069,0.04 0.102,0.06 0.055,-0.14 0.108,-0.28 0.162,-0.41 l 4.793,10.01 c 0.179,0.37 0.469,0.69 0.834,0.88 3.546,1.89 6.37,1.7 8.308,-1.01 0.301,-0.43 0.338,-0.99 0.111,-1.46 l -3.261,-6.74 c -0.23,-0.48 -0.544,-0.91 -0.921,-1.29 -3.042,-3.04 -6.198,-3.13 -9.418,-1.52 3.07,-7.75 5.581,-15.7 7.523,-23.78 l -1.048,8.71 21.704,3.21 -1.031,6.96 11.009,-8.17 -8.167,-11.01 -1.031,6.96 -16.583,-2.46 1.538,-12.77 -4.472,-0.54 c 0.769,-4.28 1.403,-8.57 1.809,-12.91 0.659,-0.17 1.234,-0.31 1.324,-0.18 z m 28.565,-8.39 c -4.816,7.02 -16.373,7.84 -23.592,4.15 7.898,-6.74 15.761,-8.1 23.592,-4.15 z"
       id="path192" />
    <path
       style="fill:#ffffff;stroke:none"
       d="m 364.67,1103.67 c 2.373,3.01 5.924,4.98 9.752,5.14 3.383,0.14 4.625,-0.06 8.018,-2.13 0.17,-0.1 2.448,1.26 4.283,2.4 5.234,3.66 10.267,7.67 14.971,12.03 -1.06,0.34 -2.329,0.98 -2.45,0.86 -9.754,-9.71 -20.182,-5.54 -29.296,9.78 4.124,-1.25 9.965,-0.85 16.241,0.86 3.13,0.86 6.54,0.42 9.227,-1.4 2.374,-1.61 3.972,-4.01 4.607,-7.42 0.045,-0.24 2.504,-0.83 3.266,-1.18 8.428,8.08 15.684,17.35 20.922,27.87 -0.86,0.08 -1.654,0.2 -1.715,0.09 -6.628,-12.07 -17.809,-10.99 -30.865,1.14 4.311,-0.04 9.804,1.98 15.342,5.4 2.762,1.7 6.158,2.24 9.25,1.25 2.73,-0.88 4.94,-2.74 6.508,-5.82 0.077,-0.16 1.344,-0.14 2.382,-0.16 0.36,0.77 0.728,1.53 1.066,2.31 1.013,2.35 1.879,4.75 2.696,7.18 0.045,0 0.086,-0.01 0.131,-0.01 0.381,0 0.742,0.03 1.092,0.08 0.356,-0.05 0.723,-0.08 1.11,-0.08 0.227,0 0.444,0.02 0.661,0.04 -1.392,-3.88 -2.921,-7.7 -4.675,-11.38 0.497,-1.43 1.076,-3.24 1.249,-3.25 3.449,-0.31 5.997,-1.67 7.825,-3.87 2.07,-2.51 2.837,-5.86 2.285,-9.06 -1.106,-6.41 -0.94,-12.26 0.708,-16.24 -16.126,7.59 -21.283,17.57 -12.556,28.22 0.084,0.1 -0.364,0.86 -0.773,1.67 -0.668,-1.29 -1.36,-2.56 -2.095,-3.81 -6.061,-10.28 -14.116,-19.07 -23.125,-26.8 -0.06,-1.52 -0.183,-3.42 -0.027,-3.5 3.097,-1.54 4.974,-3.74 5.867,-6.47 1.011,-3.08 0.502,-6.48 -1.181,-9.25 -3.373,-5.57 -5.358,-11.07 -5.282,-15.39 -12.231,12.97 -13.385,24.14 -1.371,30.86 0.122,0.07 -0.039,1.01 -0.12,1.96 -4.318,-3.57 -8.828,-6.91 -13.429,-10.05 -0.043,0.06 -0.078,0.11 -0.116,0.16 -0.211,-0.2 -0.339,-0.34 -0.343,-0.4 -1.307,-19.12 -15.465,-22 -34.87,-13.84 4.8,1.7 10.071,6.18 14.83,12.21 z m 14.96,22.39 c 4.814,-4.59 10.824,-5.34 18.043,-2.19 -4.427,4.27 -12.999,6.22 -18.043,2.19 z m 22.893,22.91 c 5.912,-3.05 11.89,-2.08 17.931,2.98 -5.45,2.85 -14.225,2.31 -17.931,-2.98 z m 30.138,-21.78 c 3.527,5.4 0.761,13.75 -3.916,17.74 -2.441,-7.49 -1.119,-13.4 3.916,-17.74 z m -35.392,-33.54 c 5.26,3.74 5.737,12.52 2.843,17.95 -5.009,-6.08 -5.94,-12.06 -2.843,-17.95 z m -15.553,9.77 c -7.202,0.95 -16.717,-3.21 -18.681,-10.58 7.795,-0.98 14.03,2.52 18.681,10.58 z"
       id="path194" />
    <path
       style="fill:#ffffff;stroke:none"
       d="m 418.545,1353.24 c -0.048,0.06 -0.321,0.02 -0.717,-0.06 0.777,-0.84 1.546,-1.69 2.302,-2.56 4.169,-4.8 7.43,-10.04 10.272,-15.56 -1.492,-0.47 -2.647,-1.37 -3.469,-2.49 -0.028,0.06 -0.059,0.12 -0.089,0.17 -0.042,-0.17 -0.09,-0.34 -0.168,-0.5 l -5.642,-11.67 c -0.401,-0.83 -0.942,-1.59 -1.594,-2.24 -5.695,-5.68 -11.613,-5.41 -17.656,-1.9 l 8.88,18.55 c 0.31,0.64 0.809,1.19 1.443,1.53 5.253,2.79 9.585,2.94 12.829,-0.01 -0.624,1.2 -1.257,2.4 -1.902,3.6 -8.011,10.45 -17.354,19.45 -28.406,26.72 -13.023,8.57 -27.669,14.85 -42.627,19.17 0.621,-0.84 1.792,-2.92 2.012,-2.9 9.742,-0.48 12.463,-7.05 13.712,-11.65 2.651,-9.78 4.251,-12.15 6.503,-15.69 -22.223,3.96 -29.325,15.47 -22.749,27.15 0.072,0.13 -0.821,2.03 -1.529,3.68 -12.528,3.47 -25.346,5.86 -37.887,9.33 -1.583,0.44 -3.158,0.9 -4.738,1.36 -2.145,-0.62 -4.29,-1.25 -6.444,-1.85 -12.914,-3.57 -26.124,-5.99 -39.008,-9.64 -0.024,0 -0.046,-0.01 -0.07,-0.02 -0.618,-1.4 -1.235,-2.75 -1.176,-2.86 6.578,-11.68 -0.526,-23.19 -22.748,-27.15 2.251,3.54 3.851,5.91 6.503,15.69 1.249,4.6 3.969,11.17 13.711,11.65 0.159,-0.01 0.809,1.06 1.394,1.98 -14.45,-4.31 -28.57,-10.45 -41.172,-18.74 -11.051,-7.27 -20.394,-16.27 -28.405,-26.72 -0.48,-0.89 -0.944,-1.79 -1.414,-2.69 -1.021,0.55 -2.242,0.88 -3.677,0.88 -0.191,0 -0.372,-0.02 -0.557,-0.03 2.433,4.35 5.199,8.5 8.552,12.36 0.827,0.95 1.668,1.88 2.52,2.79 -0.929,0.23 -1.689,0.43 -1.773,0.32 -11.195,-14.27 -29.269,-11.36 -45.73,14.37 5.596,-0.98 9.385,-1.75 22.976,0 6.407,0.82 12.449,-0.95 16.259,-2.9 3.362,-1.72 5.84,-4.61 7.22,-8.96 0.104,-0.32 2.759,-0.17 3.367,-0.41 11.366,11.46 24.834,19.93 39.341,26.4 -1.928,1.41 -4.319,3.51 -4.503,3.39 -15.486,-9.45 -31.395,-0.39 -37.8,29.48 4.899,-2.88 10.868,-6 20.554,-7.88 6.34,-1.24 13.446,-0.53 17.283,-7.75 2.339,-4.4 1.754,-7.19 1.521,-11.75 -0.013,-0.26 4.1,-2.4 6.703,-3.86 12.066,5.04 24.769,8.79 37.525,11.8 6.439,1.52 12.838,3.19 19.2,4.98 -21.733,6.56 -43.126,14.14 -64.407,22.06 0,0 0.353,7.56 0.53,8.02 24.264,-9.43 48.717,-19.74 73.68,-27.2 24.32,7.35 48.164,17.42 71.824,26.62 v -8.21 c -20.475,-7.61 -41.057,-14.9 -61.949,-21.26 5.808,-1.62 11.643,-3.13 17.513,-4.52 12.764,-3.01 25.476,-6.77 37.548,-11.82 2.557,1.42 5.854,3.16 5.841,3.39 -0.231,4.56 -0.817,7.35 1.522,11.75 3.838,7.22 10.943,6.51 17.284,7.75 9.685,1.88 15.653,5 20.553,7.88 -6.406,-29.87 -22.313,-38.93 -37.8,-29.48 -0.162,0.1 -2.025,-1.5 -3.782,-2.85 14.694,-6.54 28.325,-15.13 39.791,-26.79 0.967,0.04 2.128,0.05 2.196,0.26 1.379,4.35 3.857,7.24 7.22,8.96 3.809,1.95 9.852,3.72 16.258,2.9 13.591,-1.75 17.38,-0.98 22.978,0 -16.462,-25.73 -34.537,-28.64 -45.732,-14.37 z m -52.135,8.36 c -2.538,9.62 -7.922,15.36 -13.447,17.68 -0.04,-7.67 3.863,-15.27 13.447,-17.68 z m -120.714,0 c 9.584,2.41 13.488,10.01 13.447,17.68 -5.524,-2.32 -10.907,-8.06 -13.447,-17.68 z m -86.506,-0.73 c 7.98,-10.74 19.504,-11.68 29.072,-7.65 -5.759,5.71 -15.726,9.46 -29.072,7.65 z m 43.778,43.45 c 3.715,-12.85 14.181,-17.77 24.553,-17.35 -3.396,7.36 -11.416,14.37 -24.553,17.35 z m 206.17,0 c -13.136,-2.98 -21.156,-9.99 -24.552,-17.35 10.374,-0.42 20.838,4.5 24.552,17.35 z m 14.706,-51.1 c 9.568,-4.03 21.092,-3.09 29.073,7.65 -13.347,1.81 -23.313,-1.94 -29.073,-7.65 z"
       id="path196" />
    <path
       style="fill:#ffffff;stroke:none"
       d="m 306.961,1372.81 c 18.392,0 33.301,-7.67 33.301,-17.13 h -66.601 c 0,9.46 14.91,17.13 33.3,17.13 z"
       id="path198" />
    <path
       style="fill:#ffffff;stroke:none"
       d="m 261.239,1193.46 c 0.031,0.06 0.061,0.12 0.092,0.18 5.47,-9.22 21.195,-2.32 26.241,1.01 2.055,1.36 3.476,3.54 3.776,5.99 1.462,11.93 -5.67,19.22 -15.89,21.53 2.752,6.47 8.382,4.65 15.273,0.28 -0.432,5.2 -0.91,11.28 1.244,14.49 5.763,-2.4 9.684,-11.05 12.929,-17.38 1.537,5.16 5.916,14.58 10.022,17.41 2.951,-5.12 3.646,-9.92 2.911,-15.81 5.048,8.36 12.247,7.06 16.145,0 -4.461,-2.25 -6.792,-6.99 -6.604,-14.68 3.017,1.47 6.071,1.4 9.172,-0.73 -8.438,-5.69 -7.336,-24.2 -16.144,-33.39 4.561,-1.57 8.448,-3.86 8.806,-9.91 -6.282,4.9 -10.145,4.58 -13.199,3.15 -0.867,-0.4 -1.823,-0.58 -2.78,-0.58 h -25.849 c -5.302,-0.54 -9.534,0.95 -11.376,6.97 l -7.936,3.41 c -6.988,2.99 -10.206,11.24 -6.833,18.06 z m 67.514,29.81 c -4.492,0.55 -9.23,-3.76 -8.989,-8.35 4.564,0.74 8.347,6.24 8.989,8.35 z m -44.948,0 c 1.622,-3.46 5.382,-7.25 9.816,-9.08 -1.875,3.47 -5.75,7.17 -9.816,9.08 z m 10.985,5.08 c -0.619,-5.08 1.08,-11.16 5.707,-13.03 0.599,5.31 -1.605,9.54 -5.707,13.03 z m 19.368,1.85 c -3.394,-3.83 -4.525,-8.44 -3.394,-13.86 3.788,3.58 4.509,8.36 3.394,13.86 z m -32.549,-54.45 c 0.012,-0.02 0.027,-0.05 0.041,-0.07 0,0 0.059,-0.1 0.17,-0.28 0.119,-0.2 0.35,-0.55 0.646,-0.9 0.306,-0.37 0.74,-0.79 1.315,-1.16 0.573,-0.38 1.29,-0.66 2.056,-0.82 0.769,-0.16 1.589,-0.21 2.427,-0.18 0.842,0.04 1.633,0.11 2.505,0.16 1.718,0.12 3.552,0.24 5.386,0.37 7.332,0.5 14.665,1 14.665,1 0,0 -7.351,0.05 -14.7,0.1 -0.973,0.01 -1.942,0.01 -2.898,0.02 -0.193,1.82 -1.634,3.24 -3.401,3.24 -1.671,0 -3.062,-1.27 -3.373,-2.94 -0.051,0.01 -0.115,0.02 -0.166,0.04 -1.155,0.32 -1.789,0.95 -2.165,1.48 -0.195,0.28 -0.298,0.46 -0.392,0.64 -0.097,0.19 -0.149,0.3 -0.149,0.3 -0.274,0.54 -0.937,0.76 -1.48,0.48 -0.542,-0.27 -0.761,-0.93 -0.487,-1.48 z"
       id="path200" />
    <path
       style="fill:#ffffff;stroke:none"
       d="m 289.621,1175.91 c 0.929,0 1.682,-0.72 1.682,-1.61 0,-0.89 -3.363,-0.89 -3.363,0 0,0.89 0.753,1.61 1.681,1.61 z"
       id="path202" />
    <path
       style="fill:#ffffff;stroke:none"
       d="m 145.745,1295.39 -8.166,11.01 11.008,8.17 -1.031,-6.96 21.704,-3.21 -0.967,-8.03 c 1.852,7.47 4.219,14.82 7.035,22 0.753,-0.25 1.593,-0.38 2.52,-0.38 0.651,0 1.255,0.07 1.821,0.19 -3.594,-8.67 -6.36,-17.65 -8.506,-26.84 l 26.963,-3.28 2.138,11.76 62.999,-9.14 -0.765,-5.27 -57.917,8.41 -2.118,-11.65 -32.592,3.97 c -0.069,-0.35 -0.192,-0.69 -0.258,-1.04 -2.178,-11.58 -2.798,-23.21 -2.3,-34.79 0.042,-0.99 0.093,-1.98 0.143,-2.96 -0.938,0.55 -2.063,0.89 -3.369,0.96 -0.371,6.51 -0.55,13.01 -0.176,19.55 0.074,1.28 0.17,2.56 0.276,3.83 -0.986,-0.35 -1.897,-0.65 -1.957,-0.81 -6.338,-17 -21.123,-17.74 -40.467,-4.4 5.631,0.76 12.406,4.45 18.977,9.96 3.277,2.75 7.605,4.1 11.823,3.4 3.726,-0.62 6.965,-2.62 9.599,-6.35 0.131,-0.18 1.28,0.18 2.227,0.43 0.42,4.25 1.061,8.47 1.832,12.67 l -4.4,0.53 1.538,12.77 -16.583,2.46 z m -12.149,-30.29 c 7.832,-3.95 15.696,-2.59 23.593,4.15 -7.218,3.69 -18.777,2.87 -23.593,-4.15 z"
       id="path204" />
  </g>
</svg>
