<?xml version="1.0" encoding="utf-8"?>
<!-- Generator: Adobe Illustrator 26.1.0, SVG Export Plug-In . SVG Version: 6.00 Build 0)  -->
<svg version="1.1"
	 id="Layer_1" xmlns:cc="http://creativecommons.org/ns#" xmlns:dc="http://purl.org/dc/elements/1.1/" xmlns:rdf="http://www.w3.org/1999/02/22-rdf-syntax-ns#"
	 xmlns="http://www.w3.org/2000/svg" xmlns:xlink="http://www.w3.org/1999/xlink" x="0px" y="0px" viewBox="0 0 198.5 62.2"
	 style="enable-background:new 0 0 198.5 62.2;" xml:space="preserve">
<style type="text/css">
	.st0{fill:#0033A0;}
	.st1{fill:#FFFFFF;}
</style>
<g transform="matrix(1.25 0 0 -1.25 -283.97 690.99)">
	<g>
		<path class="st0" d="M265,523.3l-5.4,5.4l5,5h3.7v5.9h-11.9v5.2h2.2v5.9h-13.4l0,0v-5.9l0,0h2.2v-5.2h-8.9v5.2h2.2l0,0v5.9l0,0
			h-13.2v-5.9h2.2v-11.1l0,0l0,0l3.7-3.7h5.2v-6.7h-2.2v-5.9h13.4v5.9h-2.3v1.5h4.1l2.6-2.6v-4.8h14.1v5.9l0,0L265,523.3L265,523.3z
			"/>
		<path class="st1" d="M267.6,518.1H255v4.5l0,0l-3,3h-5.2v-3h2.2v-4.5h-11.9v4.5h2.2v8.2h-5.6l-3.3,3.3v11.5l0,0h-2.2v4.5h11.9
			v-4.5h-2.2v-6.7h10.4v6.7h-2.2v4.5H258v-4.5h-2.2v-6.7h11.9v-4.5h-3.3l-5.9-5.8l6.1-6.1h3V518.1L267.6,518.1z"/>
		<path d="M355.7,552.4c-0.7,0-1.4-0.3-2-0.8c-0.8-0.7-1.2-1.6-1.2-3.2v-0.8l-1.4-0.4v-0.3h1.4v-5.7l-1.1-0.3v-0.3h3.8v0.3l-1.4,0.3
			v5.7h2v0.7h-2v1.4c0,1.6,0.4,2.3,1.1,2.7c0.5-0.8,0.8-1.1,1.3-1.1s0.8,0.3,0.8,0.8C357,552,356.5,552.4,355.7,552.4z M295.3,551.8
			c-0.6,0-1-0.5-1-1s0.4-0.9,0.9-0.9c0.6,0,1,0.5,1,1C296.2,551.4,295.9,551.8,295.3,551.8z M326.1,551.8c-0.6,0-1-0.5-1-1
			s0.4-0.9,0.9-0.9c0.6,0,1,0.5,1,1S326.6,551.8,326.1,551.8z M273.7,550.7v-0.4l1.6-0.3v-6.2c0-2.4,1.5-3.5,4-3.5s3.9,1.7,3.9,3.8
			v5.8l1.4,0.4v0.4H281v-0.4l1.4-0.4v-5.8c0-1.7-1-3.1-2.7-3.1c-1.8,0-3,0.8-3,3.1v5.9l1.7,0.3v0.4
			C278.5,550.7,273.7,550.7,273.7,550.7z M330.1,549.9l-0.7-1.9l-1.4-0.6v-0.3h1.2v-4.7c0-1.2,0.5-1.8,1.6-1.8
			c0.8,0,1.5,0.3,2.2,0.7v0.3c-0.4-0.1-0.8-0.1-1-0.1c-0.6,0-0.8,0-1,0.2c-0.3,0.2-0.4,0.6-0.4,1.2v4.3h2.5v0.8h-2.6v2.1h-0.4V549.9
			z M295.9,548l-2.3-0.6v-0.3l1.1-0.5v-5.4l-1.1-0.3v-0.3h3.5v0.3l-1.1,0.3L295.9,548C296,548,295.9,548,295.9,548z M326.6,548
			l-2.3-0.6v-0.3l1.1-0.5v-5.4l-1.1-0.3v-0.3h3.5v0.3l-1.1,0.3L326.6,548C326.7,548,326.6,548,326.6,548z M286.7,548l-2.2-0.6v-0.3
			l1.1-0.5v-5.4l-1.1-0.3v-0.3h3.5v0.3l-1.1,0.3v5.1c0.7,0.4,1.2,0.7,1.9,0.7c1,0,1.5-0.6,1.5-1.7v-4.1l-1.1-0.3v-0.3h3.5v0.3
			l-1.1,0.3v4.6c0,1.5-0.8,2.2-2,2.2c-0.9,0-1.6-0.4-2.6-1.3h-0.1l0.1,1.2L286.7,548z M314.2,548l-2.2-0.6v-0.3l1.1-0.5v-5.4
			l-1.1-0.3v-0.3h3.6v0.3l-1.2,0.3v4.7c0.4,0.7,1.1,1.3,1.6,1.2c-0.1-0.5,0.2-1.1,0.8-1.1c0.4,0,0.8,0.3,0.8,0.9c0,0.6-0.5,1-1.1,1
			c-0.8,0-1.4-0.4-2.1-1.5h-0.2l0.1,1.4C314.3,547.9,314.2,548,314.2,548z M320.8,548c-1.5,0-2.5-1-2.5-2.2c0-1.1,0.8-1.6,2.2-2.2
			c1.3-0.5,1.8-0.9,1.8-1.5c0-0.9-0.6-1.3-1.5-1.3c-1.1,0-1.7,0.6-2.2,2h-0.4v-2c0.8-0.3,1.5-0.4,2.4-0.4c1.6,0,2.8,0.9,2.8,2.3
			c0,1.1-0.7,1.6-2.4,2.3c-1.2,0.5-1.7,0.8-1.7,1.4c0,0.6,0.6,1.1,1.3,1.1c0.9,0,1.4-0.5,2.1-1.7l0.3,0.1v1.8
			C322.4,547.8,321.7,548,320.8,548z M308.4,548c-2,0-3.5-1.7-3.5-3.9s1.4-3.7,3.5-3.7c1,0,1.9,0.5,2.9,1.4l-0.1,0.3
			c-0.9-0.5-1.5-0.7-2.2-0.7c-1.9,0-2.7,1.2-2.7,3.2h5C311.4,546.3,310.4,548,308.4,548z M347,548c-2.3,0-3.7-1.8-3.7-3.8
			c0-2.2,1.2-3.8,3.4-3.8c2.3,0,3.6,1.8,3.6,3.9C350.4,546.4,349.3,548,347,548z M297,547.7v-0.3l1-0.3l2.8-6.6h0.4l2.6,6.5l1.2,0.5
			v0.3h-3v-0.3l1.1-0.5l-0.9-2.6l-0.8-2.1h-0.1l-1.9,4.8l1,0.3v0.3C300.5,547.7,297,547.7,297,547.7z M333.3,547.7v-0.3l1-0.3
			l2.8-6.6l-0.5-1.1c-0.2-0.5-0.5-1-0.8-1.3c-0.3,0.4-0.6,0.7-1.1,0.7c-0.4,0-0.8-0.3-0.8-0.8c0-0.4,0.3-0.9,1.1-0.9
			c0.9,0,1.5,0.5,2.2,2.1l3.1,7.6l1.1,0.5v0.3h-2.9v-0.3l1.2-0.5L338,542h-0.1l-1.9,4.9l1,0.3v0.3h-3.7V547.7z M308.3,547.5
			c1,0,1.5-0.8,1.6-2.4l-3.6-0.1C306.4,546.5,307.2,547.5,308.3,547.5z M346.8,547.5c1.2,0,2.1-1,2.1-3.3c0-2.4-0.8-3.4-2-3.4
			c-1.1,0-2.1,1-2.1,3.3C344.8,546.5,345.7,547.5,346.8,547.5z M361.4,538.1l-4.2-1.1v-0.5l2.2-0.9v-17.2l-2-0.5v-0.6h5.9v0.6
			l-1.7,0.5v5h1.3l3.6-4.9l-1.2-0.6v-0.6h5.4v0.6l-1.6,0.6l-4.9,6.2l4.1,3.9l1.9,0.7v0.6H365v-0.5l1.5-1l-3.6-4.1h-1.3v13.6
			C361.7,537.9,361.4,538.1,361.4,538.1z M274.2,535.1v-0.7l3-0.5v-15.4l-3-0.5v-0.7h8.5v0.7l-2.8,0.5v7.4h2.3l5.6-7.3l-1.9-0.7
			v-0.6h7.3v0.7l-2.3,0.8l-6.9,8.5l5.9,6.1l2.5,1v0.7h-6.3v-0.7l2.1-0.9l-5.7-6.6H280v6.9l2.8,0.5v0.7
			C282.6,535.1,274.2,535.1,274.2,535.1z M323.9,533.6l-1.3-3.3l-2.4-1.1v-0.6h2.2v-8.3c0-2.2,1-3.2,2.7-3.2c1.3,0,2.7,0.5,3.9,1.3
			v0.5c-0.7-0.1-1.4-0.2-1.8-0.2c-1,0-1.4,0.1-1.8,0.3c-0.6,0.4-0.7,1-0.7,2v7.5h4.3v1.4h-4.3v3.6
			C324.6,533.6,323.9,533.6,323.9,533.6z M309.6,530.3l-3.9-1v-0.5l2-0.9v-9.6l-2-0.5v-0.6h6.1v0.6l-1.9,0.5v8.9
			c1.1,0.8,2.2,1.3,3.3,1.3c1.8,0,2.6-1.1,2.6-3.1v-7.2l-1.9-0.5v-0.6h6.2v0.6l-2,0.5v8c0,2.6-1.3,3.9-3.5,3.9
			c-1.5,0-2.9-0.8-4.6-2.4l-0.2,0.1l0.2,2.1C309.9,530.1,309.6,530.3,309.6,530.3z M333.7,530.3l-4-1V529l2-0.8v-7.3
			c0-2.3,1.2-4,3.6-4c1.7,0,2.8,0.8,4.5,2.4l0.2-0.1l-0.2-2.1l0.2-0.2l4,1v0.5l-2,0.4v11.3l-0.3,0.2l-4-1V529l2-0.8v-8.3
			c-1.1-0.8-2.2-1.3-3.3-1.3c-1.7,0-2.5,1-2.5,3.2v8.4L333.7,530.3L333.7,530.3z M299,530.3c-3.5,0-6.1-3-6.1-6.9s2.5-6.5,6.1-6.5
			c1.8,0,3.4,0.9,5.1,2.5l-0.2,0.6c-1.6-0.9-2.5-1.3-3.9-1.3c-3.3,0-4.8,2.2-4.7,5.7h8.8C304.1,527.4,302.4,530.3,299,530.3z
			 M352.1,530.3c-4.1,0-6.9-3-6.9-7.1c0-3.8,2.5-6.3,6.1-6.3c1.8,0,3.6,0.8,4.9,2.4l-0.3,0.4c-1.4-0.7-2.3-1.1-3.7-1.1
			c-2.6,0-4.7,1.9-4.7,5.2c0,4,2.4,5.8,4.5,5.8c0.5,0,0.9-0.1,1.3-0.2c-0.3-0.3-0.5-0.9-0.5-1.5c0-0.8,0.6-1.7,1.6-1.7
			c0.9,0,1.5,0.7,1.5,1.7C356,529.2,354.5,530.3,352.1,530.3L352.1,530.3z M371.2,529.9v-0.6l1.7-0.6l4.8-11.6l-0.8-1.8
			c-0.4-0.9-0.9-1.7-1.5-2.2c-0.6,0.8-1.1,1.3-1.9,1.3s-1.4-0.6-1.4-1.3c0-0.8,0.6-1.6,1.9-1.6c1.6,0,2.7,1,3.8,3.7l5.4,13.3
			l1.9,0.9v0.6h-5.2v-0.6l2-0.8l-3-8.5h-0.1l-3.3,8.7l1.7,0.6v0.6h-6V529.9z M298.7,529.5c1.8,0,2.7-1.4,2.8-4.1l-6.2-0.2
			C295.5,527.7,296.9,529.5,298.7,529.5z"/>
		<path class="st0" d="M229,549.3v-3h2.2v-11.9l3-3h5.2v3h-2.2v11.9h2.2v3H229L229,549.3z M246.8,549.3v-3h2.2v-11.9h-2.2v-3h5.2
			l3,3v11.9h2.2v3H246.8L246.8,549.3z M237.9,538.1v-3h2.2v-13.4h-2.2v-3h10.4v3h-2.2v4.5h6.3l4.5-4.5h-1.1v-3h11.1v3h-2.6l-6.9,6.9
			l6.5,6.5h3v3h-11.1v-3h1.1l-4.5-4.5h-6.3v4.5h2.2v3C248.3,538.1,237.9,538.1,237.9,538.1z"/>
	</g>
</g>
<g>
	<g>
		<path d="M46.5,50.8c2.3,0,3.8,1.2,3.8,3.3c0,1.5-0.7,2.9-1.9,3.6c-1,0.6-1.9,0.9-3.3,0.9h-3l0.1-0.3c1-0.1,1.1-0.2,1.2-1.1
			l0.9-4.9c0.2-0.9,0.1-1-0.9-1.1l0.1-0.3h3V50.8z M44.3,57c-0.2,1,0.4,1.1,1.1,1.1c2.5,0,3.6-1.9,3.6-4.1c0-1.9-1-2.8-2.7-2.8
			c-0.7,0-0.9,0.1-1.1,0.7L44.3,57z"/>
		<path d="M52.4,58.7c-0.6,0-1.4-0.3-1.4-1.8c0-1.1,0.5-2.4,1.4-3.1c0.5-0.4,1.1-0.6,1.6-0.6c0.7,0,1.1,0.4,1.1,1
			c0,1.2-1.8,1.8-3.1,2c0,0.1,0,0.4,0,0.5c0,0.7,0.2,1.4,0.9,1.4c0.5,0,1.2-0.3,1.8-0.9l0.2,0.3C54,58.5,53,58.7,52.4,58.7z
			 M52.1,55.7c1.7-0.3,2.1-0.9,2.2-1.4c0-0.4-0.2-0.6-0.6-0.6C53.3,53.7,52.5,53.9,52.1,55.7z"/>
		<path d="M58,53.3c0.3-0.1,0.8-0.1,1.1-0.1c1.3,0,1.7,0.6,1.7,1.6c0,0.8-0.3,1.8-1,2.5c-0.6,0.7-1.5,1.2-2.2,1.4
			c-0.2,0-0.5,0-0.7-0.1l-0.3,1.7c-0.1,0.7-0.1,0.8,0.5,0.8h0.3v0.3l-2.8,0.1l0.1-0.3c0.8-0.1,0.9-0.2,1.1-1
			c0.5-2.1,0.9-4.2,1.3-6.3c-0.4,0.1-0.7,0.3-1,0.4L56,54c0.3-0.2,0.8-0.4,1.2-0.6l0.1-0.6c0.2-0.3,0.6-0.5,0.9-0.7l0.1,0.1L58,53.3
			z M57.1,57.7c0.1,0.2,0.4,0.4,0.7,0.4c0.9,0,2-1.6,2-3.1c0-1.1-0.6-1.3-1.3-1.3c-0.2,0-0.4,0-0.7,0.1C57.7,55,57.3,56.5,57.1,57.7
			z"/>
		<path d="M66.9,57.5c-0.6,0.8-1.3,1.2-1.7,1.2c-0.3,0-0.5-0.3-0.3-1.4l0.2-0.8c-0.4,0.7-1.1,1.3-1.4,1.6c-0.4,0.3-0.8,0.6-1.2,0.6
			s-0.8-0.5-0.8-1.5c0-1.1,0.5-2.4,1.3-3.1c0.6-0.6,1.5-0.9,2.3-0.9c0.6,0,1.2,0.2,1.4,0.2c-0.2,0.8-0.6,2.6-0.9,4
			c-0.1,0.3,0,0.5,0.1,0.5s0.4-0.2,0.8-0.6L66.9,57.5z M64.7,56.5c0.3-0.3,0.6-0.9,0.7-1.4s0.2-0.9,0.3-1.2
			c-0.2-0.1-0.6-0.2-0.9-0.2c-1.4,0-2.1,1.8-2.1,3.4c0,0.5,0.1,0.8,0.4,0.8C63.5,57.8,64,57.5,64.7,56.5z"/>
		<path d="M67.8,54.3c0.6-0.7,1.2-1.1,1.6-1.1s0.4,0.6,0.1,1.7l-0.1,0.3c0.6-1.1,1.5-2,2-2c0.3,0,0.6,0.2,0.6,0.5s-0.3,0.6-0.5,0.8
			c-0.1,0.1-0.2,0.1-0.3,0c-0.1-0.1-0.3-0.3-0.4-0.3c-0.3,0-0.9,0.9-1.1,1.3c-0.4,0.8-0.6,1.9-0.9,3c-0.3,0-0.6,0.2-0.9,0.2
			l-0.1-0.1c0.3-1.1,0.7-2.9,0.9-3.8c0.1-0.7,0.1-0.8,0-0.8s-0.4,0.2-0.8,0.6L67.8,54.3z"/>
		<path d="M75.4,53.7c-0.2,0-0.9,0.1-1.2,0.1c-0.5,2.5-0.7,3.3-0.8,3.6c-0.1,0.4,0,0.5,0.1,0.5c0.2,0,0.6-0.3,1.1-0.8l0.2,0.3
			c-0.4,0.6-1.3,1.3-1.8,1.3c-0.4,0-0.6-0.3-0.3-1.7l0.7-3.2h-1v-0.1l0.3-0.4h0.7l0.3-1.3c0.2-0.1,0.7-0.4,0.9-0.7l0.1,0.1
			c-0.1,0.5-0.3,1.3-0.5,1.9h1.3L75.4,53.7z"/>
		<path d="M83.5,53.1c0.4,0,0.8,0.2,0.4,1.7c-0.2,0.7-0.4,1.8-0.6,2.5c-0.1,0.3-0.1,0.4,0,0.4s0.5-0.2,0.9-0.6l0.2,0.3
			c-0.6,0.8-1.4,1.2-1.8,1.2c-0.3,0-0.5-0.3-0.2-1.3c0.2-0.8,0.4-1.8,0.6-2.6c0.2-0.7,0.1-0.8-0.1-0.8c-0.4,0-1.4,0.7-2.2,2
			c-0.2,0.3-0.3,0.6-0.4,1C80.2,57.4,80,58,80,58.5c-0.3,0-0.6,0.1-0.9,0.2L79,58.6c0.3-1.2,0.6-2.4,0.9-3.6
			c0.2-0.7,0.1-1.1-0.1-1.1c-0.4,0-1.4,0.7-2.1,2c-0.2,0.3-0.3,0.6-0.4,1C77.2,57.4,77,58,77,58.4c-0.3,0-0.6,0.1-0.9,0.2L76,58.5
			c0.3-1.2,0.7-2.8,1-4.1c0.1-0.4,0-0.5,0-0.5c-0.1,0-0.5,0.3-0.8,0.5l-0.3-0.1c0.6-0.7,1.2-1.1,1.6-1.1c0.3,0,0.4,0.5,0.2,1.4
			l-0.2,0.8c1.1-1.5,2.2-2.2,2.8-2.2c0.4,0,0.7,0.3,0.4,1.8l-0.1,0.4C81.7,53.9,82.9,53.1,83.5,53.1z"/>
		<path d="M86.8,58.7c-0.6,0-1.4-0.3-1.4-1.8c0-1.1,0.5-2.4,1.4-3.1c0.5-0.4,1.1-0.6,1.6-0.6c0.7,0,1.1,0.4,1.1,1
			c0,1.2-1.8,1.8-3.1,2c0,0.1,0,0.4,0,0.5c0,0.7,0.2,1.4,0.9,1.4c0.5,0,1.2-0.3,1.8-0.9l0.2,0.3C88.3,58.5,87.4,58.7,86.8,58.7z
			 M86.5,55.7c1.7-0.3,2.1-0.9,2.2-1.4c0-0.4-0.2-0.6-0.6-0.6C87.7,53.7,86.9,53.9,86.5,55.7z"/>
		<path d="M95.7,57.5c-0.6,0.8-1.4,1.2-1.7,1.2c-0.3,0-0.5-0.3-0.3-1.3c0.2-0.9,0.4-1.7,0.6-2.5s0.1-1-0.2-1c-0.4,0-1.3,0.7-2.1,1.9
			c-0.2,0.3-0.3,0.6-0.4,1c-0.1,0.5-0.3,1.1-0.4,1.6c-0.3,0.1-0.6,0.2-0.9,0.2l-0.1-0.1c0.3-1.3,0.7-2.8,1-4.1
			c0.1-0.4,0-0.5-0.1-0.5s-0.4,0.3-0.7,0.6l0-0.2c0.6-0.7,1.2-1.1,1.6-1.1c0.3,0,0.4,0.4,0.2,1.5L92,55.3c1.1-1.4,2.1-2.2,2.9-2.2
			c0.4,0,0.8,0.3,0.4,1.9c-0.2,0.7-0.4,1.6-0.6,2.3c-0.1,0.3-0.1,0.5,0,0.5s0.5-0.2,0.9-0.6L95.7,57.5z"/>
		<path d="M99.9,53.7c-0.2,0-0.9,0.1-1.2,0.1c-0.5,2.5-0.7,3.3-0.8,3.6c-0.1,0.4,0,0.5,0.1,0.5c0.2,0,0.6-0.3,1.1-0.8l0.2,0.3
			c-0.4,0.6-1.3,1.3-1.8,1.3c-0.4,0-0.6-0.3-0.3-1.7l0.7-3.2h-1v-0.1l0.3-0.4h0.7l0.3-1.3c0.2-0.1,0.7-0.4,0.9-0.7l0.1,0.1
			c-0.1,0.5-0.3,1.3-0.5,1.9h1.3L99.9,53.7z"/>
		<path d="M107.8,55c0,1.2-0.6,2.5-1.7,3.2c-0.4,0.3-0.9,0.5-1.5,0.5c-1.1,0-1.6-0.9-1.6-1.9c0-1.7,0.9-2.8,1.9-3.4
			c0.4-0.2,0.9-0.3,1.2-0.3C107.2,53.1,107.8,53.8,107.8,55z M104.1,56.7c0,0.9,0.3,1.5,1,1.5c1.1,0,1.7-1.8,1.7-3.1
			c0-1-0.4-1.4-1-1.4C104.6,53.6,104.1,55.5,104.1,56.7z"/>
		<path d="M109.9,53.3c0.2-0.9,0.5-1.8,1-2.4c0.6-0.6,1.3-0.9,1.7-0.9c0.4,0,0.8,0.2,0.8,0.5c0,0.2-0.2,0.5-0.4,0.6
			c-0.1,0.1-0.2,0.1-0.3,0c-0.3-0.3-0.6-0.5-0.8-0.5c-0.5,0-0.8,0.5-1.2,2.7h1.4l-0.2,0.4c-0.2,0-0.9,0.1-1.2,0.1
			c-0.2,1.3-0.4,2.1-0.6,3.5c-0.4,2.1-0.9,3-1.5,3.6c-0.5,0.6-1.1,0.8-1.4,0.8c-0.4,0-0.8-0.2-0.8-0.5c0-0.2,0.2-0.5,0.4-0.7
			c0.1-0.1,0.2-0.1,0.2,0c0.2,0.2,0.5,0.4,0.8,0.4c0.7,0,0.9-0.8,1.3-3.2c0.3-1.6,0.5-2.7,0.7-3.9h-1v-0.1l0.3-0.3L109.9,53.3
			L109.9,53.3z"/>
		<path d="M121.7,52.9c0.1-1.4-0.5-1.8-1.8-1.8c-2.2,0-3.6,2-3.6,4.2c0,1.9,0.9,3.1,2.6,3.1c0.6,0,1.2-0.2,1.4-0.9l0.2-1.1
			c0.2-0.9,0.1-0.9-1.1-1l0.1-0.3h3l-0.1,0.3c-0.7,0.1-0.8,0.1-1,1l-0.2,1c-0.1,0.4-0.1,0.7-0.1,1c-0.7,0.2-1.5,0.4-2.5,0.4
			c-2.1,0-3.6-1.3-3.6-3.5c0-2.7,2.1-4.7,5-4.7c1,0,1.8,0.2,2.2,0.3c-0.1,0.4-0.2,1.1-0.3,1.9L121.7,52.9z"/>
		<path d="M124.6,58.7c-0.6,0-1.4-0.3-1.4-1.8c0-1.1,0.5-2.4,1.4-3.1c0.5-0.4,1.1-0.6,1.6-0.6c0.7,0,1.1,0.4,1.1,1
			c0,1.2-1.8,1.8-3.1,2c0,0.1,0,0.4,0,0.5c0,0.7,0.2,1.4,0.9,1.4c0.5,0,1.2-0.3,1.8-0.9l0.2,0.3C126.1,58.5,125.2,58.7,124.6,58.7z
			 M124.3,55.7c1.7-0.3,2.1-0.9,2.2-1.4c0-0.4-0.2-0.6-0.6-0.6S124.6,53.9,124.3,55.7z"/>
		<path d="M132.8,55c0,1.2-0.6,2.5-1.7,3.2c-0.4,0.3-0.9,0.5-1.5,0.5c-1.1,0-1.6-0.9-1.6-1.9c0-1.7,0.9-2.8,1.9-3.4
			c0.4-0.2,0.9-0.3,1.2-0.3C132.2,53.1,132.8,53.8,132.8,55z M129,56.7c0,0.9,0.3,1.5,1,1.5c1.1,0,1.7-1.8,1.7-3.1
			c0-1-0.4-1.4-1-1.4C129.6,53.6,129,55.5,129,56.7z"/>
		<path d="M135.4,57.1c-0.2,0.2-0.3,0.3-0.3,0.4c0,0.2,0.2,0.4,1,0.8c1.3,0.6,1.7,1,1.7,1.5c0,1-1.7,1.9-2.9,1.9s-2.2-0.6-2.2-1.4
			c0-0.5,0.7-1,2-1.8c-0.3-0.2-0.4-0.4-0.4-0.6c0-0.2,0.3-0.5,0.8-0.9L135.4,57.1z M136.8,60.2c0-0.3-0.1-0.5-0.6-0.8
			s-1-0.6-1.3-0.7c-0.9,0.5-1.4,1-1.4,1.4c0,0.6,0.8,1.1,1.7,1.1C136.2,61.2,136.8,60.7,136.8,60.2z M133.9,55.7
			c0-0.9,0.5-1.8,1.2-2.2c0.4-0.3,1-0.4,1.3-0.4c0.4,0,0.7,0.1,1,0.3c0.7,0,1.1-0.1,1.3-0.3l0.1,0.3c-0.3,0.4-0.7,0.5-1.1,0.6
			c0,0.2,0.1,0.3,0.1,0.6c0,0.9-0.4,1.5-0.8,1.9c-0.5,0.4-1.2,0.7-1.8,0.7C134.3,57.1,133.9,56.5,133.9,55.7z M136.9,54.8
			c0-0.7-0.3-1.2-0.8-1.2c-0.7,0-1.3,0.9-1.3,2c0,0.7,0.3,1.1,0.8,1.1C136.3,56.7,136.9,55.8,136.9,54.8z"/>
		<path d="M138.8,54.3c0.6-0.7,1.2-1.1,1.6-1.1c0.4,0,0.4,0.6,0.1,1.7l-0.1,0.3c0.6-1.1,1.5-2,2-2c0.3,0,0.6,0.2,0.6,0.5
			s-0.3,0.6-0.5,0.8c-0.1,0.1-0.2,0.1-0.3,0s-0.3-0.3-0.4-0.3c-0.3,0-0.9,0.9-1.1,1.3c-0.4,0.8-0.6,1.9-0.9,3
			c-0.3,0-0.6,0.2-0.9,0.2l-0.1-0.1c0.3-1.1,0.7-2.9,0.9-3.8c0.1-0.7,0.1-0.8,0-0.8s-0.4,0.2-0.8,0.6L138.8,54.3z"/>
		<path d="M148.4,57.5c-0.6,0.8-1.3,1.2-1.7,1.2s-0.5-0.3-0.3-1.4l0.2-0.8c-0.4,0.7-1.1,1.3-1.4,1.6c-0.4,0.3-0.8,0.6-1.2,0.6
			s-0.8-0.5-0.8-1.5c0-1.1,0.5-2.4,1.3-3.1c0.6-0.6,1.5-0.9,2.3-0.9c0.6,0,1.2,0.2,1.4,0.2c-0.2,0.8-0.6,2.6-0.9,4
			c-0.1,0.3,0,0.5,0.1,0.5s0.4-0.2,0.8-0.6L148.4,57.5z M146.2,56.5c0.3-0.3,0.6-0.9,0.7-1.4c0.1-0.5,0.2-0.9,0.3-1.2
			c-0.2-0.1-0.6-0.2-0.9-0.2c-1.4,0-2.1,1.8-2.1,3.4c0,0.5,0.1,0.8,0.4,0.8C144.9,57.8,145.5,57.5,146.2,56.5z"/>
		<path d="M151.4,53.3c0.3-0.1,0.8-0.1,1.1-0.1c1.3,0,1.7,0.6,1.7,1.6c0,0.8-0.3,1.8-1,2.5c-0.6,0.7-1.5,1.2-2.2,1.4
			c-0.2,0-0.5,0-0.7-0.1l-0.3,1.7c-0.1,0.7-0.1,0.8,0.5,0.8h0.3v0.3l-2.8,0.1l0.1-0.3c0.8-0.1,0.9-0.2,1.1-1
			c0.5-2.1,0.9-4.2,1.3-6.3c-0.4,0.1-0.7,0.3-1,0.4l-0.1-0.3c0.3-0.2,0.8-0.4,1.2-0.6l0.1-0.6c0.2-0.3,0.6-0.5,0.9-0.7l0.1,0.1
			L151.4,53.3z M150.4,57.7c0.1,0.2,0.4,0.4,0.7,0.4c0.9,0,2-1.6,2-3.1c0-1.1-0.6-1.3-1.3-1.3c-0.2,0-0.4,0-0.7,0.1
			C151,55,150.7,56.5,150.4,57.7z"/>
		<path d="M155.8,50.3c0.6-0.1,1.1-0.2,1.5-0.3c0.2-0.1,0.3-0.1,0.3-0.1c0.1,0,0.1,0.1,0.1,0.4c-0.3,1.5-0.8,3.4-1.1,5
			c1-1.3,2.2-2.2,2.9-2.2c0.4,0,0.8,0.2,0.4,1.7c-0.2,0.7-0.4,1.8-0.6,2.5c-0.1,0.3-0.1,0.5,0,0.5s0.4-0.1,0.8-0.6l0.2,0.3
			c-0.6,0.8-1.4,1.2-1.7,1.2s-0.4-0.4-0.2-1.2s0.5-1.9,0.7-2.7c0.2-0.7,0.1-0.9-0.2-0.9c-0.4,0-1.3,0.6-2.1,1.9
			c-0.2,0.3-0.3,0.6-0.4,1c-0.1,0.5-0.3,1.2-0.4,1.7c-0.3,0-0.6,0.1-0.9,0.2l-0.1-0.1c0.5-2.3,1.1-5.2,1.6-7.4
			c0.1-0.5,0-0.5-0.3-0.5c-0.1,0-0.4,0-0.5,0V50.3z"/>
		<path d="M161.2,54.3c0.4-0.6,1-1.2,1.5-1.2s0.6,0.8,0.6,1.8c0.1,1,0.1,2.1,0.2,2.9c0.5-0.8,1.7-2.5,1.7-3.4c0-0.2-0.1-0.5-0.2-0.6
			c-0.1-0.1-0.1-0.3,0-0.4c0.1-0.2,0.4-0.3,0.6-0.3c0.3,0,0.4,0.3,0.4,0.7c0,0.3-0.1,0.8-0.4,1.4c-1,1.8-3,4.6-4.4,6.1l-1.2,0.3
			l-0.1-0.3c1.2-0.8,2.2-1.8,2.7-2.5c0-1-0.2-2.7-0.3-3.8c-0.1-0.7-0.2-1-0.3-1s-0.5,0.3-0.7,0.6L161.2,54.3z"/>
	</g>
</g>
</svg>
