<?xml version="1.0" encoding="utf-8"?>
<!-- Generator: Adobe Illustrator 26.2.1, SVG Export Plug-In . SVG Version: 6.00 Build 0)  -->
<svg version="1.1" id="Layer_1" xmlns="http://www.w3.org/2000/svg" xmlns:xlink="http://www.w3.org/1999/xlink" x="0px" y="0px"
	 viewBox="0 0 433.6 300.9" style="enable-background:new 0 0 433.6 300.9;" xml:space="preserve">
<style type="text/css">
	.st0{fill:#A91916;}
</style>
<path class="st0" d="M214.17,196.6c0,33.36,0.01,66.73-0.01,100.09c0,4.95-0.06,4.95-4.81,2.97
	c-40.99-17.06-83.66-24.94-128.05-23.08c-25.74,1.08-50.83,5.88-75.24,14.16c-1.18,0.4-2.39,0.74-3.55,1.19
	c-2.07,0.82-2.68,0.09-2.46-2c0.67-6.46,1.15-12.94,1.87-19.4c6.51-58.25,15.78-116.1,25.17-173.93c0.58-3.56,1.69-5.43,5.57-4.74
	c1.33,0.24,2.74,0.04,4.12,0.04c5.96,0,5.9-0.01,5.07,6.07c-7.16,51.85-14.29,103.7-21.42,155.55c-0.7,5.07-0.66,5.02,4.51,4.27
	c36.55-5.32,73.14-6.79,109.76-0.83c20.4,3.32,39.93,9.17,57.15,21.16c1.74,1.21,3.37,2.59,5.05,3.88c0.4,0.31,0.49,1.31,1.34,0.61
	c0.84-0.69,0.39-1.3-0.14-1.88c-0.84-0.92-1.68-1.85-2.56-2.73c-12.7-12.63-28.22-20.48-44.87-26.34
	c-27-9.49-55.04-13.33-83.46-14.91c-12.49-0.69-24.98-0.85-37.46,0.04c-2.91,0.21-3.64-0.47-3.19-3.45
	c9.17-60.52,18.26-121.05,27.31-181.58c0.32-2.16,0.61-3.64,3.36-3.9c35.38-3.38,70.16-1.17,103.82,11.2
	c18.35,6.74,35.09,16.26,49.75,29.33c2.42,2.16,3.51,4.38,3.49,7.72c-0.13,33.49-0.08,66.98-0.08,100.47
	C214.18,196.6,214.17,196.6,214.17,196.6z"/>
<path class="st0" d="M226.01,276.67c-1.12-1.41-0.71-2.56-0.71-3.62c-0.02-62.34-0.01-124.68-0.06-187.02c0-2.72,0.6-5.1,1.88-7.49
	c11.25-21.03,25.21-39.89,43.98-54.88C288.25,9.98,307.57,1.7,329.6,0.04c2.83-0.21,3.86,0.34,4.24,3.35
	c5.65,45.88,9.45,91.94,13.45,137.98c1.34,15.43,2.48,30.88,3.79,46.31c0.21,2.43-0.16,3.5-3.04,3.53
	c-32.5,0.34-60.18,12.72-84.11,34.18c-13.83,12.41-24.4,27.34-33.31,43.54C229.22,271.51,227.63,273.97,226.01,276.67z"/>
<path class="st0" d="M367.7,172.86c-3.16-39.21-6.53-78.41-10.37-117.56c-0.23-2.38,0.48-3.08,2.72-3.18
	c5.24-0.24,10.49-0.48,15.69-1.09c2.8-0.33,3.63,0.66,4.17,3.21c3.84,18.1,6.34,36.41,8.52,54.77
	c4.79,40.31,8.39,80.74,11.71,121.19c0.28,3.42-1.05,3.6-3.71,3.6c-37.78-0.02-74.66,5.58-110.35,18.15
	c-21.03,7.41-40.5,17.64-57.06,32.89c-0.92,0.85-2.07,2.64-3.33,1.66c-1.08-0.85-0.71-2.91-0.1-4.22c0.94-2.02,2.22-3.9,3.47-5.76
	c23.1-34.54,53.76-59.07,94.01-70.84c14.02-4.1,28.32-6.08,42.94-4.97c3.28,0.25,4.02-0.87,3.7-3.95
	C368.91,188.8,368.36,180.83,367.7,172.86z"/>
<path class="st0" d="M227.89,297.77c13.33-17.44,31.19-27.71,51.22-34.65c29.57-10.25,60.23-12.74,91.26-12.36
	c13,0.16,25.98,0.84,38.85,2.78c2.98,0.45,3.7-0.19,3.42-3.16c-2.21-23.76-4.19-47.53-6.45-71.28c-2.49-26.24-5.11-52.46-8.39-78.62
	c-0.27-2.15,0.08-3.06,2.46-3.46c10.79-1.8,10.63-1.86,12.37,8.84c9.79,60.47,15.82,121.37,20.7,182.39
	c0.47,5.85,1.06,5.58-4.7,4.01c-39.22-10.7-79.02-17.42-119.82-16.86c-17.31,0.24-34.4,2.2-50.93,7.71
	c-9.55,3.19-18.5,7.52-26.42,13.82C230.5,297.7,229.62,298.78,227.89,297.77z"/>
</svg>
