<?xml version="1.0" encoding="utf-8"?>
<!-- Generator: Adobe Illustrator 26.2.1, SVG Export Plug-In . SVG Version: 6.00 Build 0)  -->
<svg version="1.1" id="Layer_1" xmlns="http://www.w3.org/2000/svg" xmlns:xlink="http://www.w3.org/1999/xlink" x="0px" y="0px"
	 viewBox="0 0 383.9 383.4" style="enable-background:new 0 0 383.9 383.4;" xml:space="preserve">
<style type="text/css">
	.st0{fill:#A91101;}
</style>
<path class="st0" d="M0,211.5c0-52.6,0-105.3,0-157.9c0-8.8,1.9-11.2,10.3-14.1C48.1,26.7,85.8,14,123.6,1.2c2.9-1,5.5-1.2,8.6-0.1
	c39.9,14.1,79.9,28,119.8,42.1c2.9,1,5.2,0.9,8-0.2C295.7,29,331.5,15.2,367.2,1.4c10.1-3.9,16.7,0.5,16.7,11.5
	c0,105.8,0,211.6,0,317.4c0,8-2,10.8-9.8,13.5c-38.2,12.9-76.4,25.8-114.6,38.8c-2.5,0.9-4.7,0.7-7.2-0.1
	c-40.1-14.1-80.2-28.1-120.3-42.2c-2.9-1-5.2-0.9-8,0.2C88.9,354,53.7,367.6,18.6,381.2c-1.4,0.5-2.8,1.1-4.2,1.5
	c-7.7,2.4-14.2-2.2-14.3-10.3c-0.2-13.3,0-26.6,0-40C0,292.1,0,251.8,0,211.5z M234.4,330.8c0.2-0.9,0.3-1.1,0.3-1.2
	c0-81.3,0-162.5,0.1-243.8c0-3-1.3-4-3.7-4.8c-25.9-9-51.7-18-77.5-27.2c-3.4-1.2-4.5-1-4.4,3c0.2,13.2,0.1,26.3,0.1,39.5
	c0,66.6,0,133.2-0.1,199.8c0,3.8,1.1,5.5,4.7,6.6c11,3.6,21.9,7.6,32.9,11.4C202.5,319.6,218.3,325.1,234.4,330.8z M341.1,57.4
	c-19.8,7.6-38.9,15.2-58.2,22.3c-4.4,1.6-5.9,3.6-5.9,8.4c0.2,78.9,0.1,157.9,0.1,236.8c0,6.5,0,6.5,6.4,4.4
	c17.5-5.9,34.9-11.9,52.4-17.6c3.9-1.3,5.3-2.9,5.3-7.2c-0.1-80.4-0.1-160.9-0.1-241.3C341.1,61.5,341.1,59.9,341.1,57.4z
	 M42.8,325.7c1.2-0.3,2-0.3,2.8-0.6c19.3-7.5,38.7-15,58.1-22.4c2.7-1,3.2-2.5,3.2-5.2c-0.1-80.4-0.1-160.9,0-241.3
	c0-4.3-1.3-4-4.6-2.9c-18.2,6.2-36.4,12.4-54.8,18.3c-3.9,1.2-4.9,3.1-4.9,7c0.1,80.6,0.1,161.2,0.1,241.8
	C42.8,322.2,42.8,323.8,42.8,325.7z"/>
<path class="st0" d="M95.1,187.5c0,14.9-0.1,29,0.1,43.1c0,2.4-1.1,3.1-3,3.8c-11.3,3.9-22.5,7.9-33.7,11.9c-3,1.1-3.6,0.4-3.6-2.7
	c0.1-13,0.1-25.9,0-38.9c0-2.1,0.5-3.3,2.6-4.1C69.8,196.4,82.2,192,95.1,187.5z"/>
<path class="st0" d="M54.9,130.2c0-15.1,0-29.4,0-43.9c0-1.3,0.3-2.1,1.7-2.6c12.5-4.4,24.9-8.9,37.9-13.5c0,15,0,29.4,0,43.8
	c0,1.3-0.4,2.2-1.7,2.6C80.4,121,67.9,125.5,54.9,130.2z"/>
<path class="st0" d="M95.1,246.1c0,14.9,0,29,0,43.1c0,1.9-0.5,2.9-2.5,3.6c-11.6,4-23.1,8.1-34.7,12.3c-2.5,0.9-3.1,0.4-3.1-2.2
	c0.1-13.3,0-26.6,0-39.9c0-1.5,0-2.8,2-3.4C69.4,255.2,81.8,250.8,95.1,246.1z"/>
<path class="st0" d="M54.9,188.8c0-14.9,0-29.4,0-43.8c0-2.1,1.2-2.4,2.6-2.9c11.4-4.1,22.8-8.1,34.2-12.2c2.5-0.9,3.4-0.6,3.4,2.4
	c-0.1,13.1-0.1,26.3,0,39.4c0,1.8-0.2,3.1-2.2,3.8C80.4,179.8,67.9,184.2,54.9,188.8z"/>
</svg>
