<?xml version="1.0" encoding="utf-8"?>
<!-- Generator: Adobe Illustrator 26.2.1, SVG Export Plug-In . SVG Version: 6.00 Build 0)  -->
<svg version="1.1" id="Layer_1_xA0_Image_00000010294087016236548290000013428414167619072143_"
	 xmlns="http://www.w3.org/2000/svg" xmlns:xlink="http://www.w3.org/1999/xlink" x="0px" y="0px" viewBox="0 0 401 346"
	 style="enable-background:new 0 0 401 346;" xml:space="preserve">
<style type="text/css">
	.st0{fill:#FFE4CE;}
</style>
<path class="st0" d="M400.69,91.99c0,1.66,0,3.33,0,4.99c-1.48,2.44-3.44,4.36-5.98,5.69c-9.16,3.74-18.24,7.66-27.01,12.24
	c-3.22,0.82-6.18,2.21-8.97,3.99c-9.18,3.62-18.17,7.68-26.97,12.13c-3.26,1.41-6.52,2.82-9.79,4.23
	c-9.09,4.16-18.18,8.31-27.27,12.47c-3.14,0.92-6.14,2.16-8.89,3.95c-9.17,3.7-18.23,7.65-27.01,12.21c-3.21,0.85-6.19,2.22-8.98,4
	c-9.18,3.62-18.15,7.7-26.97,12.12c-3.28,1.42-6.56,2.84-9.84,4.27c-5.58,1.75-10.52,6.63-17.1,3.45c-1.14-1.07-2.5-1.65-4.04-1.84
	c-3.28-1.52-6.56-3.04-9.84-4.56c-1.34-0.57-2.68-1.15-4.03-1.72c-2.74-1.66-5.63-3.01-8.72-3.88c-1.25-1.08-2.69-1.74-4.34-1.94
	c-3.49-2.07-7.13-3.79-11.03-4.93c-1.12-1.11-2.49-1.67-4.03-1.89c-2.84-1.69-5.8-3.1-8.99-4.01c-1.14-1.03-2.51-1.58-4-1.88
	c-3.19-1.71-6.4-3.38-9.92-4.36c-0.51-0.94-1.47-0.91-2.34-1.08c-3.38-1.95-6.87-3.62-10.62-4.75c-1.43-1.25-3.17-1.82-4.95-2.3
	c-3.39-1.51-6.78-3.02-10.16-4.53c-0.8-0.81-1.75-1.26-2.9-1.27c-3.5-2.05-7.13-3.8-11.04-4.94c-1.12-1.11-2.49-1.68-4.03-1.88
	c-2.84-1.69-5.79-3.13-8.99-4.01c-1.13-1.07-2.5-1.61-4-1.89c-3.16-1.76-6.4-3.35-9.9-4.38c-0.51-0.9-1.46-0.87-2.3-1.05
	c-3.39-1.94-6.88-3.64-10.64-4.75c-1.42-1.28-3.21-1.78-4.97-2.34c-3.38-1.49-6.77-2.99-10.15-4.48c-0.78-0.85-1.77-1.24-2.91-1.29
	c-3.5-2.06-7.14-3.78-11.04-4.93c-1.12-1.1-2.49-1.68-4.04-1.87c-1.59-0.82-3.14-1.74-4.79-2.43c-3.6-1.52-6.21-3.8-6.18-8.03
	c0.03-4.2,2.64-6.4,6.24-7.98c4.64-2.04,9.16-4.33,13.73-6.51c3.21-0.86,6.19-2.21,8.98-3.99c9.19-3.61,18.16-7.69,26.97-12.12
	c3.28-1.42,6.56-2.84,9.84-4.26c9.07-4.15,18.13-8.3,27.2-12.45c3.17-0.89,6.16-2.16,8.91-3.97c9.17-3.67,18.22-7.63,26.99-12.18
	c3.21-0.86,6.19-2.23,8.99-4c9.18-3.62,18.16-7.69,26.97-12.13c0.79-0.34,1.58-0.68,2.38-1.02c0,0,0.41,0.01,0.41,0.01l0.3-0.27
	c9.7-4.37,19.8-7.87,28.89-13.54c1.67,0,3.33,0,5,0c5.1,2.86,10.44,5.17,15.93,7.14c2.73,1.78,5.67,3.08,8.8,3.96
	c1.21,1.09,2.63,1.7,4.24,1.91c3.48,2.07,7.13,3.77,11.01,4.94c1.12,1.08,2.49,1.62,4,1.89c3.17,1.76,6.41,3.37,9.91,4.37
	c1.03,0.51,2.06,1.02,3.08,1.53c3.24,1.62,6.4,3.41,9.95,4.31c1.12,1.09,2.5,1.65,4.03,1.87c3.28,1.51,6.57,3.01,9.85,4.52
	c0.69,0.28,1.38,0.57,2.07,0.85c3.42,1.97,6.97,3.66,10.77,4.8c1.22,1.1,2.65,1.72,4.27,1.92c3.47,2.09,7.13,3.77,11.02,4.94
	c0.67,1.01,1.79,1.1,2.82,1.38c3.69,1.64,7.38,3.28,11.07,4.92c1.03,0.5,2.07,0.99,3.1,1.49c3.21,1.67,6.41,3.39,9.94,4.32
	c1.13,1.08,2.5,1.66,4.04,1.85c3.28,1.52,6.56,3.03,9.84,4.55c0.66,0.26,1.31,0.53,1.97,0.79c3.44,1.98,7,3.67,10.8,4.82
	c1.24,1.09,2.68,1.73,4.32,1.92c3.47,2.09,7.13,3.78,11.02,4.94c1.11,1.11,2.48,1.66,4.01,1.89c2.84,1.69,5.81,3.1,9,4.02
	C396.54,87.39,398.99,89.25,400.69,91.99z"/>
<path class="st0" d="M202.86,345.69c-1.67,0-3.33,0-5,0c-5.17-3.7-11.14-5.71-16.98-7.99c-3.46-2.1-7.13-3.76-11-4.96
	c-1.13-1.07-2.5-1.62-4-1.9c-3.18-1.74-6.4-3.37-9.91-4.35c-1.03-0.51-2.05-1.03-3.08-1.54c-3.24-1.61-6.41-3.4-9.95-4.31
	c-1.12-1.09-2.5-1.65-4.02-1.87c-3.28-1.5-6.57-2.99-9.85-4.49c-0.7-0.29-1.39-0.59-2.09-0.88c-3.42-1.96-6.96-3.66-10.75-4.79
	c-1.21-1.1-2.64-1.71-4.26-1.91c-3.47-2.09-7.12-3.78-11.01-4.94c-0.69-0.99-1.78-1.12-2.83-1.37c-3.54-1.97-7.2-3.69-11.07-4.92
	c-1.03-0.5-2.06-1-3.1-1.5c-3.22-1.65-6.4-3.4-9.94-4.32c-1.13-1.09-2.5-1.66-4.04-1.86c-3.28-1.51-6.56-3.03-9.85-4.54
	c-0.67-0.27-1.34-0.54-2.01-0.81c-3.43-1.98-6.99-3.66-10.79-4.81c-1.23-1.09-2.67-1.72-4.3-1.92c-3.47-2.09-7.13-3.77-11.02-4.94
	c-1.11-1.11-2.48-1.66-4.01-1.89c-3.3-1.48-6.59-2.96-9.89-4.44c-1.04-0.49-2.07-0.97-3.11-1.46c-4.18-2.67-9.42-3.43-12.96-7.23
	c-2.09-6.75-0.83-9.63,5.49-12.57c6.52-3.03,13.04-6.06,19.56-9.1c3.13-0.92,6.09-2.21,8.86-3.93c5.3-2.32,10.56-4.75,15.94-6.89
	c2.2-0.87,4.16-2.99,6.92-1.87c1.34,0.57,2.69,1.15,4.03,1.72c2.74,1.67,5.63,3.02,8.73,3.89c1.24,1.09,2.69,1.73,4.33,1.93
	c3.48,2.07,7.13,3.79,11.03,4.94c1.11,1.11,2.49,1.66,4.01,1.89c2.85,1.68,5.81,3.1,9,4.01c1.14,1.04,2.51,1.58,3.99,1.89
	c3.19,1.71,6.4,3.37,9.92,4.36c0.51,0.94,1.48,0.91,2.34,1.08c3.37,1.95,6.87,3.62,10.61,4.75c1.42,1.26,3.17,1.81,4.95,2.31
	c3.38,1.51,6.76,3.01,10.13,4.52c0.81,0.79,1.77,1.27,2.93,1.28c3.5,2.05,7.13,3.79,11.04,4.94c1.12,1.11,2.49,1.67,4.03,1.88
	c2.85,1.66,5.76,3.19,8.99,4.01c1.13,1.07,2.5,1.61,4,1.88c3.3,1.47,6.59,2.93,9.89,4.4c1.18,0.99,2.5,1.67,4.06,1.8
	c3.4,2.07,6.91,3.8,11.02,3.81c1.66,0.51,3.32,0.62,5,0.09c9.27-0.93,16.88-6.08,25.05-9.82c3.16-0.89,6.15-2.16,8.91-3.97
	c9.18-3.67,18.21-7.64,27-12.18c3.21-0.86,6.19-2.24,8.99-4c9.18-3.62,18.14-7.71,26.97-12.12c3.29-1.44,6.59-2.87,9.88-4.31
	c9.05-4.14,18.09-8.28,27.14-12.42c2.65-1.05,5.3-2.1,7.95-3.15c3.3,1.43,6.59,2.86,9.89,4.29c0.51,0.9,1.45,0.87,2.3,1.05
	c3.39,1.94,6.88,3.64,10.65,4.75c1.42,1.29,3.21,1.78,4.97,2.36c3.39,1.49,6.77,2.98,10.16,4.47c0.77,0.87,1.77,1.23,2.9,1.31
	c4.89,3.47,11.89,3.69,15.09,9.77c0,1.66,0,3.33,0,4.99c-1.78,2.86-4.26,4.71-7.39,6.05c-6.6,2.83-13.06,6.01-19.58,9.04
	c-3.28,1.42-6.55,2.84-9.83,4.25c-9.07,4.15-18.14,8.3-27.21,12.46c-3.16,0.89-6.16,2.15-8.92,3.97
	c-9.17,3.67-18.22,7.62-26.99,12.18c-3.22,0.85-6.19,2.23-8.99,4c-9.56,3.78-18.91,8.05-28.12,12.62c-2.62,1.16-5.24,2.32-7.86,3.48
	C238.16,329.8,220.51,337.75,202.86,345.69z"/>
<path class="st0" d="M400.69,169.9c0,2,0,4,0,5.99c-1.32,0.53-1.51,1.93-2.24,2.91c-0.29,0.24-0.59,0.47-0.88,0.71
	c-8.95,4.12-17.9,8.25-26.85,12.37c-3.4,0.9-6.5,2.51-9.58,4.16c-8.79,3.99-17.59,7.97-26.38,11.96c-3.3,1.44-6.6,2.89-9.9,4.33
	c-9.04,4.14-18.08,8.27-27.12,12.41c-3.2,0.84-6.17,2.19-8.94,3.99c-9.19,3.62-18.19,7.66-26.98,12.15
	c-3.22,1.39-6.45,2.78-9.67,4.17c-9.13,4.17-18.27,8.33-27.4,12.5c-3.12,0.92-6.06,2.22-8.84,3.9c-1.96,0.8-3.96,1.54-5.89,2.41
	c-4.16,1.88-8.17,4.38-13.05,2.66c-0.51-0.89-1.44-0.86-2.27-1.04c-3.39-1.94-6.89-3.64-10.65-4.76c-1.42-1.29-3.22-1.78-4.97-2.35
	c-3.4-1.49-6.79-2.99-10.19-4.48c-0.76-0.86-1.76-1.22-2.88-1.29c-3.5-2.05-7.15-3.77-11.05-4.93c-1.02-0.53-2.04-1.05-3.06-1.58
	c-3.32-1.43-6.64-2.87-9.96-4.3c-1.13-1.07-2.5-1.62-4.01-1.88c-3.29-1.48-6.58-2.95-9.87-4.43c-0.73-0.33-1.46-0.65-2.19-0.98
	c-3.41-1.94-6.92-3.65-10.7-4.77c-1.2-1.08-2.61-1.68-4.2-1.9c-3.48-2.07-7.14-3.73-11.01-4.94c-1.13-1.06-2.5-1.6-3.99-1.9
	c-3.19-1.71-6.41-3.38-9.92-4.35c-1.02-0.52-2.05-1.03-3.07-1.55c-3.32-1.43-6.64-2.87-9.95-4.3c-1.12-1.1-2.5-1.64-4.02-1.88
	c-3.28-1.49-6.57-2.98-9.85-4.47c-0.71-0.3-1.42-0.61-2.13-0.91c-4-1.81-7.99-3.63-11.99-5.44c-0.91-0.62-1.78-1.34-2.99-1.24
	c-3.47-2.09-7.13-3.77-11.01-4.95c-0.7-0.97-1.78-1.14-2.84-1.35c-3.54-1.99-7.19-3.7-11.07-4.93c-1.03-0.51-2.06-1.01-3.09-1.52
	c-3.29-1.51-6.58-3.02-9.86-4.54c-0.6-0.59-1.19-1.18-1.79-1.78c-2.58-6.93-1.36-9.91,5.25-12.99c5.5-2.56,10.96-5.18,16.45-7.78
	c3.19-0.88,6.2-2.19,8.98-4c1.67-0.66,3.34-1.31,5.01-1.97c6.71-2.65,12.93-6.45,19.93-8.42c1.29,0.55,2.57,1.11,3.86,1.66
	c3.39,1.51,6.78,3.02,10.17,4.52c0.79,0.82,1.75,1.25,2.89,1.27c3.5,2.06,7.14,3.79,11.04,4.94c1.12,1.11,2.49,1.68,4.03,1.88
	c2.82,1.72,5.79,3.12,8.98,4.02c1.13,1.06,2.5,1.61,4.01,1.88c3.29,1.47,6.59,2.94,9.88,4.41c0.51,0.87,1.43,0.84,2.25,1.01
	c3.4,1.94,6.9,3.64,10.67,4.76c1.19,1.09,2.6,1.68,4.18,1.9c3.48,2.06,7.14,3.72,11,4.94c0.75,0.89,1.76,1.2,2.86,1.31
	c3.51,2.03,7.16,3.77,11.06,4.93c1.02,0.52,2.04,1.04,3.06,1.57c3.32,1.43,6.64,2.87,9.96,4.3c1.13,1.08,2.5,1.63,4.02,1.88
	c3.29,1.49,6.57,2.98,9.86,4.46c0.71,0.31,1.42,0.62,2.13,0.93c3.86,1.91,7.49,4.37,11.97,4.72c1.56,1.06,3.28,0.96,5.02,0.74
	c9.04-0.03,16.24-5.13,23.99-8.72c3.21-0.83,6.18-2.21,8.97-3.99c9.18-3.62,18.17-7.68,26.98-12.13c3.25-1.4,6.51-2.81,9.76-4.21
	c9.1-4.16,18.2-8.33,27.29-12.49c3.14-0.91,6.14-2.16,8.89-3.96c9.17-3.7,18.23-7.64,27-12.2c3.21-0.85,6.19-2.23,8.99-4
	c4.19-0.75,7.08,2.74,10.86,3.34c0.73,0.32,1.45,0.65,2.18,0.97c3.42,1.94,6.93,3.66,10.72,4.77c1.2,1.09,2.62,1.7,4.22,1.9
	c3.47,2.08,7.13,3.76,11,4.95c0.71,0.95,1.77,1.15,2.84,1.35C389.79,163.7,396.76,164.26,400.69,169.9z"/>
</svg>
