<?xml version="1.0" encoding="utf-8"?>
<!-- Generator: Adobe Illustrator 26.2.1, SVG Export Plug-In . SVG Version: 6.00 Build 0)  -->
<svg version="1.1" id="Layer_1" xmlns="http://www.w3.org/2000/svg" xmlns:xlink="http://www.w3.org/1999/xlink" x="0px" y="0px"
	 viewBox="0 0 415.15 453.68" style="enable-background:new 0 0 415.15 453.68;" xml:space="preserve">
<style type="text/css">
	.st0{fill:#A91916;}
	.st1{fill:#FDFDFD;}
</style>
<g>
	<g>
		<g>
			<path class="st0" d="M414.84,252.67c-6.92-26.02-18.98-48.96-39.66-66.76c-2.41-2.08-3.06-4.1-2.81-7.3
				c1.28-15.92,3.23-31.82,1.8-47.86c-0.81-9.14-0.67-8.95-9.68-6.58c-4.18,1.1-4.81,2.62-1.94,5.67c2.6,2.76,1.79,4.3-1.23,6.38
				c-11.94,8.2-24.76,14.25-38.89,17.5c-9.59,2.21-19.32,2.85-29.75,2.41c1.7,3.71,2.92,6.94,4.61,9.9
				c1.67,2.91,0.78,4.05-2.03,5.43c-17.25,8.47-35.4,12.5-54.59,11.4c-4.15-0.24-4.69,0.71-2.55,4.13c3.13,5,4.55,10.66,5.99,16.32
				c0.6,2.34-0.01,3.19-2.29,3.83c-13.74,3.85-27.64,5.97-41.94,4.29c-3.74-0.44-7.47-0.88-11.88-1.4
				c3.12,5.72,4.84,11.24,6.33,16.87c0.72,2.74,0.3,3.75-2.49,4.54c-16.43,4.66-33.01,6.1-49.89,3.09c-1.68-0.3-3.38-0.97-5.4-0.08
				c2.41,5.27,4.72,10.21,5.66,15.69c1.43,8.33,1.59,8.65-6.78,9.42c-31.51,2.91-59.8-4.37-83.07-26.96
				c-0.78-0.76-1.38-2.01-2.89-1.14c1.04,2.94,2.05,5.86,3.11,8.77c14.04,38.18,33.86,73.33,56.12,107.19
				c1.66,2.53,1.87,4.38,0.42,7.14c-10.51,20.03-20.69,40.23-31.28,60.23c-2.04,3.85-1.72,5.3,2.31,7.28
				c34.41,16.97,70.65,27.34,108.88,30.56c17.62,1.49,35.26,1.31,52.9-0.13c3.16-0.26,4.28-1.29,4.04-4.49
				c-0.39-5.17,0.43-10.3,1.45-15.36c3.89-19.23,14.45-34.84,26.8-49.49c1.32-1.56,3.11-2.85,3.68-5.5
				c-2.79-0.24-5.25-0.46-7.7-0.65c-17.27-1.36-34.47-3.21-51.18-8.05c-26.69-7.73-47.28-22.55-57.18-49.64
				c-3.01-8.24-2.99-8.25,5.64-10.46c1.77-0.45,3.63-0.7,5.3-1.39c3.23-1.34,4.3,0.16,5.14,3.05c4.53,15.56,14.36,26.76,28.61,34.23
				c7.11,3.73,14.64,6.33,22.42,8.25c16.56,4.09,33.52,5.07,50.43,6.52c25.4,2.18,50.82,3.28,76.3,2.24
				c4.98-0.2,9.96-0.63,14.86-1.76c5.56-1.28,9.46-4.26,11.84-9.64c4.63-10.43,6.27-21.33,5.99-32.6
				c-0.41-16.46-4.45-32.25-8.91-47.96c-2.41-8.5-2.47-8.48,6.62-8.75c8.68-0.25,17.23-1.41,25.71-3.31
				C414.87,257.08,415.69,255.89,414.84,252.67z"/>
		</g>
	</g>
	<g>
		<g>
			<path class="st0" d="M279.04,14.12C245.69-3.31,211.61-4.32,176.85,9.54c-35.38,14.11-63.84,37.38-87.74,66.57
				c-10.12,12.36-19.39,25.35-26.21,39.91c0.21,0.21,0.41,0.43,0.61,0.65c5.36-3.92,5.39-3.94,9.31,1.76
				c1.9,2.76,3.66,5.63,5.6,8.63c14.06-24.89,23.65-35.09,43.56-47.53c3.69-2.31,5.07-1.59,7.09,1.84c3,5.1,5.62,10.34,7.33,15.96
				c1.84-0.47,2.16-1.7,2.78-2.63c11.83-17.82,27.58-30.91,47.14-39.58c3.38-1.5,5.1-1.26,6.21,2.33c1.16,3.73,2.43,4.84,5.49,0.95
				c11.07-14.01,25.31-23.9,41.55-31.1c2.36-1.05,3.49-0.79,4.45,1.63c1.79,4.52,3.81,8.96,5.93,13.89
				c9.15-11.08,19.64-19.92,32.12-27C280.71,15.06,279.89,14.56,279.04,14.12z"/>
		</g>
	</g>
	<g>
		<g>
			<path class="st0" d="M180.98,82.83c-0.1-4.05-1.69-3.44-4.12-1.62c-13.56,10.21-24.01,22.88-30.49,38.65
				c-2.09,5.09-3.45,10.42-3.32,15.99c0.2,8.73,4.33,12.05,12.95,11.83c9.48-0.24,14.4-5.82,17.83-13.56
				c5.54-12.52,7.31-25.8,7.79-39.36C181.4,90.79,181.08,86.82,180.98,82.83z"/>
		</g>
	</g>
	<g>
		<g>
			<path class="st0" d="M289.37,32.61c-13.48,8.21-24.55,18.8-32.57,32.45c-2.97,5.05-5.29,10.37-6.03,16.26
				c-1.36,10.84,2.14,14.85,13.49,14.83c9.01,0.74,13.72-5.61,17.55-12.64c8.22-15.08,11.26-31.51,12.02-48.5
				C294.02,30.67,292.56,30.66,289.37,32.61z"/>
		</g>
	</g>
	<g>
		<g>
			<path class="st0" d="M119.4,103.93c-12.8,9.08-25.58,29.05-29.51,45.41c-1.34,5.56-1.91,11.14-0.87,16.8
				c1.22,6.65,4.8,9.38,11.51,8.95c8.44-0.54,14.48-4.4,17.36-12.58C124.63,143.38,123.75,124.09,119.4,103.93z"/>
		</g>
	</g>
	<g>
		<g>
			<path class="st0" d="M361.07,20.44c-18.76,5.69-35.1,15.07-46.92,31.15c-3.07,4.18-5.37,8.81-5.52,15.29
				c-0.13,2.23,1.22,4.89,4.1,6.38c9.21,4.75,15.45,5.33,22.61-0.88c15.15-13.13,23.09-30.54,28.51-49.34
				C364.59,20.5,363.6,19.67,361.07,20.44z"/>
		</g>
	</g>
	<g>
		<g>
			<path class="st0" d="M233.03,55.47c-0.2-3.35-1.13-3.62-3.75-1.7c-10.34,7.58-18.71,16.9-25.38,27.83
				c-2.92,4.77-4.8,9.63-4.64,15.44c0.14,5.28-0.72,10.6-1.25,15.89c-0.52,5.22,0.73,6.78,6.12,7.3
				c10.76,1.03,16.82-2.47,21.6-12.96c5.4-11.84,7.22-24.47,7.7-36.86C233.86,65.08,233.32,60.28,233.03,55.47z"/>
		</g>
	</g>
	<g>
		<g>
			<path class="st0" d="M334.22,126.11c-12.49-8.83-26.02-15.33-40.93-18.91c-4.04-0.97-7.56-0.98-11.06,2.04
				c-3.44,2.96-7.96,4.23-12.47,4.58c-2.78,0.22-4.13,1.53-5.2,3.8c-2.6,5.52-1.36,9.68,4.48,13.52c8.85,5.82,18.91,6.87,28.96,7.02
				c12.47-0.13,24.26-2.59,35.68-7.08C337.6,129.55,337.31,128.3,334.22,126.11z"/>
		</g>
	</g>
	<g>
		<g>
			<path class="st0" d="M231.96,132.26c-1.05-0.43-2.23-0.93-3.34-0.13c-7.27,5.25-15.54,6.4-24.19,5.93
				c-2.09-0.12-3.01,0.97-3.6,2.67c-0.66,1.88-1.72,4,0.26,5.51c9.36,7.13,17.24,16.24,30.46,17.43c13.73,1.24,27.09,1.4,41.36-2.77
				C260.7,147.96,247.43,138.54,231.96,132.26z"/>
		</g>
	</g>
	<g>
		<g>
			<path class="st0" d="M218.92,190.21c-9.39-13.58-20.8-25.02-35.07-33.49c-1.91-1.14-3.21-0.93-4.79,0.55
				c-6.45,6-14.32,8.35-22.92,8c-4.85-0.2-4.55,1.78-2.67,4.77c3.91,6.22,9.57,10.59,15.96,13.93c12.76,6.67,26.52,9.44,42.2,9.86
				c0.95-0.07,3.27-0.28,5.59-0.37C219.77,193.36,220.55,192.57,218.92,190.21z"/>
		</g>
	</g>
	<g>
		<g>
			<path class="st0" d="M169.12,214.17c-9.76-13.96-21.52-25.76-36.51-34.11c-1.44-0.8-2.85-1.82-4.35,0.1
				c-5.62,7.24-13.21,10.94-22.16,12.1c-3.05,0.4-2.47,1.93-1.2,3.73c3.03,4.29,7,7.56,11.46,10.23
				c13.65,8.16,28.67,11.21,44.34,11.53c2.16,0,4.33,0.05,6.49-0.01C169.78,217.65,171,216.86,169.12,214.17z"/>
		</g>
	</g>
	<g>
		<g>
			<path class="st0" d="M64.13,141.59c-8.31,7.85-16.49,23.97-19.23,37.02c-1.41,6.74-2.13,13.5-0.06,20.22
				c1.8,5.82,4.36,6.97,10.12,5.58c6.02-1.45,9.46-5.21,11.04-10.95C70.76,176.21,68.49,159.25,64.13,141.59z"/>
		</g>
	</g>
	<g>
		<g>
			<path class="st0" d="M385.42,90.76c-9.43-4.73-19.49-7.5-29.77-9.64c-2.58-0.53-3.99,0.89-5.59,2.39
				c-6.48,6.03-13.9,10.16-22.84,11.29c-4.13,0.52-8.1-0.96-12.37-0.45c9.37,4.79,18.7,9.42,27.37,15.28
				c0.61,0.41,1.62,0.45,2.4,0.34c15.68-2.27,30.03-7.78,43.15-17.56C386.71,91.67,386.12,91.11,385.42,90.76z"/>
		</g>
	</g>
	<g>
		<g>
			<path class="st0" d="M118.44,239.75c-8.5-13.37-18.79-24.97-32.73-32.97c-2.95-1.69-5.04-2.51-7.01,1.58
				c-2.11,4.39-5.76,7.82-10.28,9.86c-3.33,1.51-2.29,2.8-0.38,4.57c3.07,2.85,6.45,5.24,10.08,7.31
				c12.61,7.16,26.17,10.96,41.06,11.99C118.82,240.93,118.76,240.26,118.44,239.75z"/>
		</g>
	</g>
	<g>
		<g>
			<path class="st0" d="M43.5,221.32c-3.77-1.04-7.08-2.96-9.62-5.91c-1.59-1.85-2.81-0.97-4.25-0.04
				c-6.28,4.04-12.65,7.96-18.85,12.13c-3.82,2.57-10.45,4.22-10.77,7.9c-0.33,3.84,4.5,8.02,6.8,12.21
				c1.37,2.49,2.6,2.16,4.61,0.85c11-7.14,22.07-14.17,33.11-21.26c0.92-0.59,2.22-0.89,2.19-2.22
				C46.17,223.14,45.32,221.82,43.5,221.32z"/>
		</g>
	</g>
	<g>
		<g>
			<path class="st1" d="M62.9,116.03c-0.2,0.19-0.41,0.38-0.61,0.58c0.41,0.03,0.81,0.05,1.22,0.08
				C63.31,116.45,63.11,116.24,62.9,116.03z"/>
		</g>
	</g>
</g>
</svg>
