<?xml version="1.0" encoding="utf-8"?>
<!-- Generator: Adobe Illustrator 26.2.1, SVG Export Plug-In . SVG Version: 6.00 Build 0)  -->
<svg version="1.1" id="Layer_1" xmlns="http://www.w3.org/2000/svg" xmlns:xlink="http://www.w3.org/1999/xlink" x="0px" y="0px"
	 viewBox="0 0 160.3 119.8" style="enable-background:new 0 0 160.3 119.8;" xml:space="preserve">
<style type="text/css">
	.st0{fill:#FFE4CE;}
</style>
<path class="st0" d="M4.6,74.9c-7.2-11.8-5.7-19.2,6-27.3c12.2-8.4,26.2-12,40.5-14.4c9.6-1.6,19.3-2.4,29.2-2.1
	C78,40,74.5,42.9,66,42.9c-8.6,0-17.3,0.1-25.9,0c-3.6,0-6.4,0.9-7.2,4.6c-0.8,3.5,1.3,5.5,4.2,7c10.8,5.5,21.5,11.1,32.3,16.6
	c0.9,0.5,1.9,1.1,2.8,1.6c8.4,4.4,16.7,9,25.1,13.2c5.2,2.7,9.2,0.1,9.2-5.9c0.1-14.3,0.1-28.6-0.1-42.9c-0.1-3.7,0.8-4.5,4.5-3.7
	c11.4,2.3,22.7,5.2,33,10.8c4.7,2.5,9.1,5.5,12.4,9.9c4.7,6.2,4.8,12.6,0,18.8c-4.5,5.8-10.7,9.3-17.3,12.3
	c-14.4,6.5-29.8,9.3-45.4,10.4c-24.1,1.6-47.8-0.5-70.6-9.4c-5.9-2.3-10.9-6.2-16.5-9C6.7,75.9,5.2,75.8,4.6,74.9z"/>
<path class="st0" d="M0.5,90.2c-0.9-3.6-0.3-7.2-0.4-11.9C12.9,90.2,28,95.5,43.9,98.5c30.6,5.8,60.9,5.1,90.6-5.1
	c4.5-1.6,9-3.3,13-6.2c1.2-0.1,2-0.8,2.8-1.6c2.7-2,5.4-4,8.1-5.9c0.6,0,1.2,0,1.9,0c-0.1,0.2-0.2,0.3-0.2,0.5
	c1.6,15.2-7.7,22.7-19.8,28.1c-22.2,10-45.7,12.3-69.7,11.3c-16.2-0.7-32.1-3.3-47.2-9.6c-9.1-3.8-17.9-8.2-22.5-17.9
	C1.3,91.4,1.9,90.5,0.5,90.2z"/>
<path class="st0" d="M40.2,48.4c10.1,0.8,20.2,0.7,30.4,0c6.1-0.4,10.8-3.8,13.2-9.4c5.5-12.8,10.6-25.8,15.8-38.7
	c0.5-0.1,0.9-0.2,1.4-0.3c-0.1,24.6-0.2,49.2-0.2,73.8c0,2.3,0,4.5,0,7.5c-12.8-6.7-25-13.1-37.2-19.4c-7.7-4-15.4-7.8-23-11.8
	C40.4,49.6,40.3,49,40.2,48.4z"/>
</svg>
