<?xml version="1.0" encoding="UTF-8" standalone="no"?>
<!-- Generator: Adobe Illustrator 26.2.1, SVG Export Plug-In . SVG Version: 6.00 Build 0)  -->

<svg
   version="1.1"
   id="Layer_1"
   x="0px"
   y="0px"
   viewBox="0 0 160.3 119.8"
   style="enable-background:new 0 0 160.3 119.8;"
   xml:space="preserve"
   sodipodi:docname="sundial_slider_icon.svg"
   inkscape:version="1.2.1 (9c6d41e410, 2022-07-14)"
   xmlns:inkscape="http://www.inkscape.org/namespaces/inkscape"
   xmlns:sodipodi="http://sodipodi.sourceforge.net/DTD/sodipodi-0.dtd"
   xmlns="http://www.w3.org/2000/svg"
   xmlns:svg="http://www.w3.org/2000/svg"><defs
   id="defs140" /><sodipodi:namedview
   id="namedview138"
   pagecolor="#ffffff"
   bordercolor="#666666"
   borderopacity="1.0"
   inkscape:showpageshadow="2"
   inkscape:pageopacity="0.0"
   inkscape:pagecheckerboard="0"
   inkscape:deskcolor="#d1d1d1"
   showgrid="false"
   inkscape:zoom="10.39232"
   inkscape:cx="71.350765"
   inkscape:cy="59.900002"
   inkscape:window-width="3840"
   inkscape:window-height="2097"
   inkscape:window-x="0"
   inkscape:window-y="41"
   inkscape:window-maximized="1"
   inkscape:current-layer="Layer_1" />
<style
   type="text/css"
   id="style129">
	.st0{fill:#FFE4CE;}
</style>
<path
   class="st0"
   d="M4.6,74.9c-7.2-11.8-5.7-19.2,6-27.3c12.2-8.4,26.2-12,40.5-14.4c9.6-1.6,19.3-2.4,29.2-2.1  C78,40,74.5,42.9,66,42.9c-8.6,0-17.3,0.1-25.9,0c-3.6,0-6.4,0.9-7.2,4.6c-0.8,3.5,1.3,5.5,4.2,7c10.8,5.5,21.5,11.1,32.3,16.6  c0.9,0.5,1.9,1.1,2.8,1.6c8.4,4.4,16.7,9,25.1,13.2c5.2,2.7,9.2,0.1,9.2-5.9c0.1-14.3,0.1-28.6-0.1-42.9c-0.1-3.7,0.8-4.5,4.5-3.7  c11.4,2.3,22.7,5.2,33,10.8c4.7,2.5,9.1,5.5,12.4,9.9c4.7,6.2,4.8,12.6,0,18.8c-4.5,5.8-10.7,9.3-17.3,12.3  c-14.4,6.5-29.8,9.3-45.4,10.4c-24.1,1.6-47.8-0.5-70.6-9.4c-5.9-2.3-10.9-6.2-16.5-9C6.7,75.9,5.2,75.8,4.6,74.9z"
   id="path131"
   style="fill:#554400" /><path
   class="st0"
   d="M 5.7998474,74.451047 C -1.3216981,62.903036 0.16195731,55.661063 11.734469,47.734038 23.801531,39.51342 37.648979,35.990297 51.793159,33.641549 c 9.495394,-1.565832 19.089698,-2.348747 28.88182,-2.055154 -2.274936,8.709941 -5.736797,11.548011 -14.144178,11.548011 -8.50629,0 -17.11149,0.09787 -25.61778,0 -3.560773,0 -6.330262,0.88078 -7.121545,4.501767 -0.791282,3.425257 1.285834,5.382548 4.154235,6.850515 10.682318,5.382548 21.265725,10.862961 31.948042,16.245508 0.890194,0.489322 1.879297,1.076509 2.769489,1.565832 8.30847,4.306039 16.518029,8.807805 24.826499,12.918115 5.143339,2.642341 9.099759,0.09787 9.099759,-5.774006 0.0989,-13.994624 0.0989,-27.989249 -0.099,-41.983872 -0.0989,-3.620987 0.79128,-4.403903 4.45098,-3.620987 11.27578,2.250884 22.45264,5.088955 32.6404,10.569366 4.64881,2.446613 9.00085,5.382549 12.26488,9.688586 4.6488,6.067599 4.7477,12.330928 0,18.398527 -4.45096,5.676142 -10.58339,9.101399 -17.11148,12.037334 C 124.49229,90.892284 109.26011,93.63249 93.83009,94.709 69.992664,96.274832 46.550911,94.219677 23.999351,85.509737 18.163639,83.258853 13.218125,79.442137 7.6791441,76.701931 7.8769647,75.429693 6.3933095,75.331828 5.7998474,74.451047 Z"
   id="path131-1"
   style="fill:#ffcc00;stroke-width:0.98386" />
<path
   class="st0"
   d="M0.5,90.2c-0.9-3.6-0.3-7.2-0.4-11.9C12.9,90.2,28,95.5,43.9,98.5c30.6,5.8,60.9,5.1,90.6-5.1  c4.5-1.6,9-3.3,13-6.2c1.2-0.1,2-0.8,2.8-1.6c2.7-2,5.4-4,8.1-5.9c0.6,0,1.2,0,1.9,0c-0.1,0.2-0.2,0.3-0.2,0.5  c1.6,15.2-7.7,22.7-19.8,28.1c-22.2,10-45.7,12.3-69.7,11.3c-16.2-0.7-32.1-3.3-47.2-9.6c-9.1-3.8-17.9-8.2-22.5-17.9  C1.3,91.4,1.9,90.5,0.5,90.2z"
   id="path133"
   style="fill:#554400" /><path
   class="st0"
   d="M 1.9056408,91.660674 C 1.0206896,88.390444 1.610657,85.120215 1.5123291,80.850749 14.098302,91.660674 28.945814,96.475178 44.579951,99.200369 c 30.088339,5.268701 59.881699,4.632821 89.085079,-4.63283 4.42476,-1.453432 8.84952,-2.997707 12.78264,-5.632056 1.17993,-0.09088 1.96654,-0.726722 2.75317,-1.453433 2.65486,-1.816798 5.30971,-3.633585 7.96457,-5.359541 0.58997,0 1.17994,0 1.86822,0 -0.0983,0.181672 -0.19665,0.272513 -0.19665,0.454196 1.57326,13.807631 -7.57125,20.620605 -19.46893,25.525955 -21.82879,9.08396 -44.935852,11.17328 -68.534549,10.26487 -15.92912,-0.63587 -31.563257,-2.9977 -46.41077,-8.7206 C 15.474892,106.19501 6.8220355,102.19807 2.2989523,93.38663 2.6922635,92.750751 3.2822319,91.933188 1.9056408,91.660674 Z"
   id="path133-0"
   style="fill:#aa8800;stroke-width:0.945097" />
<path
   class="st0"
   d="M40.2,48.4c10.1,0.8,20.2,0.7,30.4,0c6.1-0.4,10.8-3.8,13.2-9.4c5.5-12.8,10.6-25.8,15.8-38.7  c0.5-0.1,0.9-0.2,1.4-0.3c-0.1,24.6-0.2,49.2-0.2,73.8c0,2.3,0,4.5,0,7.5c-12.8-6.7-25-13.1-37.2-19.4c-7.7-4-15.4-7.8-23-11.8  C40.4,49.6,40.3,49,40.2,48.4z"
   id="path135"
   style="fill:#554400" /><path
   class="st0"
   d="m 43.36192,49.392661 c 9.518188,0.768851 19.036377,0.672745 28.648806,0 5.748608,-0.384426 10.177864,-3.652044 12.439612,-9.034003 5.183172,-12.301621 9.989386,-24.795456 14.889836,-37.1931823 0.471193,-0.096107 0.848156,-0.192213 1.319356,-0.2883194 -0.0942,23.6421777 -0.18848,47.2843557 -0.18848,70.9265347 0,2.210446 0,4.324788 0,7.207978 C 88.408396,74.572541 76.911179,68.421731 65.413961,62.367027 58.15752,58.52277 50.901079,54.870727 43.738878,51.02647 43.550399,50.545938 43.456159,49.969299 43.36192,49.392661 Z"
   id="path135-3"
   style="fill:#d4aa00;stroke-width:0.951684" />
<circle
   id="path481"
   style="fill:#ffcc00;stroke:#000000"
   cx="22.982704"
   cy="55.695564"
   r="0" /></svg>
